<svg width="215" height="96" viewBox="0 0 215 96" fill="none" xmlns="http://www.w3.org/2000/svg">
<path d="M170.24 91.0417C168.617 91.0417 166.821 90.0954 164.851 88.203C162.881 86.1844 161.896 84.2289 161.896 82.3365H161.722C161.838 81.8318 161.954 80.6333 162.07 78.7409C162.186 76.8484 162.475 75.8391 162.939 75.713V75.3345C163.055 75.2083 163.345 74.7037 163.808 73.8205C164.272 72.9374 164.735 71.9912 165.199 70.9819C165.778 69.9726 166.126 69.3418 166.242 69.0895C166.589 68.4587 167.516 67.2601 169.023 65.4939C170.529 63.6014 172.094 61.8351 173.716 60.195C175.338 58.5549 176.381 57.7349 176.845 57.7349C177.54 56.5994 178.815 55.3378 180.669 53.95C182.639 52.5622 184.609 51.2375 186.579 49.9759C188.665 48.7143 190.113 47.8312 190.924 47.3265V47.1373L191.098 47.3265H191.272C191.736 46.8219 192.605 46.3172 193.879 45.8126C195.27 45.1818 196.197 44.8033 196.661 44.6771C197.472 44.2986 198.283 44.0463 199.094 43.9201C199.905 43.794 200.717 43.6678 201.528 43.5417C202.107 43.6678 202.687 43.7309 203.266 43.7309C203.961 43.7309 204.599 43.794 205.178 43.9201C206.337 44.1725 207.611 44.8664 209.002 46.0018C210.393 47.0111 211.088 48.2727 211.088 49.7867C210.972 49.9128 210.856 50.1021 210.74 50.3544C210.624 50.6067 210.624 50.796 210.74 50.9221L210.045 50.5437C209.35 49.1559 208.307 48.3358 206.916 48.0835C205.526 47.705 204.193 47.5158 202.918 47.5158C199.789 47.5158 196.487 48.3989 193.01 50.1652C189.534 51.8053 186.115 54.0131 182.755 56.7887C179.394 59.5642 176.381 62.529 173.716 65.6831C171.167 68.8371 169.255 71.865 167.98 74.7668L167.458 77.0377C167.227 78.2993 166.879 79.4978 166.415 80.6333C165.952 81.7688 165.72 83.0304 165.72 84.4182C165.72 85.4274 165.836 86.1844 166.068 86.6891C166.3 87.0676 166.705 87.6984 167.285 88.5815L167.632 88.3923V88.5815L167.98 88.203L168.675 88.3923C169.486 87.8876 170.355 87.5091 171.282 87.2568C172.21 86.8783 172.963 86.3737 173.542 85.7429L173.89 85.3644C174.585 85.112 175.222 84.6705 175.802 84.0397C176.381 83.4089 176.903 82.8411 177.366 82.3365C179.105 80.5702 180.843 78.8039 182.581 77.0377C184.319 75.2714 185.942 73.4421 187.448 71.5496C188.259 70.5403 189.302 69.2787 190.577 67.7648C191.852 66.2508 192.952 65.1784 193.879 64.5476L194.053 63.7907C194.98 63.4122 195.849 62.529 196.661 61.1413C197.588 59.7535 198.457 58.4288 199.268 57.1672C200.195 55.7794 201.064 55.0855 201.875 55.0855L202.571 54.8962C203.498 54.8962 204.251 55.3378 204.83 56.2209C205.41 56.9779 205.699 57.798 205.699 58.6811C205.699 59.6904 205.41 60.8258 204.83 62.0875C204.251 63.3491 203.845 64.4846 203.614 65.4939C203.034 68.1433 202.629 70.5403 202.397 72.6851C202.165 74.7037 202.049 77.0377 202.049 79.6871C202.049 81.3272 202.281 82.715 202.744 83.8504C203.324 84.9859 204.135 86.1844 205.178 87.446H206.047C207.669 86.4367 208.828 85.3644 209.524 84.2289C210.219 83.0934 211.088 81.8949 212.131 80.6333C212.247 80.6333 212.363 80.5702 212.479 80.444C212.594 80.3179 212.652 80.2548 212.652 80.2548C212.884 80.2548 213 80.381 213 80.6333C213 81.1379 212.884 81.6426 212.652 82.1472C212.536 82.5257 212.421 83.0304 212.305 83.6612C212.073 85.049 211.725 86.3737 211.262 87.6353C210.914 88.7707 209.813 89.3385 207.959 89.3385C206.916 89.3385 205.757 89.0861 204.483 88.5815C203.208 88.0768 202.165 87.383 201.354 86.4998C199.616 84.3551 198.515 82.0211 198.051 79.4978C197.704 76.8484 197.53 74.1359 197.53 71.3604V65.3046H197.182C196.719 66.0616 196.197 66.8186 195.618 67.5755C195.038 68.3325 194.459 69.0895 193.879 69.8464C193.416 70.3511 192.837 70.9188 192.141 71.5496C191.562 72.0543 191.04 72.6851 190.577 73.4421C190.345 73.4421 189.882 73.8836 189.186 74.7668C188.607 75.5237 188.317 76.0915 188.317 76.4699C187.506 76.5961 186.579 77.3531 185.536 78.7409C184.609 80.1286 183.972 80.8225 183.624 80.8225C183.508 81.201 183.102 81.8318 182.407 82.715C181.712 83.4719 181.19 84.0397 180.843 84.4182C180.032 84.5443 179.336 84.9859 178.757 85.7429C178.293 86.4998 177.83 87.1937 177.366 87.8245C176.323 88.3292 175.165 89.0231 173.89 89.9062C172.615 90.6632 171.398 91.0417 170.24 91.0417Z" fill="white"/>
<path d="M165.158 44.2895C164.683 44.2895 164.089 43.9886 163.376 43.3869C162.664 42.7852 162.308 42.2437 162.308 41.7624C162.308 41.5217 162.723 40.9801 163.554 40.1378C164.386 39.175 165.276 38.2725 166.227 37.4301C167.295 36.4674 167.949 35.8657 168.186 35.625C169.136 35.8657 169.611 36.4072 169.611 37.2496C169.611 37.731 169.314 38.5733 168.72 39.7767C168.245 40.8598 167.652 41.8827 166.939 42.8454C166.345 43.8081 165.751 44.2895 165.158 44.2895ZM146.275 91.0417C145.919 91.0417 145.563 90.9213 145.206 90.6806C144.969 90.44 144.672 90.2595 144.316 90.1391C143.484 89.4171 142.891 88.8154 142.534 88.334C142.178 87.8526 142 87.0103 142 85.8069C142 81.956 142.891 78.2856 144.672 74.7957C146.453 71.1855 148.116 67.7558 149.66 64.5067C149.897 64.266 149.957 64.0253 149.838 63.7846C149.719 63.4236 149.66 63.1227 149.66 62.8821C149.66 61.799 150.076 60.5956 150.907 59.2718C151.857 57.8278 152.926 56.4439 154.113 55.1201C155.301 53.7964 156.251 52.8337 156.963 52.232C157.676 52.232 158.745 52.3523 160.17 52.593C161.595 52.7133 162.308 53.2548 162.308 54.2176C162.308 54.3379 161.714 55.0599 160.526 56.3837C159.339 57.7074 158.626 58.5498 158.389 58.9108C156.845 61.3176 155.004 64.2058 152.866 67.5753C150.847 70.8245 149.066 74.194 147.522 77.6839C145.978 81.1738 145.206 84.4831 145.206 87.612C146.632 87.3713 148.116 86.5289 149.66 85.0848C151.322 83.5204 152.569 82.1967 153.401 81.1136H153.579V81.2941C153.579 81.7755 153.341 82.2568 152.866 82.7382C152.391 83.2196 152.035 83.6408 151.797 84.0018C151.322 84.8442 150.551 86.2281 149.482 88.1535C148.532 90.079 147.463 91.0417 146.275 91.0417Z" fill="white"/>
<path d="M106.013 91.0417C105.321 91.0417 104.63 90.8081 103.938 90.3411C103.247 89.9908 102.786 89.407 102.556 88.5896C102.556 88.4728 102.556 88.1809 102.556 87.7139C102.671 87.3636 102.786 87.1884 102.901 87.1884L111.199 67.3967C112.005 65.4117 112.87 63.0764 113.792 60.3909C114.714 57.5885 115.405 54.8445 115.866 52.1589C116.442 49.3566 116.615 46.9629 116.385 44.9779C115.693 44.9779 114.944 45.0946 114.137 45.3282C113.331 45.5617 112.582 45.6785 111.89 45.6785C111.66 45.6785 111.544 45.5033 111.544 45.153C111.544 44.8027 111.66 44.4524 111.89 44.1021C112.236 43.6351 112.812 43.4599 113.619 43.5767C113.849 43.6934 114.368 43.7518 115.175 43.7518C116.558 43.7518 118.113 43.8102 119.842 43.927C121.571 43.927 122.493 44.686 122.608 46.2039C122.608 46.7877 122.204 48.1305 121.398 50.2323C120.706 52.3341 119.784 54.7277 118.632 57.4133C117.595 60.0989 116.615 62.6678 115.693 65.1198C114.771 67.4551 114.137 69.2066 113.792 70.3743C113.216 71.5419 112.927 72.3593 112.927 72.8263H113.446C114.368 71.3084 115.405 69.9656 116.558 68.7979C117.825 67.5135 118.92 66.1123 119.842 64.5944C120.533 64.1273 121.571 63.0181 122.954 61.2666C124.336 59.3983 125.777 57.5301 127.275 55.6619C128.889 53.6769 130.387 52.2757 131.77 51.4583C132 51.3416 132.519 51.0496 133.325 50.5826C134.132 49.9988 134.593 49.6485 134.708 49.5317C135.054 49.5317 135.4 49.5317 135.745 49.5317C136.206 49.4149 136.61 49.3566 136.956 49.3566C137.301 49.3566 137.589 49.4149 137.82 49.5317C138.166 49.5317 138.511 49.5317 138.857 49.5317C139.203 49.5317 139.952 49.8236 141.104 50.4074C142.257 50.8745 143.351 51.4583 144.389 52.1589C145.426 52.7427 145.944 53.2098 145.944 53.5601C145.944 54.611 145.541 55.4283 144.734 56.0122C143.928 56.4792 143.236 57.0047 142.66 57.5885C141.853 58.6394 140.931 59.807 139.894 61.0914C138.972 62.2591 138.396 63.5435 138.166 64.9447L137.993 65.8204L137.82 65.9956C137.82 65.9956 137.762 65.9372 137.647 65.8204C137.647 65.7037 137.589 65.6453 137.474 65.6453L137.301 65.8204C137.301 63.4851 137.877 61.2666 139.03 59.1648C140.182 56.9463 140.759 54.7277 140.759 52.5092C140.759 51.9254 140.528 51.6335 140.067 51.6335C139.26 51.6335 138.166 52.1589 136.783 53.2098C135.4 54.1439 134.132 55.1364 132.98 56.1873C131.827 57.1214 131.136 57.5885 130.905 57.5885C130.675 58.0555 129.983 58.8145 128.831 59.8654C127.794 60.9163 127.045 61.6169 126.584 61.9672C125.777 62.6678 125.028 63.4851 124.336 64.4192C123.76 65.3534 123.126 66.2875 122.435 67.2216C122.32 67.3384 122.089 67.5135 121.743 67.747C121.398 67.9806 121.11 68.2141 120.879 68.4476C120.418 69.265 119.842 70.024 119.151 70.7246C118.92 71.1916 118.69 71.6587 118.459 72.1257C118.344 72.5928 118.056 73.0598 117.595 73.5269L116.73 73.7021C116.269 74.6362 115.693 75.5119 115.002 76.3293C114.31 77.0299 113.676 77.7888 113.1 78.6062C112.639 79.4235 112.236 80.2993 111.89 81.2334C111.66 82.1675 111.256 82.9849 110.68 83.6855C109.989 84.6196 109.24 85.7288 108.433 87.0133C107.741 88.1809 107.396 89.407 107.396 90.6914H107.223C106.762 90.9249 106.359 91.0417 106.013 91.0417Z" fill="white"/>
<path d="M14.2986 95C12.4157 95 10.3562 94.1698 8.1202 92.5094C6.00189 90.8489 4.7662 89.0699 4.41315 87.1723C4.29547 86.4607 4.23663 85.7491 4.23663 85.0375C4.35431 84.2072 4.41315 83.4363 4.41315 82.7247V81.4794C4.53083 81.1236 4.64852 80.7085 4.7662 80.2341C5.00157 79.7597 5.29578 79.4632 5.64883 79.3446V79.1667C5.41347 78.9295 5.29578 78.5737 5.29578 78.0993C5.29578 77.3876 5.47231 76.7353 5.82536 76.1423C6.17841 75.5493 6.35494 74.9563 6.35494 74.3633C7.17873 73.2959 7.94367 72.1692 8.64978 70.9831C9.35588 69.7971 9.70893 68.4925 9.70893 67.0693L10.9446 66.0019H9.88546C8.1202 66.0019 6.00189 65.5868 3.53052 64.7566C1.17684 63.8077 0 62.2066 0 59.9532C0 59.0044 0.529578 58.1742 1.58873 57.4626C2.64789 56.6323 3.82473 55.98 5.11926 55.5056C6.53146 55.0312 7.64946 54.794 8.47325 54.794C9.29704 54.3196 10.2974 54.0824 11.4742 54.0824V54.2603H11.2977V54.6161C10.5916 54.8533 9.53241 55.387 8.1202 56.2172C6.70799 57.0474 5.41347 57.9963 4.23663 59.0637C3.17747 60.1311 2.64789 61.1392 2.64789 62.088H7.76715C7.88483 62.088 8.1202 62.088 8.47325 62.088C8.8263 61.9694 9.06167 61.8508 9.17936 61.7322C10.1208 61.495 11.0035 61.2578 11.8272 61.0206C12.7687 60.7834 13.6513 60.5462 14.4751 60.309C15.1812 60.0718 16.005 59.2416 16.9465 57.8184C18.0057 56.3951 19.1237 55.0312 20.3005 53.7266C21.4773 52.422 22.6542 51.829 23.831 51.9476V52.1255C23.831 52.2441 23.7133 52.3034 23.478 52.3034C23.2426 52.6592 22.713 53.3115 21.8892 54.2603C21.0654 55.2091 20.3005 56.1579 19.5944 57.1067C18.8883 58.0556 18.5352 58.7672 18.5352 59.2416L18.3587 59.4195L43.2489 52.4813C43.4842 52.3627 44.0138 52.1848 44.8376 51.9476C45.6614 51.7104 46.1321 51.7104 46.2498 51.9476L46.4263 51.5918C48.3093 51.3546 50.0157 50.9988 51.5456 50.5243C53.5462 49.8127 55.5469 49.279 57.5475 48.9232C59.6658 48.4488 61.7253 47.7965 63.7259 46.9663C64.6674 46.6105 65.6088 45.6024 66.5503 43.942C67.6095 42.1629 68.4921 40.9176 69.1982 40.206C70.7281 38.6642 72.0226 37.1223 73.0818 35.5805C74.2586 33.9201 75.4355 32.2004 76.6123 30.4213C78.7306 27.5749 81.202 24.5506 84.0264 21.3483C86.8508 18.0275 89.028 14.8252 90.5579 11.7416C90.6756 11.5044 90.7344 11.2672 90.7344 11.03C90.8521 10.7928 90.9698 10.6149 91.0874 10.4963L93.5588 7.47191C93.9119 7.82772 94.0884 8.18353 94.0884 8.53933C94.0884 9.01374 93.853 9.48814 93.3823 9.96255C93.0292 10.3183 92.735 10.6742 92.4996 11.03C92.1466 11.623 91.7935 12.2753 91.4405 12.9869C91.2051 13.5799 90.9109 14.1729 90.5579 14.7659C89.7341 16.1891 88.8514 17.6124 87.91 19.0356C87.0862 20.4588 86.2036 21.8227 85.2621 23.1273C84.0852 24.9064 82.8496 26.7447 81.555 28.6423C80.3782 30.54 79.1425 32.319 77.848 33.9794C77.6126 34.3352 77.2596 34.691 76.7888 35.0468C76.4358 35.4026 76.1416 35.7584 75.9062 36.1142C75.6708 36.3514 75.0236 37.2409 73.9644 38.7828C72.9053 40.3246 71.9049 41.8664 70.9635 43.4082C70.022 44.8315 69.4924 45.6617 69.3747 45.8989L76.2593 45.0094L76.4358 44.8315L82.9673 43.942C83.438 41.8071 84.2618 39.1979 85.4386 36.1142C86.7331 33.0306 88.0865 29.9469 89.4987 26.8633C90.9109 23.6611 92.0878 21.0518 93.0292 19.0356L95.8537 13.1648C95.8537 12.809 95.8537 12.4532 95.8537 12.0974C95.8537 11.7416 95.9125 11.3858 96.0302 11.03C96.2655 9.96255 96.854 8.71723 97.7954 7.29401C98.8546 5.75219 100.031 4.32896 101.326 3.02434C102.62 1.60112 103.621 0.593008 104.327 0C105.033 0.2372 105.974 0.474408 107.151 0.711615C108.328 0.948816 108.975 1.48252 109.093 2.31274L108.917 3.38015C107.74 4.21036 106.386 5.81149 104.856 8.18352C103.444 10.5556 102.385 12.3939 101.679 13.6985C101.444 14.1729 101.208 14.7066 100.973 15.2996C100.855 15.8926 100.679 16.4263 100.443 16.9008C100.326 17.3752 99.9137 18.2647 99.2076 19.5693C98.6192 20.7553 98.2073 21.3483 97.972 21.3483C96.5598 24.432 95.0887 27.5156 93.5588 30.5993C92.0289 33.5643 90.7932 36.7665 89.8518 40.206C89.7341 40.4432 89.5576 40.9176 89.3222 41.6292C89.0868 42.3408 89.028 42.8152 89.1457 43.0524H90.0283C91.0874 43.0524 92.1466 42.9931 93.2057 42.8745C94.2649 42.7559 95.3829 42.6966 96.5597 42.6966C101.385 42.6966 105.563 43.6455 109.093 45.5431C112.624 47.4407 114.389 50.2872 114.389 54.0824C114.389 55.6242 113.683 57.1067 112.271 58.53C110.858 59.9532 109.27 61.1985 107.504 62.2659C105.739 63.3333 104.327 64.2228 103.268 64.9345V64.5787H103.091V64.2229C104.033 63.5112 105.151 62.3845 106.445 60.8427C107.857 59.1823 109.034 57.4626 109.976 55.6835C111.035 53.7859 111.564 52.2441 111.564 51.0581C111.564 49.279 110.564 48.0337 108.564 47.3221C106.681 46.4919 104.562 45.9582 102.209 45.721C99.8549 45.4838 98.0896 45.3652 96.9128 45.3652C95.8537 45.3652 94.5591 45.4245 93.0292 45.5431C91.4993 45.6617 90.2637 45.8396 89.3222 46.0768C88.3807 46.4326 87.5569 47.5593 86.8508 49.4569C86.1447 51.3546 85.4975 53.4894 84.909 55.8614C84.4383 58.2335 84.0264 60.309 83.6733 62.088C83.438 63.8671 83.2026 64.8159 82.9673 64.9345C83.0849 65.2903 83.1438 65.9426 83.1438 66.8914C83.1438 68.0774 83.0849 69.3227 82.9673 70.6273C82.9673 71.8134 82.9673 73.0587 82.9673 74.3633C82.9673 76.0237 83.0849 78.1585 83.3203 80.7678C83.5557 83.2584 84.2029 85.5119 85.2621 87.5281C86.3212 89.4257 88.0277 90.3745 90.3813 90.3745C90.7344 90.1373 91.4993 89.7222 92.6762 89.1292C93.853 88.4176 94.971 87.706 96.0302 86.9944C97.0893 86.2828 97.6189 85.8677 97.6189 85.7491H98.325V86.9944C98.325 88.4176 97.3247 89.5443 95.3241 90.3745C93.4411 91.2048 91.9112 91.6199 90.7344 91.6199C87.3216 91.6199 84.6737 90.5524 82.7907 88.4176C81.0255 86.2828 79.7898 83.7328 79.0837 80.7678C78.4953 77.6841 78.201 74.7784 78.201 72.0506C78.201 67.6623 78.6129 63.3926 79.4367 59.2416C80.3782 54.9719 81.2608 50.7615 82.0846 46.6105H81.7316C80.437 47.0849 78.7306 47.5 76.6123 47.8558C74.494 48.093 72.4345 48.3895 70.4339 48.7453C68.4333 49.1011 66.9622 49.6941 66.0207 50.5243C64.1378 52.0662 62.4902 53.9638 61.078 56.2172C59.7835 58.3521 58.3124 60.4276 56.6649 62.4438C56.1941 63.0368 55.4292 63.9856 54.37 65.2903C53.4285 66.5949 52.4282 67.8995 51.3691 69.2041C50.3099 70.3901 49.4861 71.2204 48.8977 71.6948C48.6623 71.932 48.3681 72.1692 48.0151 72.4064C47.662 72.6436 47.3678 72.8808 47.1325 73.118L43.4254 78.0993L40.4245 80.5899C39.6007 81.3015 38.4827 82.3096 37.0705 83.6142C35.7759 84.9189 34.5403 85.5712 33.3634 85.5712C32.8927 87.2316 31.4216 88.7734 28.9503 90.1966C26.4789 91.7385 23.7722 92.9245 20.8301 93.7547C18.0057 94.5849 15.8285 95 14.2986 95ZM14.1221 93.221C14.8282 93.221 15.8873 92.8652 17.2996 92.1536C18.7118 91.5606 20.124 90.8489 21.5362 90.0187C22.9484 89.1885 23.9487 88.5955 24.5371 88.2397C28.303 85.5119 31.7747 82.5468 34.9522 79.3446C38.2473 76.0237 41.4836 72.7029 44.6611 69.382C45.9556 67.9588 47.2501 66.5949 48.5447 65.2903C49.9569 63.867 51.2514 62.4438 52.4282 61.0206C53.0167 60.4276 53.5462 59.7753 54.017 59.0637C54.4877 58.2335 54.9584 57.5812 55.4292 57.1067C56.1353 56.1579 57.0768 55.2091 58.2536 54.2603C59.5481 53.3115 60.4308 52.3627 60.9015 51.4139H60.725C60.6073 51.4139 59.4304 51.7697 57.1944 52.4813C54.9584 53.0743 52.1929 53.9045 48.8977 54.9719C45.7202 56.0393 42.4251 57.1068 39.0123 58.1742C35.5994 59.2416 32.5985 60.1904 30.0094 61.0206C27.5381 61.8508 25.8905 62.3845 25.0667 62.6217C23.5368 63.0961 21.8892 63.5112 20.124 63.8671C18.3587 64.1043 16.8288 64.6973 15.5343 65.6461C14.3575 66.4763 13.2395 68.3146 12.1803 71.161C11.1211 74.0075 10.2385 76.9725 9.53241 80.0562C8.94399 83.0212 8.64978 85.2747 8.64978 86.8165C8.64978 88.7141 9.06167 90.2559 9.88546 91.4419C10.7092 92.628 12.1215 93.221 14.1221 93.221Z" fill="white"/>
</svg>
