<svg width="24" height="24" viewBox="0 0 24 24" fill="none" xmlns="http://www.w3.org/2000/svg">
<path d="M12 1.5C5.64868 1.5 0.5 5.61231 0.5 10.685C0.5 13.9646 2.65249 16.8423 5.8904 18.4673C5.71425 19.0827 4.75843 22.4262 4.72039 22.6889C4.72039 22.6889 4.6975 22.8863 4.82367 22.9616C4.94984 23.0368 5.09823 22.9784 5.09823 22.9784C5.46004 22.9272 9.29385 20.1992 9.95742 19.7255C10.6203 19.8206 11.3029 19.87 12 19.87C18.3513 19.87 23.5 15.7578 23.5 10.685C23.5 5.61231 18.3513 1.5 12 1.5Z" fill="#1B1A1A"/>
<path d="M5.76167 14.0001C5.40949 14.0001 5.12308 13.7099 5.12308 13.353V9.32718H4.12667C3.78109 9.32718 3.5 9.02947 3.5 8.66365C3.5 8.29783 3.78119 8.00012 4.12667 8.00012H7.39667C7.74225 8.00012 8.02334 8.29783 8.02334 8.66365C8.02334 9.02947 7.74215 9.32718 7.39667 9.32718H6.40026V13.353C6.40026 13.7099 6.11385 14.0001 5.76167 14.0001ZM11.3612 13.9913C11.095 13.9913 10.8912 13.8766 10.8298 13.692L10.5136 12.8136L8.56635 12.8134L8.24993 13.6925C8.18873 13.8767 7.98513 13.9913 7.71884 13.9913C7.57877 13.9915 7.44031 13.9596 7.31291 13.8978C7.13687 13.8116 6.96764 13.5747 7.16156 12.9355L8.68907 8.66907C8.79667 8.34459 9.12352 8.01029 9.53945 8.00023C9.95656 8.01017 10.2834 8.34459 10.3912 8.66975L11.9181 12.9343C12.1124 13.5749 11.9432 13.812 11.7672 13.8979C11.6397 13.9596 11.5013 13.9914 11.3612 13.9913ZM10.1778 11.6132L9.53999 9.6904L8.90214 11.6132H10.1778ZM12.9458 13.9013C12.6083 13.9013 12.3338 13.6226 12.3338 13.2801V8.67777C12.3338 8.30405 12.6263 8.00012 12.9857 8.00012C13.3451 8.00012 13.6376 8.30405 13.6376 8.67777V12.6589H14.9946C15.3321 12.6589 15.6066 12.9377 15.6066 13.2801C15.6066 13.6226 15.3321 13.9013 14.9946 13.9013H12.9458ZM16.4936 13.9913C16.1414 13.9913 15.855 13.6874 15.855 13.3137V8.67777C15.855 8.30405 16.1414 8.00012 16.4936 8.00012C16.8458 8.00012 17.1322 8.30405 17.1322 8.67777V10.1343L18.9138 8.24362C19.0055 8.14638 19.1314 8.09285 19.268 8.09285C19.4275 8.09285 19.5875 8.16581 19.7075 8.29298C19.8194 8.41157 19.8861 8.56415 19.8952 8.72261C19.9045 8.88242 19.8544 9.0289 19.7543 9.13518L18.2991 10.6792L19.871 12.889C19.9217 12.9599 19.9587 13.0408 19.9797 13.127C20.0008 13.2131 20.0055 13.3029 19.9936 13.391C19.9822 13.4792 19.9544 13.5641 19.9119 13.6408C19.8694 13.7175 19.8129 13.7845 19.7458 13.8379C19.6354 13.927 19.5004 13.9751 19.3617 13.9747C19.2628 13.9752 19.1651 13.9511 19.0765 13.9043C18.9879 13.8575 18.9109 13.7894 18.8516 13.7053L17.354 11.5997L17.1324 11.8348V13.3133C17.1322 13.4931 17.0648 13.6654 16.9451 13.7925C16.8253 13.9196 16.663 13.9911 16.4936 13.9913Z" fill="white"/>
</svg>
