<svg width="24" height="24" viewBox="0 0 24 24" fill="none" xmlns="http://www.w3.org/2000/svg">
<g clip-path="url(#clip0_2101_1997)">
<path d="M6.02201 4.51737C5.82659 4.59129 5.56889 4.64532 5.35592 4.71155C5.28965 4.73213 5.27547 4.64697 5.22609 4.66054C5.12841 4.68914 5.08135 4.77492 4.98589 4.81042C4.95348 4.82255 4.89981 4.70141 4.86661 4.7175C4.68276 4.81023 4.58171 4.97755 4.45027 5.13083C4.16039 5.46932 3.98244 5.90765 3.94992 6.375C3.9077 7.18948 3.87883 8.00554 3.84681 8.83497C3.82799 9.32508 3.71369 9.92086 3.76368 10.4271C3.76963 10.4862 3.88018 10.451 3.88929 10.4622C4.02878 10.6386 3.8056 10.5799 3.77595 10.6951C3.65887 11.1521 3.64869 11.6602 3.69135 12.1C3.70983 12.2872 3.92941 12.0995 3.80616 12.2879C3.79783 12.301 3.68044 12.2536 3.66791 12.3049C3.63975 12.4212 3.66074 12.642 3.65143 12.7322C3.63291 12.906 3.6341 12.9348 3.63276 13.0992C3.62991 13.3239 3.57155 13.5912 3.59815 13.8323C3.60418 13.8838 3.72452 13.8157 3.745 13.8978C3.76545 13.9799 3.75524 14.1973 3.72687 14.2705C3.69849 14.3438 3.6039 14.3126 3.58222 14.3256C3.39923 14.4323 3.65267 14.6837 3.65894 14.716C3.76574 15.3058 3.62136 15.8116 3.62177 16.3653C3.62239 16.7821 3.66928 17.2276 3.66367 17.625C3.66362 17.6277 3.66358 17.6303 3.66353 17.633C3.65833 18.0143 3.66274 18.3582 3.82024 18.7074C3.83693 18.7436 3.94866 18.6456 3.96877 18.6878C4.18502 19.1326 4.48509 19.5196 4.85196 19.884C4.8894 19.9207 4.76423 19.9866 4.79923 20.0304C4.9931 20.302 5.49668 20.7454 5.7999 20.245C5.97549 20.3033 6.19004 20.3454 6.375 20.4233C6.40501 20.4339 6.43408 20.4457 6.46196 20.4586C6.61323 20.5288 6.46631 20.6641 6.65213 20.6064C6.69404 20.5935 6.63954 20.475 6.70239 20.4647C6.96702 20.4213 7.25612 20.4598 7.51791 20.3986C7.57115 20.3858 7.55661 20.2796 7.5717 20.2605C7.6985 20.1056 7.90957 20.3616 7.95559 20.3802C8.30598 20.519 8.56187 20.4644 8.88829 20.4678C8.96404 20.4686 8.8745 20.326 8.94739 20.3216C9.32542 20.3012 9.71703 20.3135 10.0872 20.3768C10.1695 20.3912 10.0938 20.5127 10.1332 20.5258C10.3066 20.5821 10.3451 20.3526 10.5115 20.4022C10.5466 20.4124 10.5268 20.5164 10.5332 20.5278C10.6333 20.7072 10.7204 20.4531 10.7461 20.4474C11.0719 20.3708 11.2802 20.6361 11.595 20.5985C11.6326 20.5937 11.5477 20.4621 11.6536 20.4568C12.3587 20.4204 13.1046 20.4566 13.8026 20.5619C13.9111 20.5781 13.8336 20.677 13.8405 20.6891C13.9518 20.8796 14.0238 20.6244 14.0592 20.6148C14.3383 20.5456 14.5991 20.7596 14.7888 20.4557C15.7375 20.5403 16.6827 20.4471 17.625 20.5477C17.8267 20.5724 18.0322 20.5888 18.2472 20.5991C18.2612 20.5994 18.2626 20.7275 18.2911 20.7273C18.6356 20.7175 18.5301 20.5371 18.634 20.2472C18.6552 20.1762 18.9122 20.3778 18.9377 20.3881C19.0199 20.435 19.0504 20.6278 19.0736 20.6334C19.273 20.666 18.9646 20.1314 19.1175 20.0396C19.1231 20.0374 19.1618 20.1473 19.1813 20.1485C19.2431 20.152 19.26 20.0869 19.3227 20.0913C19.4642 20.1024 19.6906 20.3113 19.7227 20.055C19.7244 20.0224 19.4734 19.7804 19.6034 19.6809C19.6586 19.6427 19.8494 19.4219 19.9143 19.3675C19.982 19.3153 20.0388 19.4277 20.0461 19.4263C20.3047 19.322 20.3035 19.4288 20.5607 19.4384C20.8199 19.4362 20.3467 19.2011 20.3195 19.1308C20.2927 19.0617 20.4802 18.9633 20.5373 18.938C20.5947 18.9147 20.6373 18.9955 20.6761 18.9681C20.9287 18.7745 20.4791 18.7614 20.4312 18.6551C20.3069 18.4186 20.7179 18.3902 20.792 18.2037C20.811 18.1556 20.7165 18.1808 20.7156 18.1359C20.7106 17.9629 20.8429 17.8632 20.7353 17.6614C20.7314 17.6545 20.7178 17.6416 20.7002 17.625C20.6356 17.5585 20.5196 17.4332 20.6549 17.3456C20.6797 17.3298 20.7769 17.3746 20.7986 17.2948C20.8313 17.1755 20.8525 16.9606 20.8201 16.8324C20.796 16.7377 20.6359 16.8462 20.6857 16.727C20.7079 16.6741 20.8015 16.7722 20.8354 16.6727C20.8693 16.5738 20.8652 16.3207 20.862 16.2244C20.8587 16.1283 20.7372 16.1809 20.7291 16.1732C20.6822 16.1262 20.6236 15.9417 20.6238 15.9254C20.6089 15.1032 20.8137 14.3451 20.7459 13.5445C20.7408 13.4817 20.6127 13.5236 20.6106 13.514C20.5569 13.2989 20.8974 13.4685 21.0114 13.3183C20.7515 13.34 20.7986 13.2513 20.7701 13.0998C20.7561 13.0268 20.6555 13.0666 20.6452 13.0599C20.4923 12.9516 20.6898 12.8762 20.7302 12.8568C20.8787 12.7851 20.7032 12.7071 20.8025 12.6583C20.901 12.6096 21.0472 12.7218 21.0453 12.5765C20.9522 12.5358 20.7091 12.6436 20.6697 12.5333C20.5207 12.1171 20.7114 11.3402 20.7313 11.0056C20.7511 10.6716 20.7339 10.5637 20.7675 10.3691C20.8283 10.0176 20.6479 10.1464 20.5654 9.92816C20.4828 9.70925 20.9266 9.81567 21.022 9.7842C21.1174 9.75332 21.0192 9.71958 21.0716 9.68116C21.1241 9.64286 21.1889 9.72578 21.2086 9.6357C21.2283 9.54557 21.0586 9.29916 20.9589 9.26722C20.7475 9.19968 20.5257 9.31072 20.6036 9.07224C20.6083 9.05853 20.725 9.10304 20.7367 9.05052C20.8266 8.63339 20.8322 8.20005 20.9116 7.78343C20.9227 7.72615 21.0525 7.77737 21.0605 7.74404C21.1435 7.39679 20.9246 7.52092 20.6814 7.3306C21.0051 7.37333 21.203 7.26809 21.2049 7.00454C21.2062 6.84612 21.0649 6.87339 20.9653 6.77093C20.9352 6.74019 21.0323 6.62809 20.9658 6.60777C20.7486 6.54082 20.5055 6.64629 20.602 6.375C20.6021 6.3749 20.6021 6.3748 20.6022 6.3747C20.6038 6.37097 20.6196 6.37271 20.6398 6.375C20.6662 6.37835 20.7002 6.38263 20.719 6.375C20.7265 6.37221 20.7316 6.36766 20.7329 6.36063C20.7741 6.11152 20.5453 6.0961 20.4798 5.8601C20.4297 5.67707 20.4606 5.30236 20.376 5.08005C20.7109 4.93313 20.5215 4.74242 20.2591 4.7983C20.1898 4.66226 20.0837 4.53738 20.0163 4.40181C19.9928 4.35504 20.0948 4.31301 20.0995 4.3008C20.1677 4.10457 19.9359 4.21476 19.9075 4.19882C19.5969 4.00919 19.4587 3.67712 19.0655 3.66898C19.0505 3.66865 18.9204 3.88444 18.9244 3.68107C18.9237 3.66675 19.0772 3.61271 18.9348 3.53492C18.7979 3.45809 18.5374 3.22071 18.2844 3.28993C18.2212 3.30497 18.0612 3.48398 17.9746 3.31361C17.9625 3.29035 17.9867 3.22009 17.9693 3.17764C17.9095 3.04237 17.8533 3.29385 17.7815 3.07298C17.7498 2.97932 17.6973 2.89497 17.625 2.84218C17.5319 2.77064 17.4119 2.75338 17.2708 2.83955C17.263 2.8439 17.2049 3.04636 17.1278 3.04316C17.0047 3.03788 16.83 2.9957 16.7015 2.99702C16.64 2.99772 16.6793 3.12344 16.6687 3.12574C16.2549 3.19619 15.9605 3.08411 15.5173 3.03547C15.436 3.0263 15.2025 3.19774 15.0452 3.0622C14.8725 2.91383 15.05 2.29663 14.653 2.44368C14.4929 2.50249 14.2902 3.28552 14.0024 2.87983C13.4443 2.98036 12.9282 2.77273 12.3686 2.91627C12.3434 2.92263 12.2639 3.14117 12.2047 3.13819C12.1169 3.13335 12.0686 3.03121 12.0059 3.02448C11.7431 2.99372 11.5026 3.08111 11.2493 3.06751C11.1531 3.06257 11.1867 2.95696 11.072 2.95106C10.9573 2.94525 10.8808 3.08433 10.7255 3.01716C10.6081 2.96596 10.4908 2.6817 10.335 2.64857C10.3291 2.92896 10.2221 2.92318 10.0319 2.9972C9.99538 3.01156 10.0346 3.10915 10.0173 3.12098C9.94692 3.17128 9.8818 3.0904 9.81498 3.14515C9.79873 3.1583 9.79796 3.25406 9.78468 3.27021C9.67169 3.41123 9.48554 3.19584 9.45357 3.15833C9.33104 3.01591 9.27378 3.14045 9.1798 3.08436C9.08597 3.02828 9.22626 2.95817 9.11666 2.92414C8.88946 2.85375 8.59755 2.86922 8.36681 2.86482C8.27474 2.86365 8.33756 2.99147 8.32438 2.99427C8.13401 3.02669 7.94149 2.89073 7.83593 3.14533C7.70394 2.48702 7.72113 3.20919 7.44901 3.0774C7.42758 3.06674 7.40031 2.75543 7.4826 2.70973C7.56489 2.66407 7.68968 2.76138 7.80386 2.69013C7.8309 2.67342 7.98579 2.3817 8.00692 2.36402C8.17245 2.22592 8.19591 2.69113 8.20467 2.71668C8.30398 2.99243 8.49326 2.67816 8.5431 2.65644C8.77111 2.55694 8.96484 2.62236 9.15555 2.55134C9.28028 2.50544 9.29249 2.20071 9.39043 2.21003C9.71602 2.24086 9.82967 2.66597 10.1365 2.29737C10.2023 2.21876 10.1369 1.8857 10.3726 2.14759C10.3874 2.16411 10.5625 2.40369 10.6636 2.25215C10.6763 2.23304 10.6759 2.13597 10.6926 2.12782C10.8049 2.07507 10.8797 2.1524 11.002 2.11537C11.1243 2.07833 11.2713 2.02312 11.4109 2.05604C11.495 2.07573 11.603 2.25658 11.6433 2.30085C11.757 2.4284 11.8789 2.21928 11.9494 2.37373C12.0204 2.52896 11.8815 2.7647 12.0678 2.865C12.0747 2.61281 12.0906 2.35397 12.1016 2.10035C12.5099 2.10923 12.9116 2.19078 13.3213 2.17964C13.372 2.178 13.3201 2.04243 13.3745 2.03718C13.6042 2.01564 13.8049 2.11229 14.0431 2.0738C14.2274 2.04349 14.4296 1.89995 14.6224 1.86378C14.7402 2.15235 15.0263 2.05439 15.2341 2.08076C15.3069 2.08987 15.3021 2.16695 15.3538 2.19209C15.5492 2.28508 15.4576 2.03007 15.5112 1.98994C15.7409 1.81867 15.7606 2.39586 16.0315 2.3816C16.0458 2.38104 16.2212 2.07337 16.2454 2.05421C16.3989 1.92927 16.2708 2.1613 16.3669 2.18403C16.5423 2.22558 16.6642 2.29905 16.87 2.20893C16.93 2.18224 17.0739 1.99047 17.1905 2.13881C17.2058 2.15823 17.1973 2.25993 17.2096 2.26588C17.433 2.36516 17.4389 2.04561 17.5665 1.93739C17.5848 1.92189 17.6045 1.91313 17.625 1.9097C17.7896 1.88822 17.9747 2.07209 18.0107 2.13062C18.1248 2.30646 17.9057 2.19159 17.8969 2.20852C17.8046 2.39556 17.9784 2.37113 18.106 2.40369C18.0886 2.71617 18.2551 2.7222 18.2372 2.4374C18.2344 2.40583 18.1302 2.42064 18.106 2.40369C18.2527 2.1109 18.4996 2.10944 18.6469 2.44539C18.713 2.60417 18.5788 2.72218 18.8813 2.76089C19.0183 2.78255 19.0438 2.56171 19.1861 2.55499C19.5204 2.54422 19.7717 2.91341 20.0266 3.0635C20.1222 3.11964 20.1056 2.96035 20.1746 2.99701C20.36 3.09761 20.4384 3.28345 20.615 3.39591C20.6314 3.40641 20.6861 3.28582 20.7337 3.33184C21.0949 3.6849 21.2857 4.09262 21.5044 4.55745C21.6137 4.7798 21.8249 5.18679 21.8626 5.44967C21.9116 5.74001 21.8682 6.08197 21.8238 6.375C21.7998 6.50642 21.7871 6.63067 21.8026 6.73809C21.8306 6.93486 21.9542 6.89169 22.0384 6.976C22.2017 7.1387 21.9092 7.42668 21.8639 7.46546C21.8624 7.46665 21.8333 7.29733 21.7698 7.38768C21.6376 7.4402 21.8634 7.46355 21.8639 7.46546C21.8347 7.49093 21.8066 7.82917 21.8302 7.89633C21.8432 7.93282 21.9603 7.91241 21.9648 7.93143C22.0697 8.38371 22.0994 8.83679 22.0447 9.2955C22.0423 9.30358 21.9113 9.29142 21.9073 9.3104C21.8491 9.57597 22.0094 9.74601 22.1045 9.96504C22.1997 10.184 22.1678 10.3577 21.9429 10.4873C21.9712 10.6526 21.8717 10.8896 21.8114 11.026C21.751 11.1624 22.0061 11.1815 22.0112 11.1935C22.1726 11.5678 22.0266 11.7843 22.0038 12.1727C21.9926 12.3573 22.0296 12.7236 22.0575 12.9235C22.08 13.0815 22.0202 13.1767 22.0584 13.3223C22.0635 13.342 22.1771 13.3221 22.1814 13.3281C22.3173 13.4906 22.0397 13.4125 21.9901 13.4461C21.8098 13.5677 21.7137 13.6428 21.7986 13.8509C21.818 13.8989 22.2178 14.0387 22.2411 14.1262C22.2708 14.2399 22.1275 14.197 22.1622 14.3161C22.1651 14.3263 22.2535 14.3242 22.2496 14.3977C22.2326 14.7389 22.1812 15.1109 22.1901 15.4655C22.1909 15.5139 22.3311 15.4518 22.3347 15.5218C22.3513 15.8502 22.3461 16.2101 22.2805 16.53C22.2639 16.6088 22.1657 16.5594 22.1366 16.5765C21.9602 16.6815 22.2165 16.8303 22.2214 16.8548C22.2797 17.1323 22.2584 17.3788 22.2315 17.625C22.2005 17.9981 22.1254 18.3565 22.0752 18.7846C22.075 18.8236 22.2333 19.2507 21.9519 19.313C21.9326 19.3198 21.657 19.3619 21.7517 19.5474C21.7571 19.5596 21.911 19.5256 21.8279 19.6705C21.746 19.8128 21.6835 20.0949 21.4416 20.2065C21.3636 20.2448 21.0817 20.2311 21.0995 20.5094C21.109 20.5231 21.2018 21.0721 20.8991 20.9457C20.8494 20.924 20.648 20.6857 20.5775 20.9678C20.5625 21.0226 20.6753 21.0185 20.6077 21.135C20.5005 21.3159 20.2448 21.4022 20.1114 21.6496C20.091 21.6923 20.0324 21.9774 19.8211 21.9018C19.7887 21.8896 19.7794 21.776 19.7055 21.8C19.3575 21.9112 19.0189 22.107 18.6417 22.1169C18.5096 22.1193 18.5384 21.9391 18.4042 21.918C18.2686 21.8977 18.0166 21.8838 17.8886 21.9679C17.7577 22.0525 17.9228 22.3192 17.7083 22.3472C17.6806 22.3504 17.6529 22.3532 17.625 22.3556C16.9713 22.4332 16.3231 22.2821 15.67 22.2594C15.5702 22.256 15.6529 22.3534 15.5058 22.3552C14.9635 22.3625 14.0272 22.4538 13.5566 22.2468C13.1795 22.081 13.654 21.9548 13.3659 21.8874C13.2269 21.8552 13.0764 22.1717 13.0429 22.1816C12.715 22.2828 12.4871 22.1426 12.192 22.1857C12.1311 22.1946 12.1908 22.3228 12.139 22.329C11.9618 22.3513 11.7756 22.294 11.6063 22.3045C11.5304 22.3095 11.5444 22.4074 11.4745 22.3999C11.3073 22.3829 11.1594 22.3417 10.9964 22.2499C10.9815 22.2416 11.0817 22.1197 10.958 22.1152C10.7578 22.1082 10.5092 22.0176 10.2789 22.1111C10.2105 22.1393 10.2078 22.3632 10.0609 22.2085C10.0301 22.1763 10.0694 21.9074 9.89827 22.1397C9.86949 22.1783 9.58198 22.4916 9.44089 22.2897C9.40366 22.2365 9.30866 22.0165 9.22647 22.0511C9.21532 22.0566 9.25997 22.1769 9.19186 22.1886C8.95182 22.2278 8.70025 22.215 8.45364 22.2527C8.38778 22.263 8.48587 22.3874 8.38772 22.3988C8.11781 22.4302 7.78083 22.3986 7.5169 22.3596C7.41959 22.345 7.48685 22.2419 7.47977 22.2307C7.36591 22.0482 7.29859 22.2945 7.2608 22.3089C7.02577 22.3949 6.8468 22.2792 6.63016 22.3098C6.57037 22.3179 6.61277 22.4354 6.60087 22.4458C6.47744 22.5482 6.56938 22.3373 6.49126 22.314C6.45318 22.3026 6.41434 22.2934 6.375 22.2861C6.11852 22.252 5.84863 22.2378 5.59779 22.2077C5.48592 22.1939 5.58773 22.3504 5.48558 22.3354C4.87715 22.2476 4.2653 21.9843 3.81134 21.5985C3.72628 21.5257 3.84277 21.4766 3.83687 21.4441C3.80357 21.2225 3.49315 21.2712 3.43556 21.2514C3.18467 21.1731 3.1754 21.0371 3.01376 20.8986C2.19213 20.2203 1.69486 18.8985 1.70507 17.9141C1.70279 17.8156 1.70402 17.7201 1.70826 17.625C1.7596 16.7958 1.84284 16.1195 1.81892 15.3027C1.81741 15.2465 1.67791 15.3032 1.67482 15.2548C1.64119 14.6291 1.6957 14.0132 1.65541 13.3863C1.65235 13.3349 1.52011 13.409 1.51076 13.3265C1.49064 13.1571 1.49783 12.9426 1.54005 12.7713C1.5604 12.6878 1.67387 12.7999 1.69203 12.7158C1.73457 12.52 1.74399 12.3102 1.72279 12.1091C1.71348 12.0236 1.57823 12.1527 1.57667 12.0415C1.56326 11.2839 1.53996 10.5398 1.7151 9.77423C1.72713 9.72175 2.002 9.67569 1.94929 9.5641C1.87301 9.5557 1.78327 9.55615 1.70173 9.55248C1.65944 8.49051 1.74623 7.43897 1.76588 6.375C1.76663 6.31905 1.76829 6.26328 1.77083 6.2077C1.77401 6.14397 1.62355 6.24972 1.62974 6.12382C1.66837 5.39717 1.84272 4.65338 2.33602 4.07926C2.3854 4.02321 2.5854 4.18248 2.66066 3.99017C2.67181 3.95493 2.8205 3.68296 2.83011 3.58582C2.83069 3.57171 2.69976 3.54388 2.76209 3.46026C3.1267 2.97619 3.65115 2.57742 4.21055 2.36098C4.30051 2.32662 4.27101 2.48648 4.33441 2.46395C4.77396 2.30704 5.23889 2.05684 5.69892 2.10341C5.99948 2.13971 5.91939 2.37451 6.07732 2.57692C6.09911 2.605 6.25885 2.60181 6.26953 2.72844C6.29553 3.0448 6.24359 3.39383 6.28094 3.7307C6.28817 3.80243 6.43333 3.72308 6.34858 3.8995C6.34215 3.91087 6.24364 3.97231 6.22425 4.03391C6.2109 4.07613 6.24695 4.20222 6.21971 4.25701C6.19399 4.31179 6.15033 4.20757 6.10681 4.27549C6.0657 4.34456 6.10659 4.48488 6.02201 4.51737ZM21.5417 11.6403C21.4192 11.7666 21.8678 11.7852 21.7605 11.6486C21.7548 11.642 21.5477 11.6337 21.5417 11.6403ZM12.9093 2.52919C13.0745 2.72707 13.1875 2.4361 13.071 2.28328C12.9545 2.13061 12.859 2.4692 12.9093 2.52919ZM11.197 2.67365C11.39 2.82968 11.4204 2.19348 11.2137 2.32209C11.2016 2.32936 11.1857 2.6646 11.197 2.67365ZM5.46297 2.73899C5.46621 2.74389 5.5777 2.72382 5.57924 2.71787C5.61007 2.56449 5.37806 2.60642 5.46297 2.73899ZM9.49777 2.83094C9.55802 2.917 9.73149 2.81766 9.65663 2.71064C9.59637 2.62455 9.42274 2.72389 9.49777 2.83094ZM21.0085 18.2375C21.0017 18.2384 20.9818 18.31 21.019 18.3161C21.1396 18.3355 21.1255 18.2229 21.0085 18.2375ZM6.60976 2.83827C7.03645 2.86221 7.29516 3.38774 6.8305 3.32844C6.74635 3.31771 7.01185 3.16085 6.90475 3.11347C6.70878 3.02716 6.57865 3.35712 6.37867 3.18031C6.34247 3.14794 6.58542 2.83573 6.61052 2.83753C6.61027 2.83778 6.61001 2.83802 6.60976 2.83827ZM21.0028 11.713C20.9969 11.7155 20.9912 11.8169 20.9971 11.8193C21.1396 11.8742 21.151 11.67 21.0028 11.713ZM18.0218 20.7608C18.0148 20.7508 17.7961 20.7583 17.7891 20.7684C17.6784 21.0116 18.1567 20.9954 18.0218 20.7608ZM20.3833 5.07261C20.211 5.04307 20.1464 4.96016 20.2592 4.79879C20.3024 4.88932 20.3485 4.97848 20.3833 5.07261Z" fill="#393737"/>
<path d="M15.2993 17.3912C15.1994 17.3423 15.1361 17.2145 15.1065 17.0997C15.0971 17.0639 15.1662 17.0212 15.1624 16.994C15.1547 16.9409 15.0983 16.938 15.0953 16.8811C15.0945 16.862 15.1984 16.7885 15.1955 16.7705C15.1793 16.6723 15.1023 16.6375 15.0643 16.5583C14.8773 16.1681 14.6335 15.8413 14.3888 15.4988C14.308 15.3859 14.2762 15.1859 14.1424 15.117C14.1266 15.109 14.0531 15.1921 14.0443 15.1961C13.9089 15.2559 14.0824 15.1146 14.0818 15.0708C14.0788 14.8971 13.9883 14.7865 13.8725 14.7261C13.823 14.7007 13.6996 14.8897 13.7529 14.7667C13.7564 14.7583 13.8509 14.6873 13.8501 14.6683C13.8481 14.6252 13.7903 14.5946 13.7797 14.5698C13.7597 14.5216 13.7533 14.5166 13.7226 14.4821C13.6813 14.4343 13.6722 14.3397 13.6064 14.3088C13.5921 14.3025 13.5178 14.399 13.4871 14.3964C13.4564 14.3936 13.4219 14.3423 13.4284 14.3079C13.4349 14.2734 13.5097 14.2148 13.523 14.1973C13.6354 14.0499 13.4027 14.1727 13.3919 14.1704C13.2007 14.1234 13.2081 13.9211 13.1011 13.8085C13.0197 13.7232 12.8984 13.6643 12.8261 13.5783C12.7403 13.4754 12.7099 13.3483 12.6125 13.2616C12.6024 13.2524 12.5106 13.3612 12.4979 13.3501C12.3638 13.2322 12.2537 13.0932 12.2015 12.8989C12.1964 12.8793 12.3024 12.8106 12.3026 12.786C12.3022 12.6369 12.3624 12.3435 11.925 12.6681C11.8898 12.6001 11.8443 12.5202 11.8783 12.3975C11.9002 12.3184 12.0269 12.2554 11.9491 12.2572C11.9317 12.2575 11.856 12.35 11.8364 12.3443C11.7539 12.3201 11.7261 12.2347 11.6312 12.2234C11.6117 12.2213 11.5373 12.2972 11.5205 12.3072C11.3835 12.3878 11.5289 12.1689 11.5335 12.1467C11.5668 11.98 11.4778 11.9653 11.4174 11.8964C11.4034 11.8804 11.317 11.9966 11.2998 11.9847C11.2121 11.9216 11.1455 11.8334 11.1202 11.7144C11.1148 11.6877 11.2177 11.6197 11.2197 11.6026C11.2272 11.5286 11.053 11.6784 11.0569 11.6104C11.0576 11.5963 11.137 11.5288 11.1441 11.5197C11.2551 11.3761 11.0536 11.5329 11.0446 11.5315C10.9261 11.5177 11.0788 11.293 10.9908 11.2546C10.9801 11.2502 10.9008 11.3579 10.8765 11.34C10.7213 11.2264 10.6072 11.0597 10.5468 10.8577C10.5506 10.8554 10.5484 10.8469 10.5463 10.8382C10.5389 10.8079 10.6221 10.7513 10.6296 10.7415C10.7432 10.5859 10.5506 10.7546 10.5381 10.7559C10.4423 10.7595 10.5335 10.5544 10.301 10.7556C10.1458 10.4888 9.85573 10.5075 9.69626 10.1697C9.69383 10.1656 9.739 10.0481 9.73365 10.0404C9.66763 9.94588 9.62425 10.1377 9.51861 10.357C9.49453 10.4127 9.52024 10.1229 9.51893 10.1012C9.52085 10.022 9.57315 9.84191 9.57136 9.82613C9.54911 9.70093 9.44064 10.3096 9.39921 10.3031C9.39788 10.3018 9.42139 10.1903 9.41917 10.1785C9.41185 10.1414 9.39299 10.1844 9.38578 10.144C9.37039 10.0507 9.3856 9.74979 9.3195 9.91991C9.31191 9.94219 9.29314 10.2921 9.25543 10.2735C9.24569 10.2686 9.21446 10.2681 9.1875 10.2638C9.17129 10.2612 9.15657 10.257 9.14881 10.2487C9.12801 10.2266 9.13789 10.1132 9.1365 10.1084C9.0695 9.96162 9.08904 9.89886 9.03741 9.68054C8.98042 9.46395 9.03651 9.98701 9.02984 10.0465C9.02359 10.1058 8.96484 9.98857 8.946 9.94807C8.928 9.9073 8.93317 9.83403 8.91859 9.8116C8.81798 9.66665 8.92768 10.0743 8.92053 10.16C8.91193 10.3622 8.79793 9.98802 8.73467 9.96473C8.71876 9.95823 8.75207 10.0413 8.74287 10.0523C8.70792 10.0947 8.64331 9.98706 8.6282 10.11C8.62415 10.1305 8.66903 10.3633 8.58377 10.2121C8.57109 10.1904 8.54638 10.0957 8.51947 10.0829C8.47923 10.0636 8.41834 10.0667 8.40189 10.1103C8.39007 10.1424 8.48301 10.2756 8.43552 10.2431C8.41401 10.2289 8.3958 10.1336 8.35783 10.1143C8.31951 10.095 8.26155 10.13 8.24103 10.1454C8.22032 10.1607 8.2922 10.2597 8.29434 10.2679C8.30669 10.3145 8.29801 10.3875 8.29478 10.3894C8.13948 10.4995 7.85767 10.461 7.74994 10.6576C7.74173 10.6727 7.8385 10.7573 7.83816 10.7605C7.83693 10.8366 7.63017 10.5625 7.52051 10.5106C7.67476 10.6589 7.66823 10.6737 7.6568 10.7015C7.65714 10.7047 7.65429 10.7116 7.65279 10.7206C7.64886 10.745 7.72966 10.806 7.73586 10.8145C7.82609 10.9415 7.66808 10.8213 7.63498 10.7975C7.51319 10.7101 7.62573 10.8466 7.54416 10.7883C7.46313 10.7306 7.37856 10.6074 7.35192 10.6383C7.41168 10.7105 7.60917 10.8555 7.61655 10.905C7.64467 11.0923 7.35631 11.1197 7.27742 11.1743C7.19867 11.2288 7.19036 11.2626 7.12842 11.2792C7.01649 11.3091 7.17242 11.4068 7.19036 11.508C7.20818 11.6093 6.90612 11.2828 6.83071 11.2237C6.75544 11.1645 6.82029 11.2388 6.77479 11.2106C6.72931 11.1824 6.69814 11.121 6.66648 11.1258C6.63482 11.1307 6.71064 11.2975 6.77699 11.3725C6.91759 11.5314 7.10021 11.6611 6.9976 11.6562C6.9916 11.6559 6.91536 11.5666 6.89666 11.5692C6.75098 11.5926 6.66342 11.6771 6.52538 11.7075C6.50627 11.7116 6.42178 11.612 6.40959 11.6133C6.28232 11.6271 6.46534 11.7521 6.6054 11.958C6.37844 11.727 6.21426 11.6125 6.16208 11.6649C6.13063 11.6964 6.23861 11.7879 6.29127 11.8772C6.30717 11.9041 6.21503 11.8603 6.25943 11.9101C6.40444 12.073 6.60156 12.2185 6.47881 12.2074C6.47317 12.2066 6.39404 12.1172 6.38087 12.1207C6.29529 12.1426 6.45433 12.3052 6.41886 12.3828C6.39109 12.4436 6.21304 12.4303 6.14715 12.4672C5.88376 12.2162 5.89755 12.3229 6.06091 12.5152C6.02132 12.5422 5.99693 12.5886 5.94067 12.5977C5.9214 12.6009 5.85186 12.5211 5.84224 12.5147C5.6918 12.4139 5.85521 12.5963 5.85523 12.6103C5.84768 12.7537 5.652 12.6914 5.71166 12.8915C5.71385 12.8986 5.89341 13.0766 5.74012 12.9701C5.72963 12.9627 5.66975 12.8587 5.62954 12.8883C5.58932 12.9179 5.42723 12.8921 5.4655 13.0221C5.47465 13.0535 5.59509 13.2248 5.45557 13.139C5.43668 13.1273 5.38736 13.074 5.35362 13.051C5.2459 12.9778 5.42375 13.1616 5.2492 13.0303C5.07467 12.8991 4.92156 12.8244 4.98314 12.9773C4.9848 12.9819 5.12076 13.1328 5.10358 13.1463C5.07602 13.1678 5.01169 13.1744 4.98788 13.2015C4.97654 13.2146 5.0755 13.2929 5.07511 13.2966C5.04659 13.4294 4.90838 13.4125 4.78761 13.4694C4.76529 13.4797 4.8449 13.6451 4.71608 13.5841C4.57495 13.5174 4.16056 13.0573 4.19093 13.2392C4.20282 13.3123 4.73288 13.8914 4.38256 13.6715C4.34808 13.8543 4.09771 13.817 4.09419 14.0297C4.09396 14.0392 4.23746 14.2055 4.2239 14.2155C4.20345 14.2301 4.11993 14.1698 4.10295 14.178C4.02994 14.2104 4.04711 14.3195 3.9884 14.3618C3.96628 14.3781 3.896 14.2987 3.8696 14.318C3.84328 14.3374 3.92962 14.4485 3.85086 14.4341C3.79103 14.4228 3.56182 14.2515 3.50772 14.2605C3.71037 14.4543 3.68555 14.4722 3.7027 14.5618C3.7061 14.5791 3.78458 14.6382 3.78985 14.6498C3.81284 14.6987 3.74151 14.6564 3.76843 14.7077C3.77485 14.72 3.8443 14.7859 3.85348 14.7997C3.9342 14.9196 3.74178 14.8097 3.70836 14.7904C3.58123 14.7176 3.66071 14.8148 3.60183 14.7954C3.54299 14.7761 3.51908 14.6993 3.47322 14.6983C3.37828 14.6963 3.33326 14.7664 3.28559 14.8105C3.26701 14.8284 3.37201 14.9034 3.37151 14.908C3.35838 14.9691 3.22246 14.915 3.38717 15.1114C2.88326 14.6862 3.41146 15.1786 3.26323 15.1436C3.25136 15.1407 3.01983 14.9324 3.00247 14.8843C2.98515 14.8361 3.07992 14.8775 3.05014 14.8053C3.0432 14.7883 2.86102 14.5563 2.85225 14.5399C2.78378 14.4113 3.12642 14.726 3.14668 14.7418C3.36624 14.9109 3.1743 14.6565 3.16812 14.6314C3.13974 14.5165 3.22462 14.522 3.20975 14.4343C3.20043 14.3773 2.98129 14.1655 3.00695 14.152C3.0921 14.1068 3.42298 14.3755 3.21421 14.0598C3.16975 13.9924 2.91507 13.777 3.15085 13.9088C3.16571 13.9171 3.37357 14.046 3.28291 13.9213C3.27147 13.9056 3.20084 13.839 3.19814 13.8299C3.18144 13.7708 3.25207 13.8087 3.24872 13.7583C3.24536 13.7079 3.23356 13.64 3.2844 13.6342C3.31492 13.6305 3.46717 13.7327 3.50711 13.7549C3.62173 13.8193 3.49323 13.6508 3.61907 13.7426C3.74558 13.8347 3.89016 14.0249 3.99896 14.0558C3.81699 13.8812 3.63192 13.7002 3.44972 13.5237C3.53485 13.4466 3.67153 13.4207 3.74238 13.3295C3.75098 13.318 3.64243 13.2355 3.64911 13.2208C3.67772 13.1591 3.78663 13.1846 3.80456 13.1096C3.81806 13.0512 3.75269 12.9113 3.76356 12.8472C3.996 13.0214 3.97993 12.8957 4.03915 12.8715C4.0598 12.8629 4.11488 12.9168 4.14314 12.9235C4.24837 12.9475 4.04538 12.7911 4.02653 12.7526C3.94632 12.5881 4.36963 12.9805 4.41146 12.9155C4.41382 12.9122 4.224 12.6651 4.21473 12.647C4.15351 12.5299 4.29746 12.7154 4.3325 12.7114C4.3965 12.7042 4.47339 12.7298 4.44755 12.6259C4.43972 12.5953 4.32808 12.4343 4.45835 12.5124C4.47542 12.5226 4.5477 12.5942 4.55441 12.5957C4.6696 12.6184 4.43849 12.3977 4.38443 12.2973C4.33039 12.197 4.52871 12.3083 4.58265 12.3438C4.72242 12.4353 4.61823 12.4084 4.62887 12.4207C4.7556 12.5662 4.75928 12.5142 4.79225 12.5029C5.02304 12.7149 5.03898 12.6706 4.82551 12.4904C4.80214 12.4708 4.8069 12.5083 4.79225 12.5029C4.5874 12.2721 4.59133 12.2107 4.83607 12.3699C4.95075 12.4446 5.04894 12.5692 5.05831 12.4757C5.06266 12.4334 4.8969 12.2947 4.87462 12.2326C4.82385 12.091 5.03089 12.1649 5.05606 12.0921C5.06519 12.0656 4.96231 12.0026 4.96559 11.9817C4.97404 11.9261 5.06643 11.9574 5.06531 11.8925C5.0651 11.8865 4.9682 11.809 4.97696 11.7975C5.04167 11.7081 5.16465 11.6932 5.24469 11.6117C5.28333 11.5723 5.30155 11.4538 5.35078 11.4216C5.43557 11.3654 5.64995 11.4003 5.67635 11.3088C5.69395 11.2494 5.59576 11.1733 5.55078 11.0983C5.46345 10.9529 5.73154 11.0951 5.77194 11.1183C5.77325 11.1191 5.76181 11.1736 5.82535 11.1988C5.93159 11.2789 5.77199 11.1191 5.77194 11.1183C5.79811 11.1332 5.88369 11.0835 5.87946 11.0536C5.8771 11.0373 5.78802 10.961 5.78841 10.954C5.79937 10.7897 5.86504 10.6769 5.99325 10.621C5.99653 10.6209 6.08942 10.7134 6.09594 10.7122C6.18946 10.6981 6.10573 10.5533 6.07876 10.4433C6.05183 10.3333 6.10845 10.3198 6.29693 10.4478C6.30819 10.3947 6.42615 10.4146 6.4963 10.4283C6.56645 10.4419 6.38473 10.2628 6.38337 10.2569C6.33822 10.0697 6.48603 10.1259 6.5774 10.0623C6.62115 10.0323 6.66485 9.93222 6.6831 9.87229C6.69194 9.84246 6.71945 9.83978 6.73887 9.82823C6.74206 9.82578 6.74959 9.81612 6.75284 9.81373C6.76728 9.8043 6.77894 9.79171 6.78289 9.7676C6.78439 9.75892 6.69917 9.6835 6.69765 9.67884C6.64565 9.53921 6.81937 9.75793 6.86271 9.78485C7.02026 9.88325 7.10266 9.93693 7.09842 9.82572C7.0965 9.80108 6.86826 9.46872 6.87962 9.42794C6.89394 9.37635 6.97448 9.496 6.98678 9.44012C6.98799 9.43542 6.93027 9.36835 6.95515 9.35275C7.06975 9.27967 7.21794 9.23236 7.33143 9.14607C7.34728 9.13447 7.24826 9.0319 7.27073 9.01274C7.37607 8.92305 7.51495 8.84777 7.66778 8.84377C7.70541 8.84329 7.73071 8.94054 7.75029 8.96331C7.86684 9.10192 7.80998 8.84547 7.81909 8.83596C8.00449 8.61679 8.26874 8.76879 8.49762 8.6034C8.5072 8.5941 8.57321 8.30021 8.66559 8.52437C8.67298 8.53901 8.75647 8.76958 8.77642 8.60073C8.77807 8.59014 8.72944 8.47127 8.78688 8.47659C8.84276 8.48207 8.92919 8.39034 9.01407 8.52243C9.04251 8.56393 9.10174 8.80154 9.16747 8.60945C9.16859 8.60611 9.17591 8.57651 9.1875 8.53873C9.22062 8.42496 9.30301 8.23885 9.32448 8.46455C9.32935 8.51423 9.30713 8.82914 9.39705 8.67238C9.41512 8.64216 9.39078 8.56952 9.43692 8.52883C9.50973 8.4664 9.58557 8.55994 9.68803 8.43324C9.70474 8.41046 9.80642 8.20936 9.82697 8.37952C9.82978 8.40609 9.79539 8.50698 9.8183 8.52356C9.92499 8.60251 10.065 8.56591 10.158 8.67218C10.1902 8.70951 10.1173 8.86536 10.1414 8.92168C10.1659 8.97805 10.2236 9.04616 10.2908 8.98919C10.3594 8.93267 10.4167 8.66191 10.489 8.66824C10.8104 8.70057 10.9901 8.99024 11.1932 9.1653C11.224 9.19185 11.254 9.0931 11.3039 9.12749C11.4698 9.23907 11.7672 9.40258 11.8026 9.6365C11.8055 9.64059 11.8172 9.65037 11.82 9.65451C11.8197 9.67613 11.8168 9.69875 11.8108 9.72246C11.763 9.91321 11.5798 9.90313 11.5863 10.0082C11.5897 10.0587 11.8487 9.87199 11.8624 9.87199C11.9992 9.86935 11.9412 10.0121 12.0293 10.0427C12.0476 10.049 12.1293 9.94876 12.1438 9.95509C12.1941 9.97594 12.1883 10.0532 12.2286 10.0806C12.2468 10.0926 12.3153 10.0225 12.3233 10.0419C12.3432 10.0877 12.3418 10.1461 12.3065 10.2424C12.3032 10.2512 12.1954 10.3145 12.2159 10.3428C12.2494 10.3885 12.2315 10.5014 12.3438 10.4841C12.3775 10.4787 12.5407 10.3255 12.4567 10.4616C12.4391 10.4901 12.2361 10.6667 12.438 10.5421C12.4716 10.5214 12.7547 10.3649 12.6351 10.5324C12.6036 10.5765 12.462 10.7469 12.503 10.74C12.5092 10.7384 12.588 10.6467 12.6096 10.6526C12.6844 10.6746 12.7236 10.7347 12.7985 10.7591C12.8186 10.7655 12.8902 10.66 12.9174 10.6722C12.9923 10.7056 13.0342 10.7961 13.0567 10.8767C13.0649 10.9066 12.977 10.9636 12.9702 10.9728C12.8595 11.1213 13.0515 10.9659 13.0692 10.9638C13.177 10.9526 13.1274 11.0686 13.1914 11.0917C13.2088 11.0983 13.286 11.009 13.2959 11.0043C13.3941 10.9592 13.2231 11.0853 13.2212 11.1172C13.2156 11.207 13.2694 11.2503 13.323 11.2851C13.3428 11.2978 13.4242 11.1856 13.4408 11.1981C13.5411 11.27 13.6181 11.3705 13.6448 11.508C13.6496 11.5341 13.5638 11.5959 13.5495 11.6158C13.4497 11.7541 13.648 11.6312 13.6713 11.6241C13.7772 11.5914 13.7229 11.669 13.7652 11.6886C13.9732 11.7831 14.1079 12.0152 14.2175 12.1864C14.3608 12.4091 14.427 12.6244 14.6162 12.7869C14.6282 12.7974 14.7186 12.69 14.7302 12.6978C14.8752 12.8023 14.9543 12.9653 15.1044 13.0655C15.1165 13.0739 15.1984 12.9679 15.2211 12.9783C15.2683 12.999 15.3045 13.0477 15.3068 13.1117C15.3081 13.1427 15.204 13.1977 15.207 13.2274C15.2138 13.2965 15.2474 13.3458 15.3016 13.3722C15.3248 13.3833 15.3982 13.264 15.4208 13.2857C15.5766 13.4309 15.7369 13.5667 15.7571 13.8431C15.7585 13.8621 15.5676 14.0602 15.6274 14.0468C15.6845 13.9961 15.7496 13.9344 15.8096 13.8791C16.054 14.0739 16.1951 14.3619 16.3976 14.5976C16.4061 14.6075 16.4964 14.4911 16.5135 14.5097C16.6127 14.6178 16.7398 14.6935 16.7376 14.902C16.7375 14.9225 16.546 15.0929 16.6043 15.0982C16.6148 15.0989 16.6849 15.1235 16.7371 15.0977C16.7448 15.0936 16.8234 15.0027 16.8406 15.0158C16.9387 15.0932 17.0079 15.2061 17.0396 15.346C17.0445 15.3688 16.9374 15.4408 16.9401 15.4578C16.9601 15.5774 17.1057 15.5905 17.0877 15.7398C17.0753 15.8401 16.8989 15.974 16.7649 16.1477C16.746 16.1722 16.7699 16.2045 16.6797 16.2926C16.4529 16.5142 16.1873 16.7386 15.9471 16.9764C15.8954 17.0276 15.989 17.0126 15.8395 17.1104C15.8294 17.1169 15.7604 17.1289 15.7105 17.1629C15.6759 17.1865 15.5909 17.2832 15.5432 17.3096C15.4956 17.336 15.5635 17.2514 15.503 17.2777C15.4419 17.3045 15.3427 17.4119 15.2993 17.3912ZM6.8107 10.4883C6.92407 10.5466 6.60158 10.2347 6.65327 10.3363C6.65616 10.3415 6.80508 10.4855 6.8107 10.4883ZM3.91705 13.6536C4.0927 13.7558 3.903 13.5329 3.76947 13.4517C3.63607 13.3706 3.86376 13.6226 3.91705 13.6536ZM3.69207 14.102C3.84266 14.1698 3.38612 13.7266 3.43976 13.8571C3.44272 13.8646 3.68331 14.0981 3.69207 14.102ZM16.6111 16.0747C16.6071 16.0792 16.6226 16.104 16.6273 16.1004C16.7414 16.0137 16.7104 15.9641 16.6111 16.0747ZM3.47892 14.5565C3.55308 14.6034 3.51431 14.4998 3.4221 14.4415C3.34792 14.3947 3.38666 14.4983 3.47892 14.5565ZM8.67809 9.75317C8.68036 9.75946 8.70222 9.7601 8.6927 9.72355C8.66183 9.60575 8.63985 9.64691 8.67809 9.75317ZM2.92769 15.1505C3.02732 15.08 3.45914 15.3882 3.3265 15.4422C3.30248 15.452 3.23964 15.2901 3.18456 15.2794C3.08406 15.2601 3.29881 15.5132 3.13176 15.4326C3.10126 15.4177 2.92116 15.1538 2.9273 15.1499C2.92743 15.1501 2.92756 15.1503 2.92769 15.1505ZM7.21639 10.8435C7.22118 10.8471 7.24481 10.8303 7.241 10.8258C7.14806 10.7167 7.10041 10.7505 7.21639 10.8435ZM9.79898 10.0755C9.79619 10.0877 9.84686 10.1198 9.85294 10.1099C9.97213 9.90622 9.85559 9.83498 9.79898 10.0755ZM6.13932 12.4613C6.22215 12.5823 6.20891 12.6209 6.06114 12.5153C6.08927 12.4994 6.11161 12.4778 6.13932 12.4613Z" fill="#393737"/>
<path d="M20.0501 16.1436C19.9915 16.1485 19.9705 16.0806 19.9699 16.0085C19.9696 15.986 20.0228 15.9265 20.0248 15.9082C20.0285 15.8723 19.9913 15.8932 19.9988 15.8527C20.0015 15.839 20.083 15.7428 20.0841 15.7307C20.0896 15.6653 20.044 15.6712 20.0318 15.6286C19.9719 15.4187 19.8636 15.2784 19.7572 15.1271C19.722 15.0772 19.7341 14.9435 19.6562 14.9476C19.6471 14.9481 19.5841 15.0391 19.5776 15.0456C19.4773 15.1447 19.6166 14.9703 19.6235 14.9384C19.6504 14.8122 19.6084 14.768 19.5411 14.771C19.5123 14.7725 19.3985 14.9615 19.4545 14.8495C19.4583 14.8419 19.5331 14.7514 19.5358 14.7377C19.5417 14.7069 19.5082 14.708 19.5052 14.6942C19.4998 14.667 19.4964 14.6659 19.4816 14.6532C19.4621 14.635 19.4717 14.5693 19.433 14.5735C19.4245 14.5747 19.3588 14.6758 19.3387 14.6864C19.3187 14.6969 19.3042 14.6733 19.3143 14.6454C19.3243 14.6175 19.384 14.544 19.3958 14.5257C19.4954 14.3717 19.3196 14.5567 19.3128 14.5594C19.1929 14.6031 19.2316 14.4516 19.1789 14.4127C19.1387 14.3834 19.0676 14.3896 19.0336 14.356C18.9934 14.3156 18.9943 14.2348 18.9437 14.2109C18.9385 14.2083 18.8591 14.3256 18.8525 14.3226C18.7826 14.2908 18.7322 14.2338 18.7297 14.1126C18.7295 14.1003 18.8117 14.0067 18.816 13.9885C18.8405 13.8793 18.9296 13.6395 18.5835 14.0561C18.5713 14.0206 18.5543 13.9806 18.5974 13.8767C18.6251 13.8098 18.7202 13.7119 18.668 13.7449C18.6563 13.7522 18.5904 13.851 18.5783 13.8548C18.5272 13.8707 18.5229 13.8194 18.4614 13.8498C18.4487 13.8562 18.3864 13.9423 18.3735 13.9565C18.2687 14.0715 18.4022 13.8516 18.409 13.8334C18.4255 13.7885 18.4303 13.7612 18.4283 13.7439C18.4347 13.7169 18.4058 13.7255 18.3893 13.7115C18.3837 13.7065 18.3101 13.8291 18.302 13.8287C18.2612 13.8256 18.2385 13.7961 18.2422 13.7237C18.2431 13.7074 18.3136 13.6081 18.3172 13.5949C18.3318 13.5376 18.2086 13.7314 18.221 13.6809C18.2233 13.6704 18.2786 13.5823 18.2839 13.5722C18.3673 13.413 18.2294 13.6267 18.2247 13.6304C18.1594 13.681 18.273 13.4404 18.2255 13.4571C18.2199 13.4595 18.164 13.5789 18.1524 13.5787C18.0747 13.5777 18.0297 13.5152 18.0077 13.3905C18.0041 13.3713 18.0509 13.2838 18.0552 13.2724C18.1203 13.093 18.0116 13.324 18.0048 13.3316C17.9525 13.3844 18.0065 13.1754 17.8772 13.4512C17.8036 13.3094 17.6525 13.4403 17.6016 13.1491C17.6008 13.1457 17.6319 13.0239 17.63 13.0176C17.6072 12.94 17.5708 13.1321 17.4999 13.3613C17.4828 13.419 17.5223 13.1328 17.5241 13.1116C17.5329 13.0339 17.575 12.8517 17.5758 12.8365C17.5792 12.7164 17.4667 13.3245 17.447 13.3211C17.4465 13.3199 17.4694 13.2084 17.4696 13.197C17.4701 13.161 17.4567 13.2045 17.4578 13.165C17.4607 13.0735 17.5031 12.7759 17.4539 12.9452C17.4478 12.9672 17.3976 13.3143 17.3819 13.2952C17.3755 13.2873 17.342 13.2888 17.3355 13.2651C17.329 13.2414 17.3491 13.13 17.3491 13.1251C17.3399 12.9735 17.3573 12.9132 17.3665 12.6915C17.3741 12.4706 17.3229 12.9939 17.3113 13.0517C17.2999 13.1094 17.2921 12.9847 17.2904 12.9415C17.2891 12.8984 17.3021 12.8274 17.2995 12.8028C17.2806 12.642 17.2637 13.0617 17.2474 13.1441C17.2115 13.3394 17.2227 12.9494 17.2015 12.9099C17.1961 12.8993 17.1961 12.9882 17.1906 12.9963C17.1693 13.0269 17.1614 12.9048 17.1347 13.0156C17.1298 13.0336 17.1076 13.2676 17.0995 13.0954C17.0981 13.0706 17.1046 12.9735 17.0961 12.9516C17.0879 12.93 17.0747 12.9134 17.0625 12.9138C17.0562 12.914 17.0501 12.9188 17.0453 12.93C17.0352 12.9541 17.0482 13.1141 17.0352 13.0645C17.0293 13.0424 17.0389 12.9486 17.0275 12.9148C17.016 12.881 16.9875 12.8858 16.9768 12.8894C16.9661 12.8931 16.9764 13.0143 16.9758 13.0225C16.9723 13.0695 16.9559 13.1288 16.9543 13.1287C16.8745 13.1473 16.7725 12.9516 16.6946 13.0318C16.6887 13.0379 16.7125 13.1638 16.7118 13.1661C16.6983 13.2225 16.6635 12.8833 16.6283 12.7735C16.672 13.0297 16.6549 12.9847 16.6434 13.0156C16.6379 13.0307 16.6593 13.1291 16.6604 13.1394C16.6758 13.2918 16.6341 13.0988 16.6246 13.0594C16.5901 12.9147 16.6138 13.0889 16.5902 12.9923C16.5662 12.8965 16.5518 12.7505 16.5351 12.7556C16.5484 12.8478 16.6061 13.0842 16.6023 13.1252C16.5904 13.279 16.4732 13.1106 16.4313 13.1014C16.3915 13.0915 16.3851 13.1113 16.3555 13.0849C16.3014 13.0376 16.3665 13.2064 16.3701 13.2917C16.3744 13.377 16.2494 12.9511 16.2171 12.8612C16.1844 12.7715 16.2106 12.8662 16.1901 12.8178C16.1693 12.7694 16.1592 12.7045 16.1422 12.6893C16.1248 12.6743 16.1497 12.845 16.1792 12.9404C16.2409 13.1427 16.3245 13.3484 16.2759 13.2828C16.273 13.2789 16.2387 13.1673 16.2294 13.1581C16.1567 13.0885 16.1094 13.1006 16.0353 13.0453C16.025 13.0375 15.9808 12.9153 15.9741 12.9095C15.9031 12.8492 16.0014 13.0454 16.0793 13.2766C15.9549 12.9779 15.8645 12.8011 15.8328 12.8133C15.814 12.8204 15.8756 12.9477 15.9064 13.0432C15.9158 13.0719 15.8628 12.9895 15.8888 13.0507C15.9744 13.2506 16.0884 13.4656 16.0218 13.3901C16.0187 13.3865 15.9708 13.2776 15.9637 13.273C15.9169 13.2433 16.0142 13.4487 16.0014 13.4861C15.9917 13.5152 15.891 13.4117 15.8558 13.4055C15.6805 13.0867 15.6946 13.1742 15.8102 13.3971C15.7896 13.397 15.7802 13.419 15.7476 13.398C15.7364 13.391 15.6857 13.2986 15.6792 13.2892C15.5768 13.1424 15.6956 13.3558 15.6975 13.3659C15.7106 13.4668 15.5808 13.3303 15.6464 13.5037C15.6487 13.51 15.7874 13.7212 15.6762 13.5737C15.6684 13.5636 15.6154 13.4606 15.5946 13.4639C15.5743 13.4668 15.4658 13.3772 15.5116 13.4885C15.5152 13.4972 15.529 13.5218 15.5424 13.5468C15.5746 13.595 15.6004 13.6479 15.5281 13.5672C15.5135 13.5509 15.4717 13.4917 15.4454 13.461C15.3613 13.3634 15.5106 13.5707 15.3722 13.4033C15.2339 13.2358 15.1192 13.1186 15.1858 13.2558C15.1876 13.2598 15.3035 13.426 15.2943 13.4289C15.2795 13.4334 15.2376 13.412 15.2263 13.4222C15.2209 13.4272 15.3 13.525 15.3003 13.5276C15.3034 13.6133 15.2083 13.5445 15.1371 13.537C15.124 13.5354 15.2046 13.6892 15.1085 13.5919C15.0032 13.4854 14.6499 12.9788 14.7005 13.1247C14.7206 13.1831 15.1708 13.8242 14.9004 13.5199C14.9078 13.64 14.7344 13.5104 14.7675 13.665C14.7689 13.6719 14.8924 13.8524 14.885 13.8543C14.8738 13.8566 14.808 13.7783 14.798 13.7774C14.7547 13.7714 14.7843 13.8584 14.7521 13.8655C14.7401 13.8683 14.6799 13.7814 14.6655 13.7848C14.6512 13.7883 14.7273 13.9051 14.6723 13.8623C14.6305 13.8297 14.449 13.6105 14.4144 13.595C14.5819 13.8199 14.5683 13.8228 14.5947 13.8956C14.5998 13.9097 14.662 13.985 14.6675 13.9957C14.691 14.0409 14.6363 13.9808 14.6628 14.0294C14.6692 14.041 14.7265 14.1177 14.7349 14.1316C14.8088 14.2525 14.662 14.0933 14.6365 14.0656C14.5395 13.9603 14.6088 14.064 14.5662 14.0258C14.5237 13.9876 14.495 13.9215 14.4642 13.902C14.4005 13.8618 14.3821 13.8949 14.3576 13.9078C14.3482 13.9134 14.4308 14.0112 14.4312 14.0144C14.4326 14.0538 14.3329 13.9587 14.4755 14.1699C14.0683 13.6524 14.5029 14.2292 14.3981 14.143C14.3897 14.136 14.2005 13.8888 14.1809 13.8464C14.1613 13.804 14.2315 13.873 14.1996 13.8079C14.1921 13.7926 14.0319 13.5481 14.0233 13.5325C13.9561 13.4102 14.2373 13.7809 14.2534 13.8007C14.4282 14.0143 14.2577 13.7494 14.2494 13.7285C14.2113 13.6327 14.2689 13.6713 14.2444 13.6009C14.2287 13.5553 14.0471 13.3106 14.062 13.3111C14.1113 13.3126 14.3769 13.6448 14.185 13.328C14.1441 13.2605 13.9382 12.9985 14.1176 13.1914C14.1289 13.2036 14.2891 13.3829 14.2078 13.2545C14.1976 13.2383 14.1393 13.1606 14.136 13.1529C14.115 13.1027 14.1685 13.1593 14.1579 13.121C14.1472 13.0827 14.1281 13.028 14.161 13.0445C14.1808 13.0543 14.2994 13.1913 14.3298 13.2239C14.417 13.3179 14.3032 13.1419 14.4025 13.2605C14.5023 13.3797 14.6305 13.5783 14.7082 13.6453C14.5577 13.443 14.404 13.2347 14.253 13.0309C14.297 13.0091 14.3839 13.0458 14.4161 13.0079C14.4199 13.003 14.3337 12.8981 14.3357 12.8901C14.3445 12.8565 14.4215 12.9196 14.421 12.8719C14.4203 12.8346 14.3533 12.7054 14.3499 12.6627C14.5341 12.8854 14.5025 12.7866 14.538 12.793C14.5503 12.7951 14.5961 12.8572 14.616 12.8736C14.6903 12.9342 14.5287 12.7366 14.5097 12.7007C14.4288 12.5473 14.7767 13.0078 14.7938 12.9772C14.7949 12.9757 14.627 12.7171 14.6178 12.7C14.5574 12.5891 14.6844 12.7839 14.7071 12.7953C14.7487 12.8161 14.8043 12.8663 14.7697 12.7795C14.7594 12.7539 14.6581 12.5902 14.758 12.7007C14.7711 12.7151 14.8313 12.7971 14.836 12.801C14.9167 12.8646 14.7257 12.6085 14.6729 12.5128C14.6201 12.4171 14.771 12.5797 14.813 12.6277C14.9215 12.7519 14.8475 12.6897 14.8566 12.703C14.9654 12.8615 14.9592 12.8248 14.9794 12.83C15.1687 13.0796 15.172 13.0537 14.9995 12.8344C14.9806 12.8104 14.9901 12.8399 14.9794 12.83C14.8812 12.6882 14.8356 12.6123 14.848 12.6111C14.8511 12.6102 14.8579 12.6023 14.861 12.6015C14.8726 12.5994 14.9191 12.6438 15.0017 12.74C15.0895 12.8428 15.1705 12.9777 15.1668 12.9103C15.1654 12.8797 15.0376 12.7058 15.0171 12.6485C14.9713 12.5172 15.1221 12.6587 15.1345 12.6131C15.1395 12.5963 15.0649 12.5038 15.0663 12.4887C15.0702 12.4483 15.1355 12.5119 15.1327 12.4604C15.1324 12.4556 15.063 12.3531 15.069 12.3476C15.1135 12.3036 15.1988 12.3455 15.254 12.3174C15.2805 12.3038 15.2965 12.2179 15.3312 12.2154C15.3917 12.2101 15.529 12.3432 15.5509 12.285C15.566 12.2473 15.5088 12.1375 15.4863 12.0552C15.4437 11.8952 15.6043 12.1443 15.6266 12.1841C15.6273 12.1854 15.6153 12.2224 15.653 12.2752C15.7125 12.3936 15.6265 12.1848 15.6266 12.1841C15.6418 12.2093 15.6997 12.2154 15.7002 12.1898C15.7005 12.1758 15.6534 12.0684 15.6545 12.0631C15.6809 11.9392 15.7422 11.8844 15.8302 11.9122C15.8322 11.914 15.8728 12.0385 15.8769 12.0413C15.9344 12.0833 15.9089 11.923 15.9152 11.8213C15.9214 11.7198 15.9604 11.7415 16.0423 11.952C16.0598 11.9174 16.1227 12.0033 16.1579 12.0564C16.1931 12.1096 16.1324 11.8619 16.1331 11.8565C16.1527 11.685 16.2235 11.8183 16.2884 11.8276C16.3197 11.8324 16.3704 11.7847 16.398 11.7516C16.4197 11.7249 16.4449 11.7812 16.4623 11.7397C16.4646 11.7342 16.4434 11.6226 16.4437 11.6181C16.4498 11.4795 16.4798 11.7559 16.4928 11.804C16.54 11.9792 16.5638 12.0727 16.5835 11.9843C16.5875 11.9641 16.5573 11.5648 16.5701 11.5397C16.586 11.5078 16.596 11.651 16.6118 11.6141C16.6132 11.6111 16.6025 11.5233 16.6156 11.5258C16.6763 11.5359 16.7439 11.5814 16.8033 11.5686C16.8116 11.5672 16.7916 11.428 16.8036 11.4236C16.8604 11.4033 16.9255 11.4058 16.9827 11.4703C16.9967 11.4866 16.9899 11.5849 16.9934 11.614C17.0135 11.7901 17.0349 11.5336 17.0397 11.5287C17.0474 11.5192 17.055 11.5118 17.0625 11.5062C17.155 11.4393 17.2209 11.6312 17.3198 11.5354C17.3248 11.5292 17.3903 11.2584 17.3911 11.495C17.3915 11.5108 17.3888 11.7524 17.4199 11.5898C17.422 11.5796 17.4213 11.4549 17.4411 11.4695C17.4604 11.484 17.5038 11.4051 17.5167 11.5439C17.5212 11.5877 17.5114 11.8286 17.5613 11.6419C17.5634 11.6286 17.6656 11.205 17.6386 11.5034C17.634 11.5525 17.5854 11.8651 17.6396 11.7092C17.6502 11.679 17.6501 11.6076 17.6727 11.5665C17.708 11.5032 17.7258 11.5921 17.7808 11.4587C17.7901 11.435 17.8531 11.2282 17.8415 11.392C17.8396 11.4176 17.8144 11.5203 17.8217 11.5338C17.8553 11.598 17.9167 11.5387 17.9456 11.6203C17.9555 11.649 17.9092 11.8135 17.9142 11.8617C17.9193 11.9099 17.9387 11.9599 17.9738 11.8884C18.0094 11.8168 18.0583 11.5484 18.09 11.534C18.2302 11.4728 18.2986 11.6608 18.397 11.7203C18.4118 11.7292 18.431 11.6326 18.4557 11.6395C18.5456 11.6633 18.7364 11.6428 18.7239 11.8651C18.7117 12.0416 18.5895 12.1246 18.6026 12.2048C18.6079 12.2426 18.7643 11.9666 18.7741 11.9602C18.8673 11.8926 18.8392 12.0353 18.9014 12.019C18.9144 12.0157 18.9647 11.8973 18.9753 11.8958C19.0124 11.8901 19.0135 11.9555 19.0433 11.9599C19.0569 11.9617 19.1021 11.8747 19.109 11.8872C19.1259 11.9159 19.1279 11.9644 19.1054 12.0575C19.1033 12.0659 19.0284 12.1633 19.0433 12.1772C19.0681 12.1997 19.0547 12.2971 19.1348 12.2365C19.1587 12.2182 19.2773 12.0283 19.2161 12.1723C19.2033 12.2025 19.0546 12.4265 19.2017 12.2446C19.2254 12.2139 19.4365 11.977 19.3458 12.1592C19.3219 12.2071 19.213 12.3989 19.2427 12.3771C19.2472 12.3735 19.3082 12.2696 19.3238 12.266C19.3781 12.2551 19.4045 12.289 19.4591 12.2816C19.4739 12.2795 19.5328 12.1686 19.5528 12.169C19.5601 12.1691 19.567 12.1702 19.5734 12.1723C19.5762 12.1766 19.5914 12.1832 19.5942 12.1876C19.6259 12.1942 19.6358 12.237 19.6372 12.2804C19.6377 12.2989 19.5695 12.3767 19.5634 12.3862C19.4648 12.5403 19.6189 12.3479 19.6311 12.3391C19.7049 12.287 19.6525 12.3923 19.6913 12.3831C19.7019 12.3809 19.7683 12.2839 19.7757 12.2763C19.8487 12.2032 19.7136 12.3655 19.707 12.3896C19.6883 12.4578 19.717 12.4676 19.747 12.4713C19.7581 12.4725 19.8311 12.357 19.8401 12.3594C19.8951 12.3712 19.9298 12.4135 19.9247 12.5035C19.9236 12.5206 19.856 12.601 19.8432 12.6214C19.7536 12.7636 19.9064 12.5925 19.9231 12.5778C19.9992 12.5106 19.9501 12.5897 19.9751 12.5868C20.0982 12.5713 20.1495 12.6865 20.1942 12.7674C20.2527 12.8722 20.2611 13.0031 20.3604 13.0452C20.3666 13.0479 20.4449 12.9323 20.4513 12.9332C20.5308 12.9507 20.5564 13.038 20.6399 13.0503C20.6466 13.0515 20.7189 12.9404 20.7323 12.9387C20.7604 12.9347 20.7764 12.9556 20.7674 13.0016C20.7631 13.0238 20.6844 13.1067 20.6815 13.1272C20.6745 13.1751 20.6888 13.1975 20.7205 13.1948C20.7342 13.1934 20.8031 13.076 20.8145 13.0827C20.8943 13.1257 20.9788 13.1598 20.9463 13.3543C20.944 13.3677 20.7836 13.5909 20.8258 13.5567C20.8723 13.4962 20.926 13.4244 20.9753 13.3594C21.1061 13.4024 21.1523 13.5562 21.2482 13.6464C21.2523 13.6502 21.332 13.5279 21.3403 13.5346C21.3885 13.5734 21.4607 13.5771 21.4246 13.7309C21.4211 13.746 21.2649 13.9491 21.303 13.9292C21.3098 13.9255 21.3526 13.9149 21.3917 13.8747C21.3975 13.8685 21.4651 13.7698 21.4744 13.7724C21.527 13.7891 21.5544 13.8437 21.5523 13.9334C21.5518 13.9481 21.4683 14.0447 21.4673 14.056C21.4607 14.1355 21.5557 14.0857 21.5189 14.2026C21.4939 14.2812 21.3539 14.4514 21.2355 14.6335C21.2188 14.6592 21.2294 14.6731 21.1545 14.7745C20.9662 15.0296 20.7515 15.3026 20.5516 15.5751C20.5085 15.6337 20.5736 15.5845 20.4574 15.7173C20.4496 15.7261 20.4016 15.7631 20.3626 15.8084C20.3356 15.8398 20.2628 15.9454 20.2265 15.9842C20.1903 16.023 20.2497 15.9333 20.205 15.9772C20.1597 16.0218 20.0756 16.1411 20.0501 16.1436ZM16.3109 12.2962C16.3558 12.4115 16.2578 11.9737 16.2619 12.083C16.2622 12.0888 16.3086 12.2906 16.3109 12.2962ZM14.5866 13.3168C14.7209 13.4635 14.5571 13.2226 14.4545 13.1086C14.3519 12.9946 14.5459 13.2724 14.5866 13.3168ZM14.511 13.554C14.6229 13.6651 14.2443 13.1538 14.3018 13.2714C14.3051 13.2781 14.5045 13.5475 14.511 13.554ZM21.145 14.6427C21.1416 14.6476 21.1477 14.6595 21.1515 14.655C21.2421 14.5448 21.2297 14.5211 21.145 14.6427ZM14.4444 13.8004C14.5017 13.865 14.4586 13.7732 14.3873 13.6928C14.33 13.6282 14.3731 13.72 14.4444 13.8004ZM17.2128 12.6912C17.2127 12.6979 17.2211 12.7044 17.2231 12.6667C17.2296 12.5451 17.2147 12.5787 17.2128 12.6912ZM14.1753 14.0112C14.23 14.0001 14.5696 14.4023 14.4901 14.3878C14.4757 14.3852 14.4068 14.2408 14.3682 14.2105C14.2979 14.1553 14.4834 14.4286 14.3584 14.3013C14.3356 14.278 14.1714 14.0109 14.1749 14.0105C14.175 14.0107 14.1751 14.011 14.1753 14.0112ZM16.4431 12.8187C16.4448 12.8244 16.4577 12.8272 16.4567 12.8214C16.4316 12.681 16.4043 12.6756 16.4431 12.8187ZM17.6581 13.0364C17.6557 13.0489 17.6776 13.0665 17.6813 13.0554C17.7529 12.8333 17.704 12.7957 17.6581 13.0364ZM15.8507 13.3972C15.9099 13.5283 15.9078 13.5488 15.8104 13.3973C15.8252 13.3998 15.8362 13.3952 15.8507 13.3972Z" fill="#393737"/>
<path d="M16.5152 7.49771C16.4761 7.49938 16.5181 7.49815 16.5741 7.4851C16.5915 7.48117 16.6698 7.46726 16.6851 7.46304C16.7149 7.45422 16.6762 7.45981 16.7114 7.44877C16.7234 7.44476 16.8464 7.41727 16.856 7.41321C16.9076 7.38974 16.8737 7.38765 16.8957 7.36902C17.0029 7.27129 17.0031 7.16659 16.984 7.06139C16.9793 7.02777 17.0256 6.91378 16.9644 6.92857C16.9575 6.93056 16.8898 7.01805 16.8835 7.02466C16.7886 7.12738 16.9305 6.95508 16.9422 6.92657C16.9887 6.8143 16.9547 6.779 16.9044 6.79945C16.8829 6.80841 16.7864 7.00612 16.8361 6.89268C16.8393 6.88491 16.8995 6.78409 16.9021 6.7712C16.9076 6.74198 16.8819 6.7522 16.8797 6.74076C16.8754 6.71794 16.8726 6.71789 16.8609 6.71104C16.846 6.70098 16.8469 6.63809 16.8177 6.65553C16.8116 6.65968 16.7743 6.7742 16.7616 6.79133C16.749 6.80845 16.7386 6.794 16.7423 6.76538C16.746 6.73674 16.7773 6.64745 16.783 6.62651C16.8288 6.44892 16.7321 6.68459 16.7297 6.69052C16.6596 6.78173 16.6552 6.63384 16.6056 6.62799C16.5702 6.62438 16.5315 6.66922 16.5 6.66367C16.4997 6.66362 16.4995 6.66357 16.4992 6.66352C16.4616 6.65535 16.423 6.59244 16.3841 6.6086C16.3802 6.61016 16.4028 6.7499 16.3987 6.75202C16.3554 6.77459 16.3152 6.76746 16.2382 6.69182C16.2303 6.68421 16.1985 6.56388 16.1877 6.54941C16.1273 6.46061 15.9508 6.26821 16.161 6.76764C16.1337 6.75701 16.103 6.74818 16.0312 6.66355C15.9843 6.60945 15.9293 6.48497 15.9414 6.5447C15.9442 6.55797 16.0089 6.65744 16.0092 6.66929C16.0112 6.71849 15.9682 6.70045 15.9844 6.76392C15.988 6.77697 16.0505 6.86289 16.0606 6.87913C16.1443 7.00963 15.9812 6.81194 15.9654 6.80059C15.8564 6.70939 15.8698 6.76943 15.8464 6.78631C15.8408 6.79032 15.9431 6.89002 15.9417 6.89716C15.9338 6.9324 15.906 6.94342 15.838 6.92513C15.8225 6.92096 15.7349 6.83652 15.7226 6.83072C15.6682 6.80768 15.8424 6.95716 15.7954 6.93641C15.7856 6.93241 15.7054 6.86619 15.6961 6.8595C15.549 6.75624 15.7435 6.9202 15.7471 6.92477C15.792 6.99221 15.5642 6.85497 15.5762 6.90534C15.5782 6.91104 15.6931 6.97566 15.6924 6.98668C15.6887 7.06028 15.6304 7.09483 15.5068 7.1231C15.4878 7.12765 15.3979 7.0857 15.3863 7.08192C15.2032 7.02799 15.4399 7.12384 15.448 7.12974C15.5046 7.17713 15.2907 7.14557 15.5785 7.24542C15.4729 7.31181 15.5525 7.4114 15.4523 7.5C15.4275 7.5235 15.3918 7.54789 15.3397 7.57711C15.3367 7.57902 15.2111 7.58405 15.2056 7.58807C15.1385 7.63764 15.333 7.61569 15.5727 7.61039C15.6327 7.60735 15.349 7.66199 15.3285 7.66805C15.2524 7.68579 15.0663 7.70522 15.0517 7.70975C14.9379 7.75031 15.5485 7.65286 15.5518 7.67069C15.5509 7.67155 15.4383 7.68866 15.4275 7.69246C15.3936 7.70464 15.4391 7.70215 15.4018 7.71526C15.3152 7.74478 15.0229 7.81557 15.1992 7.8022C15.222 7.79984 15.5628 7.71749 15.5509 7.73816C15.5458 7.7469 15.56 7.77605 15.541 7.79129C15.522 7.80669 15.4122 7.83398 15.4076 7.83592C15.2737 7.90839 15.2115 7.91697 15.0074 8.00447C14.8054 8.09504 15.3005 7.91789 15.3578 7.90391C15.4148 7.88968 15.3065 7.95235 15.2689 7.97391C15.231 7.99494 15.1613 8.01371 15.1407 8.02774C15.0077 8.12262 15.389 7.94584 15.47 7.92376C15.6601 7.86624 15.3093 8.03705 15.2868 8.07887C15.2804 8.08942 15.3581 8.04606 15.3681 8.04756C15.4059 8.0528 15.3046 8.12196 15.4151 8.09159C15.4336 8.08768 15.6459 7.98703 15.503 8.08334C15.4825 8.09751 15.3959 8.14194 15.3822 8.16146C15.3614 8.19061 15.3583 8.22587 15.3944 8.22156C15.4209 8.21812 15.5474 8.11917 15.5134 8.15787C15.4984 8.17538 15.4139 8.21758 15.3927 8.24682C15.3716 8.27627 15.3942 8.30108 15.4042 8.30902C15.4143 8.31704 15.5075 8.2388 15.5146 8.23477C15.5556 8.21141 15.6142 8.19148 15.6151 8.19277C15.6764 8.24755 15.595 8.45698 15.7163 8.4686C15.7253 8.46927 15.8018 8.36642 15.804 8.3655C15.8554 8.33782 15.6285 8.59253 15.5746 8.69504C15.7317 8.48803 15.7116 8.53211 15.7435 8.52028C15.7588 8.51431 15.8146 8.43041 15.8214 8.42262C15.9208 8.30596 15.8112 8.47023 15.7902 8.5049C15.7118 8.63143 15.82 8.49279 15.7686 8.57793C15.7187 8.66315 15.6234 8.77511 15.642 8.78541C15.698 8.71094 15.8225 8.50171 15.8548 8.47589C15.9715 8.37543 15.9442 8.57818 15.9762 8.61466C16.0034 8.64918 16.022 8.63806 16.0309 8.67792C16.0486 8.75008 16.0989 8.57603 16.1474 8.50574C16.1944 8.43464 16.0429 8.85182 16.0159 8.94343C15.99 9.03533 16.0257 8.94372 16.0148 8.99529C16.0043 9.04699 15.9717 9.10465 15.9796 9.12784C15.9886 9.15149 16.0743 8.99988 16.1044 8.90459C16.1697 8.70335 16.2166 8.48634 16.2202 8.56795C16.2205 8.57282 16.1861 8.68444 16.1891 8.6974C16.2149 8.79688 16.268 8.81327 16.3117 8.89917C16.3179 8.91119 16.294 9.039 16.2978 9.04749C16.3392 9.13618 16.348 8.91657 16.3926 8.67665C16.3576 8.99831 16.3543 9.1973 16.3983 9.20196C16.424 9.20465 16.4266 9.06319 16.4448 8.96424C16.4499 8.93441 16.463 9.03186 16.4675 8.96546C16.4807 8.74845 16.4726 8.50536 16.5 8.60205C16.5 8.60209 16.5 8.60213 16.5 8.60217C16.5005 8.60379 16.5003 8.61962 16.5 8.63975C16.4996 8.66624 16.4991 8.70017 16.5 8.71901C16.5004 8.72648 16.5009 8.73158 16.5018 8.7329C16.5345 8.7798 16.5334 8.55245 16.5589 8.52361C16.5783 8.50106 16.6312 8.63536 16.6641 8.65336C16.7126 9.01403 16.7385 8.92591 16.7058 8.67683C16.7264 8.68369 16.7433 8.66589 16.769 8.69566C16.7778 8.70578 16.797 8.80944 16.8003 8.82036C16.8543 8.99118 16.808 8.75125 16.8091 8.74111C16.8285 8.64053 16.9221 8.80512 16.9041 8.61957C16.9037 8.61279 16.8183 8.37498 16.8921 8.54441C16.8975 8.55593 16.924 8.66883 16.9466 8.66982C16.9675 8.67154 17.0611 8.77939 17.0399 8.65992C17.0355 8.63086 16.9593 8.43989 17.0426 8.57737C17.0541 8.59596 17.0849 8.6616 17.1057 8.69627C17.1732 8.80612 17.0595 8.57736 17.1708 8.76397C17.2819 8.95072 17.3914 9.07633 17.3493 8.92707C17.3484 8.92257 17.2516 8.74456 17.2619 8.74196C17.279 8.73769 17.3226 8.75984 17.3372 8.74837C17.3441 8.74288 17.269 8.64188 17.269 8.63914C17.2728 8.55123 17.3673 8.62058 17.447 8.61718C17.4627 8.61596 17.3711 8.46834 17.4779 8.55403C17.5971 8.64539 18.0002 9.11478 17.9537 8.95434C17.939 8.8857 17.3869 8.33051 17.7139 8.57305C17.6914 8.44707 17.9062 8.50669 17.8345 8.3532C17.8314 8.34621 17.6527 8.22002 17.6589 8.21556C17.6689 8.20862 17.7597 8.25585 17.77 8.25159C17.8157 8.23477 17.7551 8.16323 17.7823 8.13936C17.7925 8.12987 17.8852 8.18067 17.8979 8.16798C17.9106 8.15471 17.7886 8.08742 17.8586 8.09513C17.9117 8.10142 18.1812 8.19418 18.2225 8.17981C17.9622 8.07565 17.9738 8.06238 17.9136 8.01129C17.9018 8.00157 17.8082 7.9736 17.7978 7.96738C17.7535 7.94201 17.8327 7.96067 17.7837 7.93468C17.7719 7.92847 17.6812 7.89783 17.6663 7.89124C17.5364 7.83524 17.7477 7.88102 17.7852 7.88664C17.9263 7.91182 17.8089 7.86934 17.8661 7.87258C17.9236 7.87465 17.9861 7.91227 18.0232 7.9055C18.1001 7.89042 18.0955 7.84108 18.1063 7.80725C18.1101 7.79343 17.9827 7.77964 17.9803 7.77711C17.9532 7.74602 18.0921 7.7367 17.8418 7.6875C18.4967 7.75662 17.7809 7.66327 17.9153 7.64487C17.9262 7.6435 18.2365 7.66879 18.2805 7.68754C18.3245 7.70679 18.2254 7.7161 18.2935 7.74442C18.3096 7.75017 18.5942 7.82072 18.6107 7.82879C18.7416 7.88536 18.2821 7.81136 18.2568 7.80792C17.9826 7.77536 18.286 7.86138 18.305 7.87641C18.394 7.93708 18.322 7.95648 18.3816 8.00816C18.42 8.04201 18.7123 8.12804 18.6973 8.14628C18.6459 8.20974 18.2388 8.08623 18.5641 8.26994C18.633 8.30992 18.9491 8.41679 18.6854 8.37165C18.6684 8.36985 18.4334 8.31168 18.5644 8.39031C18.5809 8.40038 18.67 8.43887 18.676 8.44561C18.714 8.4903 18.6365 8.47407 18.6585 8.51449C18.6804 8.55501 18.7143 8.61108 18.67 8.6249C18.6433 8.63372 18.4726 8.56923 18.4299 8.55493C18.3073 8.51337 18.4765 8.63861 18.3355 8.57372C18.1951 8.50629 18.0035 8.36714 17.9023 8.34119C18.1179 8.47197 18.3381 8.60813 18.5537 8.7417C18.4972 8.81768 18.3796 8.84463 18.3339 8.9217C18.3283 8.93158 18.4424 9.00565 18.4388 9.01884C18.422 9.07502 18.3184 9.04834 18.3114 9.11408C18.3064 9.1653 18.3779 9.29891 18.3691 9.35907C18.1444 9.17603 18.168 9.28939 18.1136 9.3025C18.0951 9.30684 18.0448 9.24836 18.0198 9.23692C17.927 9.19431 18.1081 9.37473 18.1246 9.41344C18.1911 9.58121 17.8216 9.13783 17.7898 9.1806C17.7889 9.18211 17.9439 9.45056 17.9496 9.47003C17.9944 9.59204 17.8816 9.38715 17.851 9.38119C17.7951 9.37016 17.734 9.32305 17.7463 9.42265C17.7508 9.4516 17.8239 9.63236 17.7236 9.51967C17.7106 9.50483 17.6595 9.41687 17.6542 9.41313C17.5636 9.35164 17.7237 9.62793 17.749 9.73791C17.7734 9.84837 17.6262 9.67651 17.5903 9.6234C17.4947 9.48762 17.5738 9.55287 17.5675 9.53787C17.4905 9.36135 17.4797 9.4045 17.4525 9.39992C17.3088 9.12153 17.2939 9.14977 17.4251 9.39615C17.4396 9.42297 17.4422 9.38911 17.4525 9.39992C17.5739 9.683 17.5483 9.73929 17.3945 9.49337C17.3232 9.37767 17.275 9.22776 17.2526 9.29967C17.242 9.33215 17.3321 9.52837 17.333 9.59141C17.3319 9.73643 17.1978 9.57053 17.1593 9.61549C17.1443 9.63216 17.1972 9.73944 17.1876 9.75487C17.161 9.79645 17.106 9.71983 17.0821 9.77281C17.0799 9.77778 17.1187 9.89546 17.1074 9.89995C17.0209 9.93642 16.9271 9.8742 16.8358 9.88492C16.792 9.89036 16.7177 9.96669 16.6687 9.95599C16.614 9.9449 16.552 9.86713 16.5 9.82377C16.471 9.79983 16.4448 9.78651 16.421 9.80126C16.3773 9.82758 16.3808 9.95132 16.3561 10.0344C16.3051 10.1953 16.2582 9.8974 16.2568 9.85151C16.2569 9.85008 16.2967 9.82458 16.283 9.75953C16.2848 9.62686 16.2575 9.85101 16.2568 9.85151C16.2536 9.82206 16.1834 9.78536 16.1656 9.80633C16.1558 9.81796 16.1433 9.93452 16.1383 9.93835C16.0182 10.0267 15.8962 10.0313 15.804 9.94804C15.8028 9.94523 15.8413 9.81997 15.8382 9.81499C15.7971 9.7425 15.7133 9.88376 15.6295 9.9552C15.5465 10.0267 15.5121 9.97877 15.5701 9.75939C15.5233 9.77086 15.5124 9.65708 15.5119 9.58994C15.5115 9.52294 15.3955 9.74992 15.3905 9.75311C15.2367 9.85673 15.2549 9.70019 15.1899 9.634C15.1584 9.60187 15.066 9.58501 15.0102 9.57888C14.9657 9.57451 14.9832 9.51294 14.9322 9.5218C14.9253 9.52289 14.8594 9.61555 14.8556 9.6181C14.7388 9.69927 14.9266 9.49364 14.9511 9.44981C15.0408 9.29067 15.0916 9.20844 15.0023 9.24372C14.9828 9.2526 14.6941 9.53118 14.6603 9.5321C14.6184 9.53403 14.7236 9.43612 14.6781 9.44116C14.6743 9.44147 14.6141 9.50632 14.6029 9.49025C14.5498 9.41634 14.522 9.31236 14.4569 9.24997C14.4482 9.24107 14.3521 9.34455 14.3373 9.3326C14.2677 9.2764 14.2111 9.19405 14.2168 9.08712C14.2186 9.06062 14.3068 9.01555 14.3283 8.99536C14.4594 8.87488 14.2268 8.98754 14.2185 8.98382C14.0299 8.91808 14.1769 8.70412 14.0152 8.61474C14.0066 8.61182 13.726 8.65533 13.9329 8.53787C13.9463 8.52929 14.1604 8.41574 13.998 8.45223C13.9877 8.45426 13.8783 8.51575 13.8788 8.48124C13.8796 8.44764 13.7834 8.42435 13.8997 8.34054C13.936 8.31307 14.1572 8.21535 13.9626 8.23262C13.9497 8.2368 13.5135 8.2855 13.7973 8.1872C13.8441 8.17119 14.1517 8.09842 13.9836 8.09291C13.951 8.0914 13.886 8.12368 13.8376 8.10998C13.7628 8.08763 13.8359 8.02317 13.689 8.00191C13.6631 7.9991 13.4447 7.99655 13.6013 7.94189C13.6259 7.93364 13.7316 7.92604 13.7411 7.90981C13.7872 7.83393 13.709 7.76881 13.777 7.69357C13.801 7.66743 13.9722 7.66841 14.0165 7.64235C14.0607 7.61598 14.103 7.57056 14.0246 7.548C13.9462 7.52452 13.6743 7.55726 13.6522 7.51605C13.6493 7.51071 13.6468 7.50536 13.6444 7.5C13.5669 7.32041 13.7341 7.15239 13.7874 6.99215C13.7957 6.96705 13.6958 6.97038 13.7018 6.93092C13.7199 6.78856 13.7135 6.50251 13.9552 6.46501C14.145 6.44052 14.2163 6.59689 14.3048 6.56055C14.3461 6.54577 14.0728 6.38249 14.068 6.36943C14.0127 6.24893 14.1652 6.25975 14.1638 6.17473C14.1638 6.15674 14.0447 6.10663 14.0462 6.09155C14.0508 6.0388 14.1258 6.02583 14.1412 5.98269C14.1479 5.96308 14.0639 5.91261 14.0808 5.90068C14.1203 5.87182 14.1777 5.86141 14.277 5.88109C14.2858 5.88314 14.3697 5.97492 14.3915 5.9528C14.4271 5.91605 14.5342 5.92592 14.4985 5.82308C14.4875 5.79245 14.3182 5.64563 14.4602 5.71803C14.49 5.73309 14.6843 5.91889 14.539 5.73294C14.5131 5.70365 14.3381 5.43131 14.5104 5.54461C14.5556 5.57441 14.7277 5.71336 14.7172 5.67529C14.7154 5.66937 14.6232 5.59127 14.6274 5.57079C14.6442 5.49976 14.7008 5.46567 14.7253 5.39573C14.732 5.37667 14.6317 5.29836 14.645 5.27244C14.6818 5.20052 14.7765 5.16801 14.8573 5.15916C14.8872 5.15603 14.9312 5.2511 14.9392 5.25913C15.0667 5.3927 14.9417 5.18013 14.9427 5.16214C14.9482 5.05521 15.0515 5.12728 15.0848 5.07234C15.0945 5.05728 15.0258 4.96139 15.0233 4.95072C15.0023 4.84473 15.0851 5.04038 15.1149 5.0502C15.198 5.07871 15.2485 5.0416 15.295 5.00255C15.3119 4.98809 15.2309 4.87593 15.2474 4.8641C15.3453 4.79139 15.4709 4.75531 15.6032 4.79077C15.6282 4.79769 15.6479 4.90161 15.6595 4.923C15.7381 5.07351 15.71 4.84331 15.715 4.81921C15.7326 4.71064 15.776 4.79503 15.8112 4.76821C15.9883 4.63298 16.2587 4.66051 16.4446 4.69678C16.4634 4.70015 16.4819 4.70401 16.5 4.70826C16.7194 4.76086 16.8783 4.86266 17.0852 4.88324C17.0996 4.88493 17.1159 4.7456 17.1292 4.74544C17.3027 4.75064 17.4443 4.85368 17.6144 4.88235C17.6285 4.88509 17.6615 4.75532 17.6867 4.756C17.7391 4.75663 17.7924 4.78935 17.8169 4.84875C17.8286 4.87736 17.7503 4.96508 17.7625 4.99148C17.79 5.05298 17.8329 5.08684 17.8894 5.09506C17.9139 5.09849 17.9516 4.96393 17.9788 4.97804C18.1648 5.07115 18.3569 5.18555 18.3884 5.45317C18.3908 5.47176 18.2112 5.68004 18.2666 5.66005C18.3209 5.60645 18.383 5.54171 18.4402 5.48362C18.6841 5.65757 18.7882 5.953 18.9085 6.20956C18.9138 6.22067 19.0321 6.13287 19.0433 6.15476C19.1074 6.28018 19.2033 6.3989 19.1142 6.58207C19.1054 6.60001 18.8613 6.67745 18.9099 6.70045C18.9188 6.70438 18.9686 6.74846 19.0262 6.74749C19.0348 6.74721 19.1463 6.7022 19.1553 6.72038C19.2056 6.82693 19.2063 6.95555 19.1516 7.078C19.1425 7.0977 19.0137 7.09858 19.0061 7.1123C18.9522 7.20538 19.0577 7.28992 18.9462 7.37746C18.8708 7.4334 18.6499 7.42244 18.434 7.45157C18.4035 7.45548 18.3991 7.48142 18.273 7.48357C17.956 7.48856 17.6088 7.4841 17.2709 7.49107C17.1981 7.49241 17.2765 7.50492 17.1006 7.4979C17.0889 7.49731 17.0304 7.49004 16.9707 7.48993C16.9295 7.48985 16.8013 7.49385 16.7485 7.49366C16.6957 7.49394 16.8031 7.48924 16.741 7.48936C16.6782 7.49013 16.5325 7.49712 16.5152 7.49771ZM15.5212 9.29208C15.5598 9.17349 15.3363 9.56254 15.4146 9.48318C15.4187 9.47888 15.5194 9.29796 15.5212 9.29208ZM18.1037 8.64569C17.9264 8.55351 18.1472 8.74373 18.2838 8.81623C18.4222 8.88581 18.1585 8.67219 18.1037 8.64569ZM18.1386 8.30727C17.9852 8.26535 18.5473 8.56336 18.4524 8.46592C18.447 8.4603 18.1476 8.30947 18.1386 8.30727ZM18.3671 7.35295C18.3613 7.35374 18.3568 7.37215 18.3627 7.37218C18.5056 7.37287 18.5143 7.33316 18.3671 7.35295ZM18.0967 7.98752C18.0118 7.97098 18.0982 8.02687 18.2037 8.0484C18.289 8.06446 18.2028 8.00648 18.0967 7.98752ZM15.0896 8.17404C15.0955 8.17087 15.0963 8.1586 15.0622 8.17484C14.9523 8.22727 14.9904 8.2274 15.0896 8.17404ZM18.1613 7.53707C18.1352 7.60976 17.6083 7.59758 17.6705 7.55092C17.6817 7.54116 17.8369 7.58045 17.8848 7.56979C17.9723 7.54564 17.6428 7.52275 17.8197 7.50046C17.8521 7.49428 18.1641 7.53152 18.1621 7.53721C18.1618 7.53716 18.1616 7.53712 18.1613 7.53707ZM15.7707 8.8143C15.7733 8.80894 15.7635 8.797 15.7603 8.80192C15.6824 8.92151 15.7046 8.9471 15.7707 8.8143ZM15.2156 7.55197C15.2281 7.5507 15.2391 7.52214 15.2275 7.52139C14.9942 7.50764 14.9715 7.57663 15.2156 7.55197ZM16.6659 8.6629C16.6582 8.51929 16.6651 8.50109 16.7058 8.67666C16.6919 8.66937 16.6793 8.66992 16.6659 8.6629Z" fill="#393737"/>
</g>
<defs>
<clipPath id="clip0_2101_1997">
<rect width="24" height="24" fill="white"/>
</clipPath>
</defs>
</svg>
