<svg width="24" height="24" viewBox="0 0 24 24" fill="none" xmlns="http://www.w3.org/2000/svg">
<path d="M5.48475 6.5769C5.52382 6.91629 5.48204 7.36118 5.42469 7.6993C5.4069 7.80526 5.32739 7.7516 5.31153 7.82475C5.28061 7.96782 5.31961 8.1011 5.28278 8.24248C5.27019 8.28933 5.14424 8.23101 5.13392 8.28014C5.07825 8.54935 5.11034 8.80404 5.08356 9.07677C4.95147 10.4201 4.90419 11.7406 4.84681 13.1004C4.82799 13.5487 4.71369 14.0937 4.76368 14.5568C4.76963 14.6109 4.88018 14.5787 4.88929 14.589C5.02878 14.7503 4.8056 14.6966 4.77595 14.802C4.65887 15.22 4.64869 15.6849 4.69135 16.0873C4.70983 16.2584 4.92941 16.0868 4.80616 16.2592C4.79783 16.2711 4.68044 16.2277 4.66791 16.2746C4.63975 16.3811 4.66074 16.5831 4.65143 16.6656C4.63291 16.8246 4.6341 16.8509 4.63276 17.0013C4.62991 17.2069 4.57155 17.4514 4.59815 17.672C4.60418 17.7191 4.72452 17.6567 4.745 17.7318C4.76023 17.7878 4.75846 17.9124 4.74484 18C4.74017 18.0189 4.73456 18.0352 4.72772 18.0464C4.70124 18.0903 4.60617 18.0781 4.58491 18.0873C4.4044 18.1765 4.68628 18.3108 4.69744 18.319C4.83432 18.5479 4.89813 18.7573 5.04317 18.9568C5.09919 19.0326 5.16683 19.1024 5.24905 19.1557C5.47251 19.3018 5.7605 19.3332 6 19.3363C6.00301 19.3364 6.00602 19.3364 6.00903 19.3365C6.44488 19.3447 6.81428 19.4099 7.23771 19.3987C7.28239 19.3977 7.23003 19.2562 7.28461 19.2546C7.86447 19.2382 8.44029 19.2536 9.01765 19.3491C9.07555 19.3588 9.00093 19.4831 9.05878 19.5002C9.41296 19.6023 9.97336 19.8475 10.1837 19.3066C10.4236 19.3278 10.7149 19.3496 10.9295 19.4586C11.0679 19.5288 10.9335 19.6641 11.1035 19.6064C11.1418 19.5935 11.092 19.475 11.1495 19.4647C11.3916 19.4213 11.656 19.4598 11.8955 19.3986C11.9442 19.3858 11.9309 19.2796 11.9447 19.2605C12.0607 19.1056 12.2538 19.3616 12.2959 19.3802C12.6164 19.519 12.8505 19.4644 13.1491 19.4678C13.2184 19.4686 13.1365 19.326 13.2032 19.3216C13.549 19.3012 13.9073 19.3135 14.2459 19.3768C14.3212 19.3912 14.252 19.5127 14.2879 19.5258C14.4467 19.5821 14.4818 19.3526 14.634 19.4022C14.6661 19.4124 14.6481 19.5164 14.6539 19.5278C14.7455 19.7072 14.8251 19.4531 14.8487 19.4474C15.1467 19.3708 15.3373 19.6361 15.6252 19.5985C15.6597 19.5937 15.582 19.4621 15.6788 19.4568C16.3239 19.4204 17.0062 19.4566 17.6447 19.5619C17.744 19.5781 17.6732 19.677 17.6794 19.6891C17.7812 19.8796 17.8471 19.6244 17.8795 19.6148C17.9201 19.6038 17.9604 19.5999 18 19.6001C18.16 19.6024 18.3545 19.6785 18.3932 19.4016C18.6426 19.3668 18.8776 19.2373 19.0576 19.0576C19.3379 18.7778 19.4872 18.4007 19.5477 18C19.5725 17.7877 19.609 17.5756 19.6628 17.3637C19.6659 17.35 19.7916 17.3745 19.7974 17.3473C19.8679 17.0196 19.6726 17.0826 19.4337 16.8658C19.3737 16.8112 19.6621 16.645 19.6833 16.6303C19.7612 16.5768 19.9482 16.6323 19.9632 16.6144C20.0817 16.466 19.4634 16.4902 19.4632 16.29C19.4642 16.2837 19.578 16.31 19.5893 16.2932C19.6249 16.2411 19.5796 16.1893 19.6188 16.1382C19.7095 16.0213 20.0099 15.9797 19.8351 15.8011C19.8124 15.7785 19.4616 15.813 19.4782 15.6343C19.4851 15.5631 19.4791 15.2477 19.5018 15.1593C19.5245 15.071 19.6376 15.1316 19.6424 15.1253C19.7919 14.8875 19.8539 14.9777 20.0751 14.8585C20.2956 14.7393 19.7698 14.7724 19.7111 14.7238C19.6526 14.6751 19.7759 14.5007 19.8188 14.4579C19.8617 14.415 19.9335 14.4684 19.9578 14.4304C20.1163 14.1778 19.6968 14.3195 19.6133 14.2363C19.4157 14.0401 19.8057 13.8873 19.8439 13.7077C19.8542 13.6591 19.7654 13.6987 19.7571 13.6554C19.7254 13.484 19.847 13.381 19.7355 13.186C19.7173 13.1541 19.4829 12.9964 19.6549 12.8944C19.6797 12.8799 19.7769 12.921 19.7986 12.848C19.8313 12.7388 19.8525 12.5422 19.8201 12.4249C19.796 12.3383 19.6359 12.4376 19.6857 12.3286C19.7079 12.2801 19.8015 12.3699 19.8354 12.2789C19.8693 12.1884 19.8652 11.9569 19.862 11.8688C19.8587 11.7809 19.7372 11.829 19.7291 11.8219C19.6822 11.7789 19.6236 11.6102 19.6238 11.5952C19.6089 10.8431 19.8137 10.1495 19.7459 9.41721C19.7408 9.35975 19.6127 9.39802 19.6106 9.38926C19.5569 9.19252 19.8974 9.34764 20.0114 9.2102C19.7515 9.23007 19.7986 9.14893 19.7701 9.01035C19.7561 8.94357 19.6555 8.97994 19.6452 8.97384C19.4923 8.87481 19.6898 8.80585 19.7302 8.78809C19.8787 8.7225 19.7032 8.65112 19.8025 8.60649C19.901 8.56188 20.0472 8.66454 20.0453 8.53163C19.9522 8.49436 19.7091 8.59304 19.6697 8.49212C19.5207 8.11139 19.7114 7.40068 19.7313 7.09455C19.7511 6.78903 19.7339 6.69036 19.7675 6.51233C19.8283 6.19075 19.6479 6.3086 19.5654 6.10893C19.5417 6.05142 19.5614 6.01846 19.6037 6C19.7088 5.96152 19.954 5.99669 20.0219 5.97697C20.1169 5.9464 20.0178 5.9172 20.0681 5.87883C20.118 5.83835 20.1883 5.91667 20.2017 5.82501C20.2175 5.7271 20.0044 5.51587 19.899 5.51943C19.6788 5.51751 19.4922 5.65791 19.5134 5.46969C19.5142 5.45814 19.636 5.45249 19.6332 5.40941C19.6119 5.1492 19.4821 4.90077 19.3182 4.68181C19.2648 4.61019 19.2077 4.54067 19.1481 4.47154C19.1142 4.43263 19.2279 4.35511 19.2076 4.33048C18.9802 4.07867 18.9512 4.32773 18.7118 4.47664C18.8832 4.20301 18.8866 3.96924 18.6262 3.88584C18.4722 3.84168 18.4635 3.98751 18.354 4.06687C18.3229 4.09093 18.2353 3.98063 18.2089 4.04532C18.1299 4.25745 18.1923 4.49991 18 4.39796C17.9999 4.39791 17.9998 4.39787 17.9997 4.39783C17.9958 4.39621 17.9977 4.38038 18 4.36024C18.0025 4.33375 18.006 4.29983 18 4.28099C17.9972 4.27352 17.9928 4.26842 17.9858 4.2671C17.7423 4.21995 17.7131 4.44722 17.4498 4.47474C17.2434 4.49633 16.8764 4.35775 16.6414 4.33521C16.6463 3.97139 16.4244 4.0547 16.3343 4.30555C16.1818 4.29528 16.0171 4.30946 15.8697 4.27479C15.819 4.26297 15.8523 4.15763 15.8459 4.14625C15.7478 3.9677 15.6815 4.21175 15.6486 4.22132C15.2918 4.31433 15.0012 4.12936 14.6607 4.31013C14.6486 4.31664 14.629 4.56936 14.538 4.38483C14.5321 4.37211 14.6446 4.25713 14.4844 4.24824C14.3242 4.23933 14.0222 4.10385 13.7998 4.22096C13.746 4.24915 13.6099 4.45431 13.5006 4.29401C13.4861 4.27225 13.502 4.19977 13.481 4.15943C13.4131 4.03091 13.376 4.28635 13.2961 4.06934C13.2163 3.85234 13.0503 3.68983 12.826 3.83955C12.8188 3.8439 12.7657 4.04636 12.6952 4.04316C12.5826 4.03788 12.4228 3.9957 12.3052 3.99702C12.2489 3.99772 12.2849 4.12344 12.2752 4.12574C11.8967 4.19619 11.6273 4.08411 11.2219 4.03547C11.1475 4.0263 10.9339 4.19774 10.79 4.0622C10.632 3.91383 10.7944 3.29663 10.4312 3.44368C10.2847 3.50249 10.0993 4.28552 9.83606 3.87983C9.32553 3.98036 8.8534 3.77273 8.34145 3.91627C8.31843 3.92263 8.24563 4.14117 8.19151 4.13819C8.11116 4.13335 8.06705 4.03121 8.00968 4.02448C7.76927 3.99372 7.54927 4.08111 7.31748 4.06751C7.22947 4.06257 7.26025 3.95696 7.15528 3.95106C7.05039 3.94525 6.98044 4.08433 6.8383 4.01716C6.73094 3.96596 6.6236 3.6817 6.4811 3.64857C6.47567 3.92896 6.3778 3.92318 6.20385 3.9972C6.17042 4.01156 6.20627 4.10915 6.19045 4.12098C6.12608 4.17128 6.06651 4.0904 6.00539 4.14515C6.00335 4.14696 6.00157 4.15032 6 4.15482C5.99086 4.18311 5.98956 4.25629 5.98067 4.27032C5.89922 4.41032 5.74065 4.21334 5.70182 4.18262C5.57269 4.06032 5.54781 4.19505 5.45617 4.16317C5.35945 4.1342 5.46158 4.02899 5.35345 4.02739C5.12372 4.02565 4.86869 4.17678 4.69136 4.31284C4.62014 4.36775 4.74859 4.42907 4.74018 4.43929C4.69229 4.49523 4.62824 4.53213 4.57698 4.57698C4.50547 4.63922 4.45997 4.71749 4.54424 4.85083C3.94859 4.54939 4.52605 4.96761 4.30477 5.09302C4.28758 5.10299 3.99604 4.98695 3.99741 4.88869C4.00033 4.78868 4.15071 4.73188 4.16616 4.59553C4.16556 4.56589 4.05586 4.24362 4.06494 4.21005C4.07201 4.16063 4.09413 4.1338 4.12352 4.12352C4.23897 4.08299 4.45202 4.29453 4.47072 4.30446C4.72424 4.44383 4.67553 4.09034 4.71748 4.03851C4.87296 3.81904 5.10075 3.78924 5.27884 3.65994C5.39725 3.5771 5.34293 3.27755 5.46896 3.26103C5.70355 3.23467 5.8601 3.36915 6 3.4241C6.08667 3.46808 6.17597 3.4596 6.29951 3.29737C6.35969 3.21876 6.29988 2.8857 6.51553 3.14759C6.52908 3.1641 6.68919 3.40369 6.78169 3.25215C6.79331 3.23304 6.79294 3.13597 6.80826 3.12782C6.91095 3.07507 6.97942 3.1524 7.09129 3.11537C7.20313 3.07833 7.33764 3.02312 7.46534 3.05604C7.5423 3.07573 7.64106 3.25658 7.6779 3.30085C7.78193 3.4284 7.89348 3.21928 7.95792 3.37373C8.02291 3.52896 7.89586 3.7647 8.06628 3.865C8.07259 3.61281 8.08709 3.35397 8.09724 3.10035C8.47073 3.10923 8.83821 3.19078 9.21294 3.17964C9.2594 3.178 9.21189 3.04243 9.26169 3.03718C9.47182 3.01564 9.65535 3.11229 9.87326 3.0738C10.0419 3.04349 10.2269 2.89995 10.4033 2.86378C10.511 3.15235 10.7727 3.05439 10.9629 3.08076C11.0295 3.08987 11.025 3.16695 11.0724 3.19209C11.2511 3.28508 11.1673 3.03007 11.2163 2.98994C11.4265 2.81867 11.4445 3.39586 11.6923 3.3816C11.7054 3.38104 11.8658 3.07337 11.8879 3.05421C12.0284 2.92927 11.9112 3.1613 11.9991 3.18403C12.1595 3.22558 12.271 3.29905 12.4593 3.20893C12.5142 3.18224 12.6459 2.99047 12.7525 3.13881C12.7665 3.15823 12.7588 3.25993 12.7701 3.26588C12.9744 3.36516 12.9798 3.04561 13.0965 2.93739C13.2133 2.82919 13.3937 3.04978 13.4304 3.11335C13.5264 3.27782 13.3568 3.18364 13.3516 3.19978C13.2905 3.39185 13.4221 3.35878 13.5226 3.37501C13.5371 3.68833 13.6777 3.66952 13.6268 3.39057C13.621 3.36011 13.5427 3.38932 13.5226 3.37501C13.6108 3.0676 13.7653 3.02823 13.9359 3.3155C14.0158 3.45014 13.9403 3.60712 14.1829 3.54969C14.293 3.52377 14.2504 3.30803 14.3476 3.24922C14.5696 3.11502 14.8581 3.31627 15.0869 3.28456C15.17 3.27305 15.0891 3.15495 15.1459 3.14302C15.2965 3.11097 15.4294 3.19958 15.5807 3.15419C15.5944 3.14992 15.5609 3.02631 15.6079 3.02473C15.9646 3.01037 16.2752 3.08955 16.6476 3.09175C16.8276 3.09275 17.1493 3.02457 17.3357 3.03828C17.5437 3.05311 17.7826 3.13293 18 3.17623C18.1699 3.20012 18.3251 3.22849 18.4633 3.23596C18.7162 3.25509 18.6903 3.12813 18.8248 3.07566C19.1022 2.97672 19.361 3.42195 19.37 3.48498C19.3706 3.48505 19.1615 3.41351 19.2376 3.52204C19.2359 3.66913 19.3665 3.48389 19.37 3.48498C19.3911 3.5206 19.7386 3.78297 19.8144 3.82781C19.8588 3.84838 19.9145 3.74211 19.9369 3.75534C20 3.79336 20.0613 3.8348 20.1205 3.87947C20.5634 4.21061 20.8788 4.73092 20.961 5.29127C20.9613 5.30264 20.8301 5.31704 20.832 5.34253C20.8475 5.60949 20.9419 5.78665 21.0261 6C21.0534 6.04614 21.081 6.09303 21.1045 6.14266C21.1997 6.34299 21.1678 6.50186 20.9429 6.62045C20.9712 6.77161 20.8717 6.98847 20.8114 7.11327C20.751 7.23806 21.0061 7.25547 21.0112 7.26645C21.1726 7.60892 21.0266 7.80689 21.0038 8.1622C20.9926 8.33112 21.0296 8.66619 21.0575 8.84908C21.08 8.99363 21.0202 9.08071 21.0584 9.2139C21.0635 9.23191 21.1771 9.21371 21.1814 9.21921C21.3173 9.36786 21.0397 9.29642 20.9901 9.32711C20.8098 9.43838 20.7137 9.50711 20.7986 9.69747C20.818 9.74137 21.2178 9.86927 21.2411 9.9493C21.2708 10.0534 21.1275 10.0141 21.1622 10.123C21.1651 10.1324 21.2535 10.1304 21.2496 10.1977C21.2326 10.5098 21.1812 10.8501 21.1901 11.1745C21.1909 11.2188 21.3311 11.162 21.3347 11.226C21.3513 11.5264 21.3461 11.8557 21.2805 12.1484C21.2639 12.2204 21.1657 12.1752 21.1366 12.1909C20.9602 12.2869 21.2165 12.423 21.2214 12.4455C21.3445 12.9813 21.1126 13.3914 21.223 13.9375C21.2295 13.9673 21.5042 14.1961 21.2686 14.2982C21.2529 14.3052 21.0119 14.4062 21.1767 14.4955C21.187 14.5011 21.3111 14.4381 21.2984 14.548C21.2858 14.6578 21.3687 14.8346 21.2323 14.9856C21.1894 15.0334 20.9489 15.1463 21.1406 15.2889C21.154 15.2982 21.5874 15.5183 21.2884 15.5969C21.2392 15.6096 20.9227 15.5963 21.0849 15.7665C21.1164 15.799 21.187 15.74 21.2311 15.8256C21.299 15.9569 21.2142 16.1308 21.3552 16.2921C21.3802 16.3202 21.595 16.44 21.4319 16.5361C21.4064 16.5511 21.3008 16.5225 21.2889 16.5733C21.2322 16.8145 21.3029 17.0672 21.2298 17.3121C21.2041 17.3989 21.0333 17.3545 20.9875 17.445C20.9418 17.5355 20.8978 17.7177 20.9758 17.8123C21.0539 17.907 21.3261 17.8036 21.3479 17.9454C21.3507 17.9636 21.3532 17.9818 21.3556 18C21.427 18.8952 20.9493 19.7509 20.3142 20.3142C20.2262 20.3939 20.1348 20.4695 20.0408 20.5415C19.9208 20.63 20.0814 20.6339 19.8985 20.7664C19.4689 21.0847 18.7 21.4137 18 21.3713C17.7766 21.3557 17.5716 21.3198 17.4197 21.2468C17.0748 21.081 17.5089 20.9548 17.2453 20.8874C17.1181 20.8552 16.9805 21.1717 16.9498 21.1816C16.6498 21.2828 16.4414 21.1426 16.1714 21.1857C16.1156 21.1946 16.1703 21.3228 16.1229 21.329C15.9608 21.3513 15.7905 21.294 15.6356 21.3045C15.5661 21.3095 15.5789 21.4074 15.515 21.3999C15.362 21.3829 15.2268 21.3417 15.0776 21.2499C15.0641 21.2416 15.1557 21.1197 15.0425 21.1152C14.8594 21.1082 14.632 21.0176 14.4213 21.1111C14.3587 21.1393 14.3563 21.3632 14.2219 21.2085C14.1937 21.1763 14.2296 20.9074 14.0731 21.1397C14.0467 21.1783 13.7837 21.4916 13.6547 21.2897C13.6206 21.2365 13.5337 21.0165 13.4585 21.0511C13.4483 21.0566 13.4892 21.1769 13.4269 21.1886C13.2073 21.2278 12.9771 21.215 12.7515 21.2527C12.6913 21.263 12.781 21.3874 12.6912 21.3988C12.4443 21.4302 12.136 21.3986 11.8946 21.3596C11.8056 21.345 11.8671 21.2419 11.8606 21.2307C11.7565 21.0482 11.6949 21.2945 11.6603 21.3089C11.4453 21.3949 11.2816 21.2792 11.0834 21.3098C11.0287 21.3179 11.0675 21.4354 11.0566 21.4458C10.9437 21.5482 11.0278 21.3373 10.9563 21.314C10.7561 21.2482 10.5329 21.2576 10.3304 21.2726C10.2561 21.2783 10.3396 21.4145 10.2729 21.418C9.87786 21.4415 9.46718 21.4285 9.08165 21.3534C9.00906 21.339 9.05473 21.2341 9.0396 21.2102C8.93532 21.0426 8.7825 21.2712 8.74733 21.293C8.58744 21.3924 8.52534 21.2996 8.38413 21.3169C7.69435 21.4031 6.84266 21.3417 6.19155 21.3038C6.12664 21.3 6.06284 21.296 6 21.2917C5.06752 21.2457 4.32319 20.8384 3.75037 20.2496C3.55301 20.0442 3.37523 19.8119 3.22148 19.5489C3.18065 19.4776 3.09817 19.618 3.06078 19.5549C2.78943 19.0839 2.66439 18.5383 2.66934 18C2.67253 17.7555 2.67274 17.5107 2.65541 17.264C2.65235 17.2169 2.52011 17.2847 2.51076 17.2092C2.49064 17.0543 2.49783 16.858 2.54005 16.7014C2.5604 16.625 2.67387 16.7275 2.69203 16.6505C2.73457 16.4715 2.74399 16.2795 2.72279 16.0956C2.71348 16.0173 2.57823 16.1354 2.57667 16.0337C2.56326 15.3406 2.53996 14.66 2.7151 13.9596C2.72713 13.9116 3.002 13.8695 2.94929 13.7674C2.87301 13.7597 2.78327 13.7601 2.70173 13.7567C2.65781 12.7478 2.7531 11.7492 2.76783 10.7375C2.76842 10.6948 2.62278 10.7686 2.62318 10.686C2.62534 10.208 2.58499 9.74383 2.72975 9.2549C2.74391 9.20639 3.00013 9.23128 2.96138 9.08832C2.95431 9.06311 2.92014 8.84779 2.86451 8.79212C2.85612 8.78456 2.73653 8.82384 2.73304 8.75446C2.71488 8.35127 2.74219 7.92874 2.81526 7.52625C2.82728 7.46129 2.95464 7.53046 2.96431 7.4842C3.03191 7.156 2.9351 6.79901 3.05073 6.4854C3.12859 6.27548 3.34874 6.3532 3.56544 6.24165C3.59601 6.22588 3.60086 6.09589 3.72694 6.08917C4.04398 6.07191 4.39114 6.13487 4.72907 6.10904C4.80186 6.10358 4.72346 5.92949 4.89936 6.03256C4.91113 6.03976 4.96951 6.16598 5.02918 6.19706C5.07044 6.21871 5.19866 6.1797 5.25147 6.22386C5.30423 6.26802 5.19675 6.31654 5.25879 6.38975C5.32161 6.46293 5.46748 6.43075 5.48475 6.5769ZM20.5417 7.67516C20.4192 7.79071 20.8678 7.80776 20.7605 7.68278C20.7548 7.67673 20.5477 7.6692 20.5417 7.67516ZM8.83611 3.52919C8.98718 3.72707 9.09055 3.4361 8.98398 3.28328C8.87743 3.13061 8.79009 3.4692 8.83611 3.52919ZM7.26965 3.67365C7.4462 3.82968 7.474 3.19348 7.2849 3.32209C7.27391 3.32936 7.25933 3.6646 7.26965 3.67365ZM3.62715 6.75896C3.6331 6.75736 3.63891 6.66392 3.63301 6.66169C3.49052 6.61193 3.47901 6.79877 3.62715 6.75896ZM5.69216 3.85289C5.76074 3.92795 5.92156 3.81796 5.84048 3.7162C5.76867 3.63288 5.59872 3.75822 5.69216 3.85289ZM20.0629 13.7028C20.0562 13.7046 20.0502 13.7716 20.0879 13.7703C20.2097 13.7657 20.1753 13.6725 20.0629 13.7028ZM3.85071 5.76831C3.93968 5.32272 4.51923 5.33776 4.36458 5.65424C4.33875 5.71888 4.235 5.47386 4.16858 5.54733C4.04367 5.70442 4.35849 5.84504 4.18031 5.99694C4.14573 6.03495 3.84159 5.80055 3.85006 5.76748C3.85028 5.76776 3.8505 5.76803 3.85071 5.76831ZM20.0028 7.7417C19.9969 7.74401 19.9912 7.83674 19.9971 7.83897C20.1396 7.88919 20.151 7.70237 20.0028 7.7417ZM19.7855 17.6118C19.7728 17.6169 19.761 17.8321 19.7726 17.8391C20.0055 17.9514 20.0301 17.5163 19.7855 17.6118ZM16.6377 4.32551C16.5365 4.46879 16.4155 4.48567 16.3348 4.30573C16.4354 4.31528 16.5366 4.31669 16.6377 4.32551Z" fill="black"/>
<path d="M14.5153 5.9619C14.4762 5.93948 14.518 5.9101 14.5753 5.88777C14.5931 5.88077 14.6726 5.88432 14.6885 5.87949C14.7194 5.87004 14.6804 5.86124 14.7172 5.8519C14.7298 5.8488 14.8558 5.85266 14.8661 5.84941C14.9217 5.83163 14.8897 5.81481 14.9164 5.7968C15.0485 5.70808 15.0958 5.62087 15.1532 5.53107C15.172 5.50146 15.2863 5.46546 15.2363 5.43488C15.2304 5.4313 15.1198 5.43343 15.1107 5.43275C14.9712 5.4221 15.1944 5.42564 15.2241 5.41869C15.3411 5.39108 15.3513 5.36037 15.3086 5.3338C15.2902 5.3225 15.0706 5.33383 15.1938 5.32245C15.2022 5.32166 15.3196 5.32453 15.3321 5.32143C15.3602 5.3144 15.3393 5.30106 15.3486 5.29561C15.3671 5.28511 15.3659 5.28337 15.3672 5.27344C15.3701 5.25986 15.4284 5.24371 15.4018 5.22914C15.3958 5.22603 15.2755 5.23015 15.255 5.22519C15.2346 5.22022 15.2448 5.20709 15.2731 5.20267C15.3015 5.19824 15.3961 5.20012 15.4178 5.19934C15.6008 5.19289 15.3473 5.1777 15.3411 5.17575C15.2343 5.14012 15.3786 5.10956 15.3782 5.07611C15.3776 5.05072 15.3299 5.02357 15.3365 4.9994C15.3447 4.97062 15.4099 4.94622 15.3987 4.91826C15.3977 4.91531 15.2562 4.91876 15.2546 4.91516C15.2382 4.87686 15.2536 4.83883 15.3491 4.8007C15.3588 4.79688 15.4831 4.80181 15.5002 4.79799C15.6023 4.7746 15.8475 4.73759 15.3066 4.72369C15.3278 4.70785 15.3496 4.68861 15.4586 4.67444C15.5288 4.6653 15.6641 4.67417 15.6064 4.66295C15.5935 4.66041 15.475 4.66371 15.4647 4.65991C15.4213 4.64392 15.4598 4.62646 15.3986 4.61064C15.3858 4.60742 15.2796 4.6083 15.2605 4.60739C15.1056 4.59973 15.3616 4.58698 15.3802 4.5842C15.519 4.56303 15.4644 4.54757 15.4678 4.52785C15.4686 4.52327 15.326 4.52868 15.3216 4.52427C15.3012 4.50144 15.3135 4.47778 15.3768 4.45541C15.3912 4.45044 15.5127 4.45501 15.5258 4.45263C15.5821 4.44215 15.3526 4.43983 15.4022 4.42978C15.4124 4.42766 15.5164 4.42885 15.5278 4.42846C15.7072 4.42241 15.4531 4.41716 15.4474 4.4156C15.3708 4.39592 15.6361 4.38333 15.5985 4.36432C15.5937 4.36204 15.4621 4.36717 15.4568 4.36078C15.4204 4.31817 15.4566 4.27311 15.5619 4.23094C15.5781 4.22438 15.677 4.22906 15.6891 4.22865C15.8796 4.22193 15.6244 4.21757 15.6148 4.21544C15.5456 4.19857 15.7596 4.18281 15.4557 4.17135C15.5612 4.09992 15.3905 4.02882 15.6628 3.95797C15.6659 3.95707 15.7916 3.95869 15.7974 3.95689C15.8679 3.93525 15.6726 3.93941 15.4337 3.92509C15.3737 3.92148 15.6621 3.91051 15.6833 3.90954C15.7612 3.90601 15.9482 3.90967 15.9632 3.90849C16.0817 3.89869 15.4634 3.90029 15.4632 3.88707C15.4642 3.88665 15.578 3.88839 15.5893 3.88728C15.6249 3.88383 15.5797 3.88041 15.6188 3.87704C15.7095 3.86932 16.0099 3.86657 15.8351 3.85478C15.8124 3.85329 15.4616 3.85557 15.4782 3.84376C15.4851 3.83906 15.4791 3.81823 15.5018 3.81239C15.5245 3.80656 15.6376 3.81056 15.6424 3.81015C15.7919 3.79444 15.8539 3.80039 16.0751 3.79252C16.2956 3.78465 15.7698 3.78683 15.7111 3.78363C15.6526 3.78041 15.7759 3.76889 15.8188 3.76606C15.8617 3.76324 15.9335 3.76676 15.9578 3.76425C16.1163 3.74757 15.6968 3.75693 15.6133 3.75143C15.4157 3.73847 15.8057 3.72838 15.8439 3.71652C15.8542 3.71331 15.7654 3.71593 15.7571 3.71307C15.7254 3.70175 15.847 3.69494 15.7355 3.68206C15.7173 3.67996 15.4829 3.66955 15.6549 3.66281C15.6797 3.66185 15.7769 3.66456 15.7986 3.65974C15.8313 3.65253 15.8525 3.63955 15.8201 3.6318C15.796 3.62608 15.6359 3.63264 15.6857 3.62544C15.7079 3.62224 15.8015 3.62817 15.8354 3.62216C15.8693 3.61618 15.8652 3.60089 15.862 3.59507C15.8587 3.58927 15.7372 3.59245 15.7291 3.59198C15.6822 3.58914 15.6236 3.57799 15.6238 3.57701C15.6089 3.52733 15.8137 3.48153 15.7459 3.43316C15.7408 3.42937 15.6127 3.43189 15.6106 3.43132C15.5569 3.41832 15.8974 3.42857 16.0114 3.41949C15.7515 3.4208 15.7986 3.41544 15.7701 3.40629C15.7561 3.40188 15.6555 3.40428 15.6452 3.40388C15.4923 3.39734 15.6898 3.39279 15.7302 3.39161C15.8787 3.38728 15.7032 3.38257 15.8025 3.37962C15.901 3.37667 16.0472 3.38345 16.0453 3.37468C15.9522 3.37221 15.7091 3.37873 15.6697 3.37207C15.5207 3.34692 15.7114 3.29998 15.7313 3.27977C15.7511 3.25959 15.7339 3.25307 15.7675 3.24131C15.8283 3.22008 15.6479 3.22786 15.5654 3.21467C15.4828 3.20145 15.9266 3.20787 16.022 3.20597C16.1174 3.20411 16.0192 3.20207 16.0716 3.19975C16.1241 3.19743 16.1889 3.20244 16.2086 3.197C16.2283 3.19156 16.0586 3.17667 15.9589 3.17474C15.7475 3.17066 15.5257 3.17737 15.6036 3.16296C15.6083 3.16213 15.725 3.16482 15.7367 3.16165C15.8266 3.13644 15.8322 3.11026 15.9116 3.08509C15.9227 3.08163 16.0525 3.08473 16.0605 3.08271C16.1435 3.06173 15.9246 3.06923 15.6814 3.05773C16.0051 3.06032 16.203 3.05396 16.2049 3.03804C16.2062 3.02846 16.0649 3.03011 15.9653 3.02392C15.9352 3.02206 16.0323 3.01529 15.9658 3.01406C15.7485 3.01002 15.5053 3.0164 15.6022 2.99998C15.6068 2.99926 15.7257 3.00155 15.7329 2.99906C15.78 2.98298 15.5528 2.98105 15.5253 2.96366C15.5037 2.95003 15.6422 2.92579 15.6648 2.91027C16.0286 2.9106 15.9453 2.89594 15.6945 2.88999C15.7047 2.87992 15.6905 2.86904 15.7252 2.85931C15.737 2.85596 15.8424 2.85816 15.8538 2.85774C16.0323 2.85126 15.7882 2.84688 15.7787 2.84471C15.6857 2.82114 15.8706 2.80195 15.6899 2.77946C15.6834 2.77866 15.4306 2.77737 15.6152 2.77136C15.6279 2.77097 15.7429 2.77839 15.7518 2.76782C15.7607 2.75724 15.8962 2.73729 15.779 2.7226C15.7509 2.71905 15.5457 2.71006 15.706 2.70284C15.7278 2.70188 15.8002 2.70294 15.8406 2.70155C15.9691 2.69706 15.7136 2.69461 15.9307 2.68934C16.1477 2.68407 16.3102 2.6731 16.1605 2.65829C16.1561 2.65782 15.9536 2.65431 15.9568 2.64965C15.9621 2.64222 16.0043 2.63166 16.003 2.6239C16.0023 2.62018 15.8766 2.62256 15.8743 2.62191C15.8038 2.59692 15.9159 2.57913 15.9645 2.55235C15.9737 2.54744 15.8023 2.53333 15.9378 2.52383C16.0862 2.51339 16.7034 2.52412 16.5563 2.50013C16.4975 2.49046 15.7145 2.47821 16.1202 2.46082C16.0196 2.42711 16.2273 2.39593 16.0837 2.36212C16.0774 2.36059 15.8588 2.35579 15.8618 2.35221C15.8666 2.34691 15.9688 2.34399 15.9755 2.3402C16.0063 2.32433 15.9189 2.3098 15.9325 2.29449C15.9374 2.28868 16.043 2.29071 16.0489 2.28378C16.0547 2.27685 15.9157 2.27223 15.9828 2.26284C16.034 2.25575 16.3183 2.24866 16.3514 2.23925C16.071 2.23889 16.0768 2.23243 16.0028 2.22094C15.9884 2.21873 15.8908 2.2211 15.879 2.22006C15.8287 2.2158 15.9096 2.21187 15.8549 2.20783C15.8417 2.20685 15.7459 2.2068 15.7298 2.206C15.5888 2.19918 15.8042 2.18793 15.8417 2.186C15.9841 2.17859 15.8596 2.17514 15.9156 2.16946C15.9717 2.16379 16.0418 2.17226 16.0759 2.16564C16.1462 2.15192 16.1308 2.13428 16.1352 2.12034C16.1363 2.11478 16.0085 2.11857 16.0057 2.11778C15.9733 2.10627 16.1093 2.09464 15.8547 2.08827C16.513 2.08029 15.7908 2.08133 15.9226 2.06489C15.9333 2.06359 16.2446 2.06195 16.2903 2.06692C16.3359 2.07189 16.2386 2.07943 16.3099 2.08633C16.3266 2.08796 16.6183 2.09732 16.636 2.0986C16.7741 2.1086 16.3089 2.11001 16.2833 2.11054C16.0076 2.11654 16.3218 2.12798 16.3436 2.13099C16.4431 2.14477 16.3776 2.15647 16.4487 2.16799C16.4946 2.17553 16.7993 2.17627 16.79 2.18218C16.7591 2.20185 16.334 2.20872 16.7026 2.22726C16.7812 2.23123 17.1143 2.22728 16.8524 2.24152C16.8359 2.24242 16.5963 2.25299 16.7479 2.2591C16.767 2.25987 16.864 2.25985 16.8722 2.26086C16.9249 2.26764 16.8476 2.27216 16.8846 2.27955C16.9217 2.28694 16.9769 2.29582 16.944 2.30425C16.9243 2.30934 16.7434 2.31586 16.6991 2.31829C16.5716 2.32516 16.7807 2.33253 16.6263 2.33679C16.471 2.34108 16.2353 2.33269 16.135 2.34394C16.3872 2.34436 16.646 2.34532 16.8996 2.34599C16.8908 2.37065 16.8092 2.39492 16.8204 2.41967C16.822 2.42274 16.9576 2.4196 16.9628 2.42289C16.9844 2.43677 16.8877 2.44889 16.9262 2.46328C16.9565 2.47442 17.1001 2.48664 17.1362 2.49828C16.8476 2.5054 16.9456 2.52269 16.9192 2.53524C16.9101 2.53964 16.8331 2.53935 16.8079 2.54247C16.7149 2.55428 16.9699 2.54875 17.0101 2.55198C17.1813 2.56586 16.6041 2.56705 16.6184 2.58341C16.619 2.58428 16.9266 2.59488 16.9458 2.59634C17.0707 2.60561 16.8387 2.59787 16.816 2.60368C16.7744 2.61427 16.7009 2.62164 16.7911 2.63407C16.8178 2.6377 17.0095 2.6464 16.8612 2.65344C16.8418 2.65436 16.7401 2.65385 16.7341 2.6546C16.6348 2.66809 16.9544 2.66845 17.0626 2.67616C17.1708 2.68387 16.9502 2.69578 16.8866 2.69821C16.7222 2.70455 16.8164 2.69335 16.8002 2.693C16.6082 2.68897 16.6412 2.69766 16.625 2.70429C16.3117 2.70526 16.3305 2.71454 16.6094 2.71118C16.6399 2.71079 16.6107 2.70563 16.625 2.70429C16.9324 2.71012 16.9718 2.72032 16.6845 2.73159C16.5499 2.73687 16.3929 2.73188 16.4503 2.7479C16.4762 2.75518 16.692 2.75237 16.7508 2.75878C16.885 2.77345 16.6837 2.7925 16.7154 2.80761C16.727 2.8131 16.845 2.80775 16.857 2.8115C16.889 2.82145 16.8004 2.83023 16.8458 2.84022C16.8501 2.84112 16.9737 2.83891 16.9753 2.84202C16.9896 2.86558 16.9104 2.88609 16.9083 2.91069C16.9072 2.92257 16.9754 2.94382 16.9617 2.95613C16.9387 2.97746 16.7589 3.00371 16.8026 3.02194C16.8306 3.03383 16.9542 3.03122 17.0384 3.03631C17.2017 3.04614 16.9092 3.06354 16.8639 3.06588C16.8624 3.06595 16.8333 3.05572 16.7698 3.06118C16.6376 3.06436 16.8634 3.06577 16.8639 3.06588C16.8347 3.06742 16.8066 3.08786 16.8302 3.09191C16.8432 3.09412 16.9603 3.09289 16.9648 3.09403C17.0697 3.12136 17.0994 3.14873 17.0447 3.17645C17.0423 3.17694 16.9113 3.1762 16.9073 3.17735C16.8491 3.19339 17.0094 3.20367 17.1045 3.2169C17.1997 3.23013 17.1678 3.24062 16.9429 3.24845C16.9712 3.25844 16.8717 3.27276 16.8114 3.281C16.751 3.28924 17.0061 3.29039 17.0112 3.29112C17.1726 3.31374 17.0266 3.32681 17.0038 3.35028C16.9926 3.36143 17.0296 3.38356 17.0575 3.39564C17.08 3.40519 17.0202 3.41094 17.0584 3.41973C17.0635 3.42092 17.1771 3.41972 17.1814 3.42009C17.3173 3.4299 17.0397 3.42518 16.9901 3.42721C16.8098 3.43456 16.7137 3.4391 16.7986 3.45167C16.818 3.45457 17.2178 3.46302 17.2411 3.4683C17.2708 3.47518 17.1275 3.47258 17.1622 3.47978C17.1651 3.48039 17.2535 3.48027 17.2496 3.48471C17.2326 3.50532 17.1812 3.5278 17.1901 3.54922C17.1909 3.55215 17.3311 3.5484 17.3347 3.55262C17.3513 3.57246 17.3461 3.59421 17.2805 3.61354C17.2639 3.61829 17.1657 3.61531 17.1366 3.61634C16.9602 3.62268 17.2165 3.63168 17.2214 3.63316C17.3445 3.66855 17.1126 3.69563 17.223 3.7317C17.2295 3.73366 17.5042 3.74878 17.2686 3.75552C17.2529 3.75598 17.0119 3.76265 17.1767 3.76855C17.187 3.76892 17.3111 3.76476 17.2984 3.77201C17.2858 3.77927 17.3687 3.79094 17.2323 3.80092C17.1894 3.80407 16.9489 3.81153 17.1406 3.82095C17.154 3.82156 17.5874 3.8361 17.2884 3.84129C17.2392 3.84213 16.9227 3.84125 17.0849 3.85249C17.1164 3.85464 17.187 3.85074 17.2311 3.8564C17.299 3.86506 17.2142 3.87655 17.3552 3.8872C17.3802 3.88906 17.595 3.89697 17.4319 3.90332C17.4064 3.90431 17.3008 3.90242 17.2889 3.90577C17.2322 3.92171 17.3029 3.93839 17.2298 3.95457C17.2041 3.9603 17.0333 3.95737 16.9875 3.96335C16.9418 3.96932 16.8978 3.98136 16.9758 3.98761C17.0539 3.99386 17.3261 3.98703 17.3479 3.9964C17.4425 4.03712 17.2828 4.07745 17.2594 4.11812C17.256 4.12415 17.3534 4.11915 17.3552 4.12803C17.3625 4.1608 17.4538 4.21737 17.2468 4.2458C17.081 4.26858 16.9548 4.23991 16.8874 4.25732C16.8552 4.26572 17.1717 4.27481 17.1816 4.27684C17.2828 4.29665 17.1426 4.31041 17.1857 4.32824C17.1946 4.33193 17.3228 4.32832 17.329 4.33145C17.3513 4.34215 17.294 4.3534 17.3045 4.36363C17.3095 4.36822 17.4075 4.36737 17.3999 4.37159C17.3829 4.3817 17.3417 4.39063 17.2499 4.40048C17.2416 4.40138 17.1197 4.39532 17.1152 4.4028C17.1082 4.4149 17.0176 4.42991 17.1111 4.44383C17.1393 4.44796 17.3632 4.44812 17.2085 4.457C17.1762 4.45886 16.9074 4.45649 17.1397 4.46683C17.1783 4.46856 17.4916 4.48593 17.2897 4.49446C17.2365 4.49671 17.0165 4.50245 17.0511 4.50741C17.0566 4.50809 17.1769 4.50539 17.1886 4.5095C17.2278 4.52401 17.215 4.53921 17.2527 4.55411C17.263 4.55808 17.3874 4.55216 17.3988 4.55809C17.4302 4.5744 17.3986 4.59475 17.3596 4.6107C17.345 4.61658 17.2419 4.61252 17.2307 4.61294C17.0482 4.61982 17.2945 4.62389 17.3089 4.62617C17.3949 4.64037 17.2792 4.65119 17.3098 4.66427C17.3179 4.66789 17.4354 4.66533 17.4458 4.66604C17.5482 4.6735 17.3373 4.66795 17.314 4.67267C17.2482 4.68589 17.2576 4.70063 17.2726 4.714C17.2783 4.71891 17.4145 4.71339 17.418 4.7178C17.4415 4.74389 17.4285 4.77102 17.3534 4.79648C17.339 4.80127 17.2341 4.79825 17.2102 4.79925C17.0426 4.80614 17.2712 4.81623 17.293 4.81856C17.3924 4.82912 17.2996 4.83322 17.3169 4.84254C17.4031 4.8881 17.3417 4.94435 17.3038 4.98735C17.2549 5.04339 17.1552 5.08687 17.1811 5.1403C17.1826 5.1437 17.3221 5.14028 17.3252 5.1432C17.3588 5.181 17.3043 5.21821 17.3446 5.25609C17.3477 5.2592 17.4799 5.25472 17.4892 5.2597C17.5094 5.26994 17.5022 5.2829 17.4599 5.29324C17.4396 5.29829 17.3261 5.29152 17.308 5.2966C17.2654 5.30843 17.256 5.3211 17.2772 5.33325C17.2865 5.33842 17.4218 5.33062 17.4233 5.33734C17.4367 5.38311 17.46 5.42807 17.2849 5.47432C17.2729 5.47749 16.998 5.48027 17.0507 5.48701C17.127 5.48752 17.2167 5.48749 17.2983 5.48772C17.3422 5.55435 17.2469 5.6203 17.2322 5.68712C17.2316 5.68994 17.3772 5.68507 17.3768 5.69052C17.3747 5.72209 17.415 5.75274 17.2703 5.78503C17.2561 5.78824 16.9999 5.78659 17.0386 5.79604C17.0457 5.7977 17.0799 5.81192 17.1355 5.8156C17.1439 5.8161 17.2635 5.8135 17.267 5.81809C17.2851 5.84471 17.2578 5.87262 17.1847 5.8992C17.1727 5.90349 17.0454 5.89892 17.0357 5.90198C16.9681 5.92365 17.0649 5.94723 16.9493 5.96794C16.8714 5.98181 16.6513 5.97667 16.4346 5.98404C16.404 5.98508 16.3991 5.99367 16.2731 5.99411C15.956 5.99525 15.6089 5.99109 15.2709 5.9928C15.1981 5.99316 15.2765 6.00466 15.1006 5.99785C15.0889 5.99737 15.0305 5.98904 14.9708 5.98699C14.9296 5.98556 14.8013 5.98813 14.7485 5.98522C14.6958 5.9823 14.8033 5.97909 14.7412 5.97426C14.6784 5.96943 14.5325 5.97155 14.5153 5.9619ZM16.5417 3.31811C16.4192 3.32574 16.8678 3.32687 16.7605 3.31861C16.7548 3.31821 16.5477 3.31772 16.5417 3.31811ZM16.4708 2.39478C16.2729 2.40476 16.5639 2.41159 16.7167 2.40455C16.8694 2.39751 16.5308 2.39174 16.4708 2.39478ZM16.3263 2.29133C16.1703 2.30299 16.8065 2.30483 16.6779 2.29234C16.6706 2.29161 16.3354 2.29065 16.3263 2.29133ZM16.3729 5.94988C16.3669 5.94998 16.3611 5.95615 16.367 5.9563C16.5095 5.95959 16.521 5.94725 16.3729 5.94988ZM16.1691 2.18867C16.083 2.19231 16.1823 2.20279 16.2894 2.19827C16.3754 2.19462 16.2761 2.18413 16.1691 2.18867ZM16.0629 3.7162C16.0562 3.71632 16.0502 3.72074 16.0879 3.72065C16.2097 3.72035 16.1753 3.7142 16.0629 3.7162ZM16.1617 2.01418C16.1378 2.03996 15.6123 2.05559 15.6716 2.02752C15.6823 2.02244 15.8391 2.03848 15.8865 2.03201C15.9728 2.02017 15.6429 2.0123 15.8197 2.00022C15.8521 1.99803 16.1643 2.01271 16.1625 2.01423C16.1622 2.01421 16.162 2.0142 16.1617 2.01418ZM16.0028 3.32251C15.9969 3.32266 15.9912 3.32878 15.9971 3.32893C16.1396 3.33225 16.151 3.31991 16.0028 3.32251ZM15.7855 3.97436C15.7728 3.9747 15.761 3.98891 15.7726 3.98938C16.0055 3.99679 16.0301 3.96806 15.7855 3.97436ZM15.6745 2.91003C15.5312 2.90335 15.5143 2.89535 15.6943 2.89002C15.6847 2.89667 15.6833 2.90335 15.6745 2.91003Z" fill="black"/>
<path d="M6.51525 5.9619C6.47618 5.93948 6.51796 5.9101 6.57531 5.88777C6.5931 5.88077 6.67261 5.88432 6.68847 5.87949C6.71939 5.87004 6.68039 5.86124 6.71722 5.8519C6.72981 5.8488 6.85576 5.85266 6.86608 5.84941C6.92175 5.83163 6.88966 5.81481 6.91644 5.7968C7.04853 5.70808 7.09581 5.62087 7.15319 5.53107C7.17201 5.50146 7.28631 5.46546 7.23632 5.43488C7.23037 5.4313 7.11982 5.43343 7.11071 5.43275C6.97122 5.4221 7.1944 5.42564 7.22405 5.41869C7.34113 5.39108 7.35131 5.36037 7.30865 5.3338C7.29017 5.3225 7.07059 5.33383 7.19384 5.32245C7.20217 5.32166 7.31956 5.32453 7.33209 5.32143C7.36025 5.3144 7.33926 5.30106 7.34857 5.29561C7.36709 5.28511 7.3659 5.28337 7.36724 5.27344C7.37009 5.25986 7.42845 5.24371 7.40185 5.22914C7.39582 5.22603 7.27548 5.23015 7.255 5.22519C7.23455 5.22022 7.24476 5.20709 7.27313 5.20267C7.30151 5.19824 7.3961 5.20012 7.41778 5.19934C7.60077 5.19289 7.34733 5.1777 7.34106 5.17575C7.23426 5.14012 7.37864 5.10956 7.37823 5.07611C7.37761 5.05072 7.32994 5.02357 7.33648 4.9994C7.34473 4.97062 7.40995 4.94622 7.39874 4.91826C7.39769 4.91531 7.25619 4.91876 7.25463 4.91516C7.23817 4.87686 7.25359 4.83883 7.34911 4.8007C7.35882 4.79688 7.48305 4.80181 7.50018 4.79799C7.60227 4.7746 7.84754 4.73759 7.30663 4.72369C7.32776 4.70785 7.34958 4.68861 7.45861 4.67444C7.52879 4.6653 7.66413 4.67417 7.60638 4.66295C7.59351 4.66041 7.47499 4.66371 7.46465 4.65991C7.42126 4.64392 7.45979 4.62646 7.39855 4.61064C7.38582 4.60742 7.27962 4.6083 7.26049 4.60739C7.10561 4.59973 7.36164 4.58698 7.38024 4.5842C7.51897 4.56303 7.46438 4.54757 7.46777 4.52785C7.46861 4.52327 7.32596 4.52868 7.32165 4.52427C7.3012 4.50144 7.31346 4.47778 7.37676 4.45541C7.39119 4.45044 7.5127 4.45501 7.52581 4.45263C7.58214 4.44215 7.35263 4.43983 7.40221 4.42978C7.41237 4.42766 7.5164 4.42885 7.52782 4.42846C7.70717 4.42241 7.45305 4.41716 7.44744 4.4156C7.37078 4.39592 7.63607 4.38333 7.5985 4.36432C7.59374 4.36204 7.46212 4.36717 7.45678 4.36078C7.42044 4.31817 7.4566 4.27311 7.56188 4.23094C7.57807 4.22438 7.67695 4.22906 7.68914 4.22865C7.87959 4.22193 7.62441 4.21757 7.6148 4.21544C7.54562 4.19857 7.75962 4.18281 7.45568 4.17135C7.56116 4.09992 7.39048 4.02882 7.66277 3.95797C7.66593 3.95707 7.7916 3.95869 7.79736 3.95689C7.86792 3.93525 7.6726 3.93941 7.43371 3.92509C7.37372 3.92148 7.66214 3.91051 7.68328 3.90954C7.76119 3.90601 7.94816 3.90967 7.96325 3.90849C8.08172 3.89869 7.46339 3.90029 7.46319 3.88707C7.46422 3.88665 7.57803 3.88839 7.58935 3.88728C7.62488 3.88383 7.57965 3.88041 7.61883 3.87704C7.70948 3.86932 8.00994 3.86657 7.83507 3.85478C7.81238 3.85329 7.46163 3.85557 7.4782 3.84376C7.48511 3.83906 7.47909 3.81823 7.50182 3.81239C7.52453 3.80656 7.63755 3.81056 7.64245 3.81015C7.79191 3.79444 7.85385 3.80039 8.07513 3.79252C8.29556 3.78465 7.7698 3.78683 7.71111 3.78363C7.6526 3.78041 7.77591 3.76889 7.81878 3.76606C7.86167 3.76324 7.93349 3.76676 7.95776 3.76425C8.11632 3.74757 7.69678 3.75693 7.61333 3.75143C7.41575 3.73847 7.80566 3.72838 7.84386 3.71652C7.85418 3.71331 7.76538 3.71593 7.75707 3.71307C7.72536 3.70175 7.84702 3.69494 7.73547 3.68206C7.71729 3.67996 7.48286 3.66955 7.6549 3.66281C7.67971 3.66185 7.77687 3.66456 7.79864 3.65974C7.8313 3.65253 7.85254 3.63955 7.82006 3.6318C7.79603 3.62608 7.63593 3.63264 7.68566 3.62544C7.70787 3.62224 7.80153 3.62817 7.83544 3.62216C7.86934 3.61618 7.86523 3.60089 7.86199 3.59507C7.85869 3.58927 7.73724 3.59245 7.72906 3.59198C7.68219 3.58914 7.62363 3.57799 7.62377 3.57701C7.60895 3.52733 7.81366 3.48153 7.7459 3.43316C7.74076 3.42937 7.61269 3.43189 7.61059 3.43132C7.55693 3.41832 7.89743 3.42857 8.0114 3.41949C7.75152 3.4208 7.79857 3.41544 7.77007 3.40629C7.75613 3.40188 7.6555 3.40428 7.6452 3.40388C7.49235 3.39734 7.68977 3.39279 7.73016 3.39161C7.87872 3.38728 7.70318 3.38257 7.80248 3.37962C7.90104 3.37667 8.04715 3.38345 8.04528 3.37468C7.95225 3.37221 7.70913 3.37873 7.66973 3.37207C7.52069 3.34692 7.71144 3.29998 7.73125 3.27977C7.75105 3.25959 7.73389 3.25307 7.76751 3.24131C7.8283 3.22008 7.64792 3.22786 7.56536 3.21467C7.48281 3.20145 7.92662 3.20787 8.02202 3.20597C8.11739 3.20411 8.01922 3.20207 8.07165 3.19975C8.12406 3.19743 8.18893 3.20244 8.20861 3.197C8.22827 3.19156 8.05861 3.17667 7.95885 3.17474C7.74751 3.17066 7.52569 3.17737 7.60363 3.16296C7.60826 3.16213 7.72495 3.16482 7.73675 3.16165C7.82659 3.13644 7.83215 3.11026 7.91161 3.08509C7.92272 3.08163 8.05254 3.08473 8.06048 3.08271C8.14351 3.06173 7.92462 3.06923 7.68145 3.05773C8.00505 3.06032 8.20304 3.05396 8.20495 3.03804C8.20621 3.02846 8.06487 3.03011 7.96526 3.02392C7.93523 3.02206 8.03228 3.01529 7.96581 3.01406C7.74854 3.01002 7.50532 3.0164 7.60217 2.99998C7.60677 2.99926 7.7257 3.00155 7.7329 2.99906C7.78005 2.98298 7.55278 2.98105 7.52526 2.96366C7.50367 2.95003 7.64225 2.92579 7.66479 2.91027C8.02861 2.9106 7.9453 2.89594 7.69445 2.88999C7.70472 2.87992 7.69054 2.86904 7.72521 2.85931C7.73703 2.85596 7.84237 2.85816 7.85375 2.85774C8.0323 2.85126 7.78825 2.84688 7.77868 2.84471C7.68567 2.82114 7.87064 2.80195 7.68987 2.77946C7.68336 2.77866 7.43064 2.77737 7.61517 2.77136C7.62789 2.77097 7.74287 2.77839 7.75176 2.76782C7.76067 2.75724 7.89615 2.73729 7.77904 2.7226C7.75085 2.71905 7.54569 2.71006 7.70599 2.70284C7.72775 2.70188 7.80023 2.70294 7.84057 2.70155C7.96909 2.69706 7.71365 2.69461 7.93066 2.68934C8.14766 2.68407 8.31017 2.6731 8.16045 2.65829C8.1561 2.65782 7.95364 2.65431 7.95684 2.64965C7.96212 2.64222 8.0043 2.63166 8.00298 2.6239C8.00228 2.62018 7.87656 2.62256 7.87426 2.62191C7.80381 2.59692 7.91589 2.57913 7.96453 2.55235C7.9737 2.54744 7.80226 2.53333 7.9378 2.52383C8.08617 2.51339 8.70337 2.52412 8.55632 2.50013C8.49751 2.49046 7.71448 2.47821 8.12017 2.46082C8.01964 2.42711 8.22727 2.39593 8.08373 2.36212C8.07737 2.36059 7.85883 2.35579 7.86181 2.35221C7.86665 2.34691 7.96879 2.34399 7.97552 2.3402C8.00628 2.32433 7.91889 2.3098 7.93249 2.29449C7.93743 2.28868 8.04304 2.29071 8.04894 2.28378C8.05475 2.27685 7.91567 2.27223 7.98284 2.26284C8.03404 2.25575 8.3183 2.24866 8.35143 2.23925C8.07104 2.23889 8.07682 2.23243 8.0028 2.22094C7.98844 2.21873 7.89085 2.2211 7.87902 2.22006C7.82872 2.2158 7.9096 2.21187 7.85485 2.20783C7.8417 2.20685 7.74594 2.2068 7.72979 2.206C7.58877 2.19918 7.80416 2.18793 7.84167 2.186C7.98409 2.17859 7.85955 2.17514 7.91564 2.16946C7.97172 2.16379 8.04183 2.17226 8.07586 2.16564C8.14625 2.15192 8.13078 2.13428 8.13518 2.12034C8.13635 2.11478 8.00853 2.11857 8.00573 2.11778C7.97331 2.10627 8.10927 2.09464 7.85467 2.08827C8.51298 2.08029 7.79081 2.08133 7.9226 2.06489C7.93326 2.06359 8.24457 2.06195 8.29027 2.06692C8.33593 2.07189 8.23862 2.07943 8.30987 2.08633C8.32659 2.08796 8.6183 2.09732 8.63598 2.0986C8.77408 2.1086 8.30887 2.11001 8.28332 2.11054C8.00757 2.11654 8.32184 2.12798 8.34356 2.13099C8.44306 2.14477 8.37764 2.15647 8.44866 2.16799C8.49456 2.17553 8.79929 2.17627 8.78997 2.18218C8.75914 2.20185 8.33403 2.20872 8.70263 2.22726C8.78124 2.23123 9.1143 2.22728 8.85241 2.24152C8.8359 2.24242 8.59631 2.25299 8.74785 2.2591C8.76696 2.25987 8.86403 2.25985 8.87218 2.26086C8.92493 2.26764 8.8476 2.27216 8.88463 2.27955C8.92167 2.28694 8.97688 2.29582 8.94396 2.30425C8.92427 2.30934 8.74342 2.31586 8.69915 2.31829C8.5716 2.32516 8.78072 2.33253 8.62627 2.33679C8.47104 2.34108 8.2353 2.33269 8.135 2.34394C8.38719 2.34436 8.64603 2.34532 8.89965 2.34599C8.89077 2.37065 8.80922 2.39492 8.82036 2.41967C8.822 2.42274 8.95757 2.4196 8.96282 2.42289C8.98436 2.43677 8.88771 2.44889 8.9262 2.46328C8.95651 2.47442 9.10005 2.48664 9.13622 2.49828C8.84765 2.5054 8.94561 2.52269 8.91924 2.53524C8.91013 2.53964 8.83305 2.53935 8.80791 2.54247C8.71492 2.55428 8.96993 2.54875 9.01006 2.55198C9.18133 2.56586 8.60414 2.56705 8.6184 2.58341C8.61896 2.58428 8.92663 2.59488 8.94579 2.59634C9.07073 2.60561 8.8387 2.59787 8.81597 2.60368C8.77442 2.61427 8.70095 2.62164 8.79107 2.63407C8.81776 2.6377 9.00953 2.6464 8.86119 2.65344C8.84177 2.65436 8.74007 2.65385 8.73412 2.6546C8.63484 2.66809 8.95439 2.66845 9.06261 2.67616C9.17081 2.68387 8.95022 2.69578 8.88665 2.69821C8.72218 2.70455 8.81636 2.69335 8.80022 2.693C8.60815 2.68897 8.64122 2.69766 8.62499 2.70429C8.31167 2.70526 8.33048 2.71454 8.60943 2.71118C8.63989 2.71079 8.61068 2.70563 8.62499 2.70429C8.9324 2.71012 8.97177 2.72032 8.6845 2.73159C8.54986 2.73687 8.39288 2.73188 8.45031 2.7479C8.47623 2.75518 8.69197 2.75237 8.75078 2.75878C8.88498 2.77345 8.68373 2.7925 8.71544 2.80761C8.72695 2.8131 8.84505 2.80775 8.85698 2.8115C8.88903 2.82145 8.80042 2.83023 8.84581 2.84022C8.85008 2.84112 8.97369 2.83891 8.97527 2.84202C8.98963 2.86558 8.91045 2.88609 8.90825 2.91069C8.90725 2.92257 8.97543 2.94382 8.96172 2.95613C8.93869 2.97746 8.75893 3.00371 8.8026 3.02194C8.83055 3.03383 8.9542 3.03122 9.03844 3.03631C9.20174 3.04614 8.90923 3.06354 8.86394 3.06588C8.86244 3.06595 8.83329 3.05572 8.76983 3.06118C8.63758 3.06436 8.86337 3.06577 8.86394 3.06588C8.83468 3.06742 8.80661 3.08786 8.83025 3.09191C8.84317 3.09412 8.96031 3.09289 8.96483 3.09403C9.06967 3.12136 9.09944 3.14873 9.04467 3.17645C9.0423 3.17694 8.91127 3.1762 8.90734 3.17735C8.84908 3.19339 9.00937 3.20367 9.10454 3.2169C9.19967 3.23013 9.16781 3.24062 8.94286 3.24845C8.97118 3.25844 8.87173 3.27276 8.81139 3.281C8.75105 3.28924 9.00612 3.29039 9.01116 3.29112C9.17255 3.31374 9.02655 3.32681 9.00383 3.35028C8.99259 3.36143 9.02959 3.38356 9.05748 3.39564C9.07995 3.40519 9.02018 3.41094 9.0584 3.41973C9.0635 3.42092 9.17707 3.41972 9.18145 3.42009C9.31732 3.4299 9.03969 3.42518 8.9901 3.42721C8.80978 3.43456 8.71375 3.4391 8.79857 3.45167C8.818 3.45457 9.21776 3.46302 9.24114 3.4683C9.2708 3.47518 9.12751 3.47258 9.16222 3.47978C9.16506 3.48039 9.25346 3.48027 9.24956 3.48471C9.23263 3.50532 9.18119 3.5278 9.19005 3.54922C9.19092 3.55215 9.33114 3.5484 9.3347 3.55262C9.35132 3.57246 9.34614 3.59421 9.2805 3.61354C9.26391 3.61829 9.16573 3.61531 9.13658 3.61634C8.96021 3.62268 9.21648 3.63168 9.22136 3.63316C9.34451 3.66855 9.11259 3.69563 9.22301 3.7317C9.22949 3.73366 9.50422 3.74878 9.2686 3.75552C9.25293 3.75598 9.01187 3.76265 9.17668 3.76855C9.187 3.76892 9.3111 3.76476 9.29845 3.77201C9.28583 3.77927 9.3687 3.79094 9.23235 3.80092C9.18939 3.80407 8.94893 3.81153 9.14061 3.82095C9.15399 3.82156 9.58742 3.8361 9.28838 3.84129C9.23915 3.84213 8.9227 3.84125 9.08495 3.85249C9.1164 3.85464 9.18699 3.85074 9.23107 3.8564C9.299 3.86506 9.21424 3.87655 9.35521 3.8872C9.38017 3.88906 9.59496 3.89697 9.43193 3.90332C9.4064 3.90431 9.30075 3.90242 9.28893 3.90577C9.23221 3.92171 9.30288 3.93839 9.22978 3.95457C9.2041 3.9603 9.03331 3.95737 8.98754 3.96335C8.94178 3.96932 8.89777 3.98136 8.97582 3.98761C9.0539 3.99386 9.32611 3.98703 9.34789 3.9964C9.44249 4.03712 9.28281 4.07745 9.25945 4.11812C9.25596 4.12415 9.35336 4.11915 9.35521 4.12803C9.36246 4.1608 9.45378 4.21737 9.24681 4.2458C9.08104 4.26858 8.95484 4.23991 8.88738 4.25732C8.8552 4.26572 9.17166 4.27481 9.18163 4.27684C9.28283 4.29665 9.14265 4.31041 9.18566 4.32824C9.19458 4.33193 9.32285 4.32832 9.32903 4.33145C9.35127 4.34215 9.29402 4.3534 9.30449 4.36363C9.30948 4.36822 9.40745 4.36737 9.39989 4.37159C9.38293 4.3817 9.34175 4.39063 9.24993 4.40048C9.24156 4.40138 9.11969 4.39532 9.11516 4.4028C9.10817 4.4149 9.01759 4.42991 9.11113 4.44383C9.13927 4.44796 9.36317 4.44812 9.20854 4.457C9.17625 4.45886 8.9074 4.45649 9.1397 4.46683C9.1783 4.46856 9.49163 4.48593 9.28966 4.49446C9.2365 4.49671 9.0165 4.50245 9.05107 4.50741C9.05659 4.50809 9.17686 4.50539 9.18859 4.5095C9.22784 4.52401 9.215 4.53921 9.25267 4.55411C9.26297 4.55808 9.38742 4.55216 9.39879 4.55809C9.43025 4.5744 9.39856 4.59475 9.35961 4.6107C9.34501 4.61658 9.24192 4.61252 9.2307 4.61294C9.04823 4.61982 9.29452 4.62389 9.30889 4.62617C9.39488 4.64037 9.27918 4.65119 9.3098 4.66427C9.31794 4.66789 9.43538 4.66533 9.44585 4.66604C9.54816 4.6735 9.33726 4.66795 9.31401 4.67267C9.24819 4.68589 9.25762 4.70063 9.27263 4.714C9.27832 4.71891 9.41449 4.71339 9.41802 4.7178C9.44148 4.74389 9.42845 4.77102 9.35338 4.79648C9.339 4.80127 9.23414 4.79825 9.21019 4.79925C9.04264 4.80614 9.27118 4.81623 9.29296 4.81856C9.39236 4.82912 9.29964 4.83322 9.31694 4.84254C9.40311 4.8881 9.3417 4.94435 9.30376 4.98735C9.25493 5.04339 9.15518 5.08687 9.18108 5.1403C9.18259 5.1437 9.32209 5.14028 9.32518 5.1432C9.35881 5.181 9.3043 5.21821 9.34459 5.25609C9.34765 5.2592 9.47989 5.25472 9.48924 5.2597C9.50936 5.26994 9.50217 5.2829 9.45995 5.29324C9.4396 5.29829 9.32613 5.29152 9.30797 5.2966C9.26543 5.30843 9.25601 5.3211 9.27721 5.33325C9.28652 5.33842 9.42177 5.33062 9.42333 5.33734C9.43674 5.38311 9.46004 5.42807 9.2849 5.47432C9.27287 5.47749 8.998 5.48027 9.05071 5.48701C9.12699 5.48752 9.21673 5.48749 9.29827 5.48772C9.34219 5.55435 9.2469 5.6203 9.23217 5.68712C9.23158 5.68994 9.37722 5.68507 9.37682 5.69052C9.37466 5.72209 9.41501 5.75274 9.27025 5.78503C9.25609 5.78824 8.99987 5.78659 9.03862 5.79604C9.04569 5.7977 9.07986 5.81192 9.13549 5.8156C9.14388 5.8161 9.26347 5.8135 9.26696 5.81809C9.28512 5.84471 9.25781 5.87262 9.18474 5.8992C9.17272 5.90349 9.04536 5.89892 9.03569 5.90198C8.96809 5.92365 9.0649 5.94723 8.94927 5.96794C8.87141 5.98181 8.65126 5.97667 8.43456 5.98404C8.40399 5.98508 8.39914 5.99367 8.27306 5.99411C7.95602 5.99525 7.60886 5.99109 7.27093 5.9928C7.19814 5.99316 7.27654 6.00466 7.10064 5.99785C7.08887 5.99737 7.03049 5.98904 6.97082 5.98699C6.92956 5.98556 6.80134 5.98813 6.74853 5.98522C6.69577 5.9823 6.80325 5.97909 6.74121 5.97426C6.67839 5.96943 6.53252 5.97155 6.51525 5.9619ZM8.54168 3.31811C8.41918 3.32574 8.86783 3.32687 8.76049 3.31861C8.75477 3.31821 8.54769 3.31772 8.54168 3.31811ZM8.47081 2.39478C8.27293 2.40476 8.5639 2.41159 8.71672 2.40455C8.86939 2.39751 8.5308 2.39174 8.47081 2.39478ZM8.32635 2.29133C8.17032 2.30299 8.80652 2.30483 8.67791 2.29234C8.67064 2.29161 8.3354 2.29065 8.32635 2.29133ZM8.37285 5.94988C8.3669 5.94998 8.36109 5.95615 8.36699 5.9563C8.50948 5.95959 8.52099 5.94725 8.37285 5.94988ZM8.16906 2.18867C8.083 2.19231 8.18234 2.20279 8.28936 2.19827C8.37545 2.19462 8.27611 2.18413 8.16906 2.18867ZM8.06286 3.7162C8.05617 3.71632 8.05015 3.72074 8.08794 3.72065C8.20966 3.72035 8.17531 3.7142 8.06286 3.7162ZM8.16173 2.01418C8.13779 2.03996 7.61226 2.05559 7.67156 2.02752C7.68229 2.02244 7.83915 2.03848 7.88653 2.03201C7.97284 2.02017 7.64288 2.0123 7.81969 2.00022C7.85206 1.99803 8.16427 2.01271 8.16247 2.01423C8.16222 2.01421 8.16198 2.0142 8.16173 2.01418ZM8.0028 3.32251C7.99687 3.32266 7.99124 3.32878 7.99712 3.32893C8.13955 3.33225 8.15097 3.31991 8.0028 3.32251ZM7.78545 3.97436C7.77281 3.9747 7.76099 3.98891 7.77264 3.98938C8.00555 3.99679 8.03014 3.96806 7.78545 3.97436ZM7.67449 2.91003C7.53121 2.90335 7.51433 2.89535 7.69427 2.89002C7.68472 2.89667 7.68331 2.90335 7.67449 2.91003Z" fill="black"/>
<path d="M19.8476 11.4847C19.7579 11.5238 19.6404 11.482 19.5511 11.4247C19.5231 11.4069 19.5373 11.3274 19.5179 11.3115C19.4802 11.2806 19.4449 11.3196 19.4076 11.2828C19.3952 11.2702 19.4106 11.1442 19.3976 11.1339C19.3265 11.0783 19.2592 11.1103 19.1872 11.0836C18.8323 10.9515 18.4835 10.9042 18.1243 10.8468C18.0058 10.828 17.8618 10.7137 17.7395 10.7637C17.7252 10.7696 17.7337 10.8802 17.731 10.8893C17.6884 11.0288 17.7026 10.8056 17.6747 10.7759C17.5643 10.6589 17.4415 10.6487 17.3352 10.6914C17.29 10.7098 17.3353 10.9294 17.2898 10.8062C17.2866 10.7978 17.2981 10.6804 17.2857 10.6679C17.2576 10.6398 17.2042 10.6607 17.1824 10.6514C17.1404 10.6329 17.1335 10.6341 17.0937 10.6328C17.0394 10.6299 16.9748 10.5716 16.9166 10.5982C16.9041 10.6042 16.9206 10.7245 16.9008 10.745C16.8809 10.7654 16.8284 10.7552 16.8107 10.7269C16.793 10.6985 16.8005 10.6039 16.7974 10.5822C16.7716 10.3992 16.7108 10.6527 16.703 10.6589C16.5605 10.7657 16.4382 10.6214 16.3044 10.6218C16.2029 10.6224 16.0943 10.6701 15.9976 10.6635C15.8825 10.6553 15.7849 10.5901 15.673 10.6013C15.6612 10.6023 15.6751 10.7438 15.6606 10.7454C15.5075 10.7618 15.3553 10.7464 15.2028 10.6509C15.1875 10.6412 15.2072 10.5169 15.1919 10.4998C15.0984 10.3977 14.9503 10.1525 14.8948 10.6934C14.8314 10.6722 14.7544 10.6504 14.6977 10.5414C14.6612 10.4712 14.6967 10.3359 14.6518 10.3936C14.6417 10.4065 14.6548 10.525 14.6396 10.5353C14.5757 10.5787 14.5058 10.5402 14.4426 10.6014C14.4297 10.6142 14.4332 10.7204 14.4296 10.7395C14.3989 10.8944 14.3479 10.6384 14.3368 10.6198C14.2521 10.481 14.1903 10.5356 14.1114 10.5322C14.0931 10.5314 14.1147 10.674 14.0971 10.6784C14.0057 10.6988 13.9111 10.6865 13.8216 10.6232C13.8017 10.6088 13.82 10.4873 13.8105 10.4742C13.7686 10.4179 13.7593 10.6474 13.7191 10.5978C13.7106 10.5876 13.7154 10.4836 13.7139 10.4722C13.6897 10.2928 13.6686 10.5469 13.6624 10.5526C13.5837 10.6292 13.5333 10.3639 13.4573 10.4015C13.4482 10.4063 13.4687 10.5379 13.4431 10.5432C13.2727 10.5796 13.0924 10.5434 12.9238 10.4381C12.8975 10.4219 12.9163 10.323 12.9146 10.3109C12.8877 10.1204 12.8703 10.3756 12.8617 10.3852C12.7943 10.4544 12.7313 10.2404 12.6854 10.5443C12.3997 10.4388 12.1153 10.6095 11.8319 10.3372C11.8283 10.3341 11.8347 10.2084 11.8276 10.2026C11.741 10.1321 11.7576 10.3274 11.7004 10.5663C11.6859 10.6263 11.6421 10.3379 11.6382 10.3167C11.624 10.2388 11.6387 10.0518 11.634 10.0368C11.5948 9.91828 11.6011 10.5366 11.5483 10.5368C11.5466 10.5358 11.5536 10.422 11.5491 10.4107C11.5353 10.3751 11.5217 10.4203 11.5082 10.3812C11.4773 10.2905 11.4663 9.99006 11.4191 10.1649C11.4131 10.1876 11.4223 10.5384 11.375 10.5218C11.3562 10.5149 11.2729 10.5209 11.2496 10.4982C11.2262 10.4755 11.2423 10.3624 11.2406 10.3576C11.1777 10.2081 11.2016 10.1461 11.1701 9.92487C11.1386 9.70444 11.1473 10.2302 11.1345 10.2889C11.1217 10.3474 11.0756 10.2241 11.0643 10.1812C11.0529 10.1383 11.0671 10.0665 11.057 10.0422C10.9903 9.88368 11.0277 10.3032 11.0057 10.3867C10.9539 10.5843 10.9135 10.1943 10.8661 10.1561C10.8532 10.1458 10.8637 10.2346 10.8523 10.2429C10.807 10.2746 10.7798 10.153 10.7283 10.2645C10.7198 10.2827 10.6782 10.5171 10.6512 10.3451C10.6474 10.3203 10.6583 10.2231 10.639 10.2014C10.6101 10.1687 10.5582 10.1475 10.5272 10.1799C10.5043 10.204 10.5306 10.3641 10.5018 10.3143C10.489 10.2921 10.5127 10.1985 10.4886 10.1646C10.4647 10.1307 10.4036 10.1348 10.3803 10.138C10.3571 10.1413 10.3698 10.2628 10.3679 10.2709C10.3565 10.3178 10.312 10.3764 10.308 10.3762C10.1093 10.3911 9.9261 10.1863 9.73265 10.2541C9.71747 10.2592 9.72758 10.3873 9.72526 10.3894C9.67329 10.4431 9.71427 10.1026 9.67796 9.9886C9.68321 10.2485 9.66178 10.2014 9.62517 10.2299C9.60752 10.2439 9.61713 10.3445 9.61552 10.3548C9.58936 10.5077 9.57114 10.3102 9.56645 10.2698C9.54912 10.1213 9.53027 10.2968 9.51848 10.1975C9.50669 10.099 9.53381 9.95285 9.4987 9.95472C9.48885 10.0478 9.51492 10.2909 9.48826 10.3303C9.38768 10.4793 9.19993 10.2886 9.11906 10.2687C9.03835 10.2489 9.01228 10.2661 8.96525 10.2325C8.8803 10.1717 8.91143 10.3521 8.85868 10.4346C8.80578 10.5172 8.8315 10.0734 8.82389 9.97798C8.81643 9.88261 8.80828 9.98078 8.79899 9.92835C8.78974 9.87594 8.80977 9.81107 8.78801 9.79139C8.76622 9.77173 8.70667 9.94139 8.69896 10.0411C8.68263 10.2525 8.70947 10.4743 8.65184 10.3964C8.64852 10.3917 8.65928 10.275 8.64659 10.2633C8.54578 10.1734 8.44106 10.1678 8.34037 10.0884C8.32653 10.0773 8.33891 9.94746 8.33085 9.93952C8.24693 9.85649 8.27693 10.0754 8.23094 10.3186C8.24126 9.99495 8.21583 9.79696 8.15214 9.79505C8.11386 9.79379 8.12044 9.93513 8.09568 10.0347C8.08825 10.0648 8.06116 9.96772 8.05625 10.0342C8.04006 10.2515 8.06559 10.4947 7.99992 10.3978C7.99704 10.3932 8.00621 10.2743 7.99626 10.2671C7.93191 10.22 7.92421 10.4472 7.85465 10.4747C7.80013 10.4963 7.70317 10.3578 7.64109 10.3352C7.6424 9.97139 7.58376 10.0547 7.55998 10.3055C7.51969 10.2953 7.47617 10.3095 7.43723 10.2748C7.42383 10.263 7.43264 10.1576 7.43095 10.1462C7.40503 9.9677 7.38752 10.2118 7.37882 10.2213C7.28457 10.3143 7.20778 10.1294 7.11784 10.3101C7.11464 10.3166 7.10947 10.5694 7.08543 10.3848C7.08387 10.3721 7.11358 10.2571 7.07127 10.2482C7.02895 10.2393 6.94917 10.1038 6.89042 10.221C6.8762 10.2491 6.84024 10.4543 6.81138 10.294C6.80753 10.2722 6.81174 10.1998 6.80619 10.1594C6.78825 10.0309 6.77845 10.2864 6.75736 10.0693C6.73627 9.85234 6.69241 9.68983 6.63315 9.83955C6.63127 9.8439 6.61724 10.0464 6.59861 10.0432C6.56887 10.0379 6.52664 9.9957 6.49558 9.99702C6.48071 9.99772 6.49023 10.1234 6.48765 10.1257C6.38766 10.1962 6.3165 10.0841 6.20939 10.0355C6.18975 10.0263 6.13333 10.1977 6.09531 10.0622C6.05357 9.91383 6.09646 9.29663 6.00052 9.44368C5.96183 9.50249 5.91284 10.2855 5.8433 9.87983C5.70843 9.98036 5.58371 9.77273 5.44846 9.91627C5.44238 9.92263 5.42315 10.1412 5.40885 10.1382C5.38762 10.1334 5.37597 10.0312 5.36081 10.0245C5.2973 9.99372 5.23919 10.0811 5.17795 10.0675C5.15471 10.0626 5.16283 9.95696 5.13511 9.95106C5.10739 9.94525 5.08892 10.0843 5.05136 10.0172C5.023 9.96596 4.99465 9.6817 4.957 9.64857C4.95557 9.92896 4.92971 9.92318 4.88376 9.9972C4.87493 10.0116 4.8844 10.1092 4.88022 10.121C4.86322 10.1713 4.84748 10.0904 4.83133 10.1451C4.82741 10.1583 4.82722 10.2541 4.82401 10.2702C4.7967 10.4112 4.75172 10.1958 4.74399 10.1583C4.71438 10.0159 4.70054 10.1404 4.67783 10.0844C4.65515 10.0283 4.68906 9.95817 4.66257 9.92414C4.60767 9.85375 4.53712 9.86922 4.48136 9.86482C4.45911 9.86365 4.47429 9.99147 4.4711 9.99427C4.42509 10.0267 4.37857 9.89073 4.35306 10.1453C4.32116 9.48702 4.32532 10.2092 4.25955 10.0774C4.25437 10.0667 4.24779 9.75543 4.26767 9.70973C4.28756 9.66407 4.31772 9.76138 4.34531 9.69013C4.35184 9.67341 4.38927 9.3817 4.39438 9.36402C4.43438 9.22592 4.44005 9.69113 4.44217 9.71668C4.46617 9.99243 4.51191 9.67816 4.52396 9.65644C4.57906 9.55694 4.62588 9.62236 4.67197 9.55134C4.70211 9.50544 4.70506 9.20071 4.72873 9.21003C4.80742 9.24086 4.83488 9.66597 4.90903 9.29737C4.92493 9.21876 4.90913 8.8857 4.9661 9.14759C4.96968 9.1641 5.01198 9.40369 5.03641 9.25215C5.03948 9.23304 5.03938 9.13597 5.04343 9.12782C5.07056 9.07507 5.08865 9.1524 5.1182 9.11537C5.14775 9.07833 5.18328 9.02312 5.21701 9.05604C5.23735 9.07573 5.26343 9.25658 5.27317 9.30085C5.30065 9.4284 5.33012 9.21928 5.34714 9.37373C5.36431 9.52896 5.33074 9.7647 5.37577 9.865C5.37743 9.61281 5.38127 9.35397 5.38395 9.10035C5.48261 9.10923 5.57969 9.19078 5.67869 9.17964C5.69096 9.178 5.67841 9.04243 5.69156 9.03718C5.74707 9.01564 5.79556 9.11229 5.85312 9.0738C5.89768 9.04349 5.94655 8.89995 5.99314 8.86378C6.0216 9.15235 6.09074 9.05439 6.14097 9.08076C6.15856 9.08987 6.15738 9.16695 6.1699 9.19209C6.2171 9.28508 6.19498 9.03007 6.20792 8.98994C6.26344 8.81867 6.2682 9.39586 6.33366 9.3816C6.33712 9.38104 6.37951 9.07337 6.38535 9.05421C6.42245 8.92927 6.39149 9.1613 6.41471 9.18403C6.4571 9.22558 6.48656 9.29905 6.53629 9.20893C6.5508 9.18224 6.58558 8.99047 6.61375 9.13881C6.61745 9.15823 6.6154 9.25993 6.61838 9.26588C6.67236 9.36516 6.67378 9.04561 6.70463 8.93739C6.73548 8.82919 6.78313 9.04978 6.79282 9.11335C6.81819 9.27782 6.77339 9.18364 6.77201 9.19978C6.75587 9.39185 6.79062 9.35878 6.81718 9.37501C6.82102 9.68833 6.85815 9.66952 6.8447 9.39057C6.84317 9.36011 6.82251 9.38932 6.81718 9.37501C6.84048 9.0676 6.88129 9.02823 6.92637 9.3155C6.94747 9.45014 6.92752 9.60712 6.99162 9.54969C7.0207 9.52377 7.00946 9.30803 7.03513 9.24922C7.09378 9.11502 7.16998 9.31627 7.23045 9.28456C7.25239 9.27305 7.23101 9.15495 7.24601 9.14302C7.28581 9.11097 7.32091 9.19958 7.36088 9.15419C7.3645 9.14992 7.35565 9.02631 7.36808 9.02473C7.46231 9.01037 7.54436 9.08955 7.64274 9.09175C7.69028 9.09275 7.77526 9.02457 7.8245 9.03828C7.90985 9.06131 8.01484 9.24107 8.08775 9.1974C8.1353 9.16945 8.12487 9.0458 8.14524 8.96156C8.18456 8.79826 8.25416 9.09077 8.26353 9.13606C8.26382 9.13756 8.2229 9.16671 8.24473 9.23017C8.25743 9.36242 8.26307 9.13663 8.26353 9.13606C8.26968 9.16532 8.35143 9.19339 8.36766 9.16975C8.37648 9.15683 8.37154 9.03969 8.37614 9.03517C8.48544 8.93033 8.59493 8.90056 8.70579 8.95533C8.70774 8.9577 8.7048 9.08873 8.70939 9.09266C8.77357 9.15092 8.81467 8.99063 8.8676 8.89546C8.92052 8.80033 8.96249 8.83219 8.99382 9.05714C9.03375 9.02882 9.09104 9.12827 9.12401 9.18861C9.15697 9.24895 9.16157 8.99388 9.16447 8.98884C9.25494 8.82745 9.30724 8.97345 9.4011 8.99617C9.44573 9.00741 9.53425 8.97041 9.58256 8.94252C9.62075 8.92005 9.64375 8.97982 9.67894 8.9416C9.6837 8.9365 9.67889 8.82293 9.68034 8.81855C9.71961 8.68268 9.70074 8.96031 9.70885 9.0099C9.73824 9.19022 9.7564 9.28625 9.80668 9.20143C9.81828 9.182 9.85207 8.78224 9.87321 8.75886C9.9007 8.7292 9.89033 8.87249 9.91911 8.83778C9.92157 8.83494 9.92106 8.74654 9.93883 8.75044C10.0213 8.76737 10.1112 8.81881 10.1969 8.80995C10.2086 8.80908 10.1936 8.66886 10.2105 8.6653C10.2899 8.64868 10.3768 8.65386 10.4541 8.7195C10.4732 8.73609 10.4612 8.83427 10.4654 8.86342C10.4907 9.03979 10.5267 8.78352 10.5326 8.77864C10.6742 8.65549 10.7825 8.88741 10.9268 8.77699C10.9347 8.77051 10.9951 8.49578 11.0221 8.7314C11.0239 8.74707 11.0506 8.98813 11.0742 8.82332C11.0757 8.813 11.059 8.6889 11.0881 8.70155C11.1171 8.71417 11.1638 8.6313 11.2037 8.76765C11.2163 8.81061 11.2461 9.05107 11.2838 8.85939C11.2863 8.84601 11.3444 8.41258 11.3652 8.71162C11.3685 8.76085 11.365 9.0773 11.41 8.91505C11.4185 8.8836 11.403 8.81301 11.4256 8.76893C11.4603 8.701 11.5062 8.78576 11.5488 8.64479C11.5562 8.61983 11.5879 8.40504 11.6133 8.56807C11.6172 8.5936 11.6097 8.69925 11.6231 8.71107C11.6868 8.76779 11.7536 8.69712 11.8183 8.77022C11.8412 8.7959 11.8295 8.96669 11.8534 9.01246C11.8773 9.05822 11.9254 9.10223 11.9504 9.02418C11.9754 8.9461 11.9481 8.67389 11.9856 8.65211C12.1485 8.55751 12.3098 8.71719 12.4725 8.74055C12.4966 8.74404 12.4766 8.64664 12.5121 8.64479C12.6432 8.63754 12.8695 8.54622 12.9832 8.75319C13.0743 8.91896 12.9597 9.04516 13.0293 9.11262C13.0629 9.1448 13.0992 8.82834 13.1074 8.81837C13.1866 8.71717 13.2417 8.85735 13.313 8.81434C13.3277 8.80542 13.3133 8.67715 13.3258 8.67097C13.3686 8.64873 13.4136 8.70598 13.4545 8.69551C13.4729 8.69052 13.4695 8.59255 13.4864 8.60011C13.5268 8.61707 13.5625 8.65825 13.6019 8.75007C13.6055 8.75844 13.5813 8.88031 13.6112 8.88484C13.6596 8.89183 13.7196 8.98241 13.7753 8.88887C13.7918 8.86073 13.7925 8.63683 13.828 8.79146C13.8354 8.82375 13.8259 9.0926 13.8673 8.8603C13.8743 8.8217 13.9437 8.50837 13.9778 8.71034C13.9868 8.7635 14.0098 8.9835 14.0297 8.94893C14.0323 8.94341 14.0216 8.82314 14.038 8.81141C14.096 8.77216 14.1568 8.785 14.2164 8.74733C14.2323 8.73703 14.2086 8.61258 14.2324 8.60121C14.2976 8.56975 14.379 8.60144 14.4428 8.64039C14.4663 8.65499 14.4501 8.75808 14.4518 8.7693C14.4793 8.95177 14.4956 8.70548 14.5047 8.69111C14.5615 8.60512 14.6047 8.72082 14.6571 8.6902C14.6715 8.68206 14.6613 8.56462 14.6642 8.55415C14.694 8.45184 14.6718 8.66274 14.6907 8.68599C14.7436 8.75181 14.8025 8.74238 14.856 8.72737C14.8757 8.72168 14.8536 8.58551 14.8712 8.58198C14.9756 8.55852 15.0841 8.57155 15.1859 8.64662C15.2051 8.661 15.193 8.76586 15.197 8.78981C15.2246 8.95736 15.2649 8.72882 15.2742 8.70704C15.3165 8.60764 15.3329 8.70036 15.3702 8.68306C15.5524 8.59689 15.7774 8.6583 15.9494 8.69624C16.1735 8.74507 16.3475 8.84482 16.5612 8.81892C16.5748 8.81741 16.5611 8.67791 16.5728 8.67482C16.724 8.64119 16.8729 8.6957 17.0244 8.65541C17.0368 8.65235 17.0189 8.52011 17.0388 8.51076C17.0797 8.49064 17.1316 8.49783 17.173 8.54005C17.1932 8.5604 17.1661 8.67387 17.1864 8.69203C17.2337 8.73457 17.2844 8.74399 17.333 8.72279C17.3537 8.71348 17.3225 8.57823 17.3494 8.57667C17.5325 8.56326 17.7123 8.53996 17.8973 8.7151C17.91 8.72713 17.9211 9.002 17.9481 8.94929C17.9501 8.87301 17.95 8.78327 17.9509 8.70173C18.2174 8.65781 18.4812 8.7531 18.7485 8.76783C18.7597 8.76842 18.7403 8.62278 18.7621 8.62318C18.8884 8.62534 19.011 8.58499 19.1401 8.72975C19.153 8.74391 19.1464 9.00013 19.1841 8.96138C19.1908 8.95431 19.2477 8.92014 19.2624 8.86451C19.2644 8.85612 19.254 8.73653 19.2723 8.73304C19.3789 8.71488 19.4905 8.74219 19.5968 8.81526C19.614 8.82728 19.5957 8.95464 19.6079 8.96431C19.6946 9.03191 19.7889 8.9351 19.8718 9.05073C19.9272 9.12859 19.9067 9.34874 19.9362 9.56544C19.9403 9.59601 19.9747 9.60086 19.9764 9.72694C19.981 10.044 19.9644 10.3911 19.9712 10.7291C19.9726 10.8019 20.0186 10.7235 19.9914 10.8994C19.9895 10.9111 19.9562 10.9695 19.9479 11.0292C19.9422 11.0704 19.9525 11.1987 19.9409 11.2515C19.9292 11.3042 19.9164 11.1967 19.897 11.2588C19.8777 11.3216 19.8862 11.4675 19.8476 11.4847ZM9.27244 9.45832C9.30297 9.58082 9.30747 9.13217 9.27446 9.23951C9.27286 9.24523 9.27087 9.45231 9.27244 9.45832ZM5.57914 9.52919C5.61904 9.72707 5.64635 9.4361 5.6182 9.28328C5.59005 9.13061 5.56698 9.4692 5.57914 9.52919ZM5.16532 9.67365C5.21196 9.82968 5.2193 9.19348 5.16935 9.32209C5.16644 9.32936 5.16259 9.6646 5.16532 9.67365ZM19.7995 9.62715C19.7999 9.6331 19.8246 9.63891 19.8252 9.63301C19.8383 9.49052 19.789 9.47901 19.7995 9.62715ZM4.75467 9.83094C4.76923 9.917 4.81115 9.81766 4.79306 9.71064C4.7785 9.62455 4.73654 9.72389 4.75467 9.83094ZM10.8648 9.93714C10.8653 9.94383 10.883 9.94985 10.8826 9.91206C10.8814 9.79034 10.8568 9.82469 10.8648 9.93714ZM4.05673 9.83827C4.15985 9.86221 4.22237 10.3877 4.11008 10.3284C4.08974 10.3177 4.15391 10.1609 4.12802 10.1135C4.08066 10.0272 4.04922 10.3571 4.00089 10.1803C3.99214 10.1479 4.05085 9.83573 4.05692 9.83753C4.05686 9.83778 4.0568 9.83802 4.05673 9.83827ZM9.29002 9.9972C9.29063 10.0031 9.31513 10.0088 9.31572 10.0029C9.32898 9.86045 9.27963 9.84903 9.29002 9.9972ZM11.8974 10.2145C11.8988 10.2272 11.9557 10.239 11.9575 10.2274C11.9872 9.99445 11.8722 9.96986 11.8974 10.2145ZM7.64012 10.3255C7.61338 10.4688 7.58141 10.4857 7.5601 10.3057C7.58666 10.3153 7.6134 10.3167 7.64012 10.3255Z" fill="black"/>
</svg>
