<svg width="24" height="24" viewBox="0 0 24 24" fill="none" xmlns="http://www.w3.org/2000/svg">
<path d="M20.8975 5.20227C20.8354 5.31957 20.6884 5.40755 20.5585 5.45632C20.5179 5.47173 20.4759 5.40133 20.4453 5.40944C20.3857 5.42538 20.378 5.48816 20.3147 5.49947C20.2934 5.50294 20.2197 5.39847 20.1994 5.40415C20.089 5.43592 20.0444 5.52588 19.9534 5.579C19.5051 5.84047 19.1228 6.15587 18.7231 6.47452C18.5913 6.57966 18.3665 6.64282 18.2795 6.8005C18.2694 6.81899 18.3561 6.88864 18.3598 6.8978C18.4159 7.03905 18.2722 6.86707 18.2234 6.87393C18.0302 6.90159 17.9002 7.0172 17.8241 7.15366C17.7919 7.21194 17.9925 7.32187 17.8598 7.28025C17.8508 7.27752 17.7792 7.18304 17.758 7.18658C17.71 7.19479 17.6714 7.26298 17.6431 7.2782C17.588 7.30711 17.5819 7.31489 17.5412 7.35368C17.4848 7.40598 17.379 7.42931 17.3395 7.50639C17.3313 7.52309 17.4329 7.59172 17.4276 7.62604C17.4222 7.66035 17.3624 7.70566 17.3246 7.70331C17.2869 7.70095 17.2275 7.62653 17.2091 7.61433C17.0539 7.51072 17.1723 7.7507 17.1689 7.76294C17.1019 7.98099 16.8776 8.00113 16.7441 8.13522C16.643 8.23723 16.5681 8.37954 16.4668 8.47156C16.3458 8.58087 16.2021 8.63234 16.0982 8.75213C16.0871 8.76467 16.201 8.85089 16.1877 8.86641C16.0462 9.03124 15.8831 9.17245 15.6631 9.25743C15.6409 9.26587 15.5728 9.15831 15.5454 9.16148C15.3796 9.18285 15.0581 9.15747 15.3851 9.59551C15.3067 9.64396 15.2144 9.70547 15.0806 9.68507C14.9944 9.67201 14.9342 9.5408 14.9301 9.62655C14.9291 9.64577 15.0261 9.71641 15.0182 9.73891C14.9849 9.83354 14.8878 9.87616 14.8678 9.98273C14.864 10.0046 14.9426 10.0762 14.9525 10.0934C15.0313 10.2335 14.7993 10.1035 14.775 10.1015C14.5922 10.088 14.569 10.1885 14.4877 10.265C14.4688 10.2827 14.5913 10.3619 14.5768 10.3826C14.4999 10.4884 14.3966 10.5744 14.2623 10.619C14.2322 10.6287 14.1646 10.5245 14.1458 10.5248C14.0641 10.5269 14.2171 10.6984 14.1418 10.7036C14.1261 10.7049 14.0574 10.6265 14.0477 10.62C13.8967 10.5174 14.0554 10.7181 14.0531 10.7283C14.0286 10.8613 13.7907 10.724 13.7412 10.8266C13.7354 10.8391 13.849 10.9117 13.8272 10.941C13.6825 11.1371 13.4767 11.2918 13.2336 11.386C13.1959 11.4008 13.1447 11.3122 13.1344 11.3052C12.9728 11.1974 13.1359 11.3953 13.1341 11.4106C13.1156 11.527 12.9012 11.4387 13.0703 11.6995C12.71 11.9106 12.5463 12.3157 12.0704 12.4066C12.0645 12.4079 11.9821 12.3126 11.9709 12.3157C11.8344 12.3524 11.9891 12.4739 12.1008 12.7001C12.1288 12.7569 11.881 12.5968 11.8621 12.5858C11.7929 12.5448 11.6754 12.398 11.6599 12.392C11.537 12.3475 11.9806 12.7783 11.9278 12.8313C11.9255 12.8322 11.8519 12.7448 11.8395 12.7413C11.8006 12.7299 11.8189 12.7756 11.7777 12.7614C11.6827 12.7281 11.4593 12.5267 11.5357 12.6975C11.5458 12.7195 11.8029 12.9584 11.744 12.9939C11.7203 13.0079 11.6412 13.0954 11.6018 13.1027C11.5624 13.11 11.4985 13.014 11.4934 13.0122C11.3249 12.9694 11.3049 12.9018 11.117 12.7768C10.9296 12.6524 11.3101 13.0154 11.3388 13.0698C11.3673 13.124 11.234 13.0829 11.1924 13.0639C11.1508 13.0449 11.1141 12.98 11.0869 12.9729C10.908 12.9275 11.2421 13.1867 11.2791 13.2677C11.367 13.4592 11.0509 13.2239 10.9765 13.2443C10.9563 13.2499 11.0296 13.3022 11.0241 13.3195C11.0012 13.3872 10.8879 13.3284 10.9153 13.4588C10.9197 13.4801 11.0439 13.6875 10.8953 13.5928C10.8739 13.5791 10.816 13.4995 10.7813 13.5034C10.7294 13.5092 10.6625 13.5461 10.6544 13.6C10.6486 13.6399 10.788 13.7269 10.724 13.7205C10.6955 13.7176 10.653 13.6277 10.605 13.6277C10.5571 13.6277 10.4989 13.6917 10.4779 13.7173C10.457 13.7429 10.5556 13.816 10.5595 13.8237C10.5813 13.8682 10.5781 13.9542 10.5741 13.958C10.3858 14.1672 10.0579 14.2057 9.91232 14.447C9.90078 14.4658 10.0014 14.5463 10.0006 14.5501C9.98659 14.64 9.78679 14.3583 9.6699 14.314C9.85891 14.4925 9.80421 14.4807 9.78775 14.5374C9.77997 14.5649 9.86073 14.6265 9.86641 14.6354C9.94832 14.7696 9.79051 14.6482 9.75726 14.6244C9.63488 14.5366 9.74015 14.6796 9.65814 14.6212C9.57667 14.5633 9.50047 14.4328 9.46668 14.4693C9.52262 14.5449 9.72059 14.6908 9.7218 14.7453C9.72661 14.9512 9.40398 15.0041 9.30909 15.071C9.21438 15.1377 9.20045 15.1759 9.12965 15.1991C9.00171 15.2411 9.16039 15.3375 9.16602 15.4487C9.17149 15.5599 8.88339 15.2204 8.80832 15.1605C8.73343 15.1006 8.79469 15.1781 8.74833 15.1503C8.70201 15.1225 8.67618 15.0566 8.6405 15.0645C8.60482 15.0724 8.66523 15.2519 8.72805 15.3301C8.86118 15.4959 9.04486 15.6259 8.93211 15.6284C8.92553 15.6285 8.85377 15.5352 8.83274 15.5396C8.6684 15.5768 8.55974 15.6776 8.40287 15.7221C8.38117 15.7281 8.30176 15.6239 8.28809 15.6264C8.14545 15.6516 8.33024 15.7764 8.45619 15.9943C8.23769 15.7552 8.07226 15.6406 8.00722 15.7029C7.96804 15.7403 8.07457 15.8337 8.12025 15.9289C8.13405 15.9575 8.03834 15.916 8.08043 15.9679C8.21787 16.1377 8.41538 16.2842 8.28123 16.2814C8.27509 16.281 8.20017 16.1877 8.18512 16.1926C8.08744 16.2236 8.24044 16.392 8.19035 16.481C8.1511 16.5508 7.95614 16.5498 7.87812 16.5959C7.62217 16.3374 7.62244 16.4549 7.77603 16.6561C7.72848 16.6891 7.695 16.7426 7.63154 16.7571C7.60978 16.7621 7.5441 16.6788 7.53436 16.6725C7.3822 16.5721 7.53725 16.7622 7.53532 16.7777C7.50684 16.9377 7.29925 16.8837 7.33713 17.1015C7.33854 17.1093 7.51207 17.2931 7.35755 17.1867C7.347 17.1793 7.29539 17.0682 7.2468 17.1043C7.19817 17.1403 7.0226 17.1243 7.04666 17.2658C7.05238 17.3 7.16148 17.481 7.01928 17.3965C7.00004 17.385 6.953 17.3295 6.91893 17.3065C6.81011 17.2336 6.98093 17.424 6.8064 17.2917C6.63186 17.1593 6.47308 17.0883 6.5197 17.2534C6.52089 17.2584 6.65002 17.4155 6.62913 17.4319C6.59565 17.4579 6.5236 17.4703 6.49347 17.5023C6.4791 17.5177 6.57751 17.5971 6.57656 17.6013C6.52639 17.7511 6.37598 17.743 6.23447 17.8157C6.20835 17.8288 6.27315 18.0065 6.1393 17.9487C5.99264 17.8855 5.59911 17.4062 5.60714 17.6061C5.61003 17.6864 6.11473 18.2891 5.75833 18.0717C5.69454 18.2777 5.423 18.2556 5.38925 18.4923C5.38767 18.5029 5.52297 18.6767 5.50657 18.6889C5.48192 18.7067 5.39804 18.6461 5.37813 18.6565C5.29286 18.6983 5.29654 18.8182 5.22569 18.8698C5.19895 18.8895 5.1324 18.8067 5.1005 18.8303C5.06868 18.8539 5.14855 18.9707 5.0635 18.9608C4.99894 18.9529 4.76958 18.7803 4.70851 18.7945C4.90534 18.9942 4.8754 19.016 4.88178 19.1143C4.88311 19.1332 4.96158 19.1928 4.96577 19.2053C4.98433 19.2579 4.9114 19.2164 4.93397 19.2713C4.93934 19.2845 5.00686 19.3524 5.01508 19.3671C5.08749 19.4941 4.8902 19.3868 4.85595 19.368C4.72563 19.2969 4.79985 19.3988 4.73748 19.3818C4.67515 19.3648 4.65948 19.2814 4.60893 19.2838C4.50425 19.2889 4.44464 19.3704 4.38577 19.4231C4.3627 19.4445 4.46825 19.5197 4.46705 19.5248C4.44397 19.5938 4.3013 19.5442 4.45583 19.7497C3.95843 19.3161 4.47324 19.8226 4.31429 19.7952C4.30157 19.7928 4.07484 19.5793 4.06242 19.5271C4.05002 19.4749 4.14899 19.5136 4.1262 19.4356C4.12092 19.4172 3.95207 19.1735 3.94468 19.1559C3.88703 19.0183 4.22165 19.3415 4.24184 19.3575C4.46082 19.5285 4.28434 19.2605 4.28103 19.2331C4.26578 19.1076 4.35885 19.1071 4.35472 19.0108C4.35241 18.9482 4.13987 18.7298 4.17014 18.7127C4.27062 18.6558 4.59869 18.9289 4.4122 18.5941C4.37251 18.5227 4.1212 18.3029 4.36336 18.4312C4.37861 18.4393 4.59032 18.5664 4.5076 18.4348C4.49716 18.4182 4.42843 18.3497 4.42671 18.3398C4.41653 18.2754 4.48931 18.312 4.49267 18.2563C4.49603 18.2005 4.49252 18.126 4.54954 18.1155C4.58379 18.1091 4.73776 18.2109 4.7788 18.2325C4.89647 18.2952 4.77806 18.1178 4.9043 18.21C5.03123 18.3026 5.16436 18.5029 5.28031 18.5288C5.10365 18.3488 4.92445 18.1619 4.7478 17.9799C4.85274 17.8875 5.00749 17.8481 5.0986 17.7412C5.10972 17.7278 5.0013 17.6445 5.01075 17.6276C5.05103 17.5569 5.16785 17.5767 5.1982 17.492C5.22133 17.426 5.16869 17.2756 5.18971 17.2034C5.42222 17.379 5.4221 17.2406 5.49097 17.209C5.51501 17.1979 5.56833 17.2536 5.59862 17.2588C5.71158 17.2774 5.50914 17.1192 5.4937 17.0779C5.42811 16.9012 5.84101 17.3046 5.89638 17.2291C5.89945 17.2252 5.72429 16.9653 5.71658 16.9459C5.66533 16.8204 5.79844 17.0155 5.83773 17.0083C5.9095 16.9953 5.99091 17.0178 5.97692 16.9043C5.97256 16.871 5.87174 16.7006 6.00479 16.7773C6.02223 16.7873 6.0921 16.8613 6.09928 16.8625C6.22346 16.8787 5.99893 16.6514 5.95325 16.544C5.90759 16.4366 6.11122 16.545 6.16587 16.5802C6.30753 16.6711 6.19613 16.6494 6.20617 16.6621C6.32585 16.8141 6.33721 16.756 6.37524 16.7409C6.60064 16.9586 6.62447 16.9082 6.41378 16.7244C6.3907 16.7044 6.39069 16.7457 6.37524 16.7409C6.18118 16.5002 6.19415 16.4316 6.44236 16.5896C6.55866 16.6637 6.64971 16.7947 6.6732 16.69C6.68396 16.6425 6.52017 16.5012 6.50425 16.434C6.46801 16.2804 6.68651 16.3465 6.72455 16.2637C6.73836 16.2336 6.63348 16.1714 6.64003 16.148C6.65717 16.0856 6.75493 16.1131 6.7628 16.041C6.76341 16.0344 6.66715 15.9558 6.67846 15.9423C6.76254 15.8379 6.90058 15.8119 7.00051 15.715C7.04875 15.6682 7.08553 15.535 7.14446 15.4955C7.24609 15.4264 7.47819 15.4485 7.52022 15.3447C7.54801 15.2774 7.45015 15.2004 7.41096 15.1205C7.3348 14.9657 7.61123 15.1029 7.65263 15.1256C7.65398 15.1263 7.63367 15.1879 7.70038 15.2109C7.80659 15.2917 7.65257 15.1264 7.65263 15.1256C7.67948 15.1401 7.78106 15.0782 7.78058 15.0453C7.78027 15.0273 7.6925 14.9494 7.6939 14.9416C7.72908 14.7582 7.81751 14.6276 7.9671 14.5555C7.97073 14.5552 8.06044 14.6508 8.06781 14.649C8.17318 14.626 8.10093 14.4716 8.08657 14.3514C8.07223 14.2312 8.13672 14.2117 8.32712 14.3395C8.34702 14.2795 8.47463 14.2926 8.55027 14.3023C8.6259 14.312 8.45014 14.127 8.44948 14.1205C8.42583 13.9159 8.58136 13.9669 8.69129 13.8891C8.74386 13.8524 8.80622 13.7377 8.83481 13.6697C8.85711 13.6156 8.92238 13.6349 8.93054 13.5727C8.93169 13.5643 8.84657 13.4888 8.84493 13.4843C8.78812 13.3489 8.96557 13.5641 9.00874 13.591C9.16564 13.6892 9.2517 13.7389 9.24201 13.6286C9.23987 13.6033 8.99098 13.2868 8.9956 13.2492C9.00211 13.2007 9.09306 13.3124 9.0973 13.2591C9.09775 13.2546 9.03473 13.1926 9.05525 13.1776C9.14969 13.1071 9.27596 13.0536 9.35539 12.9616C9.36648 12.9493 9.25233 12.8652 9.26672 12.8457C9.33432 12.7546 9.42497 12.6713 9.54869 12.6404C9.57946 12.6331 9.63695 12.7145 9.66169 12.7309C9.81177 12.8303 9.66653 12.6131 9.66901 12.6037C9.72348 12.3751 9.99581 12.4308 10.062 12.2084C10.0653 12.196 9.93147 11.9412 10.125 12.0809C10.138 12.0901 10.3351 12.2339 10.2422 12.0938C10.2363 12.085 10.132 12.0139 10.1699 11.9938C10.2079 11.9737 10.196 11.8684 10.3323 11.9249C10.3753 11.9427 10.5751 12.0829 10.4773 11.9097C10.4703 11.8977 10.2219 11.5331 10.4541 11.7238C10.4923 11.7553 10.7126 11.9826 10.6428 11.8229C10.6291 11.792 10.5636 11.7577 10.5551 11.7039C10.5417 11.6212 10.6476 11.6352 10.5905 11.4929C10.5803 11.4678 10.4601 11.2843 10.6007 11.3742C10.6228 11.3883 10.6899 11.4705 10.7117 11.4655C10.8155 11.4419 10.8323 11.3252 10.9487 11.3121C10.9898 11.3074 11.0988 11.4399 11.1551 11.4483C11.2113 11.4568 11.2906 11.4398 11.2604 11.3596C11.2302 11.2793 11.0104 11.1142 11.0325 11.0613C11.1285 10.8315 11.4027 10.7831 11.5819 10.637C11.6085 10.6153 11.5196 10.5664 11.5539 10.5296C11.6798 10.3934 11.8415 10.1025 12.1016 10.1352C12.3099 10.1613 12.2845 10.3652 12.4018 10.3432C12.4582 10.3324 12.2707 10.0723 12.2718 10.0571C12.2795 9.90631 12.4337 9.95037 12.4746 9.84864C12.483 9.8276 12.3779 9.75134 12.386 9.73444C12.4131 9.6759 12.4986 9.67138 12.5321 9.62306C12.5469 9.60118 12.4743 9.53529 12.4965 9.52375C12.5489 9.49533 12.6138 9.48872 12.7181 9.51425C12.7276 9.51658 12.7896 9.62696 12.8227 9.60027C12.876 9.55682 13.0001 9.5608 12.9896 9.43899C12.9863 9.40257 12.8286 9.24361 12.9734 9.31744C13.0037 9.33282 13.1843 9.53243 13.0614 9.32681C13.0411 9.29256 12.889 9.00152 13.0659 9.11024C13.1125 9.13883 13.291 9.27143 13.2864 9.22712C13.2852 9.22053 13.1894 9.14628 13.1976 9.12153C13.2278 9.03576 13.2977 8.98404 13.3307 8.8978C13.3393 8.87461 13.2276 8.81031 13.2433 8.77855C13.2862 8.69108 13.3901 8.63205 13.4814 8.59581C13.5153 8.58262 13.5719 8.67177 13.5815 8.67799C13.7381 8.7795 13.5802 8.58907 13.5792 8.56979C13.5752 8.45218 13.7002 8.49074 13.7309 8.41673C13.7396 8.39653 13.6463 8.32373 13.6418 8.31345C13.5993 8.21128 13.7262 8.38263 13.7615 8.38019C13.861 8.37384 13.9132 8.3082 13.9561 8.2441C13.9718 8.22044 13.8534 8.14623 13.8685 8.1261C13.9563 8.00515 14.074 7.90587 14.2289 7.85711C14.2583 7.8481 14.3203 7.93431 14.3413 7.94725C14.4873 8.03818 14.3661 7.8362 14.36 7.81152C14.3319 7.69899 14.4139 7.74815 14.439 7.69861C14.5602 7.45545 14.8287 7.27388 15.0275 7.12871C15.2862 6.93909 15.5306 6.8357 15.7261 6.60364C15.7386 6.58898 15.6262 6.50404 15.6358 6.49014C15.7632 6.31517 15.9506 6.20486 16.0736 6.02488C16.0838 6.01029 15.9724 5.9347 15.9858 5.90813C16.0125 5.85298 16.0694 5.80621 16.1406 5.79469C16.1752 5.78889 16.2284 5.8962 16.2615 5.88873C16.3389 5.8715 16.3963 5.82745 16.4299 5.76387C16.444 5.73661 16.3171 5.67217 16.3429 5.64419C16.5165 5.45162 16.6799 5.25534 16.9887 5.19416C17.0099 5.18998 17.2154 5.37322 17.2051 5.30898C17.1532 5.253 17.0896 5.18966 17.0329 5.13112C17.2683 4.83354 17.5995 4.63711 17.8772 4.38025C17.8889 4.3694 17.7664 4.28589 17.7885 4.26436C17.9163 4.13961 18.0104 3.98846 18.2419 3.96166C18.2648 3.95885 18.4394 4.1466 18.4497 4.08144C18.4514 4.06978 18.4841 3.98873 18.4595 3.9347C18.4555 3.92677 18.3606 3.85258 18.3765 3.83179C18.4701 3.71243 18.6011 3.62012 18.7591 3.56546C18.7847 3.5568 18.8565 3.66513 18.8756 3.65974C19.0101 3.62084 19.0359 3.45808 19.2005 3.457C19.311 3.4566 19.4462 3.6328 19.6289 3.75656C19.6547 3.77401 19.6924 3.7431 19.7834 3.83047C20.0121 4.05009 20.2409 4.3122 20.4867 4.54434C20.5396 4.59436 20.5302 4.49294 20.6273 4.64454C20.6338 4.65477 20.6417 4.72939 20.6757 4.7798C20.6991 4.81469 20.8001 4.89505 20.8258 4.94406C20.8514 4.99303 20.7626 4.92985 20.7871 4.99306C20.8122 5.05681 20.9239 5.15146 20.8975 5.20227ZM8.88942 14.3445C9.00656 14.4006 8.69383 14.0789 8.73671 14.1878C8.73916 14.1934 8.8836 14.3419 8.88942 14.3445ZM5.24622 18.0879C5.42605 18.188 5.24761 17.9549 5.1114 17.875C4.9753 17.7952 5.19164 18.0577 5.24622 18.0879ZM4.93456 18.6039C5.09152 18.6676 4.64901 18.2104 4.68999 18.3513C4.69223 18.3593 4.92543 18.6002 4.93456 18.6039ZM19.5359 3.93685C19.5405 3.94064 19.5693 3.92006 19.5657 3.9153C19.4781 3.8014 19.4206 3.84262 19.5359 3.93685ZM4.63513 19.1258C4.71054 19.1721 4.68222 19.0599 4.58846 19.0023C4.51302 18.956 4.5413 19.0682 4.63513 19.1258ZM10.8203 13.0908C10.8256 13.095 10.8475 13.0816 10.8204 13.0552C10.7332 12.9703 10.7328 13.0193 10.8203 13.0908ZM3.94237 19.8289C4.06242 19.7427 4.49654 20.0518 4.34232 20.1222C4.3144 20.1349 4.26765 19.9598 4.20826 19.9522C4.09987 19.9385 4.30174 20.2033 4.12838 20.1266C4.09675 20.1125 3.9347 19.833 3.94204 19.8282C3.94215 19.8284 3.94226 19.8287 3.94237 19.8289ZM9.28804 14.708C9.29285 14.7116 9.32132 14.6911 9.31775 14.6863C9.2303 14.5723 9.17288 14.6136 9.28804 14.708ZM12.0492 12.2543C12.0594 12.2618 12.1247 12.2134 12.1183 12.2033C11.9832 12.0089 11.8509 12.1065 12.0492 12.2543ZM7.87029 16.5901C7.94487 16.7181 7.92482 16.762 7.77628 16.6561C7.8096 16.6363 7.83734 16.6105 7.87029 16.5901Z" fill="black"/>
<path d="M5.20227 3.10253C5.31957 3.16455 5.40755 3.31163 5.45632 3.4415C5.47173 3.48208 5.40133 3.52412 5.40944 3.55466C5.42538 3.61432 5.48816 3.62195 5.49947 3.68534C5.50294 3.70662 5.39847 3.78028 5.40415 3.80055C5.43592 3.91103 5.52588 3.95563 5.579 4.04661C5.84047 4.49489 6.15587 4.87715 6.47452 5.27695C6.57966 5.4087 6.64282 5.6335 6.8005 5.7205C6.81899 5.73057 6.88864 5.64389 6.8978 5.64016C7.03905 5.58415 6.86707 5.72779 6.87393 5.77658C6.90159 5.96981 7.0172 6.09982 7.15366 6.17594C7.21194 6.20809 7.32187 6.00749 7.28025 6.14017C7.27752 6.14922 7.18304 6.22076 7.18658 6.24201C7.19479 6.29004 7.26298 6.32856 7.2782 6.35693C7.30711 6.41203 7.31489 6.41815 7.35368 6.45882C7.40598 6.51515 7.42931 6.62102 7.50639 6.66048C7.52309 6.66866 7.59172 6.56709 7.62604 6.57245C7.66035 6.57785 7.70566 6.63759 7.70331 6.67536C7.70095 6.71314 7.62653 6.77248 7.61433 6.79095C7.51072 6.94613 7.7507 6.82767 7.76294 6.83106C7.98099 6.89807 8.00113 7.1224 8.13522 7.2559C8.23723 7.35703 8.37954 7.43194 8.47156 7.53321C8.58087 7.65418 8.63234 7.79788 8.75213 7.90181C8.76467 7.91288 8.85089 7.79899 8.86641 7.81231C9.03124 7.95385 9.17245 8.11687 9.25743 8.33694C9.26587 8.3591 9.15831 8.42723 9.16148 8.45462C9.18285 8.62038 9.15747 8.94185 9.59551 8.61495C9.64396 8.69326 9.70547 8.78563 9.68507 8.91943C9.67201 9.00561 9.5408 9.0658 9.62655 9.06988C9.64577 9.07091 9.71641 8.97393 9.73891 8.98181C9.83354 9.01508 9.87616 9.11219 9.98273 9.13215C10.0046 9.13602 10.0762 9.05741 10.0934 9.04753C10.2335 8.96866 10.1035 9.20071 10.1015 9.22498C10.088 9.40776 10.1885 9.43099 10.265 9.51227C10.2827 9.53118 10.3619 9.40867 10.3826 9.42323C10.4884 9.50014 10.5744 9.60344 10.619 9.73766C10.6287 9.76776 10.5245 9.83538 10.5248 9.85416C10.5269 9.93591 10.6984 9.78292 10.7036 9.85819C10.7049 9.87386 10.6265 9.94264 10.62 9.95226C10.5174 10.1033 10.7181 9.94462 10.7283 9.94688C10.8613 9.97141 10.724 10.2093 10.8266 10.2588C10.8391 10.2646 10.9117 10.151 10.941 10.1728C11.1371 10.3175 11.2918 10.5233 11.386 10.7664C11.4008 10.8041 11.3122 10.8553 11.3052 10.8656C11.1974 11.0272 11.3953 10.8641 11.4106 10.8659C11.527 10.8844 11.4387 11.0988 11.6995 10.9297C11.9106 11.29 12.3157 11.4537 12.4066 11.9296C12.4079 11.9355 12.3126 12.0179 12.3157 12.0291C12.3524 12.1656 12.4739 12.0109 12.7001 11.8992C12.7569 11.8712 12.5968 12.119 12.5858 12.1379C12.5448 12.2071 12.398 12.3246 12.392 12.3401C12.3475 12.463 12.7783 12.0194 12.8313 12.0722C12.8322 12.0745 12.7448 12.1481 12.7413 12.1605C12.7299 12.1994 12.7756 12.1811 12.7614 12.2223C12.7281 12.3173 12.5267 12.5407 12.6975 12.4643C12.7195 12.4542 12.9584 12.1971 12.9939 12.256C13.0079 12.2797 13.0954 12.3588 13.1027 12.3982C13.11 12.4376 13.014 12.5015 13.0122 12.5066C12.9694 12.6751 12.9018 12.6951 12.7768 12.883C12.6524 13.0704 13.0154 12.6899 13.0698 12.6612C13.124 12.6327 13.0829 12.766 13.0639 12.8076C13.0449 12.8492 12.98 12.8859 12.9729 12.9131C12.9275 13.092 13.1867 12.7579 13.2677 12.7209C13.4592 12.633 13.2239 12.9491 13.2443 13.0235C13.2499 13.0437 13.3022 12.9704 13.3195 12.9759C13.3872 12.9988 13.3284 13.1121 13.4588 13.0847C13.4801 13.0803 13.6875 12.9561 13.5928 13.1047C13.5791 13.1261 13.4995 13.184 13.5034 13.2187C13.5092 13.2706 13.5461 13.3375 13.6 13.3456C13.6399 13.3514 13.7269 13.212 13.7205 13.276C13.7176 13.3045 13.6277 13.347 13.6277 13.395C13.6277 13.4429 13.6917 13.5011 13.7173 13.5221C13.7429 13.543 13.816 13.4444 13.8237 13.4405C13.8682 13.4187 13.9542 13.4219 13.958 13.4259C14.1672 13.6142 14.2057 13.9421 14.447 14.0877C14.4658 14.0992 14.5463 13.9986 14.5501 13.9994C14.64 14.0134 14.3583 14.2132 14.314 14.3301C14.4925 14.1411 14.4807 14.1958 14.5374 14.2123C14.5649 14.22 14.6265 14.1393 14.6354 14.1336C14.7696 14.0517 14.6482 14.2095 14.6244 14.2427C14.5366 14.3651 14.6796 14.2598 14.6212 14.3419C14.5633 14.4233 14.4328 14.4995 14.4693 14.5333C14.5449 14.4774 14.6908 14.2794 14.7453 14.2782C14.9512 14.2734 15.0041 14.596 15.071 14.6909C15.1377 14.7856 15.1759 14.7995 15.1991 14.8704C15.2411 14.9983 15.3375 14.8396 15.4487 14.834C15.5599 14.8285 15.2204 15.1166 15.1605 15.1917C15.1006 15.2666 15.1781 15.2053 15.1503 15.2517C15.1225 15.298 15.0566 15.3238 15.0645 15.3595C15.0724 15.3952 15.2519 15.3348 15.3301 15.2719C15.4959 15.1388 15.6259 14.9551 15.6284 15.0679C15.6285 15.0745 15.5352 15.1462 15.5396 15.1673C15.5768 15.3316 15.6776 15.4403 15.7221 15.5971C15.7281 15.6188 15.6239 15.6982 15.6264 15.7119C15.6516 15.8545 15.7764 15.6698 15.9943 15.5438C15.7552 15.7623 15.6406 15.9277 15.7029 15.9928C15.7403 16.032 15.8337 15.9254 15.9289 15.8798C15.9575 15.8659 15.916 15.9617 15.9679 15.9196C16.1377 15.7821 16.2842 15.5846 16.2814 15.7188C16.281 15.7249 16.1877 15.7998 16.1926 15.8149C16.2236 15.9126 16.392 15.7596 16.481 15.8097C16.5508 15.8489 16.5498 16.0439 16.5959 16.1219C16.3374 16.3778 16.4549 16.3776 16.6561 16.224C16.6891 16.2715 16.7426 16.305 16.7571 16.3685C16.7621 16.3902 16.6788 16.4559 16.6725 16.4656C16.5721 16.6178 16.7622 16.4627 16.7777 16.4647C16.9377 16.4932 16.8837 16.7007 17.1015 16.6629C17.1093 16.6615 17.2931 16.4879 17.1867 16.6425C17.1793 16.653 17.0682 16.7046 17.1043 16.7532C17.1403 16.8018 17.1243 16.9774 17.2658 16.9533C17.3 16.9476 17.481 16.8385 17.3965 16.9807C17.385 17 17.3295 17.047 17.3065 17.0811C17.2336 17.1899 17.424 17.0191 17.2917 17.1936C17.1593 17.3681 17.0883 17.5269 17.2534 17.4803C17.2584 17.4791 17.4155 17.35 17.4319 17.3709C17.4579 17.4044 17.4703 17.4764 17.5023 17.5065C17.5177 17.5209 17.5971 17.4225 17.6013 17.4234C17.7511 17.4736 17.743 17.624 17.8157 17.7655C17.8288 17.7916 18.0065 17.7269 17.9487 17.8607C17.8855 18.0074 17.4062 18.4009 17.6061 18.3929C17.6864 18.39 18.2891 17.8853 18.0717 18.2417C18.2777 18.3055 18.2556 18.577 18.4923 18.6107C18.5029 18.6123 18.6767 18.477 18.6889 18.4934C18.7067 18.5181 18.6461 18.602 18.6565 18.6219C18.6983 18.7071 18.8182 18.7035 18.8698 18.7743C18.8895 18.801 18.8067 18.8676 18.8303 18.8995C18.8539 18.9313 18.9707 18.8515 18.9608 18.9365C18.9529 19.0011 18.7803 19.2304 18.7945 19.2915C18.9942 19.0947 19.016 19.1246 19.1143 19.1182C19.1332 19.1169 19.1928 19.0384 19.2053 19.0342C19.2579 19.0157 19.2164 19.0886 19.2713 19.066C19.2845 19.0607 19.3524 18.9931 19.3671 18.9849C19.4941 18.9125 19.3868 19.1098 19.368 19.1441C19.2969 19.2744 19.3988 19.2001 19.3818 19.2625C19.3648 19.3249 19.2814 19.3405 19.2838 19.3911C19.2889 19.4957 19.3704 19.5554 19.4231 19.6142C19.4445 19.6373 19.5197 19.5317 19.5248 19.5329C19.5938 19.556 19.5442 19.6987 19.7497 19.5442C19.3161 20.0416 19.8226 19.5268 19.7952 19.6857C19.7928 19.6984 19.5793 19.9252 19.5271 19.9376C19.4749 19.95 19.5136 19.851 19.4356 19.8738C19.4172 19.8791 19.1735 20.0479 19.1559 20.0553C19.0183 20.113 19.3415 19.7783 19.3575 19.7582C19.5285 19.5392 19.2605 19.7157 19.2331 19.719C19.1076 19.7342 19.1071 19.6412 19.0108 19.6453C18.9482 19.6476 18.7298 19.8601 18.7127 19.8299C18.6558 19.7294 18.9289 19.4013 18.5941 19.5878C18.5227 19.6275 18.3029 19.8788 18.4312 19.6366C18.4393 19.6214 18.5664 19.4097 18.4348 19.4924C18.4182 19.5028 18.3497 19.5716 18.3398 19.5733C18.2754 19.5835 18.312 19.5107 18.2563 19.5073C18.2005 19.504 18.126 19.5075 18.1155 19.4505C18.1091 19.4162 18.2109 19.2622 18.2325 19.2212C18.2952 19.1035 18.1178 19.2219 18.21 19.0957C18.3026 18.9688 18.5029 18.8356 18.5288 18.7197C18.3488 18.8963 18.1619 19.0755 17.9799 19.2522C17.8875 19.1473 17.8481 18.9925 17.7412 18.9014C17.7278 18.8903 17.6445 18.9987 17.6276 18.9893C17.5569 18.949 17.5767 18.8321 17.492 18.8018C17.426 18.7787 17.2756 18.8313 17.2034 18.8103C17.379 18.5778 17.2406 18.5779 17.209 18.509C17.1979 18.485 17.2536 18.4317 17.2588 18.4014C17.2774 18.2884 17.1192 18.4909 17.0779 18.5063C16.9012 18.5719 17.3046 18.159 17.2291 18.1036C17.2252 18.1005 16.9653 18.2757 16.9459 18.2834C16.8204 18.3347 17.0155 18.2016 17.0083 18.1623C16.9953 18.0905 17.0178 18.0091 16.9043 18.0231C16.871 18.0274 16.7006 18.1283 16.7773 17.9952C16.7873 17.9778 16.8613 17.9079 16.8625 17.9007C16.8787 17.7765 16.6514 18.0011 16.544 18.0468C16.4366 18.0924 16.545 17.8888 16.5802 17.8341C16.6711 17.6925 16.6494 17.8039 16.6621 17.7938C16.8141 17.6742 16.756 17.6628 16.7409 17.6248C16.9586 17.3994 16.9082 17.3755 16.7244 17.5862C16.7044 17.6093 16.7457 17.6093 16.7409 17.6248C16.5002 17.8188 16.4316 17.8059 16.5896 17.5576C16.6637 17.4413 16.7947 17.3503 16.69 17.3268C16.6425 17.316 16.5012 17.4798 16.434 17.4957C16.2804 17.532 16.3465 17.3135 16.2637 17.2754C16.2336 17.2616 16.1714 17.3665 16.148 17.36C16.0856 17.3428 16.1131 17.2451 16.041 17.2372C16.0344 17.2366 15.9558 17.3329 15.9423 17.3215C15.8379 17.2375 15.8119 17.0994 15.715 16.9995C15.6682 16.9512 15.535 16.9145 15.4955 16.8555C15.4264 16.7539 15.4485 16.5218 15.3447 16.4798C15.2774 16.452 15.2004 16.5499 15.1205 16.589C14.9657 16.6652 15.1029 16.3888 15.1256 16.3474C15.1263 16.346 15.1879 16.3663 15.2109 16.2996C15.2917 16.1934 15.1264 16.3474 15.1256 16.3474C15.1401 16.3205 15.0782 16.2189 15.0453 16.2194C15.0273 16.2197 14.9494 16.3075 14.9416 16.3061C14.7582 16.2709 14.6276 16.1825 14.5555 16.0329C14.5552 16.0293 14.6508 15.9396 14.649 15.9322C14.626 15.8268 14.4716 15.8991 14.3514 15.9134C14.2312 15.9278 14.2117 15.8633 14.3395 15.6729C14.2795 15.653 14.2926 15.5254 14.3023 15.4497C14.312 15.3741 14.127 15.5499 14.1205 15.5505C13.9159 15.5742 13.9669 15.4186 13.8891 15.3087C13.8524 15.2561 13.7377 15.1938 13.6697 15.1652C13.6156 15.1429 13.6349 15.0776 13.5727 15.0695C13.5643 15.0683 13.4888 15.1534 13.4843 15.1551C13.3489 15.2119 13.5641 15.0344 13.591 14.9913C13.6892 14.8344 13.7389 14.7483 13.6286 14.758C13.6033 14.7601 13.2868 15.009 13.2492 15.0044C13.2007 14.9979 13.3124 14.9069 13.2591 14.9027C13.2546 14.9022 13.1926 14.9653 13.1776 14.9447C13.1071 14.8503 13.0536 14.724 12.9616 14.6446C12.9493 14.6335 12.8652 14.7477 12.8457 14.7333C12.7546 14.6657 12.6713 14.575 12.6404 14.4513C12.6331 14.4205 12.7145 14.3631 12.7309 14.3383C12.8303 14.1882 12.6131 14.3335 12.6037 14.331C12.3751 14.2765 12.4308 14.0042 12.2084 13.938C12.196 13.9347 11.9412 14.0685 12.0809 13.875C12.0901 13.862 12.2339 13.6649 12.0938 13.7578C12.085 13.7637 12.0139 13.868 11.9938 13.8301C11.9737 13.7921 11.8684 13.804 11.9249 13.6677C11.9427 13.6247 12.0829 13.4249 11.9097 13.5227C11.8977 13.5297 11.5331 13.7781 11.7238 13.5459C11.7553 13.5077 11.9826 13.2874 11.8229 13.3572C11.792 13.3709 11.7577 13.4364 11.7039 13.4449C11.6212 13.4583 11.6352 13.3524 11.4929 13.4095C11.4678 13.4197 11.2843 13.5399 11.3742 13.3993C11.3883 13.3772 11.4705 13.3101 11.4655 13.2883C11.4419 13.1845 11.3252 13.1677 11.3121 13.0513C11.3074 13.0102 11.4399 12.9012 11.4483 12.8449C11.4568 12.7887 11.4398 12.7094 11.3596 12.7396C11.2793 12.7698 11.1142 12.9896 11.0613 12.9675C10.8315 12.8715 10.7831 12.5973 10.637 12.4181C10.6153 12.3915 10.5664 12.4804 10.5296 12.4461C10.3934 12.3202 10.1025 12.1585 10.1352 11.8984C10.1613 11.6901 10.3652 11.7155 10.3432 11.5982C10.3324 11.5418 10.0723 11.7293 10.0571 11.7282C9.90631 11.7205 9.95037 11.5663 9.84864 11.5254C9.8276 11.517 9.75134 11.6221 9.73444 11.614C9.6759 11.5869 9.67138 11.5014 9.62306 11.4679C9.60118 11.4531 9.53529 11.5257 9.52375 11.5035C9.49533 11.4511 9.48872 11.3862 9.51425 11.2819C9.51658 11.2724 9.62696 11.2104 9.60027 11.1773C9.55682 11.124 9.5608 10.9999 9.43899 11.0104C9.40257 11.0137 9.24361 11.1714 9.31744 11.0266C9.33282 10.9963 9.53243 10.8157 9.32681 10.9386C9.29256 10.9589 9.00152 11.111 9.11024 10.9341C9.13883 10.8875 9.27143 10.709 9.22712 10.7136C9.22053 10.7148 9.14628 10.8106 9.12153 10.8024C9.03576 10.7722 8.98404 10.7023 8.8978 10.6694C8.87461 10.6607 8.81031 10.7724 8.77855 10.7567C8.69108 10.7138 8.63205 10.6099 8.59581 10.5186C8.58262 10.4847 8.67177 10.4281 8.67799 10.4185C8.7795 10.2619 8.58907 10.4198 8.56979 10.4208C8.45218 10.4248 8.49074 10.2998 8.41673 10.2691C8.39653 10.2604 8.32373 10.3537 8.31345 10.3582C8.21128 10.4007 8.38263 10.2738 8.38019 10.2385C8.37384 10.139 8.3082 10.0868 8.2441 10.0439C8.22044 10.0282 8.14623 10.1466 8.1261 10.1315C8.00515 10.0437 7.90587 9.92601 7.85711 9.77108C7.8481 9.74173 7.93431 9.67965 7.94725 9.65872C8.03818 9.51269 7.8362 9.63393 7.81152 9.64003C7.69899 9.66808 7.74815 9.58611 7.69861 9.56105C7.45545 9.43976 7.27388 9.17134 7.12871 8.9725C6.93909 8.71383 6.8357 8.46936 6.60364 8.27393C6.58898 8.26142 6.50404 8.37375 6.49014 8.36423C6.31517 8.23682 6.20486 8.04943 6.02488 7.92642C6.01029 7.91615 5.9347 8.02758 5.90813 8.01424C5.85298 7.98753 5.80621 7.93061 5.79469 7.85937C5.78889 7.8248 5.8962 7.77163 5.88873 7.73847C5.8715 7.66109 5.82745 7.60372 5.76387 7.57012C5.73661 7.55602 5.67217 7.68285 5.64419 7.65708C5.45162 7.48348 5.25534 7.32014 5.19416 7.01128C5.18998 6.99009 5.37322 6.7846 5.30898 6.7949C5.253 6.84681 5.18966 6.91038 5.13112 6.96715C4.83354 6.73168 4.63711 6.40049 4.38025 6.1228C4.3694 6.11111 4.28589 6.23357 4.26436 6.21147C4.13961 6.08368 3.98846 5.98959 3.96166 5.75806C3.95885 5.73524 4.1466 5.56064 4.08144 5.55027C4.06978 5.54861 3.98873 5.51589 3.9347 5.54052C3.92677 5.54445 3.85258 5.63939 3.83179 5.62353C3.71243 5.52986 3.62012 5.39893 3.56546 5.24093C3.5568 5.21527 3.66513 5.14349 3.65974 5.12443C3.62084 4.98993 3.45808 4.96408 3.457 4.79946C3.4566 4.68895 3.6328 4.55382 3.75656 4.37112C3.77401 4.34533 3.7431 4.30757 3.83047 4.21664C4.05009 3.9879 4.3122 3.75905 4.54434 3.51327C4.59436 3.46036 4.49294 3.46981 4.64454 3.37266C4.65477 3.36624 4.72939 3.3583 4.7798 3.32432C4.81469 3.30086 4.89505 3.19989 4.94406 3.17422C4.99303 3.14857 4.92985 3.23739 4.99306 3.21286C5.05681 3.18778 5.15146 3.07613 5.20227 3.10253ZM14.3445 15.1106C14.4006 14.9934 14.0789 15.3062 14.1878 15.2633C14.1934 15.2608 14.3419 15.1164 14.3445 15.1106ZM18.0879 18.7538C18.188 18.5739 17.9549 18.7524 17.875 18.8886C17.7952 19.0247 18.0577 18.8084 18.0879 18.7538ZM18.6039 19.0654C18.6676 18.9085 18.2104 19.351 18.3513 19.31C18.3593 19.3078 18.6002 19.0746 18.6039 19.0654ZM3.93685 4.46414C3.94064 4.45951 3.92006 4.43072 3.9153 4.43431C3.8014 4.52192 3.84262 4.57941 3.93685 4.46414ZM19.1258 19.3649C19.1721 19.2895 19.0599 19.3178 19.0023 19.4115C18.956 19.487 19.0682 19.4587 19.1258 19.3649ZM13.0908 13.1797C13.095 13.1744 13.0816 13.1525 13.0552 13.1796C12.9703 13.2668 13.0193 13.2672 13.0908 13.1797ZM19.8289 20.0576C19.7427 19.9376 20.0518 19.5035 20.1222 19.6577C20.1349 19.6856 19.9598 19.7324 19.9522 19.7917C19.9385 19.9001 20.2033 19.6983 20.1266 19.8716C20.1125 19.9033 19.833 20.0653 19.8282 20.058C19.8284 20.0579 19.8287 20.0577 19.8289 20.0576ZM14.708 14.712C14.7116 14.7072 14.6911 14.6787 14.6863 14.6822C14.5723 14.7697 14.6136 14.8271 14.708 14.712ZM12.2543 11.9508C12.2618 11.9406 12.2134 11.8753 12.2033 11.8817C12.0089 12.0168 12.1065 12.1491 12.2543 11.9508ZM16.5901 16.1297C16.7181 16.0551 16.762 16.0752 16.6561 16.2237C16.6363 16.1904 16.6105 16.1627 16.5901 16.1297Z" fill="black"/>
</svg>
