<svg width="24" height="24" viewBox="0 0 24 24" fill="none" xmlns="http://www.w3.org/2000/svg">
<path d="M20.8285 13.4847C20.7277 13.5238 20.5955 13.482 20.495 13.4247C20.4635 13.4069 20.4794 13.3274 20.4577 13.3115C20.4152 13.2806 20.3756 13.3196 20.3335 13.2828C20.3196 13.2702 20.337 13.1442 20.3224 13.1339C20.2423 13.0783 20.1666 13.1103 20.0856 13.0836C19.6864 12.9515 19.2939 12.9042 18.8898 12.8468C18.7566 12.828 18.5946 12.7137 18.4569 12.7637C18.4409 12.7696 18.4505 12.8802 18.4474 12.8893C18.3994 13.0288 18.4154 12.8056 18.3841 12.7759C18.2598 12.6589 18.1217 12.6487 18.0021 12.6914C17.9512 12.7098 18.0022 12.9294 17.951 12.8062C17.9475 12.7978 17.9604 12.6804 17.9464 12.6679C17.9148 12.6398 17.8548 12.6607 17.8302 12.6514C17.783 12.6329 17.7752 12.6341 17.7305 12.6328C17.6694 12.6299 17.5967 12.5716 17.5311 12.5982C17.5171 12.6042 17.5357 12.7245 17.5133 12.745C17.491 12.7654 17.4319 12.7552 17.412 12.7269C17.3921 12.6985 17.4006 12.6039 17.397 12.5822C17.368 12.3992 17.2997 12.6527 17.2909 12.6589C17.1305 12.7657 16.993 12.6214 16.8425 12.6218C16.7282 12.6224 16.606 12.6701 16.4973 12.6635C16.3678 12.6553 16.258 12.5901 16.1322 12.6013C16.1189 12.6023 16.1344 12.7438 16.1182 12.7454C15.9459 12.7618 15.7748 12.7464 15.6032 12.6509C15.586 12.6412 15.6081 12.5169 15.5909 12.4998C15.4857 12.3977 15.3191 12.1525 15.2566 12.6934C15.1853 12.6722 15.0988 12.6504 15.035 12.5414C14.9938 12.4712 15.0338 12.3359 14.9833 12.3936C14.9719 12.4065 14.9867 12.525 14.9696 12.5353C14.8977 12.5787 14.819 12.5402 14.7479 12.6014C14.7334 12.6142 14.7374 12.7204 14.7333 12.7395C14.6988 12.8944 14.6414 12.6384 14.6289 12.6198C14.5336 12.481 14.464 12.5356 14.3753 12.5322C14.3547 12.5314 14.3791 12.674 14.3592 12.6784C14.2565 12.6988 14.15 12.6865 14.0494 12.6232C14.027 12.6088 14.0476 12.4873 14.0369 12.4742C13.9897 12.4179 13.9792 12.6474 13.934 12.5978C13.9245 12.5876 13.9298 12.4836 13.9281 12.4722C13.9009 12.2928 13.8772 12.5469 13.8702 12.5526C13.7816 12.6292 13.725 12.3639 13.6394 12.4015C13.6292 12.4063 13.6523 12.5379 13.6235 12.5432C13.4318 12.5796 13.229 12.5434 13.0392 12.4381C13.0097 12.4219 13.0308 12.323 13.0289 12.3109C12.9987 12.1204 12.9791 12.3756 12.9695 12.3852C12.8936 12.4544 12.8227 12.2404 12.7711 12.5443C12.4496 12.4388 12.1297 12.6095 11.8109 12.3372C11.8068 12.3341 11.8141 12.2084 11.806 12.2026C11.7086 12.1321 11.7273 12.3274 11.6629 12.5663C11.6467 12.6263 11.5973 12.3379 11.5929 12.3167C11.577 12.2388 11.5935 12.0518 11.5882 12.0368C11.5441 11.9183 11.5513 12.5366 11.4918 12.5368C11.4899 12.5358 11.4978 12.422 11.4928 12.4107C11.4772 12.3751 11.4619 12.4203 11.4467 12.3812C11.4119 12.2905 11.3996 11.9901 11.3465 12.1649C11.3398 12.1876 11.35 12.5384 11.2969 12.5218C11.2758 12.5149 11.182 12.5209 11.1558 12.4982C11.1295 12.4755 11.1475 12.3624 11.1457 12.3576C11.075 12.2081 11.1018 12.1461 11.0664 11.9249C11.0309 11.7044 11.0408 12.2302 11.0263 12.2889C11.0119 12.3474 10.96 12.2241 10.9473 12.1812C10.9346 12.1383 10.9504 12.0665 10.9391 12.0422C10.8641 11.8837 10.9062 12.3032 10.8814 12.3867C10.8231 12.5843 10.7777 12.1943 10.7243 12.1561C10.7099 12.1458 10.7217 12.2346 10.7088 12.2429C10.6579 12.2746 10.6272 12.153 10.5693 12.2645C10.5598 12.2827 10.513 12.5171 10.4826 12.3451C10.4783 12.3203 10.4905 12.2231 10.4688 12.2014C10.4364 12.1687 10.378 12.1475 10.3431 12.1799C10.3174 12.204 10.3469 12.3641 10.3145 12.3143C10.3001 12.2921 10.3268 12.1985 10.2997 12.1646C10.2728 12.1307 10.204 12.1348 10.1778 12.138C10.1517 12.1413 10.166 12.2628 10.1639 12.2709C10.1511 12.3178 10.101 12.3764 10.0965 12.3762C9.873 12.3911 9.66687 12.1863 9.44923 12.2541C9.43215 12.2592 9.44353 12.3873 9.44092 12.3894C9.38245 12.4431 9.42855 12.1026 9.38771 11.9886C9.39361 12.2485 9.3695 12.2014 9.32831 12.2299C9.30846 12.2439 9.31927 12.3445 9.31746 12.3548C9.28803 12.5077 9.26754 12.3102 9.26226 12.2698C9.24276 12.1213 9.22155 12.2968 9.20828 12.1975C9.19503 12.099 9.22554 11.9528 9.18604 11.9547C9.17496 12.0478 9.20429 12.2909 9.1743 12.3303C9.06114 12.4793 8.84993 12.2886 8.75894 12.2687C8.66815 12.2489 8.63882 12.2661 8.58591 12.2325C8.49034 12.1717 8.52536 12.3521 8.46602 12.4346C8.4065 12.5172 8.43544 12.0734 8.42688 11.978C8.41848 11.8826 8.40931 11.9808 8.39887 11.9284C8.38845 11.8759 8.411 11.8111 8.38651 11.7914C8.362 11.7717 8.29501 11.9414 8.28632 12.0411C8.26796 12.2525 8.29815 12.4743 8.23332 12.3964C8.22959 12.3917 8.24169 12.275 8.22741 12.2633C8.114 12.1734 7.99619 12.1678 7.88292 12.0884C7.86735 12.0773 7.88127 11.9475 7.87221 11.9395C7.7778 11.8565 7.81155 12.0754 7.7598 12.3186C7.77142 11.9949 7.74281 11.797 7.67116 11.7951C7.62809 11.7938 7.6355 11.9351 7.60764 12.0347C7.59928 12.0648 7.56881 11.9677 7.56329 12.0342C7.54507 12.2515 7.57378 12.4947 7.49991 12.3978C7.49667 12.3932 7.50699 12.2743 7.49579 12.2671C7.4234 12.22 7.41474 12.4472 7.33649 12.4747C7.27515 12.4963 7.16607 12.3578 7.09623 12.3352C7.0977 11.9714 7.03173 12.0547 7.00497 12.3055C6.95965 12.2953 6.91069 12.3095 6.86689 12.2748C6.85181 12.263 6.86172 12.1576 6.85982 12.1462C6.83066 11.9677 6.81096 12.2118 6.80118 12.2213C6.69515 12.3143 6.60876 12.1294 6.50757 12.3101C6.50397 12.3166 6.49815 12.5694 6.47111 12.3848C6.46935 12.3721 6.50278 12.2571 6.45517 12.2482C6.40757 12.2393 6.31782 12.1038 6.25172 12.221C6.23573 12.2491 6.19527 12.4543 6.1628 12.294C6.15848 12.2722 6.16321 12.1998 6.15696 12.1594C6.13678 12.0309 6.12576 12.2864 6.10203 12.0693C6.07831 11.8523 6.02896 11.6898 5.9623 11.8395C5.96018 11.8439 5.9444 12.0464 5.92343 12.0432C5.88997 12.0379 5.84247 11.9957 5.80753 11.997C5.7908 11.9977 5.80151 12.1234 5.7986 12.1257C5.68612 12.1962 5.60606 12.0841 5.48556 12.0355C5.46347 12.0263 5.39999 12.1977 5.35723 12.0622C5.31027 11.9138 5.35852 11.2966 5.25059 11.4437C5.20706 11.5025 5.15194 12.2855 5.07371 11.8798C4.92198 11.9804 4.78167 11.7727 4.62952 11.9163C4.62268 11.9226 4.60104 12.1412 4.58495 12.1382C4.56108 12.1334 4.54796 12.0312 4.53092 12.0245C4.45947 11.9937 4.39408 12.0811 4.3252 12.0675C4.29904 12.0626 4.30819 11.957 4.27699 11.9511C4.24582 11.9453 4.22503 12.0843 4.18279 12.0172C4.15088 11.966 4.11898 11.6817 4.07663 11.6486C4.07502 11.929 4.04593 11.9232 3.99423 11.9972C3.98429 12.0116 3.99495 12.1092 3.99025 12.121C3.97112 12.1713 3.95341 12.0904 3.93525 12.1451C3.93083 12.1583 3.93062 12.2541 3.92701 12.2702C3.89629 12.4112 3.84568 12.1958 3.83699 12.1583C3.80368 12.0159 3.78811 12.1404 3.76256 12.0844C3.73705 12.0283 3.77519 11.9582 3.74539 11.9241C3.68362 11.8538 3.60426 11.8692 3.54153 11.8648C3.51649 11.8637 3.53358 11.9915 3.52999 11.9943C3.47823 12.0267 3.42589 11.8907 3.39719 12.1453C3.36131 11.487 3.36598 12.2092 3.292 12.0774C3.28617 12.0667 3.27876 11.7554 3.30113 11.7097C3.3235 11.6641 3.35743 11.7614 3.38847 11.6901C3.39582 11.6734 3.43793 11.3817 3.44368 11.364C3.48869 11.2259 3.49506 11.6911 3.49744 11.7167C3.52444 11.9924 3.5759 11.6782 3.58946 11.6564C3.65144 11.5569 3.70411 11.6224 3.75597 11.5513C3.78988 11.5054 3.79319 11.2007 3.81982 11.21C3.90834 11.2409 3.93924 11.666 4.02266 11.2974C4.04054 11.2188 4.02277 10.8857 4.08686 11.1476C4.09089 11.1641 4.13847 11.4037 4.16596 11.2521C4.16942 11.233 4.16931 11.136 4.17386 11.1278C4.20438 11.0751 4.22473 11.1524 4.25797 11.1154C4.29121 11.0783 4.33119 11.0231 4.36914 11.056C4.39201 11.0757 4.42136 11.2566 4.43231 11.3009C4.46323 11.4284 4.49638 11.2193 4.51553 11.3737C4.53485 11.529 4.49709 11.7647 4.54774 11.865C4.54961 11.6128 4.55392 11.354 4.55694 11.1004C4.66794 11.1092 4.77715 11.1908 4.88852 11.1796C4.90233 11.178 4.88821 11.0424 4.90301 11.0372C4.96546 11.0156 5.02 11.1123 5.08477 11.0738C5.13489 11.0435 5.18986 10.8999 5.24228 10.8638C5.2743 11.1524 5.35208 11.0544 5.40859 11.0808C5.42838 11.0899 5.42706 11.1669 5.44113 11.1921C5.49424 11.2851 5.46935 11.0301 5.48391 10.9899C5.54638 10.8187 5.55172 11.3959 5.62536 11.3816C5.62926 11.381 5.67695 11.0734 5.68352 11.0542C5.72525 10.9293 5.69043 11.1613 5.71655 11.184C5.76424 11.2256 5.79738 11.2991 5.85333 11.2089C5.86964 11.1822 5.90878 10.9905 5.94046 11.1388C5.94463 11.1582 5.94233 11.2599 5.94568 11.2659C6.00641 11.3652 6.00801 11.0456 6.04271 10.9374C6.07741 10.8292 6.13102 11.0498 6.14193 11.1134C6.17047 11.2778 6.12006 11.1836 6.11851 11.1998C6.10036 11.3918 6.13945 11.3588 6.16932 11.375C6.17365 11.6883 6.21542 11.6695 6.20029 11.3906C6.19857 11.3601 6.17532 11.3893 6.16932 11.375C6.19555 11.0676 6.24146 11.0282 6.29216 11.3155C6.3159 11.4501 6.29346 11.6071 6.36557 11.5497C6.39829 11.5238 6.38565 11.308 6.41453 11.2492C6.4805 11.115 6.56623 11.3163 6.63425 11.2846C6.65894 11.273 6.63489 11.155 6.65176 11.143C6.69653 11.111 6.73602 11.1996 6.78099 11.1542C6.78506 11.1499 6.77511 11.0263 6.78909 11.0247C6.8951 11.0104 6.9874 11.0896 7.09808 11.0917C7.15156 11.0928 7.24717 11.0246 7.30257 11.0383C7.39858 11.0613 7.51669 11.2411 7.59872 11.1974C7.65221 11.1694 7.64048 11.0458 7.6634 10.9616C7.70763 10.7983 7.78593 11.0908 7.79647 11.1361C7.79679 11.1376 7.75076 11.1667 7.77532 11.2302C7.7896 11.3624 7.79595 11.1366 7.79647 11.1361C7.80339 11.1653 7.89535 11.1934 7.91361 11.1698C7.92353 11.1568 7.91798 11.0397 7.92316 11.0352C8.04612 10.9303 8.1693 10.9006 8.29402 10.9553C8.29621 10.9577 8.29291 11.0887 8.29807 11.0927C8.37027 11.1509 8.4165 10.9906 8.47605 10.8955C8.53558 10.8003 8.5828 10.8322 8.61804 11.0571C8.66297 11.0288 8.72742 11.1283 8.7645 11.1886C8.80159 11.249 8.80677 10.9939 8.81003 10.9888C8.91181 10.8274 8.97065 10.9734 9.07624 10.9962C9.12644 11.0074 9.22603 10.9704 9.28038 10.9425C9.32334 10.92 9.34922 10.9798 9.3888 10.9416C9.39416 10.9365 9.38875 10.8229 9.39038 10.8186C9.43456 10.6827 9.41333 10.9603 9.42245 11.0099C9.45552 11.1902 9.47595 11.2863 9.53252 11.2014C9.54557 11.182 9.58358 10.7822 9.60736 10.7589C9.63829 10.7292 9.62662 10.8725 9.659 10.8378C9.66177 10.8349 9.66119 10.7465 9.68118 10.7504C9.77395 10.7674 9.87509 10.8188 9.97149 10.8099C9.98466 10.8091 9.96778 10.6689 9.98681 10.6653C10.0761 10.6487 10.1739 10.6539 10.2609 10.7195C10.2823 10.7361 10.2689 10.8343 10.2736 10.8634C10.3021 11.0398 10.3425 10.7835 10.3492 10.7786C10.5085 10.6555 10.6303 10.8874 10.7927 10.777C10.8015 10.7705 10.8695 10.4958 10.8998 10.7314C10.9019 10.7471 10.9319 10.9881 10.9585 10.8233C10.9601 10.813 10.9414 10.6889 10.9741 10.7016C11.0067 10.7142 11.0592 10.6313 11.1041 10.7677C11.1183 10.8106 11.1519 11.0511 11.1943 10.8594C11.197 10.846 11.2625 10.4126 11.2858 10.7116C11.2896 10.7608 11.2856 11.0773 11.3362 10.9151C11.3459 10.8836 11.3283 10.813 11.3538 10.7689C11.3928 10.701 11.4445 10.7858 11.4924 10.6448C11.5008 10.6198 11.5364 10.405 11.5649 10.5681C11.5694 10.5936 11.5609 10.6992 11.576 10.7111C11.6477 10.7678 11.7228 10.6971 11.7956 10.7702C11.8214 10.7959 11.8082 10.9667 11.8351 11.0125C11.8619 11.0582 11.9161 11.1022 11.9442 11.0242C11.9724 10.9461 11.9416 10.6739 11.9838 10.6521C12.167 10.5575 12.3485 10.7172 12.5315 10.7406C12.5587 10.744 12.5362 10.6466 12.5762 10.6448C12.7236 10.6375 12.9782 10.5462 13.1061 10.7532C13.2086 10.919 13.0796 11.0452 13.1579 11.1126C13.1957 11.1448 13.2366 10.8283 13.2458 10.8184C13.3349 10.7172 13.3969 10.8574 13.4771 10.8143C13.4937 10.8054 13.4774 10.6772 13.4915 10.671C13.5397 10.6487 13.5903 10.706 13.6363 10.6955C13.657 10.6905 13.6532 10.5925 13.6722 10.6001C13.7176 10.6171 13.7578 10.6583 13.8022 10.7501C13.8062 10.7584 13.779 10.8803 13.8126 10.8848C13.867 10.8918 13.9346 10.9824 13.9972 10.8889C14.0158 10.8607 14.0165 10.6368 14.0565 10.7915C14.0649 10.8238 14.0542 11.0926 14.1007 10.8603C14.1085 10.8217 14.1867 10.5084 14.2251 10.7103C14.2352 10.7635 14.261 10.9835 14.2834 10.9489C14.2864 10.9434 14.2743 10.8231 14.2928 10.8114C14.358 10.7722 14.4264 10.785 14.4935 10.7473C14.5114 10.737 14.4847 10.6126 14.5114 10.6012C14.5848 10.5698 14.6764 10.6014 14.7482 10.6404C14.7746 10.655 14.7563 10.7581 14.7582 10.7693C14.7892 10.9518 14.8075 10.7055 14.8178 10.6911C14.8817 10.6051 14.9303 10.7208 14.9892 10.6902C15.0055 10.6821 14.994 10.5646 14.9972 10.5542C15.0308 10.4518 15.0058 10.6627 15.027 10.686C15.0865 10.7518 15.1528 10.7424 15.213 10.7274C15.2351 10.7217 15.2103 10.5855 15.2301 10.582C15.3475 10.5585 15.4696 10.5715 15.5841 10.6466C15.6057 10.661 15.5921 10.7659 15.5966 10.7898C15.6276 10.9574 15.6731 10.7288 15.6835 10.707C15.731 10.6076 15.7495 10.7004 15.7914 10.6831C15.9964 10.5969 16.2496 10.6583 16.4431 10.6962C16.6952 10.7451 16.8909 10.8448 17.1314 10.8189C17.1467 10.8174 17.1312 10.6779 17.1444 10.6748C17.3145 10.6412 17.482 10.6957 17.6524 10.6554C17.6664 10.6523 17.6462 10.5201 17.6687 10.5108C17.7147 10.4906 17.773 10.4978 17.8196 10.5401C17.8423 10.5604 17.8118 10.6739 17.8347 10.692C17.8879 10.7346 17.945 10.744 17.9996 10.7228C18.0229 10.7135 17.9878 10.5782 18.018 10.5767C18.224 10.5633 18.4263 10.54 18.6344 10.7151C18.6487 10.7271 18.6612 11.002 18.6916 10.9493C18.6939 10.873 18.6937 10.7833 18.6947 10.7017C18.9946 10.6578 19.2914 10.7531 19.592 10.7678C19.6047 10.7684 19.5828 10.6228 19.6073 10.6232C19.7494 10.6253 19.8873 10.585 20.0327 10.7297C20.0471 10.7439 20.0397 11.0001 20.0822 10.9614C20.0897 10.9543 20.1536 10.9201 20.1702 10.8645C20.1724 10.8561 20.1608 10.7365 20.1814 10.733C20.3012 10.7149 20.4268 10.7422 20.5464 10.8153C20.5657 10.8273 20.5452 10.9546 20.5589 10.9643C20.6564 11.0319 20.7625 10.9351 20.8557 11.0507C20.9181 11.1286 20.895 11.3487 20.9282 11.5654C20.9329 11.596 20.9715 11.6009 20.9735 11.7269C20.9786 12.044 20.9599 12.3911 20.9676 12.7291C20.9692 12.8019 21.021 12.7235 20.9903 12.8994C20.9882 12.9111 20.9507 12.9695 20.9414 13.0292C20.935 13.0704 20.9466 13.1987 20.9335 13.2515C20.9203 13.3042 20.9059 13.1967 20.8842 13.2588C20.8624 13.3216 20.872 13.4675 20.8285 13.4847ZM8.9315 11.4583C8.96584 11.5808 8.97091 11.1322 8.93376 11.2395C8.93197 11.2452 8.92973 11.4523 8.9315 11.4583ZM4.77653 11.5292C4.82143 11.7271 4.85214 11.4361 4.82047 11.2833C4.78881 11.1306 4.76285 11.4692 4.77653 11.5292ZM4.31098 11.6737C4.36345 11.8297 4.37171 11.1935 4.31551 11.3221C4.31225 11.3294 4.30791 11.6646 4.31098 11.6737ZM20.7744 11.6271C20.7749 11.6331 20.8027 11.6389 20.8033 11.633C20.8181 11.4905 20.7626 11.479 20.7744 11.6271ZM3.84901 11.8309C3.86539 11.917 3.91255 11.8177 3.8922 11.7106C3.87581 11.6246 3.82861 11.7239 3.84901 11.8309ZM10.7229 11.9371C10.7234 11.9438 10.7433 11.9498 10.7429 11.9121C10.7416 11.7903 10.7139 11.8247 10.7229 11.9371ZM3.06383 11.8383C3.17983 11.8622 3.25017 12.3877 3.12384 12.3284C3.10096 12.3177 3.17314 12.1609 3.14403 12.1135C3.09075 12.0272 3.05537 12.3571 3.001 12.1803C2.99116 12.1479 3.05721 11.8357 3.06403 11.8375C3.06396 11.8378 3.06389 11.838 3.06383 11.8383ZM8.95127 11.9972C8.95196 12.0031 8.97952 12.0088 8.98018 12.0029C8.99511 11.8604 8.93958 11.849 8.95127 11.9972ZM11.8846 12.2145C11.8862 12.2272 11.9501 12.239 11.9522 12.2274C11.9856 11.9945 11.8563 11.9699 11.8846 12.2145ZM7.09513 12.3255C7.06505 12.4688 7.02908 12.4857 7.00511 12.3057C7.03499 12.3153 7.06508 12.3167 7.09513 12.3255Z" fill="black"/>
<path d="M9.87393 20.9737C9.80146 20.9565 9.77225 20.8682 9.76814 20.783C9.76672 20.7564 9.83003 20.7072 9.83158 20.6864C9.83455 20.6456 9.78937 20.6556 9.79674 20.6109C9.79945 20.5958 9.89621 20.5144 9.89702 20.5006C9.90082 20.4257 9.8445 20.4147 9.8274 20.3598C9.74337 20.089 9.60238 19.8811 9.46335 19.6609C9.41743 19.5884 9.42626 19.4356 9.32975 19.4098C9.3184 19.4068 9.24449 19.4892 9.23669 19.4943C9.11675 19.5717 9.28164 19.4209 9.28869 19.386C9.31626 19.248 9.26205 19.1794 9.17874 19.1565C9.14307 19.1469 9.01047 19.3249 9.07486 19.2149C9.07916 19.2075 9.16791 19.1302 9.17057 19.1151C9.17642 19.0812 9.1349 19.0693 9.13058 19.0519C9.12268 19.0178 9.11837 19.0151 9.09945 18.9943C9.07431 18.9651 9.08327 18.8916 9.03532 18.8812C9.02484 18.8793 8.94798 18.9726 8.92358 18.9772C8.8992 18.9817 8.88015 18.9482 8.89136 18.9193C8.90257 18.8904 8.97322 18.8273 8.98699 18.8104C9.10349 18.6681 8.8939 18.8169 8.88556 18.8174C8.73877 18.8217 8.77975 18.6585 8.71256 18.5919C8.66134 18.5415 8.57333 18.5209 8.52963 18.468C8.47789 18.4046 8.47521 18.3097 8.41136 18.2617C8.40472 18.2565 8.31158 18.3635 8.30327 18.3574C8.21503 18.2924 8.14988 18.2055 8.14116 18.0617C8.14038 18.0471 8.23808 17.9692 8.24255 17.9494C8.26796 17.8304 8.36736 17.583 7.9571 17.9377C7.94035 17.891 7.91731 17.8371 7.96605 17.7317C7.9974 17.6638 8.11085 17.5858 8.04756 17.6042C8.0334 17.6083 7.95617 17.6987 7.94127 17.6984C7.87862 17.6971 7.87093 17.6349 7.79599 17.6466C7.78055 17.6491 7.70721 17.726 7.69187 17.7377C7.56703 17.8319 7.72256 17.6253 7.73016 17.6066C7.78592 17.4662 7.71639 17.4739 7.67935 17.432C7.67079 17.4223 7.58074 17.534 7.56888 17.5282C7.50875 17.497 7.4701 17.441 7.47013 17.3515C7.47038 17.3314 7.56545 17.2546 7.56997 17.2406C7.58883 17.1798 7.4219 17.3374 7.43686 17.2823C7.4398 17.2708 7.51575 17.1997 7.52305 17.1908C7.63777 17.0519 7.44757 17.2211 7.44049 17.2219C7.34691 17.2368 7.50933 17.024 7.44473 17.0125C7.43681 17.0114 7.354 17.1147 7.33744 17.1057C7.22654 17.0462 7.16198 16.9305 7.15208 16.7717C7.15042 16.7471 7.2297 16.6866 7.23749 16.6771C7.35871 16.529 7.16957 16.7007 7.15849 16.7033C7.07585 16.7184 7.19565 16.5356 6.95782 16.7276C6.88953 16.5101 6.62664 16.4886 6.67749 16.1544C6.67792 16.1504 6.77002 16.0647 6.77049 16.0571C6.77711 15.9639 6.64731 16.1103 6.44975 16.2506C6.40012 16.2858 6.58212 16.0599 6.59513 16.043C6.64315 15.9809 6.78269 15.856 6.79099 15.843C6.85517 15.7396 6.42113 16.18 6.39455 16.1537C6.39445 16.1522 6.4784 16.0752 6.48419 16.0649C6.50241 16.0329 6.4636 16.0581 6.48455 16.0236C6.53321 15.9441 6.74017 15.7261 6.59294 15.8262C6.57391 15.8392 6.33045 16.0918 6.31856 16.0565C6.31403 16.0422 6.26812 16.0048 6.27252 15.977C6.27691 15.9493 6.36484 15.8774 6.36747 15.8731C6.44173 15.736 6.49745 15.7041 6.63817 15.5319C6.7783 15.3603 6.41089 15.7364 6.36298 15.7715C6.31517 15.8065 6.37933 15.6962 6.40399 15.6603C6.42865 15.6243 6.48649 15.5806 6.49862 15.5584C6.57739 15.4129 6.29945 15.7283 6.22945 15.7763C6.06382 15.8901 6.31934 15.5942 6.32263 15.5434C6.32351 15.5297 6.26595 15.5978 6.25436 15.5979C6.2093 15.5977 6.28171 15.4981 6.17707 15.5512C6.16001 15.5598 5.97342 15.7048 6.08159 15.5696C6.09723 15.5502 6.17135 15.4869 6.1771 15.4619C6.18578 15.4244 6.17483 15.3834 6.13637 15.3908C6.10794 15.3964 6.00784 15.5227 6.02861 15.4731C6.03791 15.451 6.116 15.3967 6.12795 15.3607C6.13997 15.3247 6.10648 15.2971 6.09256 15.2877C6.07861 15.2785 5.99909 15.3707 5.99237 15.3755C5.95355 15.403 5.88985 15.4221 5.88798 15.42C5.77815 15.3312 5.83129 15.0948 5.68665 15.046C5.67542 15.042 5.58992 15.1377 5.58728 15.138C5.52335 15.1499 5.78461 14.9297 5.84705 14.8309C5.6659 15.0173 5.68846 14.9733 5.65 14.9752C5.63132 14.9762 5.56497 15.0522 5.55688 15.0586C5.43572 15.1536 5.56621 15.0049 5.59242 14.974C5.6888 14.8603 5.55525 14.975 5.61957 14.8989C5.68337 14.8233 5.80025 14.7336 5.78137 14.7173C5.71066 14.7782 5.55179 14.9631 5.5106 14.9777C5.35492 15.0328 5.39592 14.804 5.3695 14.7496C5.34314 14.6952 5.31797 14.6943 5.31823 14.647C5.31874 14.5616 5.20676 14.7047 5.12201 14.7367C5.03718 14.7686 5.36386 14.4676 5.42752 14.3964C5.49122 14.3252 5.41773 14.3905 5.45016 14.3488C5.48259 14.3071 5.53848 14.2713 5.54151 14.2465C5.54452 14.2217 5.39478 14.3119 5.32038 14.3786C5.16278 14.5199 5.01935 14.6901 5.04564 14.6062C5.04726 14.6013 5.13515 14.5241 5.13715 14.5094C5.15027 14.3955 5.10184 14.3392 5.10769 14.2327C5.10862 14.2179 5.20661 14.1323 5.20819 14.1227C5.22495 14.022 5.08516 14.1918 4.89022 14.3407C5.12421 14.1171 5.25148 13.9643 5.22099 13.9312C5.20274 13.9111 5.1061 14.0143 5.02328 14.0724C4.99833 14.0899 5.0534 14.0078 5.00395 14.0523C4.84222 14.1978 4.683 14.3826 4.71865 14.2813C4.72046 14.2766 4.80915 14.1971 4.80926 14.187C4.81043 14.1215 4.64587 14.2783 4.59164 14.263C4.54911 14.251 4.59862 14.1046 4.58351 14.0576C4.84143 13.801 4.7532 13.8306 4.56393 13.996C4.55105 13.9686 4.51926 13.9569 4.52431 13.9129C4.52597 13.8979 4.60486 13.8278 4.61206 13.8189C4.72535 13.6797 4.54403 13.8435 4.53291 13.8459C4.42002 13.8646 4.51242 13.6954 4.33962 13.7782C4.33343 13.7812 4.15214 13.9573 4.27059 13.8148C4.27881 13.8051 4.37497 13.7386 4.3601 13.7112C4.34524 13.6837 4.40115 13.548 4.28897 13.6014C4.26193 13.6143 4.09888 13.7414 4.19779 13.6136C4.21126 13.5963 4.26461 13.5471 4.29036 13.5158C4.37226 13.416 4.18674 13.5917 4.32965 13.4277C4.47254 13.2637 4.56553 13.1269 4.43003 13.2031C4.42601 13.2053 4.27584 13.3414 4.26879 13.3298C4.25765 13.3112 4.26636 13.2603 4.2499 13.2457C4.24197 13.2387 4.15783 13.3324 4.15491 13.3327C4.0551 13.3326 4.09877 13.2177 4.07961 13.1298C4.07628 13.1135 3.92684 13.2065 4.00367 13.0916C4.08772 12.9659 4.54559 12.5509 4.39364 12.6069C4.33271 12.6291 3.75453 13.1583 4.00662 12.8367C3.8681 12.8403 3.95256 12.6311 3.78344 12.665C3.7759 12.6665 3.61175 12.8114 3.60671 12.8021C3.59952 12.7881 3.66591 12.7101 3.66309 12.6977C3.65309 12.6442 3.56224 12.6769 3.54124 12.6367C3.53311 12.6216 3.61185 12.551 3.60216 12.5329C3.59241 12.515 3.48483 12.6041 3.51355 12.5378C3.53557 12.4874 3.72239 12.2723 3.727 12.23C3.52802 12.4276 3.51917 12.4105 3.44386 12.4399C3.42929 12.4456 3.36502 12.5194 3.35456 12.5257C3.3105 12.5527 3.35982 12.4877 3.31303 12.5183C3.30177 12.5256 3.23397 12.5933 3.22094 12.6031C3.10757 12.6891 3.23738 12.5143 3.26004 12.484C3.34594 12.3684 3.25096 12.4496 3.27926 12.3986C3.30758 12.3476 3.3741 12.315 3.38492 12.2776C3.40725 12.2004 3.36104 12.1761 3.33627 12.1451C3.32597 12.1331 3.24318 12.2311 3.2396 12.2315C3.19368 12.2314 3.26655 12.112 3.07376 12.2793C3.52331 11.7978 3.01474 12.3106 3.07505 12.1845C3.07999 12.1744 3.29683 11.951 3.33909 11.9286C3.38132 11.9062 3.32759 11.9901 3.39176 11.9535C3.40685 11.945 3.63184 11.7574 3.64689 11.7475C3.76455 11.6698 3.43843 12.0016 3.42142 12.0208C3.23844 12.2277 3.48353 12.0284 3.50491 12.019C3.60282 11.9762 3.57997 12.0459 3.65323 12.0187C3.70077 12.0013 3.91772 11.7873 3.92296 11.8058C3.9405 11.8669 3.65364 12.1812 3.95135 11.9577C4.01488 11.91 4.2425 11.6666 4.08579 11.8803C4.0759 11.8938 3.92764 12.0843 4.04702 11.9894C4.06206 11.9774 4.13065 11.9087 4.13844 11.905C4.1893 11.8813 4.14367 11.945 4.18463 11.9336C4.22559 11.9222 4.2824 11.9009 4.27599 11.941C4.27223 11.9651 4.15739 12.106 4.13096 12.1422C4.05451 12.2461 4.21711 12.113 4.11641 12.2307C4.01523 12.3491 3.83175 12.499 3.78334 12.5924C3.9625 12.4149 4.14745 12.2338 4.32812 12.0558C4.37117 12.1114 4.36205 12.2176 4.41943 12.2593C4.42672 12.2642 4.51631 12.1621 4.5266 12.165C4.56958 12.1775 4.52548 12.2701 4.58148 12.2716C4.6252 12.2725 4.75113 12.1954 4.8 12.1931C4.61018 12.4114 4.71402 12.3767 4.72048 12.4205C4.72284 12.4357 4.66775 12.4896 4.65623 12.5137C4.61407 12.603 4.78333 12.4116 4.81818 12.3897C4.96705 12.2964 4.56129 12.7069 4.6041 12.7296C4.60623 12.7309 4.84498 12.5345 4.86145 12.5239C4.96834 12.4541 4.7888 12.6027 4.78433 12.6304C4.77615 12.6809 4.73892 12.7476 4.82751 12.7088C4.85364 12.6972 5.00663 12.5789 4.91583 12.6979C4.90395 12.7135 4.83102 12.7844 4.82829 12.7901C4.78508 12.8873 5.01175 12.662 5.10369 12.6009C5.19563 12.5399 5.06347 12.7197 5.02337 12.7695C4.91975 12.8984 4.96394 12.8094 4.95185 12.8202C4.80796 12.9479 4.84872 12.9419 4.85052 12.9667C4.6309 13.1901 4.66276 13.1954 4.85328 12.9914C4.87406 12.9691 4.84307 12.9794 4.85052 12.9667C5.07955 12.7609 5.12779 12.7535 4.9472 12.9792C4.86254 13.0849 4.74157 13.186 4.81422 13.1774C4.8471 13.1736 4.99403 13.0154 5.04845 12.9867C5.17266 12.9211 5.06847 13.1015 5.12112 13.1093C5.14023 13.1122 5.21304 13.018 5.22898 13.017C5.27154 13.0143 5.22644 13.0945 5.27852 13.0824C5.28334 13.0812 5.36633 12.9893 5.37366 12.9944C5.43093 13.0314 5.41596 13.1284 5.4636 13.1791C5.48666 13.2036 5.57736 13.1979 5.59229 13.2322C5.61868 13.2912 5.54407 13.4708 5.6114 13.4763C5.65494 13.4804 5.73715 13.3877 5.80691 13.3383C5.94204 13.2425 5.77 13.4842 5.74266 13.5209C5.74175 13.5221 5.70068 13.5222 5.66671 13.578C5.57955 13.6779 5.74203 13.521 5.74266 13.5209C5.72505 13.5446 5.74608 13.6054 5.7709 13.5968C5.78445 13.592 5.86481 13.5067 5.87031 13.5058C5.99909 13.4864 6.07489 13.52 6.09159 13.6142C6.09089 13.6169 5.99676 13.708 5.99628 13.7131C5.98717 13.7864 6.12107 13.6936 6.21483 13.6528C6.30855 13.612 6.30701 13.6555 6.16361 13.8302C6.2036 13.8301 6.16193 13.9291 6.13574 13.9883C6.10956 14.0474 6.29222 13.8694 6.29723 13.8672C6.45659 13.7984 6.37951 13.9277 6.41037 13.9907C6.42473 14.021 6.49515 14.0391 6.53904 14.0435C6.57402 14.0467 6.54325 14.1005 6.58787 14.0911C6.59386 14.0898 6.67176 14.0071 6.67558 14.0048C6.79129 13.9283 6.58554 14.1152 6.55453 14.1543C6.44172 14.2965 6.38289 14.3735 6.46802 14.3387C6.48756 14.3307 6.78712 14.0649 6.81422 14.059C6.84894 14.0518 6.74243 14.1479 6.78137 14.1377C6.78461 14.137 6.84686 14.0742 6.85299 14.0858C6.88224 14.139 6.89082 14.2204 6.93993 14.2569C6.9464 14.2622 7.03805 14.1555 7.04903 14.1615C7.10046 14.1894 7.14028 14.2366 7.13253 14.3216C7.13031 14.3429 7.05492 14.4063 7.03638 14.429C6.92434 14.5664 7.12353 14.4032 7.12995 14.4027C7.28781 14.3864 7.17798 14.6045 7.3282 14.5986C7.33671 14.5979 7.5612 14.4339 7.40808 14.614C7.39792 14.626 7.2408 14.8098 7.36914 14.7051C7.37717 14.6985 7.45661 14.6024 7.46217 14.6259C7.46776 14.6493 7.54971 14.6141 7.47323 14.7304C7.44917 14.7671 7.29406 14.9521 7.44844 14.8354C7.45912 14.8271 7.79468 14.5497 7.5936 14.7716C7.56048 14.808 7.33495 15.0301 7.47215 14.9378C7.49869 14.9199 7.54081 14.8621 7.58329 14.8423C7.64866 14.8116 7.61169 14.8945 7.73269 14.8161C7.75405 14.8022 7.92175 14.6661 7.81916 14.7941C7.8031 14.8141 7.72462 14.8851 7.72296 14.9001C7.71472 14.9721 7.79806 14.9555 7.77873 15.0396C7.77203 15.0692 7.6454 15.1841 7.62498 15.2284C7.60458 15.2727 7.59753 15.3279 7.66522 15.2852C7.73294 15.2425 7.91176 15.0364 7.94589 15.0397C8.09423 15.0542 8.06199 15.2478 8.1268 15.3457C8.13639 15.3602 8.19527 15.2813 8.21435 15.2978C8.285 15.3582 8.46272 15.4068 8.37323 15.61C8.30158 15.7728 8.155 15.8047 8.14212 15.8872C8.13616 15.9267 8.37811 15.7211 8.38921 15.7181C8.50039 15.6862 8.4288 15.8129 8.49487 15.8181C8.50855 15.8192 8.59203 15.7212 8.60266 15.7231C8.6398 15.7288 8.62181 15.7918 8.64967 15.8048C8.66238 15.8105 8.72996 15.7395 8.73306 15.7533C8.74127 15.7855 8.73002 15.8325 8.68479 15.9171C8.68067 15.9248 8.58239 15.9989 8.59414 16.0171C8.61339 16.0462 8.57937 16.1403 8.67335 16.102C8.70151 16.0903 8.86015 15.9323 8.76857 16.0594C8.74946 16.086 8.5546 16.2713 8.73954 16.1278C8.77031 16.1039 9.02661 15.9171 8.90085 16.077C8.86776 16.1191 8.72367 16.2861 8.75805 16.2716C8.7633 16.2691 8.84294 16.1786 8.85947 16.1786C8.91622 16.1798 8.93755 16.2193 8.99399 16.2224C9.00922 16.2231 9.08537 16.1233 9.10527 16.1271C9.16013 16.1375 9.17844 16.2006 9.18279 16.26C9.18422 16.2821 9.1032 16.3469 9.09612 16.3557C8.98085 16.4984 9.16315 16.3324 9.17787 16.3268C9.26708 16.2944 9.20689 16.3979 9.25472 16.4024C9.2677 16.4039 9.34562 16.3157 9.35446 16.3097C9.44172 16.2523 9.28148 16.3903 9.27448 16.4162C9.25438 16.4892 9.29054 16.512 9.32789 16.5281C9.34174 16.5339 9.42698 16.4266 9.43829 16.4329C9.50707 16.4685 9.5521 16.532 9.54994 16.636C9.54936 16.6557 9.46918 16.7238 9.45424 16.7428C9.34954 16.875 9.53133 16.7336 9.55137 16.7229C9.64278 16.6737 9.58542 16.7475 9.61631 16.7539C9.76835 16.784 9.83742 16.94 9.8966 17.0528C9.97414 17.1994 9.99057 17.3569 10.1158 17.4455C10.1236 17.4512 10.2154 17.3457 10.2235 17.3494C10.3228 17.4012 10.3587 17.5141 10.4629 17.5614C10.4713 17.5655 10.5559 17.463 10.5725 17.4664C10.6072 17.4726 10.628 17.5036 10.6188 17.5541C10.6145 17.5786 10.5208 17.6453 10.5181 17.6683C10.5116 17.7221 10.5303 17.7541 10.5696 17.7634C10.5865 17.7671 10.6666 17.6559 10.6811 17.6682C10.7822 17.7503 10.8885 17.8237 10.8572 18.0401C10.855 18.0549 10.6662 18.2549 10.717 18.2311C10.772 18.1781 10.8353 18.1146 10.8934 18.0574C11.0578 18.1596 11.1223 18.3589 11.2455 18.503C11.2507 18.509 11.344 18.3963 11.3546 18.4075C11.4162 18.4721 11.5061 18.5049 11.4683 18.6719C11.4647 18.6883 11.2802 18.8662 11.3265 18.8577C11.3348 18.856 11.3874 18.8603 11.4341 18.8283C11.441 18.8234 11.5204 18.7336 11.532 18.7403C11.5981 18.7807 11.6346 18.8558 11.6361 18.9607C11.6362 18.9777 11.537 19.0587 11.5363 19.0716C11.5318 19.1628 11.6475 19.1415 11.6071 19.2647C11.5798 19.3474 11.4139 19.4928 11.2754 19.6608C11.2558 19.6845 11.2696 19.7051 11.1813 19.7951C10.9594 20.0216 10.7056 20.2588 10.4701 20.5011C10.4193 20.5533 10.4977 20.5209 10.3598 20.6316C10.3505 20.639 10.2925 20.6636 10.2462 20.7017C10.2142 20.728 10.1287 20.8238 10.0855 20.8554C10.0424 20.8868 10.112 20.8044 10.0584 20.8386C10.0043 20.8734 9.90544 20.9808 9.87393 20.9737ZM6.01924 14.2532C5.94789 14.3551 6.26738 14.0401 6.17497 14.0995C6.17013 14.1027 6.02271 14.2482 6.01924 14.2532ZM4.12248 12.4567C4.00251 12.6165 4.22191 12.4244 4.3159 12.3023C4.40977 12.1803 4.15882 12.4082 4.12248 12.4567ZM3.81342 12.3519C3.72642 12.4855 4.17994 12.0394 4.06403 12.1053C4.05743 12.109 3.81846 12.3441 3.81342 12.3519ZM11.1634 19.6361C11.1594 19.6405 11.1676 19.657 11.1721 19.6531C11.2794 19.5589 11.2629 19.5261 11.1634 19.6361ZM3.49688 12.2578C3.44331 12.3259 3.53452 12.2766 3.60114 12.1919C3.65473 12.1238 3.56351 12.173 3.49688 12.2578ZM6.47684 15.3879C6.47236 15.3929 6.47695 15.406 6.50349 15.3791C6.58896 15.2925 6.55235 15.3044 6.47684 15.3879ZM3.14273 11.914C3.17736 11.9825 2.83701 12.3854 2.8228 12.2873C2.82022 12.2695 2.96321 12.1907 2.98377 12.1442C3.02113 12.0595 2.77208 12.2771 2.87295 12.1279C2.89146 12.1007 3.14158 11.9093 3.14334 11.9136C3.14314 11.9137 3.14293 11.9139 3.14273 11.914ZM5.64699 14.643C5.6431 14.6475 5.65137 14.6638 5.65582 14.6599C5.76317 14.5658 5.74657 14.5331 5.64699 14.643ZM6.79702 16.1004C6.78875 16.11 6.80882 16.1468 6.81798 16.1395C6.99751 15.9897 6.95743 15.9148 6.79702 16.1004ZM4.58989 14.0502C4.4752 14.1382 4.44729 14.1341 4.56386 13.9962C4.57039 14.0163 4.58277 14.0306 4.58989 14.0502Z" fill="black"/>
<path d="M11.9737 5.12607C11.9565 5.19854 11.8682 5.22775 11.783 5.23186C11.7564 5.23328 11.7072 5.16997 11.6864 5.16842C11.6456 5.16545 11.6556 5.21063 11.6109 5.20326C11.5958 5.20055 11.5144 5.10379 11.5006 5.10298C11.4257 5.09918 11.4147 5.1555 11.3598 5.1726C11.089 5.25663 10.8811 5.39762 10.6609 5.53665C10.5884 5.58257 10.4356 5.57374 10.4098 5.67025C10.4068 5.6816 10.4892 5.75551 10.4943 5.76331C10.5717 5.88325 10.4209 5.71836 10.386 5.71131C10.248 5.68374 10.1794 5.73795 10.1565 5.82126C10.1469 5.85693 10.3249 5.98953 10.2149 5.92514C10.2075 5.92084 10.1302 5.83209 10.1151 5.82943C10.0812 5.82358 10.0693 5.8651 10.0519 5.86942C10.0178 5.87732 10.0151 5.88163 9.9943 5.90055C9.96513 5.92569 9.89157 5.91673 9.88124 5.96468C9.87928 5.97516 9.97261 6.05202 9.97717 6.07642C9.9817 6.1008 9.94823 6.11985 9.91931 6.10864C9.89038 6.09743 9.82727 6.02678 9.81037 6.01301C9.66808 5.89651 9.81692 6.1061 9.81744 6.11444C9.82169 6.26123 9.65849 6.22025 9.59188 6.28744C9.54153 6.33866 9.52093 6.42667 9.46799 6.47037C9.40458 6.52211 9.30968 6.52479 9.26167 6.58864C9.25651 6.59528 9.36348 6.68842 9.35737 6.69673C9.29243 6.78497 9.20546 6.85012 9.06165 6.85884C9.04714 6.85962 8.96915 6.76192 8.9494 6.75745C8.83043 6.73204 8.58298 6.63264 8.93767 7.0429C8.89104 7.05965 8.83714 7.08269 8.73169 7.03395C8.66379 7.0026 8.58585 6.88915 8.60423 6.95244C8.60826 6.9666 8.69866 7.04383 8.69837 7.05873C8.69707 7.12138 8.6349 7.12907 8.64657 7.20401C8.64914 7.21945 8.72599 7.29279 8.73769 7.30813C8.83189 7.43297 8.62534 7.27744 8.60663 7.26984C8.46619 7.21408 8.47388 7.28361 8.43204 7.32066C8.42229 7.32921 8.53398 7.41926 8.52822 7.43112C8.49699 7.49125 8.44101 7.5299 8.35152 7.52987C8.33137 7.52962 8.2546 7.43455 8.24057 7.43003C8.17978 7.41117 8.33742 7.5781 8.28225 7.56314C8.27083 7.5602 8.19966 7.48425 8.19081 7.47695C8.05189 7.36223 8.22107 7.55244 8.22192 7.55951C8.23676 7.65309 8.02401 7.49067 8.01253 7.55527C8.01135 7.56319 8.11468 7.646 8.10567 7.66256C8.04615 7.77346 7.93046 7.83802 7.77167 7.84792C7.74711 7.84958 7.68656 7.7703 7.67711 7.76251C7.52899 7.64129 7.70073 7.83043 7.70325 7.84151C7.71843 7.92415 7.5356 7.80435 7.7276 8.04218C7.51015 8.11047 7.48863 8.37336 7.1544 8.32251C7.15037 8.32208 7.06473 8.22998 7.05707 8.22951C6.9639 8.22289 7.11032 8.35269 7.25061 8.55025C7.28581 8.59988 7.05993 8.41788 7.04304 8.40487C6.98088 8.35685 6.856 8.21731 6.84297 8.20901C6.73959 8.14483 7.18002 8.57887 7.15372 8.60545C7.15216 8.60555 7.07516 8.5216 7.06493 8.51581C7.03292 8.49759 7.05806 8.5364 7.02361 8.51545C6.94407 8.46679 6.72611 8.25983 6.82618 8.40706C6.83924 8.4261 7.09181 8.66955 7.05649 8.68144C7.0422 8.68597 7.00479 8.73188 6.97704 8.72748C6.94933 8.72309 6.87741 8.63516 6.87312 8.63253C6.73602 8.55827 6.70413 8.50255 6.53192 8.36183C6.36031 8.2217 6.73645 8.58911 6.77153 8.63702C6.80648 8.68483 6.69625 8.62067 6.66027 8.59602C6.62429 8.57135 6.58056 8.51351 6.55837 8.50138C6.41289 8.42261 6.72826 8.70055 6.77628 8.77055C6.89008 8.93618 6.59418 8.68066 6.54344 8.67737C6.52973 8.67649 6.59776 8.73405 6.59792 8.74564C6.5977 8.7907 6.49806 8.71829 6.55118 8.82293C6.55982 8.83999 6.70477 9.02658 6.56964 8.91841C6.55019 8.90278 6.48691 8.82865 6.46187 8.8229C6.42436 8.81422 6.38337 8.82517 6.39084 8.86363C6.39639 8.89206 6.52272 8.99216 6.47315 8.97139C6.45105 8.96209 6.39668 8.884 6.36068 8.87205C6.32475 8.86003 6.29708 8.89352 6.28773 8.90744C6.27846 8.92139 6.37069 9.00091 6.37554 9.00763C6.403 9.04645 6.42212 9.11015 6.42005 9.11202C6.33118 9.22185 6.09482 9.16871 6.046 9.31335C6.04204 9.32458 6.13766 9.41008 6.13799 9.41272C6.14994 9.47665 5.92966 9.21539 5.83092 9.15296C6.01731 9.3341 5.97332 9.31154 5.97517 9.35C5.97621 9.36868 6.05217 9.43503 6.05865 9.44312C6.15364 9.56428 6.00494 9.43379 5.97403 9.40758C5.86032 9.3112 5.97502 9.44475 5.8989 9.38043C5.82332 9.31663 5.73357 9.19975 5.71733 9.21863C5.77819 9.28934 5.96314 9.44821 5.97767 9.4894C6.03276 9.64508 5.80401 9.60408 5.74956 9.6305C5.69521 9.65686 5.69431 9.68203 5.64702 9.68177C5.56156 9.68126 5.70467 9.79324 5.73668 9.87799C5.7686 9.96282 5.46764 9.63614 5.39637 9.57248C5.32521 9.50878 5.39055 9.58227 5.34883 9.54984C5.30715 9.51741 5.27129 9.46152 5.24649 9.45849C5.2217 9.45548 5.31189 9.60522 5.37857 9.67962C5.51986 9.83722 5.69012 9.98065 5.60619 9.95436C5.60127 9.95274 5.52413 9.86485 5.50944 9.86285C5.39551 9.84973 5.33921 9.89816 5.23269 9.89231C5.21791 9.89138 5.1323 9.79339 5.12266 9.79181C5.02199 9.77505 5.19177 9.91484 5.34072 10.1098C5.11706 9.87579 4.96435 9.74852 4.93115 9.77901C4.91112 9.79726 5.01435 9.8939 5.0724 9.97672C5.08993 10.0017 5.00776 9.9466 5.0523 9.99605C5.19784 10.1578 5.38259 10.317 5.28127 10.2814C5.27658 10.2795 5.19707 10.1909 5.18699 10.1907C5.12149 10.1896 5.27833 10.3541 5.26302 10.4084C5.25103 10.4509 5.10455 10.4014 5.05758 10.4165C4.80097 10.1586 4.83056 10.2468 4.99604 10.4361C4.96864 10.449 4.95691 10.4807 4.91292 10.4757C4.89786 10.474 4.82778 10.3951 4.81889 10.3879C4.67968 10.2746 4.84349 10.456 4.84591 10.4671C4.86455 10.58 4.69536 10.4876 4.77821 10.6604C4.78122 10.6666 4.95733 10.8479 4.81483 10.7294C4.80506 10.7212 4.73861 10.625 4.71116 10.6399C4.6837 10.6548 4.54802 10.5988 4.60145 10.711C4.61428 10.7381 4.74136 10.9011 4.61359 10.8022C4.59627 10.7887 4.54713 10.7354 4.51583 10.7096C4.41598 10.6277 4.59171 10.8133 4.42772 10.6704C4.26373 10.5275 4.12688 10.4345 4.20312 10.57C4.20526 10.574 4.3414 10.7242 4.32982 10.7312C4.31121 10.7424 4.26028 10.7336 4.24568 10.7501C4.23875 10.758 4.3324 10.8422 4.33274 10.8451C4.33256 10.9449 4.21773 10.9012 4.12978 10.9204C4.11348 10.9237 4.20649 11.0732 4.09164 10.9963C3.96586 10.9123 3.55087 10.4544 3.60688 10.6064C3.62912 10.6673 4.15831 11.2455 3.83668 10.9934C3.84033 11.1319 3.63115 11.0474 3.66502 11.2166C3.66648 11.2241 3.81139 11.3882 3.80214 11.3933C3.78811 11.4005 3.71005 11.3341 3.69772 11.3369C3.64421 11.3469 3.67694 11.4378 3.63672 11.4588C3.6216 11.4669 3.55098 11.3882 3.53295 11.3978C3.51499 11.4076 3.60409 11.5152 3.53782 11.4865C3.48743 11.4644 3.27225 11.2776 3.23 11.273C3.42755 11.472 3.41054 11.4808 3.4399 11.5561C3.44564 11.5707 3.51938 11.635 3.52566 11.6454C3.55272 11.6895 3.48766 11.6402 3.5183 11.687C3.52564 11.6982 3.59325 11.766 3.60307 11.7791C3.68913 11.8924 3.51434 11.7626 3.48395 11.74C3.36844 11.6541 3.44958 11.749 3.39857 11.7207C3.34757 11.6924 3.31495 11.6259 3.27765 11.6151C3.20042 11.5928 3.17608 11.639 3.14509 11.6637C3.13314 11.674 3.23111 11.7568 3.2315 11.7604C3.23142 11.8063 3.11202 11.7334 3.2793 11.9262C2.79785 11.4767 3.31057 11.9853 3.18451 11.925C3.17438 11.92 2.95095 11.7032 2.92858 11.6609C2.90624 11.6187 2.99013 11.6724 2.95355 11.6082C2.94499 11.5931 2.75743 11.3682 2.74749 11.3531C2.66983 11.2355 3.00163 11.5616 3.02075 11.5786C3.22774 11.7616 3.02838 11.5165 3.01905 11.4951C2.97624 11.3972 3.04591 11.42 3.01873 11.3468C3.00135 11.2992 2.78734 11.0823 2.80578 11.077C2.86692 11.0595 3.18124 11.3464 2.95768 11.0487C2.91004 10.9851 2.66663 10.7575 2.88031 10.9142C2.89377 10.9241 3.08433 11.0724 2.98939 10.953C2.97742 10.9379 2.90873 10.8693 2.90499 10.8616C2.88126 10.8107 2.94498 10.8563 2.93357 10.8154C2.92215 10.7744 2.90088 10.7176 2.94103 10.724C2.96512 10.7278 3.10604 10.8426 3.14221 10.869C3.24614 10.9455 3.113 10.7829 3.23073 10.8836C3.34908 10.9848 3.49899 11.1682 3.59242 11.2167C3.41493 11.0375 3.23382 10.8526 3.05583 10.6719C3.11144 10.6288 3.21764 10.6379 3.25926 10.5806C3.26424 10.5733 3.1621 10.4837 3.16497 10.4734C3.17749 10.4304 3.27007 10.4745 3.27164 10.4185C3.27249 10.3748 3.19542 10.2489 3.19314 10.2C3.41142 10.3898 3.37672 10.286 3.42048 10.2795C3.43572 10.2772 3.48963 10.3322 3.51367 10.3438C3.60303 10.3859 3.41165 10.2167 3.38974 10.1818C3.29639 10.0329 3.70691 10.4387 3.72955 10.3959C3.73089 10.3938 3.53453 10.155 3.5239 10.1386C3.45411 10.0317 3.6027 10.2112 3.63038 10.2157C3.68095 10.2238 3.74763 10.2611 3.70878 10.1725C3.69715 10.1464 3.57895 9.99337 3.69792 10.0842C3.7135 10.0961 3.78439 10.169 3.79009 10.1717C3.88728 10.2149 3.66204 9.98825 3.60093 9.89631C3.53985 9.80437 3.71966 9.93653 3.76946 9.97663C3.89844 10.0802 3.80944 10.0361 3.82016 10.0482C3.94791 10.192 3.9419 10.1513 3.96665 10.1495C4.19013 10.3691 4.19539 10.3372 3.99142 10.1467C3.96911 10.1259 3.97944 10.1569 3.96665 10.1495C3.76094 9.92045 3.7535 9.87221 3.97917 10.0528C4.08492 10.1375 4.18595 10.2584 4.17739 10.1858C4.17361 10.1529 4.01544 10.006 3.98668 9.95155C3.92112 9.82734 4.10152 9.93153 4.10933 9.87888C4.11216 9.85977 4.01797 9.78696 4.01703 9.77102C4.01427 9.72846 4.09447 9.77356 4.08236 9.72148C4.08115 9.71666 3.98932 9.63367 3.99442 9.62634C4.03138 9.56907 4.1284 9.58404 4.17914 9.5364C4.20362 9.51334 4.1979 9.42264 4.23221 9.40771C4.29117 9.38132 4.47077 9.45594 4.47635 9.3886C4.48036 9.34506 4.38772 9.26285 4.33833 9.19309C4.24252 9.05796 4.48415 9.23 4.52087 9.25734C4.52207 9.25825 4.52222 9.29932 4.57802 9.33329C4.67788 9.42045 4.52104 9.25797 4.52087 9.25734C4.54463 9.27495 4.60535 9.25392 4.59675 9.2291C4.59203 9.21555 4.50673 9.13519 4.50583 9.12969C4.48635 9.00091 4.52005 8.92511 4.61421 8.90841C4.61686 8.90911 4.70804 9.00324 4.71311 9.00372C4.7864 9.01283 4.6936 8.87893 4.65277 8.78517C4.61197 8.69145 4.65548 8.69299 4.83021 8.83639C4.83015 8.7964 4.92911 8.83807 4.98826 8.86426C5.04741 8.89044 4.86935 8.70778 4.86724 8.70277C4.79835 8.54341 4.92774 8.62049 4.99074 8.58963C5.02099 8.57527 5.03909 8.50485 5.04353 8.46097C5.04673 8.42598 5.1005 8.45675 5.09107 8.41213C5.08984 8.40614 5.00713 8.32824 5.00476 8.32442C4.92832 8.20871 5.1152 8.41446 5.15432 8.44547C5.29652 8.55828 5.3735 8.61711 5.33867 8.53198C5.33073 8.51244 5.06495 8.21288 5.05899 8.18578C5.05176 8.15106 5.14789 8.25757 5.13774 8.21863C5.13697 8.21539 5.0742 8.15314 5.08584 8.14701C5.13904 8.11776 5.22037 8.10918 5.25695 8.06007C5.26218 8.0536 5.15554 7.96195 5.16147 7.95097C5.1894 7.89954 5.23656 7.85972 5.32162 7.86747C5.34287 7.86969 5.40632 7.94508 5.429 7.96362C5.5664 8.07566 5.40317 7.87647 5.40269 7.87005C5.38638 7.71219 5.60454 7.82202 5.5986 7.6718C5.59795 7.66329 5.43391 7.4388 5.614 7.59192C5.62601 7.60208 5.80981 7.7592 5.70506 7.63086C5.6985 7.62283 5.60244 7.54339 5.62589 7.53783C5.64932 7.53224 5.61407 7.45029 5.73043 7.52677C5.76712 7.55083 5.95207 7.70594 5.83537 7.55157C5.82713 7.54088 5.54973 7.20532 5.77156 7.4064C5.80805 7.43952 6.03005 7.66505 5.93781 7.52785C5.91986 7.50131 5.86215 7.45919 5.8423 7.41671C5.8116 7.35134 5.8945 7.38831 5.81613 7.26731C5.8022 7.24595 5.66614 7.07825 5.7941 7.18084C5.81415 7.1969 5.88508 7.27538 5.90014 7.27704C5.97211 7.28528 5.95551 7.20194 6.03955 7.22127C6.06918 7.22797 6.18409 7.3546 6.2284 7.37502C6.2727 7.39542 6.32789 7.40247 6.28521 7.33478C6.2425 7.26706 6.03636 7.08824 6.03969 7.05411C6.05424 6.90577 6.24783 6.93801 6.34567 6.8732C6.3602 6.86361 6.28132 6.80473 6.29779 6.78565C6.3582 6.715 6.40676 6.53728 6.60997 6.62677C6.77275 6.69842 6.80466 6.845 6.88717 6.85789C6.92673 6.86384 6.72113 6.62189 6.71814 6.61079C6.68619 6.49961 6.81286 6.5712 6.8181 6.50513C6.81916 6.49145 6.72124 6.40797 6.72313 6.39734C6.72881 6.3602 6.79179 6.37819 6.80485 6.35033C6.81049 6.33762 6.73953 6.27004 6.75332 6.26694C6.78552 6.25873 6.83251 6.26998 6.91713 6.31521C6.92484 6.31933 6.99891 6.41761 7.01706 6.40586C7.0462 6.38661 7.14028 6.42063 7.10197 6.32665C7.09033 6.29849 6.93234 6.13985 7.05943 6.23143C7.08599 6.25054 7.27134 6.4454 7.12776 6.26046C7.10394 6.22969 6.91713 5.97339 7.07699 6.09915C7.11908 6.13224 7.28612 6.27633 7.27161 6.24195C7.26905 6.2367 7.17862 6.15706 7.17855 6.14053C7.1798 6.08378 7.21928 6.06245 7.22244 6.00602C7.22311 5.99078 7.12326 5.91463 7.12708 5.89473C7.13745 5.83987 7.20058 5.82156 7.26002 5.81721C7.28209 5.81578 7.34686 5.8968 7.35565 5.90388C7.49844 6.01915 7.33241 5.83685 7.32682 5.82213C7.29442 5.73292 7.39785 5.79311 7.40238 5.74528C7.40385 5.7323 7.31569 5.65438 7.30972 5.64554C7.25229 5.55828 7.39031 5.71852 7.41619 5.72552C7.48918 5.74562 7.51199 5.70946 7.52812 5.67211C7.53392 5.65826 7.4266 5.57302 7.43292 5.56171C7.4685 5.49293 7.53196 5.4479 7.63597 5.45006C7.65573 5.45064 7.72384 5.53082 7.74277 5.54576C7.87503 5.65046 7.7336 5.46867 7.72286 5.44863C7.67368 5.35722 7.74745 5.41458 7.75387 5.38369C7.78405 5.23165 7.93997 5.16258 8.0528 5.1034C8.1994 5.02586 8.3569 5.00943 8.44546 4.88424C8.45118 4.87638 8.3457 4.78459 8.34936 4.77655C8.40118 4.67717 8.51415 4.64129 8.56141 4.53705C8.56546 4.52868 8.46299 4.44413 8.46635 4.42754C8.47259 4.39285 8.5036 4.37201 8.55415 4.38118C8.57863 4.38547 8.64533 4.47924 8.66833 4.48193C8.72206 4.48835 8.75408 4.46966 8.76338 4.43037C8.76714 4.41345 8.6559 4.33342 8.66824 4.31887C8.75029 4.21784 8.82373 4.11147 9.04008 4.1428C9.05493 4.14496 9.25486 4.33377 9.23107 4.28301C9.17814 4.22805 9.11463 4.16465 9.05742 4.10655C9.15963 3.94223 9.35891 3.87771 9.50297 3.75449C9.50902 3.74927 9.3963 3.65603 9.40749 3.6454C9.47214 3.58379 9.50492 3.49395 9.67187 3.53173C9.68829 3.53533 9.86617 3.71979 9.85766 3.67351C9.85599 3.66518 9.86026 3.61258 9.82829 3.56589C9.82335 3.55896 9.7336 3.47959 9.7403 3.46796C9.78071 3.40186 9.85583 3.36535 9.96066 3.36386C9.97775 3.36378 10.0587 3.46297 10.0716 3.4637C10.1628 3.46815 10.1415 3.35254 10.2647 3.39288C10.3474 3.42021 10.4928 3.58614 10.6608 3.72464C10.6845 3.74417 10.7051 3.73043 10.7951 3.81869C11.0216 4.0406 11.2588 4.29439 11.5011 4.52993C11.5533 4.58068 11.5209 4.50225 11.6316 4.64024C11.639 4.64952 11.6636 4.70747 11.7017 4.75377C11.728 4.7858 11.8238 4.87132 11.8554 4.91449C11.8868 4.95763 11.8044 4.88804 11.8386 4.94158C11.8734 4.99567 11.9808 5.09456 11.9737 5.12607ZM5.2532 8.98076C5.35508 9.05211 5.04009 8.73262 5.09948 8.82503C5.10273 8.82987 5.24816 8.97729 5.2532 8.98076ZM3.45665 10.8775C3.61653 10.9975 3.42444 10.7781 3.3023 10.6841C3.18028 10.5902 3.40816 10.8412 3.45665 10.8775ZM3.3519 11.1866C3.48554 11.2736 3.03936 10.8201 3.10532 10.936C3.10901 10.9426 3.34413 11.1815 3.3519 11.1866ZM10.6361 3.8366C10.6405 3.8406 10.657 3.83237 10.6531 3.8279C10.5589 3.72057 10.5261 3.73711 10.6361 3.8366ZM3.25779 11.5031C3.32593 11.5567 3.27664 11.4655 3.19192 11.3989C3.12377 11.3453 3.17303 11.4365 3.25779 11.5031ZM6.38795 8.52316C6.39292 8.52764 6.40602 8.52305 6.37912 8.49651C6.29246 8.41104 6.30443 8.44765 6.38795 8.52316ZM2.914 11.8573C2.9825 11.8226 3.38536 12.163 3.28728 12.1772C3.26953 12.1798 3.19069 12.0368 3.14425 12.0162C3.05953 11.9789 3.27713 12.2279 3.12794 12.1271C3.10068 12.1085 2.90927 11.8584 2.91358 11.8567C2.91372 11.8569 2.91386 11.8571 2.914 11.8573ZM5.64303 9.35301C5.64753 9.3569 5.66376 9.34863 5.65989 9.34418C5.56581 9.23683 5.53306 9.25343 5.64303 9.35301ZM7.10043 8.20298C7.11005 8.21125 7.14683 8.19118 7.13952 8.18202C6.98966 8.00249 6.9148 8.04257 7.10043 8.20298ZM5.05023 10.4101C5.13818 10.5248 5.13412 10.5527 4.99623 10.4361C5.01627 10.4296 5.03064 10.4172 5.05023 10.4101Z" fill="black"/>
</svg>
