<svg width="24" height="24" viewBox="0 0 24 24" fill="none" xmlns="http://www.w3.org/2000/svg">
<path d="M8.53224 19.71C8.51181 19.5343 8.60645 19.3161 8.71789 19.1808C8.75246 19.138 8.81789 19.1904 8.84497 19.1639C8.89778 19.1133 8.88713 19.0406 8.94925 18.9973C8.97002 18.9836 9.07141 19.0627 9.09019 19.048C9.1914 18.97 9.21932 18.8619 9.30908 18.7826C9.39601 18.7066 9.4849 18.6378 9.57565 18.5757C9.94217 18.3251 10.3465 18.1774 10.7592 18.169C10.8351 18.1674 10.9191 18.1892 11 18.2126C11.0559 18.2415 11.1128 18.2639 11.1646 18.2363C11.1756 18.2304 11.169 18.1198 11.1711 18.1107C11.2038 17.9712 11.193 18.1944 11.2143 18.2241C11.2991 18.3411 11.3934 18.3513 11.475 18.3086C11.5097 18.2902 11.4749 18.0706 11.5098 18.1938C11.5123 18.2022 11.5035 18.3196 11.513 18.3321C11.5346 18.3602 11.5755 18.3393 11.5923 18.3486C11.6245 18.3671 11.6298 18.3659 11.6603 18.3672C11.702 18.3701 11.7516 18.4284 11.7964 18.4018C11.8059 18.3958 11.7933 18.2755 11.8085 18.255C11.8237 18.2346 11.8641 18.2448 11.8777 18.2731C11.8913 18.3015 11.8855 18.3961 11.8879 18.4178C11.9077 18.6008 11.9543 18.3473 11.9603 18.3411C12.0697 18.2343 12.1636 18.3786 12.2663 18.3782C12.3443 18.3776 12.4276 18.3299 12.5018 18.3365C12.5902 18.3447 12.6651 18.4099 12.751 18.3987C12.7601 18.3977 12.7495 18.2562 12.7605 18.2546C12.8406 18.2434 12.9203 18.247 13 18.2806C13.0641 18.2963 13.1266 18.3223 13.1845 18.3595C13.2023 18.3713 13.1643 18.4919 13.18 18.511C13.2883 18.6269 13.33 18.8925 13.5782 18.4084C13.6481 18.4557 13.7319 18.5187 13.7386 18.6471C13.7418 18.7292 13.64 18.8269 13.7105 18.8011C13.7266 18.7957 13.7745 18.6862 13.7951 18.6866C13.8835 18.6893 13.9288 18.7687 14.0264 18.7707C14.0466 18.771 14.1121 18.6874 14.1281 18.6759C14.2626 18.5866 14.1414 18.8241 14.1355 18.8449C14.1345 18.8526 14.1337 18.8599 14.1331 18.8669C14.1172 19.0167 14.1955 19.0331 14.2463 19.1086C14.2582 19.1269 14.3593 19.0228 14.3757 19.0386C14.4601 19.1231 14.5114 19.2426 14.4961 19.3702C14.4922 19.3984 14.3714 19.4243 14.3635 19.4396C14.3283 19.5029 14.5473 19.4334 14.5168 19.4978C14.5104 19.5108 14.4097 19.5376 14.3994 19.5429C14.2367 19.6222 14.4858 19.5693 14.4937 19.5766C14.5939 19.6521 14.345 19.7631 14.3916 19.834C14.3975 19.8436 14.5256 19.8045 14.5343 19.8339C14.55 19.8873 14.5576 19.9435 14.5569 20C14.5548 20.0974 14.5148 20.1965 14.4381 20.2908C14.4219 20.311 14.323 20.2966 14.3109 20.2979C14.1204 20.3185 14.3756 20.3319 14.3852 20.3384C14.4544 20.3902 14.2404 20.4386 14.5443 20.4738C14.4597 20.6498 14.5529 20.8252 14.4523 21C14.4276 21.0625 14.3869 21.122 14.3261 21.1721C14.3225 21.1752 14.1987 21.1529 14.1921 21.1587C14.1105 21.2269 14.3064 21.2382 14.525 21.3571C14.5791 21.3904 14.2871 21.3657 14.2662 21.3611C14.1875 21.3529 14.0118 21.2875 13.9961 21.2875C13.8741 21.2816 14.4669 21.4601 14.4453 21.5224C14.4437 21.5237 14.3393 21.4778 14.327 21.4786C14.2886 21.4803 14.3257 21.5101 14.2839 21.5092C14.1865 21.508 13.9095 21.3924 14.051 21.5024C14.0688 21.5175 14.3905 21.6594 14.35 21.7024C14.3345 21.719 14.2908 21.8064 14.2564 21.8162C14.2227 21.8261 14.1386 21.7483 14.1333 21.7474C13.9739 21.7164 13.9365 21.6606 13.7434 21.5502C13.5548 21.4344 13.9765 21.7483 14.0147 21.7948C14.0525 21.8418 13.9276 21.7992 13.8893 21.7774C13.8505 21.7567 13.8045 21.7002 13.7808 21.6903C13.6289 21.6219 13.9564 21.8851 14.0019 21.9586C14.0221 21.9926 14.0261 22.0117 14.0198 22.0198C13.9911 22.0555 13.789 21.8874 13.745 21.8841C13.7297 21.8835 13.7939 21.9455 13.7909 21.9589C13.7758 22.012 13.6848 21.9285 13.7082 22.0476C13.714 22.0659 13.8004 22.2894 13.6862 22.1569C13.6704 22.1374 13.6295 22.0488 13.6031 22.039C13.5635 22.0245 13.5142 22.0264 13.5027 22.0675C13.4937 22.0981 13.5836 22.2331 13.5366 22.1998C13.5162 22.1846 13.4984 22.09 13.4647 22.0678C13.4317 22.0456 13.3844 22.0682 13.3659 22.0776C13.3478 22.0871 13.396 22.199 13.3972 22.2073C13.402 22.2553 13.374 22.3248 13.3696 22.3257C13.246 22.3695 13.1113 22.312 13 22.2693C12.9438 22.2424 12.8876 22.2279 12.8301 22.2541C12.8185 22.2592 12.8262 22.3873 12.8245 22.3894C12.7846 22.4431 12.816 22.1026 12.7882 21.9886C12.7922 22.2485 12.7757 22.2014 12.7476 22.2299C12.7341 22.2439 12.7415 22.3445 12.7402 22.3548C12.7201 22.5077 12.7062 22.3102 12.7025 22.2698C12.6892 22.1213 12.6748 22.2968 12.6657 22.1975C12.6567 22.099 12.6775 21.9528 12.6505 21.9547C12.643 22.0478 12.663 22.2909 12.6425 22.3303C12.5653 22.4793 12.4212 22.2886 12.3591 22.2687C12.2971 22.2489 12.2771 22.2661 12.241 22.2325C12.1758 22.1717 12.1997 22.3521 12.1592 22.4346C12.1186 22.5172 12.1383 22.0734 12.1325 21.978C12.1268 21.8826 12.1205 21.9808 12.1134 21.9284C12.1063 21.8759 12.1217 21.8111 12.1049 21.7914C12.0882 21.7717 12.0425 21.9414 12.0366 22.0411C12.0241 22.2525 12.0447 22.4743 12.0004 22.3964C11.9979 22.3917 12.0061 22.275 11.9964 22.2633C11.919 22.1734 11.8386 22.1678 11.7613 22.0884C11.7507 22.0773 11.7602 21.9475 11.754 21.9395C11.6896 21.8565 11.7126 22.0754 11.6773 22.3186C11.6852 21.9949 11.6657 21.797 11.6168 21.7951C11.5874 21.7938 11.5925 21.9351 11.5735 22.0347C11.5678 22.0648 11.547 21.9677 11.5432 22.0342C11.5308 22.2515 11.5503 22.4947 11.4999 22.3978C11.4977 22.3932 11.5048 22.2743 11.4971 22.2671C11.4477 22.22 11.4418 22.4472 11.3884 22.4747C11.3466 22.4963 11.2721 22.3578 11.2245 22.3352C11.2255 21.9714 11.1805 22.0547 11.1622 22.3055C11.1313 22.2953 11.0979 22.3095 11.068 22.2748C11.0577 22.263 11.0644 22.1576 11.0631 22.1462C11.0432 21.9677 11.0298 22.2118 11.0231 22.2213C11.0153 22.2314 11.0076 22.2382 11 22.2426C10.9178 22.2778 10.8717 22.1441 10.769 22.2896C10.7655 22.2956 10.7121 22.5429 10.722 22.3566C10.7237 22.344 10.7741 22.237 10.7361 22.22C10.6949 22.2022 10.6679 22.0545 10.5792 22.1462C10.5591 22.169 10.4455 22.3449 10.4812 22.1855C10.4865 22.164 10.5192 22.0992 10.531 22.0603C10.5702 21.9371 10.4536 22.1646 10.5311 21.961C10.6082 21.757 10.6695 21.6065 10.5617 21.716C10.5588 21.7194 10.4436 21.8863 10.432 21.8749C10.4144 21.8574 10.4119 21.804 10.3927 21.7907C10.3833 21.7843 10.3119 21.888 10.3089 21.8886C10.242 21.8898 10.2221 21.8411 10.2157 21.7843C10.2112 21.7456 10.2124 21.7028 10.2055 21.664C10.2041 21.6485 10.0365 21.7128 10.1285 21.6073C10.233 21.497 10.7588 21.1739 10.6185 21.2265C10.5677 21.2571 9.85029 21.5778 10.1949 21.3548C10.0624 21.3001 10.2408 21.1684 10.0895 21.1024C10.0827 21.0997 9.86372 21.1065 9.86559 21.0927C9.8689 21.0734 9.97036 21.0576 9.97654 21.0458C9.98545 21.0298 9.98321 21.015 9.97644 21C9.96154 20.9678 9.92314 20.9366 9.93249 20.9043C9.93743 20.8865 10.043 20.8927 10.0489 20.8714C10.0547 20.8501 9.91567 20.836 9.98284 20.8071C10.034 20.7854 10.3183 20.7636 10.3514 20.7347C10.071 20.7336 10.0768 20.7137 10.0028 20.6785C9.98844 20.6717 9.89085 20.6789 9.87902 20.6757C9.82872 20.6627 9.9096 20.6506 9.85485 20.6382C9.8417 20.6352 9.74594 20.635 9.72979 20.6326C9.58877 20.6116 9.80416 20.5771 9.84167 20.5712C9.98409 20.5484 9.85955 20.5378 9.91564 20.5204C9.97172 20.503 10.0418 20.529 10.0759 20.5086C10.1462 20.4665 10.1308 20.4123 10.1352 20.3695C10.1363 20.3525 10.0085 20.3641 10.0057 20.3617C9.97331 20.3263 10.1093 20.2906 9.85467 20.271C10.513 20.2466 9.79081 20.2497 9.9226 20.1993C9.93326 20.1953 10.2446 20.1902 10.2903 20.2055C10.3359 20.2208 10.2386 20.2439 10.3099 20.2651C10.3266 20.2701 10.6183 20.2988 10.636 20.3028C10.7741 20.3335 10.3089 20.3378 10.2833 20.3395C10.0076 20.3579 10.3218 20.393 10.3436 20.4022C10.4431 20.4445 10.3776 20.4805 10.4487 20.5159C10.4946 20.539 10.7993 20.5413 10.79 20.5594C10.7591 20.6198 10.334 20.6409 10.7026 20.6979C10.7812 20.7101 11.1143 20.6979 10.8524 20.7417C10.8359 20.7444 10.5963 20.7769 10.7479 20.7956C10.767 20.798 10.864 20.7979 10.8722 20.801C10.9249 20.8219 10.8476 20.8357 10.8846 20.8584C10.9217 20.8811 10.9769 20.9084 10.944 20.9343C10.9243 20.9499 10.7434 20.9699 10.6991 20.9774C10.6538 20.9849 10.651 20.9926 10.6593 21C10.6744 21.005 10.7258 21.0065 10.6265 21.0128C10.4717 21.026 10.2352 21.0151 10.1364 21.0486C10.3882 21.0357 10.6467 21.022 10.8998 21.0063C10.8911 21.0121 10.8126 21.0389 10.8278 21.0511C10.8298 21.0521 10.9593 21.012 10.9645 21.0109C10.9849 21.0043 10.8955 21.0413 10.9327 21.0303C10.962 21.0215 11.0896 20.955 11.1175 20.9312C10.8677 21.0757 10.9564 21.0329 10.9354 21.0485C10.9287 21.0547 10.8676 21.1017 10.8489 21.1186C10.7813 21.183 10.9766 21.0189 11.0077 20.9935C11.1298 20.8839 10.7387 21.2308 10.7311 21.2689C10.7306 21.2705 10.7308 21.2713 10.7318 21.2715C10.7347 21.2735 10.9523 21.0559 10.9635 21.0401C11.0478 20.9479 10.8919 21.1197 10.8791 21.1387C10.8555 21.1734 10.8177 21.2373 10.878 21.1696C10.8972 21.1505 11.0044 20.9916 10.9258 21.1173C10.9157 21.1339 10.8613 21.2198 10.8586 21.2252C10.8178 21.3167 10.9804 21.0412 11.0297 20.9449C11.0772 20.8476 10.9761 21.0438 10.9531 21.1032C10.8885 21.2545 10.9212 21.1659 10.9144 21.1805C10.8285 21.3523 10.8506 21.3263 10.8512 21.3442C10.7273 21.6321 10.7537 21.6227 10.8526 21.3617C10.8637 21.3333 10.847 21.358 10.8512 21.3442C10.9812 21.0653 10.9822 21.0236 10.8995 21.2991C10.8624 21.4285 10.8082 21.5764 10.8512 21.5292C10.8699 21.5074 10.9214 21.2978 10.9406 21.242C10.9785 21.1133 10.9527 21.313 10.9742 21.2834C10.9797 21.2723 10.9857 21.1543 10.9887 21.1426C10.994 21.1142 10.9947 21.1826 11 21.1642C11.0031 21.1621 11.0062 21.1589 11.0094 21.1542C11.0121 21.1499 11.0053 21.0263 11.0149 21.0247C11.0872 21.0104 11.1502 21.0896 11.2257 21.0917C11.2622 21.0928 11.3275 21.0246 11.3653 21.0383C11.4308 21.0613 11.5114 21.2411 11.5674 21.1974C11.6039 21.1694 11.5959 21.0458 11.6115 20.9616C11.6417 20.7983 11.6951 21.0908 11.7023 21.1361C11.7025 21.1376 11.6711 21.1667 11.6879 21.2302C11.6976 21.3624 11.702 21.1366 11.7023 21.1361C11.707 21.1653 11.7698 21.1934 11.7822 21.1698C11.789 21.1568 11.7852 21.0397 11.7888 21.0352C11.8727 20.9303 11.9567 20.9006 12.0418 20.9553C12.0433 20.9577 12.0411 21.0887 12.0446 21.0927C12.0939 21.1509 12.1254 20.9906 12.166 20.8955C12.2067 20.8003 12.2389 20.8322 12.2629 21.0571C12.2936 21.0288 12.3376 21.1283 12.3629 21.1886C12.3882 21.249 12.3917 20.9939 12.394 20.9888C12.4634 20.8274 12.5036 20.9734 12.5756 20.9962C12.6099 21.0074 12.6778 20.9704 12.7149 20.9425C12.7442 20.92 12.7619 20.9798 12.7889 20.9416C12.7926 20.9365 12.7889 20.8229 12.79 20.8186C12.8201 20.6827 12.8056 20.9603 12.8119 21.0099C12.8344 21.1902 12.8484 21.2863 12.887 21.2014C12.8959 21.182 12.9218 20.7822 12.938 20.7589C12.9592 20.7292 12.9512 20.8725 12.9733 20.8378C12.9752 20.8349 12.9748 20.7465 12.9884 20.7504C12.9923 20.7515 12.9961 20.7526 13 20.7539C12.9844 20.7735 12.9769 20.8194 12.9647 20.8133C12.9627 20.8128 12.9393 20.6745 12.9345 20.6718C12.9116 20.6592 12.886 20.6726 12.8949 20.7399C12.8974 20.7568 12.9373 20.8466 12.9477 20.8738C13.0154 21.0366 12.9101 20.8031 12.9049 20.8001C12.8188 20.706 12.9313 20.9091 12.8485 20.8364C12.8455 20.834 12.7776 20.768 12.7501 20.7501C12.7307 20.737 12.7331 20.7478 12.8036 20.8167C12.8136 20.829 12.9915 20.9916 12.8661 20.8847C12.8579 20.8784 12.7666 20.7943 12.7718 20.8077C12.7782 20.8195 12.7032 20.781 12.8097 20.8666C12.8422 20.8953 13.0438 21.0263 12.8801 20.9266C12.8714 20.9148 12.4855 20.7163 12.7452 20.865C12.7881 20.8892 13.0691 21.0345 12.9236 20.9628C12.8949 20.9499 12.8324 20.9169 12.791 20.9014C12.7261 20.8799 12.8016 20.9184 12.6659 20.8794C12.6424 20.8709 12.4342 20.8156 12.587 20.8736C12.6111 20.8822 12.7126 20.9113 12.7231 20.9175C12.774 20.9448 12.7021 20.9441 12.7724 20.9681C12.7974 20.9754 12.9669 20.9962 13.0124 21.0014C13.0578 21.0071 13.1022 21.0048 13.0242 21.001C12.9461 20.9991 12.6741 20.9871 12.6521 20.9962C12.6493 20.9974 12.6468 20.9987 12.6444 21C12.5668 20.8787 12.7179 20.7585 12.7406 20.6373C12.744 20.6188 12.6466 20.6341 12.6448 20.6068C12.6375 20.5062 12.5462 20.3325 12.7532 20.2452C12.919 20.1752 13.0452 20.2633 13.1126 20.2098C13.1448 20.184 12.8283 20.1561 12.8184 20.1499C12.7221 20.092 12.8442 20.051 12.8194 20C12.8181 20.0005 12.8165 20.001 12.8143 20.0015C12.8055 20.0038 12.6772 20.0028 12.671 20.0058C12.649 20.0179 12.7069 20.0256 12.6976 20.0354C12.6931 20.0401 12.5959 20.052 12.6041 20.0562C12.6226 20.066 12.6655 20.0703 12.7567 20.057C12.7648 20.0551 12.883 20.0254 12.8881 20.0271C12.8965 20.0317 12.9827 20.0039 12.8961 20.0395C12.87 20.0499 12.6628 20.1351 12.8082 20.0818C12.8387 20.0709 13.0838 19.9605 12.8732 20.0587C12.836 20.0707 12.5665 20.2324 12.7484 20.1435C12.7961 20.1199 12.9863 20.0093 12.9567 20.027C12.9522 20.0303 12.8493 20.0926 12.8407 20.1009C12.8125 20.1297 12.8289 20.1306 12.807 20.1631C12.8015 20.1724 12.7027 20.2484 12.6986 20.2611C12.6939 20.277 12.6999 20.2858 12.7113 20.2887C12.7256 20.2924 12.7482 20.2865 12.7696 20.2761C12.7838 20.2689 12.8457 20.1863 12.8534 20.1781C12.9711 20.0387 12.8192 20.2325 12.8136 20.2463C12.7746 20.3245 12.85 20.2358 12.8432 20.2672C12.8421 20.2759 12.781 20.3763 12.7764 20.3857C12.7347 20.4798 12.8326 20.2928 12.8481 20.2748C12.8907 20.2231 12.894 20.235 12.8993 20.2534C12.9013 20.2603 12.8465 20.385 12.8502 20.3902C12.8725 20.4243 12.9188 20.4219 12.956 20.3506C12.9629 20.337 12.9719 20.2324 12.9756 20.2088C12.9967 20.0426 12.9799 20.2704 12.9833 20.2925C12.9871 20.371 12.9947 20.3305 13 20.318C12.995 20.3146 12.9896 20.3132 12.9835 20.3169C12.8436 20.4031 12.6709 20.3417 12.5388 20.3038C12.3668 20.2549 12.2333 20.1552 12.0692 20.1811C12.0587 20.1826 12.0692 20.3221 12.0603 20.3252C11.9442 20.3588 11.8299 20.3043 11.7136 20.3446C11.7041 20.3477 11.7178 20.4799 11.7025 20.4892C11.6711 20.5094 11.6313 20.5022 11.5995 20.4599C11.584 20.4396 11.6048 20.3261 11.5892 20.308C11.5529 20.2654 11.514 20.256 11.4767 20.2772C11.4608 20.2865 11.4847 20.4218 11.4641 20.4233C11.3236 20.4367 11.1855 20.46 11.0435 20.2849C11.0337 20.2729 11.0252 19.998 11.0045 20.0507C11.0029 20.127 11.003 20.2167 11.0023 20.2983C11.0016 20.2984 11.0008 20.2986 11 20.2988C11.0694 20.3412 11.1104 20.2268 11.133 20.1903C11.1346 20.1884 11.2143 20.3105 11.2191 20.3066C11.235 20.2937 11.2598 20.2893 11.2632 20.2632C11.2655 20.2441 11.2553 20.213 11.2135 20.1657C11.2039 20.1549 11 19.9998 11.0313 20.0226C11.037 20.0268 11.0663 20.0446 11.1143 20.0727C11.1217 20.0768 11.2214 20.1428 11.2264 20.1415C11.2536 20.1327 11.2413 20.0929 11.176 20.0563C11.1652 20.0506 11.0431 20.0141 11.0341 20.0106C10.9691 19.9929 11.0643 20.0077 10.9495 19.995C10.8717 19.9909 10.6522 19.9731 10.4352 19.9723C10.4046 19.9726 10.3992 19.9877 10.2732 19.9868C9.95609 19.9858 9.60935 19.9624 9.27135 19.9618C9.19831 19.9619 9.27643 20.0264 9.10068 19.9875C9.08878 19.9849 9.03135 19.9346 8.97244 19.9189C8.9316 19.908 8.80275 19.9201 8.75085 19.8979C8.69911 19.8747 8.80754 19.8592 8.74825 19.8217C8.6886 19.7829 8.54126 19.7853 8.53224 19.71ZM12.4768 21.4583C12.5003 21.5808 12.5037 21.1322 12.4784 21.2395C12.4772 21.2452 12.4756 21.4523 12.4768 21.4583ZM10.4827 21.1115C10.2939 21.1741 10.579 21.1136 10.725 21.0679C10.8725 21.0288 10.5407 21.0958 10.4827 21.1115ZM10.3263 20.8946C10.1703 20.9304 10.8065 20.936 10.6779 20.8977C10.6706 20.8955 10.3354 20.8925 10.3263 20.8946ZM10.3803 19.9038C10.3743 19.9031 10.3668 19.9142 10.3727 19.9153C10.5132 19.9393 10.5272 19.9227 10.3803 19.9038ZM10.1691 20.5794C10.083 20.5905 10.1823 20.6227 10.2894 20.6088C10.3754 20.5976 10.2761 20.5654 10.1691 20.5794ZM13.6032 21.7172C13.6078 21.7221 13.6215 21.7183 13.5966 21.6899C13.5163 21.5985 13.527 21.6343 13.6032 21.7172ZM10.1617 20.0436C10.1378 20.1227 9.61226 20.1707 9.67156 20.0845C9.68229 20.0689 9.83915 20.1182 9.88653 20.0983C9.97284 20.0619 9.64288 20.0378 9.81969 20.0007C9.85206 19.994 10.1643 20.039 10.1625 20.0437C10.1622 20.0436 10.162 20.0436 10.1617 20.0436ZM12.4903 21.9972C12.4908 22.0031 12.5096 22.0088 12.5101 22.0029C12.5202 21.8604 12.4824 21.849 12.4903 21.9972ZM14.2108 21.0955C14.2238 21.0955 14.2386 21.0422 14.2267 21.04C13.9951 21.0099 13.9659 21.0954 14.2108 21.0955ZM11.2237 22.3255C11.2032 22.4688 11.1787 22.4857 11.1623 22.3057C11.1827 22.3153 11.2032 22.3167 11.2237 22.3255Z" fill="black"/>
<path d="M12.3401 14.5031C12.5373 14.4509 12.7998 14.4564 13.0128 14.4696C13.0794 14.4736 13.0643 14.5582 13.112 14.5639C13.2058 14.5745 13.2767 14.5167 13.3717 14.5288C13.4036 14.5331 13.4014 14.6644 13.4345 14.6659C13.6175 14.6725 13.7663 14.59 13.9427 14.5524C14.8183 14.364 15.6381 13.9044 16.3878 13.31C16.6348 13.1154 16.9924 12.9189 17.1754 12.6364C17.1965 12.6036 17.0985 12.5476 17.0965 12.5361C17.0665 12.3589 17.2094 12.5343 17.2811 12.4966C17.5647 12.3461 17.7816 12.0821 17.9119 11.8203C17.9669 11.7086 17.7163 11.6852 17.8871 11.6539C17.8989 11.6515 17.9784 11.7433 18.0077 11.7224C18.0742 11.675 18.1368 11.5409 18.1763 11.4956C18.2532 11.4083 18.2619 11.3918 18.3192 11.2993C18.3983 11.1729 18.5357 11.0483 18.5871 10.8933C18.5975 10.8605 18.4703 10.844 18.4769 10.7872C18.4837 10.7305 18.5555 10.6101 18.6018 10.5789C18.6482 10.5482 18.7246 10.6074 18.7479 10.6091C18.9447 10.6229 18.7831 10.3657 18.7853 10.3443C18.8408 9.95232 19.0859 9.69628 19.1817 9.34929C19.2529 9.08946 19.2638 8.79582 19.3004 8.55279C19.3309 8.35423 19.3731 8.17934 19.3898 8C19.3979 7.91214 19.3995 7.82268 19.3894 7.73019C19.3862 7.70056 19.2476 7.74507 19.2434 7.70996C19.1977 7.3377 19.1318 6.97796 19.0839 6.58315C19.079 6.54326 19.2132 6.54611 19.2148 6.50274C19.2296 6.24339 19.245 5.74295 18.7033 5.89871C18.6387 5.74863 18.5466 5.57393 18.5436 5.38878C18.5409 5.26887 18.7065 5.26231 18.5858 5.2008C18.5586 5.18709 18.4875 5.28826 18.4542 5.26283C18.3153 5.15731 18.2214 4.99183 18.0603 4.91264C18.0275 4.89687 17.9576 4.9775 17.9373 4.98399C17.7727 5.03612 17.8586 4.76277 17.8486 4.72797C17.7793 4.47196 17.6123 4.40136 17.4477 4.26755C17.4093 4.23656 17.3674 4.38471 17.3278 4.35943C17.3005 4.34177 17.2732 4.32368 17.246 4.30517C17.0709 4.18604 16.9022 4.05177 16.7532 3.89559C16.715 3.85519 16.8207 3.77748 16.8054 3.75275C16.7354 3.64439 16.5968 3.82928 16.5276 3.73265C16.5126 3.71248 16.575 3.62827 16.5769 3.61624C16.6058 3.4266 16.4315 3.62117 16.4145 3.61837C16.1911 3.58546 16.1849 3.2866 15.9741 3.23148C15.9491 3.22542 15.9464 3.36858 15.88 3.34456C15.4386 3.18615 14.9879 2.99034 14.559 2.76785C14.4923 2.73351 14.5679 2.65118 14.5666 2.63824C14.5404 2.43446 14.4286 2.66974 14.4037 2.67348C14.2055 2.69576 14.0733 2.44938 13.8892 2.72348C13.2775 2.51959 12.6334 2.5527 12 2.4523C11.8428 2.42754 11.685 2.39463 11.5241 2.34819C11.5137 2.34551 11.5263 2.21911 11.5055 2.21433C11.2537 2.15699 11.3109 2.35015 11.1714 2.60037C11.1374 2.66313 10.9892 2.38734 10.9752 2.36766C10.9273 2.29419 10.9502 2.10395 10.9351 2.09031C10.8085 1.98445 10.8935 2.59679 10.7491 2.61456C10.7444 2.61411 10.7496 2.49877 10.7359 2.48908C10.6929 2.45864 10.6607 2.50847 10.6178 2.47479C10.52 2.39688 10.4426 2.10412 10.3351 2.2984C10.3219 2.32367 10.4031 2.66517 10.2716 2.67101C10.2187 2.67253 9.9929 2.72207 9.92483 2.71407C9.85659 2.70546 9.87633 2.58565 9.87086 2.58181C9.66507 2.47397 9.71729 2.39924 9.57734 2.20452C9.43523 2.0118 9.58409 2.51692 9.56296 2.58251C9.5418 2.64777 9.38479 2.56103 9.34184 2.52845C9.29916 2.49557 9.31982 2.41557 9.28523 2.3998C9.05484 2.29907 9.27383 2.67383 9.23693 2.77098C9.15416 3.00062 8.93323 2.66123 8.78949 2.66885C8.75117 2.67084 8.80799 2.74541 8.77975 2.76373C8.66879 2.83516 8.55307 2.74724 8.45523 2.90384C8.43821 2.92969 8.41714 3.18953 8.2826 3.0591C8.26313 3.04031 8.25477 2.93858 8.19549 2.93959C8.10698 2.94074 7.96113 2.98123 7.89394 3.0482C7.84469 3.09745 7.97959 3.21128 7.88505 3.20054C7.84281 3.1959 7.864 3.0823 7.78732 3.08106C7.71044 3.07954 7.55441 3.16188 7.4969 3.19607C7.43933 3.22996 7.52838 3.32044 7.52736 3.3302C7.52025 3.3866 7.43868 3.49755 7.42933 3.50283C7.12513 3.68235 6.80013 3.79707 6.50169 3.96875C6.33304 4.06585 6.17432 4.18081 6.04357 4.33039C6.01518 4.36271 6.12198 4.43899 6.11853 4.4449C6.04866 4.58094 5.9034 4.2523 5.74853 4.2404C5.937 4.42015 5.86016 4.42663 5.80587 4.51967C5.78016 4.56455 5.87034 4.61701 5.87431 4.62755C5.93135 4.78613 5.7566 4.68303 5.71788 4.66493C5.57666 4.59721 5.6677 4.75664 5.5725 4.71336C5.47704 4.67156 5.42332 4.51393 5.35491 4.59142C5.40498 4.67471 5.63405 4.78394 5.61354 4.86534C5.53664 5.16452 5.085 5.45709 4.9522 5.64775C4.81955 5.8303 4.80276 5.9034 4.71336 6.00515C4.55518 6.19287 4.75618 6.19201 4.77524 6.35399C4.79791 6.51476 4.41242 6.28661 4.31585 6.27043C4.21904 6.25573 4.30155 6.31417 4.24286 6.32086C4.18402 6.32814 4.1449 6.24834 4.10309 6.30324C4.0599 6.35974 4.16309 6.58538 4.25287 6.63499C4.44117 6.74225 4.6735 6.73678 4.55559 6.86256C4.54868 6.87002 4.4444 6.80979 4.42357 6.84027C4.26146 7.08578 4.20286 7.37665 4.10176 7.65643C4.08768 7.69528 3.96089 7.64996 3.95124 7.67301C3.85372 7.91695 4.07825 7.84204 4.31865 7.97138C4.16172 7.95658 4.03405 7.96397 3.94419 8C3.849 8.03739 3.79627 8.1069 3.79943 8.20724C3.80368 8.32436 3.94426 8.29758 4.04851 8.3613C4.07984 8.3799 3.99001 8.46684 4.05772 8.47498C4.27897 8.49987 4.5118 8.4038 4.43682 8.59262C4.43325 8.60101 4.31209 8.59111 4.30842 8.61916C4.28603 8.80239 4.51444 8.79172 4.57649 8.96788C4.62512 9.10672 4.55399 9.39654 4.58386 9.57153C4.23333 9.67052 4.36424 9.81298 4.62388 9.7967C4.65043 9.90896 4.70425 10.0165 4.71174 10.1325C4.71442 10.1723 4.60719 10.187 4.5983 10.1956C4.45944 10.3314 4.70515 10.2875 4.7231 10.3063C4.90967 10.5161 4.83535 10.7946 5.11328 10.9414C5.12338 10.9467 5.35397 10.843 5.22158 10.9878C5.21253 10.9979 5.07117 10.9763 5.11956 11.0871C5.16769 11.1977 5.16183 11.4644 5.35083 11.5496C5.39625 11.5704 5.6229 11.5475 5.53138 11.7019C5.51892 11.7228 5.45132 11.7516 5.42592 11.7868C5.34595 11.9002 5.57533 11.7846 5.42748 11.9546C5.27936 12.1241 5.21917 12.3273 5.44437 12.3854C5.45134 12.3876 5.63985 12.3034 5.66888 12.3487C5.71526 12.4216 5.75558 12.5456 5.81265 12.6169C5.83995 12.651 5.92206 12.5517 5.9285 12.5563C6.16109 12.7389 6.20524 12.9663 6.3803 13.231C6.41265 13.2802 6.6479 13.2808 6.62791 13.4536C6.60844 13.6444 6.07801 13.9894 6.39371 14.0926C6.5246 14.1369 7.1574 13.658 7.03908 14.0941C7.40191 14.2784 7.569 14.6709 7.98442 14.779C8.00316 14.784 8.17112 14.6335 8.20348 14.6582C8.25174 14.6956 8.22499 14.7997 8.25886 14.8291C8.39978 14.9546 8.59024 14.9652 8.73887 15.0618C8.79575 15.0983 8.7248 15.1802 8.79419 15.2236C8.8642 15.2667 8.97461 15.1672 9.04298 15.2754C9.09421 15.3571 9.05053 15.6509 9.14346 15.7284C9.26119 15.4737 9.32893 15.5108 9.48172 15.4935C9.51102 15.4899 9.5223 15.3891 9.53798 15.3827C9.60194 15.3545 9.61423 15.4463 9.67737 15.4119C9.69261 15.4037 9.72732 15.3144 9.74151 15.3026C9.86216 15.198 9.90672 15.4422 9.91678 15.4851C9.9514 15.6475 10.0293 15.5418 10.0743 15.6148C10.1205 15.6879 10.0049 15.7255 10.0693 15.781C10.2041 15.8965 10.4132 15.9362 10.5741 15.9762C10.6387 15.9916 10.6218 15.857 10.6317 15.8563C10.7686 15.8533 10.881 16.0115 10.9954 15.7722C10.9836 16.4366 11.0852 15.7234 11.2519 15.8773C11.265 15.8896 11.2491 16.2014 11.1832 16.2393C11.1169 16.2772 11.039 16.1682 10.945 16.2252C10.9238 16.239 10.7586 16.5065 10.7382 16.5205C10.5851 16.6324 10.6593 16.1718 10.6587 16.1458C10.6444 15.8617 10.4444 16.1382 10.4012 16.1498C10.2121 16.2061 10.0889 16.1032 9.93203 16.1288C9.8294 16.1447 9.72539 16.4311 9.65499 16.3978C9.41875 16.2837 9.4991 15.859 9.14222 16.1103C9.06541 16.1629 8.97924 16.4896 8.91366 16.1744C8.90851 16.1543 8.88635 15.8811 8.75154 15.9842C8.73441 15.9971 8.69263 16.0848 8.67721 16.0864C8.57448 16.0952 8.55612 15.9997 8.45412 15.9887C8.35205 15.9777 8.22278 15.9708 8.14285 15.8878C8.09418 15.8379 8.11243 15.6392 8.10882 15.5855C8.09969 15.4321 7.91142 15.5618 7.94727 15.402C7.98515 15.2423 8.19578 15.0967 8.1361 14.9401C7.99604 15.1498 7.84632 15.3613 7.70168 15.5698C7.4377 15.3892 7.23276 15.1417 6.97928 14.9555C6.94759 14.9325 6.89483 15.0637 6.85836 15.0414C6.70429 14.9459 6.64718 14.7719 6.48373 14.6791C6.35693 14.6076 6.14346 14.6063 6.00829 14.5265C6.14134 14.2547 5.91749 14.171 5.82529 14.0353C5.79315 13.9883 5.8518 13.938 5.84308 13.892C5.80984 13.7199 5.67016 13.9439 5.61248 13.9406C5.36436 13.9222 5.7843 13.5264 5.64278 13.3836C5.6359 13.3767 5.31441 13.4723 5.28726 13.4692C5.11524 13.4567 5.35737 13.386 5.3285 13.3147C5.2762 13.184 5.27805 13.0679 5.11144 12.9974C5.06294 12.9776 4.84187 13.0019 4.90966 12.8422C4.91856 12.8213 5.00486 12.7671 5.00424 12.7561C4.98688 12.561 4.72347 12.7407 4.57741 12.7193C4.43108 12.6973 4.53032 12.446 4.56761 12.3862C4.66232 12.2294 4.66002 12.3998 4.67617 12.3947C4.86471 12.3319 4.77709 12.259 4.74664 12.1805C5.00448 12.0023 4.9295 11.9178 4.71429 12.0998C4.69092 12.12 4.74981 12.1589 4.74664 12.1805C4.4484 12.2844 4.34327 12.1903 4.5181 11.9211C4.60097 11.7959 4.76667 11.7706 4.62002 11.6291C4.55396 11.5643 4.38251 11.6999 4.29178 11.6569C4.0834 11.556 4.15295 11.2489 4.0443 11.0905C4.0046 11.0325 3.92605 11.1437 3.89511 11.1053C3.81288 11.0036 3.84794 10.8631 3.75708 10.7629C3.74866 10.7537 3.64548 10.8277 3.62857 10.7909C3.49838 10.5115 3.48083 10.2301 3.39078 9.92193C3.34595 9.77162 3.20967 9.51771 3.18871 9.34964C3.14951 9.06419 3.27664 8.68854 3.21555 8.45032C3.17605 8.29413 3.0557 8.33392 2.96775 8.26661C2.87698 8.19574 2.91704 8.086 2.983 8C3.04029 7.92327 3.11667 7.86427 3.13816 7.84975C3.13929 7.84908 3.16626 7.99117 3.23083 7.9167C3.36377 7.87615 3.13871 7.85174 3.13816 7.84975C3.16623 7.82841 3.21018 7.54871 3.19407 7.49098C3.18417 7.45936 3.06594 7.46483 3.06305 7.44821C2.99744 7.05196 3.05188 6.6454 3.22443 6.286C3.22879 6.28014 3.35046 6.32982 3.35908 6.31582C3.48302 6.12332 3.38344 5.93727 3.37031 5.7247C3.35757 5.51334 3.4565 5.38574 3.7059 5.3933C3.74396 5.25684 3.92914 5.13331 4.03822 5.07192C4.14725 5.01 3.94112 4.86043 3.94234 4.84888C3.97929 4.49662 4.20956 4.429 4.42791 4.19773C4.53227 4.08682 4.70553 3.83894 4.80207 3.70286C4.87732 3.59446 4.97523 3.58277 5.0354 3.47382C5.04372 3.45906 4.95425 3.38723 4.95488 3.38066C4.96226 3.18855 5.10231 3.43749 5.15585 3.45556C5.35014 3.52297 5.45495 3.55728 5.52513 3.38716C5.54068 3.34856 5.37388 2.96815 5.418 2.90359C5.47384 2.82189 5.53369 2.95683 5.58983 2.86994C5.59478 2.86264 5.53963 2.79331 5.59079 2.75967C5.59171 2.75907 5.59262 2.75847 5.59353 2.75787C5.82903 2.60239 6.10811 2.47548 6.34816 2.31966C6.38139 2.29852 6.2653 2.20482 6.31277 2.17204C6.53585 2.01829 6.80035 1.8813 7.06256 1.82631C7.12723 1.81323 7.13413 1.9191 7.15926 1.93929C7.31068 2.06165 7.30801 1.78051 7.32502 1.76747C7.70804 1.45897 8.12732 1.54701 8.54224 1.29923C8.56335 1.28537 8.679 0.963049 8.8303 1.16567C8.84105 1.17889 8.98859 1.38773 9.0199 1.20891C9.02203 1.19771 8.93684 1.09183 9.03281 1.07956C9.12818 1.06745 9.25988 0.949393 9.41844 1.05351C9.46915 1.08609 9.6129 1.30026 9.69353 1.08843C9.6965 1.07382 9.80586 0.611011 9.92736 0.893613C9.94711 0.940261 9.99024 1.25327 10.1057 1.06943C10.1281 1.0339 10.0665 0.972385 10.1324 0.917057C10.2345 0.8318 10.3945 0.894112 10.5158 0.736973C10.5363 0.709192 10.6172 0.482989 10.7191 0.636174C10.7348 0.66018 10.7214 0.767822 10.7663 0.774987C10.9795 0.809748 11.1921 0.722486 11.4076 0.784971C11.4834 0.807048 11.4534 0.979361 11.5317 1.02187C11.6101 1.06427 11.7632 1.10413 11.8418 1.02526C11.921 0.946291 11.8294 0.674801 11.9525 0.652207C11.9683 0.649352 11.9841 0.646751 12 0.644392C12.5236 0.566913 13.0345 0.751439 13.5413 0.840844C13.6194 0.854797 13.5671 0.749231 13.6837 0.763664C14.1111 0.811036 14.8758 0.883448 15.1805 1.19139C15.4206 1.43397 15.0273 1.45025 15.2232 1.57832C15.3152 1.63933 15.523 1.37378 15.5522 1.37289C15.8327 1.35838 15.957 1.55305 16.1903 1.59913C16.2388 1.6089 16.242 1.472 16.2832 1.4819C16.425 1.515 16.5414 1.62711 16.6703 1.67401C16.7285 1.69495 16.759 1.6012 16.8078 1.63213C16.9247 1.70531 17.016 1.79588 17.0919 1.938C17.0985 1.95084 16.9717 2.02264 17.0576 2.07194C17.1974 2.15205 17.3256 2.32581 17.5316 2.33951C17.5928 2.34333 17.7115 2.15286 17.7328 2.34764C17.7374 2.38866 17.5674 2.5987 17.8078 2.47625C17.8462 2.45424 18.2206 2.32515 18.2021 2.55991C18.1973 2.62138 18.1323 2.84495 18.2056 2.85583C18.2162 2.85677 18.2577 2.73805 18.3096 2.76161C18.3327 2.77239 18.3553 2.78405 18.3776 2.79638C18.5321 2.88205 18.6694 2.99879 18.8274 3.09064C18.8759 3.11866 18.8944 2.97042 18.9647 3.01598C19.1592 3.14201 19.3485 3.36532 19.4762 3.55584C19.5231 3.62615 19.4086 3.65545 19.4048 3.66765C19.3373 3.86163 19.5556 3.73587 19.5885 3.75071C19.7879 3.84342 19.7994 4.03732 19.9379 4.16455C19.976 4.20035 20.0463 4.0995 20.061 4.10124C20.2084 4.12517 19.9918 4.1893 20.0142 4.25717C20.0757 4.44795 20.2021 4.61416 20.3171 4.76972C20.3596 4.82709 20.4327 4.68684 20.4699 4.74008C20.6917 5.05436 20.8656 5.42917 20.934 5.81066C20.9466 5.88249 20.8324 5.87831 20.8154 5.90072C20.6947 6.05217 20.9572 6.11215 20.9891 6.13994C21.1327 6.25892 21.0617 6.34642 21.1149 6.47545C21.2977 6.91724 21.368 7.48556 21.3402 8C21.3292 8.22259 21.3024 8.43721 21.272 8.62446C21.134 9.43259 20.8756 9.97062 20.649 10.6501C20.634 10.6934 20.7808 10.7003 20.7693 10.7387C20.6138 11.2307 20.3471 11.6569 20.1328 12.1144C20.1149 12.152 20.2596 12.1654 20.2343 12.2284C20.1828 12.3585 20.0858 12.5054 19.976 12.6C19.9227 12.6462 19.8751 12.5092 19.8236 12.5565C19.7033 12.6664 19.6039 12.7986 19.5294 12.9423C19.4978 13.0037 19.6681 12.9964 19.6178 13.0707C19.2778 13.576 18.905 14.0616 18.3517 14.3785C18.3135 14.4004 18.0925 14.2334 18.0685 14.3318C18.1176 14.3905 18.1811 14.4539 18.2365 14.5138C17.6396 15.1682 16.8811 15.6444 16.0995 16.0812C16.0663 16.0997 16.1966 16.1927 16.1319 16.2295C15.7585 16.4413 15.3891 16.667 14.9218 16.6973C14.8756 16.7003 14.8028 16.4543 14.6992 16.5352C14.6812 16.5501 14.5138 16.6472 14.484 16.7155C14.4801 16.7256 14.5527 16.8273 14.4939 16.8509C14.1519 16.9857 13.7653 17.0593 13.3906 17.0547C13.3304 17.0536 13.3688 16.917 13.3263 16.915C13.0281 16.9013 12.7203 17.0353 12.4317 16.9363C12.2422 16.8686 12.3005 16.6447 12.2002 16.4316C12.1863 16.4016 12.0788 16.3989 12.0722 16.2727C12.056 15.9558 12.0983 15.6081 12.0747 15.2704C12.0699 15.198 11.9527 15.2767 12.0216 15.1006C12.0266 15.089 12.1093 15.0296 12.1276 14.9693C12.1404 14.9277 12.1127 14.8001 12.1388 14.7466C12.1642 14.6931 12.1983 14.7995 12.2409 14.7354C12.2827 14.6703 12.2552 14.5261 12.3401 14.5031ZM4.53248 4.81692C4.68815 4.81152 4.33788 4.53075 4.35921 4.68313C4.36069 4.69084 4.52465 4.81748 4.53248 4.81692ZM7.43924 14.8674C7.46004 14.6365 7.21733 14.8162 7.19432 14.9911C7.17387 15.1673 7.43429 14.9382 7.43924 14.8674ZM8.584 15.4259C8.53609 15.2221 8.2038 15.7651 8.40579 15.7292C8.41751 15.7273 8.58705 15.4378 8.584 15.4259ZM12.6206 16.3438C12.6188 16.3381 12.5421 16.339 12.5408 16.3449C12.511 16.4905 12.6676 16.4885 12.6206 16.3438ZM9.77998 15.7842C9.76763 15.6891 9.61649 15.7393 9.63035 15.8584C9.6427 15.955 9.79688 15.9035 9.77998 15.7842ZM8.71641 2.46238C8.71991 2.46822 8.77113 2.45757 8.75834 2.42202C8.717 2.30742 8.658 2.36333 8.71641 2.46238ZM11.8293 16.1595C11.5139 16.1247 11.3906 15.5832 11.6947 15.6637C11.7513 15.6776 11.5626 15.824 11.6324 15.8755C11.7659 15.9696 11.8631 15.6425 11.9975 15.8197C12.0243 15.8525 11.8489 16.1631 11.8287 16.1602C11.8289 16.1599 11.8291 16.1597 11.8293 16.1595ZM4.99919 5.09162C5.00493 5.09365 5.05245 5.03955 5.0488 5.0348C4.95916 4.91692 4.86125 5.02852 4.99919 5.09162ZM11.7061 2.21867C11.7104 2.2309 11.8732 2.23947 11.8783 2.22807C11.9624 1.99348 11.6254 1.97538 11.7061 2.21867ZM4.57534 9.5769C4.73379 9.60696 4.77553 9.68226 4.62395 9.79631C4.60931 9.72216 4.58809 9.65039 4.57534 9.5769Z" fill="black"/>
<path d="M10.4874 9.28305C10.5294 9.44866 10.4959 9.66678 10.4482 9.83613C10.4335 9.88918 10.3526 9.86748 10.3389 9.90455C10.3123 9.97711 10.3558 10.0406 10.3242 10.1129C10.3134 10.1371 10.1857 10.1176 10.1772 10.1429C10.1321 10.2819 10.1755 10.4063 10.163 10.545C10.1021 11.2287 10.1703 11.8985 10.2942 12.5654C10.3347 12.7843 10.3077 13.0795 10.4337 13.2776C10.4484 13.3004 10.5467 13.2474 10.557 13.249C10.7148 13.2735 10.4967 13.3271 10.4873 13.386C10.4713 13.4889 10.4786 13.5897 10.5025 13.6824C10.5329 13.8003 10.5898 13.9057 10.6589 13.9915C10.7124 14.0569 10.8714 13.8847 10.7983 14.0126C10.7935 14.0215 10.6797 14.0569 10.6788 14.0825C10.6771 14.1412 10.7417 14.2161 10.7531 14.2548C10.774 14.329 10.782 14.3403 10.8173 14.401C10.865 14.4848 10.8799 14.6135 10.9616 14.6803C10.9792 14.6941 11.0598 14.6006 11.0959 14.615C11.1316 14.6294 11.1756 14.7025 11.1723 14.7427C11.1686 14.7829 11.0882 14.834 11.0749 14.8519C10.9636 15.005 11.2242 14.9157 11.2354 14.9177C11.464 15.0041 11.5063 15.2182 11.6672 15.2972C11.7863 15.3533 11.9085 15.3315 12 15.3363C12.0008 15.3364 12.0016 15.3364 12.0024 15.3365C12.1119 15.344 12.2381 15.3803 12.368 15.3027C12.3812 15.2947 12.3009 15.1769 12.3152 15.1677C12.4647 15.07 12.6376 14.9406 12.8722 14.8081C12.896 14.7946 12.9703 14.8997 13.0004 14.8902C13.181 14.8368 13.5544 14.7186 13.1414 14.3522C13.2178 14.2673 13.3028 14.1579 13.4476 14.1133C13.5411 14.0839 13.6323 14.2041 13.6187 14.1017C13.6156 14.0787 13.4983 14.0489 13.5015 14.0188C13.5127 13.9141 13.5744 13.8266 13.5906 13.7223C13.594 13.7003 13.5952 13.6777 13.5933 13.6541C13.5909 13.6268 13.4902 13.5923 13.4752 13.5787C13.3535 13.4682 13.6255 13.4762 13.6507 13.4621C13.838 13.3614 13.8269 13.2287 13.8775 13.0859C13.8892 13.0527 13.7407 13.0479 13.747 13.0147C13.7811 12.8433 13.8431 12.6748 13.9485 12.5243C13.9723 12.4909 14.0807 12.5561 14.0981 12.5415C14.1735 12.4757 13.9554 12.402 14.0222 12.3385C14.036 12.3249 14.1348 12.3587 14.1467 12.3584C14.3323 12.3543 14.0947 12.2548 14.0919 12.242C14.052 12.0762 14.3319 12.0366 14.3251 11.8803C14.3239 11.8618 14.187 11.8754 14.1915 11.8254C14.2207 11.4909 14.3102 11.1507 14.4544 10.8307C14.4767 10.7809 14.5705 10.8294 14.583 10.8276C14.7785 10.7963 14.5288 10.7321 14.5211 10.7144C14.4671 10.5745 14.6921 10.4686 14.3973 10.3511C14.521 9.90613 14.4472 9.45031 14.5477 9C14.5725 8.88851 14.6078 8.77671 14.6592 8.66371C14.6622 8.65642 14.7882 8.66675 14.7936 8.65213C14.8599 8.47565 14.6653 8.51367 14.4226 8.40924C14.3617 8.38352 14.6462 8.28463 14.6669 8.27542C14.7434 8.24346 14.9315 8.26437 14.9461 8.25412C15.0607 8.16828 14.4439 8.21198 14.4379 8.10813C14.4388 8.10478 14.5532 8.1121 14.564 8.10265C14.5979 8.07316 14.5511 8.04868 14.5885 8.01949C14.6752 7.95287 14.9735 7.90922 14.7922 7.82649C14.7686 7.81624 14.4204 7.85996 14.4296 7.76587C14.4338 7.72828 14.4135 7.56479 14.4315 7.5169C14.4497 7.46879 14.5652 7.48933 14.5698 7.48563C14.7061 7.3456 14.7723 7.38682 14.9857 7.29977C15.1979 7.21153 14.6772 7.28646 14.616 7.26746C14.5551 7.24841 14.6669 7.143 14.7066 7.11472C14.7464 7.08679 14.8212 7.10654 14.8428 7.08327C14.9833 6.92841 14.5765 7.05689 14.4882 7.02399C14.2791 6.94811 14.6543 6.81644 14.6778 6.71479C14.6841 6.68765 14.5995 6.72172 14.5878 6.7003C14.5428 6.61545 14.6543 6.54195 14.5269 6.45809C14.5061 6.44389 14.2613 6.40391 14.4209 6.32061C14.4439 6.30863 14.5434 6.31265 14.5578 6.27054C14.5796 6.20792 14.5804 6.10011 14.5362 6.04575C14.5034 6.00531 14.3571 6.08894 14.3943 6.02259C14.4108 5.99299 14.5122 6.02067 14.5356 5.96634C14.5591 5.91237 14.5286 5.79194 14.5149 5.74721C14.5013 5.70223 14.3886 5.75446 14.3798 5.75259C14.3291 5.74064 14.2518 5.66825 14.2501 5.66083C14.1442 5.28562 14.2369 4.87551 14.0403 4.53496C14.0252 4.50864 13.9119 4.57169 13.9083 4.56813C13.8225 4.49143 14.1698 4.44797 14.2503 4.33863C14.0112 4.44106 14.0403 4.38453 13.9868 4.32704C13.9609 4.29969 13.8745 4.35482 13.8638 4.35565C13.7033 4.3659 13.8725 4.25889 13.9062 4.23447C14.014 4.15715 13.8944 4.17228 13.9158 4.13835C13.9189 4.13318 13.9252 4.12688 13.9359 4.11895C14.0169 4.05795 14.1732 4.05123 14.1426 3.9855C14.0495 4.00471 13.8474 4.14923 13.7903 4.11716C13.5787 3.99965 13.5863 3.59762 13.5185 3.45087C13.4546 3.30661 13.4118 3.27513 13.3883 3.18107C13.3431 3.01177 13.231 3.16587 13.1075 3.13951C12.9846 3.1168 13.3586 2.8748 13.4241 2.80371C13.4884 2.73154 13.4015 2.78036 13.4297 2.73223C13.4574 2.68367 13.5347 2.67502 13.5198 2.6265C13.5039 2.57602 13.2914 2.59413 13.2093 2.65333C13.034 2.77607 12.9088 2.96448 12.893 2.83786C12.892 2.83035 12.9881 2.76124 12.9798 2.73648C12.9079 2.54004 12.7572 2.41279 12.6244 2.25262C12.6057 2.23022 12.6876 2.12658 12.6763 2.11179C12.5519 1.95885 12.5103 2.18393 12.353 2.3828C12.4829 2.08715 12.5054 1.87768 12.3558 1.83767C12.268 1.81644 12.2542 1.95898 12.1895 2.04909C12.1716 2.07639 12.1283 1.97363 12.1117 2.03917C12.0637 2.25379 12.0871 2.49654 12 2.39795C12 2.39791 11.9999 2.39787 11.9999 2.39783C11.9985 2.39621 11.9991 2.38038 12 2.36025C12.0012 2.33376 12.0029 2.29983 12 2.28098C11.9988 2.27352 11.9969 2.26842 11.9939 2.26712C11.8845 2.22327 11.8923 2.45173 11.812 2.49642C11.7518 2.52999 11.5704 2.45014 11.4646 2.48521C11.2925 2.16363 11.2221 2.30228 11.3321 2.53246C11.2681 2.56349 11.2166 2.62139 11.1409 2.64093C11.1148 2.6479 11.0577 2.55802 11.0479 2.55141C10.8909 2.45147 11.0294 2.65628 11.0251 2.67346C10.9659 2.85793 10.7292 2.85008 10.7672 3.09835C10.7685 3.10753 10.9659 3.26518 10.7913 3.1912C10.7791 3.1865 10.7201 3.07209 10.6649 3.13285C10.6113 3.19114 10.4094 3.24976 10.4499 3.41054C10.4592 3.44962 10.6022 3.61099 10.4359 3.57999C10.4133 3.57587 10.3541 3.53319 10.3135 3.52312C10.1834 3.4927 10.3985 3.63152 10.1876 3.56556C9.97671 3.4997 9.78663 3.51124 9.86694 3.68899C9.86909 3.69456 10.0387 3.80874 10.0199 3.84115C9.9896 3.89291 9.9155 3.95431 9.89144 4.01318C9.87993 4.04149 10.0031 4.07344 10.0031 4.0792C10.0025 4.08716 10.0018 4.09495 10.0008 4.10259C9.97772 4.29748 9.82911 4.38764 9.71453 4.57069C9.69235 4.60571 9.81796 4.76806 9.66577 4.7987C9.4986 4.8348 8.9368 4.5613 9.01619 4.80345C9.04752 4.90336 9.7725 5.21298 9.34446 5.24201C9.37002 5.53396 9.10954 5.73949 9.19557 6.04234C9.19933 6.05599 9.40623 6.13648 9.3979 6.16417C9.38504 6.20555 9.28038 6.20963 9.26813 6.23892C9.21431 6.36139 9.28073 6.49262 9.24811 6.61321C9.23596 6.65927 9.13407 6.62679 9.11976 6.68204C9.10563 6.73744 9.23778 6.7948 9.16082 6.86095C9.10227 6.9109 8.81268 6.93207 8.77004 7.00637C9.04795 7.04394 9.03541 7.09643 9.09828 7.19799C9.11051 7.21753 9.20966 7.20938 9.22045 7.21916C9.26655 7.25894 9.18265 7.28191 9.23361 7.3203C9.24584 7.32959 9.34102 7.34009 9.35641 7.34818C9.49086 7.41687 9.26776 7.48507 9.22897 7.49736C9.08152 7.54367 9.20303 7.58325 9.14317 7.62424C9.08335 7.66549 9.01939 7.59054 8.98088 7.64165C8.90118 7.74803 8.90602 7.89479 8.89477 8.009C8.89086 8.05466 9.02033 8.03104 9.02273 8.03776C9.04949 8.13313 8.90906 8.22209 9.16114 8.28539C8.50069 8.32224 9.22221 8.34448 9.08597 8.47237C9.07498 8.48244 8.76336 8.48647 8.71905 8.44352C8.6748 8.40041 8.77436 8.34162 8.70568 8.28136C8.6895 8.26737 8.40177 8.17512 8.38472 8.16308C8.25109 8.07083 8.71646 8.08413 8.74217 8.08136C9.02016 8.04737 8.7123 7.935 8.69241 7.90764C8.60078 7.78592 8.67364 7.69266 8.61107 7.59066C8.57079 7.52364 8.2679 7.48992 8.28187 7.44007C8.32872 7.27319 8.75729 7.2635 8.40919 7.06501C8.33515 7.02232 8.00021 7.01564 8.27533 6.92506C8.29268 6.91901 8.5417 6.86038 8.39861 6.7884C8.38056 6.7793 8.28435 6.76642 8.27746 6.75663C8.23319 6.69122 8.31525 6.66317 8.28791 6.59443C8.26057 6.52584 8.21785 6.44034 8.26215 6.37294C8.28865 6.33231 8.47644 6.30612 8.52359 6.29319C8.65913 6.25699 8.46429 6.15842 8.62288 6.14974C8.78212 6.14202 9.00136 6.25298 9.11691 6.17971C8.86963 6.13008 8.61669 6.0745 8.36853 6.02189C8.41715 5.81146 8.54068 5.62148 8.57981 5.40904C8.58444 5.38262 8.44619 5.37781 8.44784 5.34844C8.4558 5.22356 8.57589 5.14365 8.57188 5.01127C8.56845 4.90811 8.4604 4.76345 8.45626 4.6517C8.75101 4.67293 8.70282 4.49825 8.76401 4.3993C8.78529 4.36457 8.85746 4.39182 8.89023 4.3736C9.01219 4.30513 8.75542 4.26775 8.72714 4.22689C8.60865 4.04883 9.1546 4.23581 9.19175 4.09832C9.19342 4.09207 8.94183 3.89087 8.92939 3.87076C8.84519 3.74546 9.03386 3.89783 9.07467 3.85783C9.11466 3.81867 9.15997 3.79154 9.18759 3.75407C9.21202 3.72068 9.22292 3.67949 9.20593 3.61467C9.19469 3.57434 9.05443 3.41979 9.21671 3.42427C9.23795 3.42486 9.32768 3.47296 9.33599 3.46938C9.47833 3.40283 9.19363 3.25893 9.13097 3.14328C9.06838 3.02763 9.31874 3.02853 9.38489 3.04067C9.55774 3.06803 9.42441 3.11446 9.43733 3.12486C9.58874 3.24869 9.59684 3.16369 9.64104 3.11862C9.9183 3.26452 9.94144 3.1867 9.68548 3.07219C9.65734 3.05991 9.65941 3.11508 9.64104 3.11862C9.3986 2.92259 9.4179 2.81033 9.71799 2.87205C9.85855 2.90182 9.96505 3.02486 9.99575 2.87291C10.0104 2.80436 9.81714 2.70502 9.80366 2.62074C9.7748 2.42591 10.0502 2.39625 10.1222 2.26515C10.1496 2.21605 10.0251 2.17921 10.0415 2.14238C10.0857 2.04368 10.2135 2.0373 10.257 1.93159C10.2611 1.9217 10.1574 1.84999 10.1811 1.82488C10.3631 1.63214 10.5991 1.54316 10.8622 1.39738C10.9862 1.32564 11.2168 1.15195 11.389 1.12213C11.5765 1.08456 11.8093 1.13168 12 1.17623C12.1066 1.20015 12.2027 1.22111 12.2893 1.21747C12.4476 1.21384 12.4372 1.08894 12.5268 1.02166C12.7131 0.893756 12.8541 1.25755 12.8543 1.30928C12.8547 1.31027 12.7231 1.29099 12.7647 1.37482C12.7522 1.51177 12.8521 1.30903 12.8543 1.30928C12.8644 1.34174 13.0764 1.47518 13.127 1.48087C13.1563 1.48287 13.2023 1.37413 13.217 1.37746C13.566 1.46011 13.8442 1.66221 14.0113 1.92125C14.0132 1.92675 13.9122 2.0105 13.9176 2.0221C13.9887 2.18479 14.1765 2.1617 14.3381 2.21487C14.4986 2.26776 14.5383 2.38114 14.3949 2.57096C14.4742 2.63742 14.4651 2.81069 14.4519 2.90714C14.4394 3.00453 14.6653 2.88661 14.6734 2.89032C14.9228 3.00285 14.8537 3.18745 14.927 3.39448C14.9498 3.4602 15.0096 3.55821 15.0666 3.64513C15.0952 3.68842 15.1234 3.72898 15.1465 3.7605C15.2007 3.83382 15.1648 3.90588 15.2292 3.96713C15.2379 3.97554 15.34 3.92473 15.3453 3.9263C15.5049 3.96408 15.2294 4.0206 15.1895 4.0554C15.044 4.18163 14.967 4.24996 15.084 4.32753C15.1105 4.34449 15.5138 4.28838 15.5516 4.32815C15.5996 4.3791 15.456 4.40082 15.5092 4.45291C15.5136 4.45739 15.5976 4.42944 15.6062 4.46962C15.6475 4.65621 15.6544 4.86648 15.7119 5.05129C15.7194 5.07676 15.8465 5.00827 15.8596 5.04485C15.9212 5.21598 15.9617 5.41076 15.934 5.59505C15.9268 5.64027 15.8251 5.63455 15.7985 5.64966C15.6377 5.74081 15.9046 5.76716 15.912 5.77956C16.0952 6.06802 15.907 6.34521 16.0611 6.64394C16.0699 6.65927 16.3606 6.75766 16.1343 6.8472C16.1194 6.85355 15.8875 6.94121 16.0573 6.97293C16.0679 6.97497 16.1867 6.92347 16.1818 6.98899C16.1768 7.05389 16.2708 7.14897 16.1441 7.25053C16.1042 7.28305 15.8715 7.37086 16.0698 7.43491C16.0836 7.43804 16.5268 7.53018 16.2324 7.60076C16.1839 7.61226 15.868 7.62943 16.0372 7.71479C16.07 7.73118 16.1378 7.69179 16.1854 7.73814C16.2588 7.80961 16.1809 7.91588 16.3269 8.00175C16.3528 8.01646 16.5712 8.07598 16.4111 8.14062C16.386 8.15066 16.2797 8.13911 16.2693 8.16922C16.2193 8.31211 16.2951 8.45651 16.2252 8.60083C16.2007 8.6518 16.0294 8.62971 15.9846 8.68234C15.9399 8.73502 15.8972 8.83913 15.9755 8.89263C16.0538 8.94654 16.3258 8.88534 16.3479 8.96809C16.3507 8.97872 16.3532 8.98936 16.3556 9C16.4331 9.35097 16.2719 9.6949 16.2286 10.0396C16.2219 10.0925 16.3219 10.0543 16.3187 10.133C16.3092 10.4221 16.3504 10.9371 16.1112 11.1616C15.9208 11.3395 15.8285 11.0732 15.7417 11.215C15.7002 11.2823 16.0022 11.4054 16.0094 11.4251C16.084 11.6136 15.9258 11.7132 15.9409 11.8756C15.944 11.9094 16.0759 11.9001 16.077 11.9289C16.082 12.0279 16.0069 12.1165 15.9992 12.2086C15.996 12.25 16.0935 12.2618 16.0785 12.298C16.0434 12.3845 15.9861 12.4553 15.8771 12.5218C15.8672 12.5278 15.7601 12.4485 15.741 12.5125C15.7104 12.6167 15.5914 12.7249 15.6512 12.8682C15.6692 12.9109 15.8855 12.9695 15.7154 13.0078C15.6797 13.016 15.4261 12.9248 15.6257 13.0756C15.6593 13.0998 15.9174 13.3401 15.7007 13.3589C15.6439 13.3637 15.4183 13.35 15.4381 13.4028C15.4416 13.4103 15.5638 13.4222 15.5639 13.4616C15.562 13.5999 15.5057 13.7295 15.4951 13.8723C15.4924 13.911 15.6284 13.8999 15.6202 13.9566C15.5982 14.1123 15.498 14.2842 15.4026 14.4106C15.3673 14.4571 15.2874 14.381 15.2755 14.3805C15.2082 14.3768 15.19 14.3898 15.195 14.4099C15.2042 14.4479 15.2945 14.5108 15.2973 14.5278C15.3209 14.6879 15.1707 14.7365 15.1418 14.8645C15.1335 14.8997 15.2498 14.9295 15.256 14.9404C15.3139 15.0536 15.1503 14.9092 15.1084 14.9406C14.9911 15.0267 14.9296 15.1602 14.8742 15.2846C14.8537 15.3309 14.9999 15.3508 14.9797 15.3921C14.8622 15.6372 14.6834 15.8783 14.4425 16.0541C14.3969 16.0871 14.3378 15.9938 14.3122 15.9872C14.1371 15.9366 14.2356 16.1699 14.2321 16.2056C14.2214 16.3641 14.119 16.336 14.0511 16.4259C13.7315 16.8727 12.9368 17.2964 12.2076 17.2954C12.1373 17.2973 12.068 17.296 12 17.2917C11.1605 17.2252 10.6581 16.8215 10.1946 16.4655C10.1624 16.4397 10.1028 16.5726 10.0732 16.5509C9.6926 16.2598 9.47909 15.8962 9.2271 15.5858C9.20646 15.5597 9.12185 15.6723 9.08457 15.6319C9.00824 15.5508 8.94237 15.4277 8.9264 15.3138C8.91847 15.2586 9.05134 15.263 9.04176 15.2091C9.01989 15.0835 8.97058 14.9698 8.89808 14.8716C8.86732 14.8305 8.78011 14.9593 8.74928 14.9003C8.68104 14.7709 8.61761 14.6447 8.56208 14.514C8.44439 14.237 8.36644 13.9474 8.38951 13.6327C8.39183 13.6009 8.6455 13.4922 8.57717 13.4506C8.50301 13.4691 8.41745 13.4962 8.33903 13.5186C8.11272 12.9414 8.07378 12.3365 7.99012 11.7489C7.98656 11.7239 7.85007 11.791 7.84242 11.7425C7.79851 11.4632 7.7209 11.1942 7.83309 10.8931C7.84408 10.8634 8.10018 10.8496 8.053 10.7721C8.04436 10.7586 7.99791 10.6381 7.93965 10.6113C7.93089 10.6077 7.81396 10.6418 7.80671 10.6018C7.76676 10.369 7.77638 10.1201 7.8376 9.88341C7.84772 9.84528 7.97691 9.87881 7.98525 9.85175C8.04342 9.6608 7.94014 9.4589 8.05295 9.27723C8.12908 9.15631 8.34989 9.19787 8.56597 9.13392C8.59644 9.12495 8.6009 9.05296 8.72701 9.04897C9.04402 9.03891 9.39129 9.07117 9.72917 9.05627C9.8019 9.05318 9.72344 8.96388 9.89937 9.01663C9.91111 9.02035 9.96969 9.08447 10.0295 9.09971C10.0708 9.11032 10.1989 9.08995 10.2519 9.11161C10.3048 9.13312 10.1975 9.15831 10.26 9.19417C10.3234 9.22975 10.4689 9.21176 10.4874 9.28305ZM14.3822 3.33597C14.3041 3.45148 14.7085 3.25693 14.5782 3.23869C14.5714 3.23806 14.3859 3.3301 14.3822 3.33597ZM8.87263 5.69596C9.08388 5.65701 8.81339 5.536 8.65092 5.56068C8.48844 5.58675 8.80844 5.70865 8.87263 5.69596ZM8.8549 6.57858C9.02399 6.50702 8.39845 6.39002 8.50878 6.51641C8.51499 6.52375 8.84508 6.58287 8.8549 6.57858ZM8.6324 9.41896C8.63831 9.41793 8.64291 9.36621 8.637 9.3651C8.4939 9.34051 8.48481 9.44486 8.6324 9.41896ZM8.90515 7.44443C8.99362 7.42283 8.90356 7.32691 8.79331 7.35322C8.7045 7.37485 8.79496 7.47172 8.90515 7.44443ZM14.894 6.67977C14.8875 6.68173 14.8869 6.71847 14.9242 6.71226C15.0442 6.69208 15.0027 6.64672 14.894 6.67977ZM8.83868 8.8829C8.86456 8.66826 9.39339 8.55664 9.32995 8.7796C9.31862 8.82045 9.16374 8.68883 9.11555 8.74023C9.02776 8.83592 9.3572 8.90138 9.18031 8.99821C9.14787 9.01641 8.83594 8.89557 8.83795 8.88252C8.83819 8.88265 8.83844 8.88278 8.83868 8.8829ZM13.921 3.61725C13.9164 3.62102 13.9341 3.66811 13.9398 3.66661C14.0796 3.62717 14.0429 3.52999 13.921 3.61725ZM14.7841 8.79322C14.7716 8.7962 14.7608 8.91066 14.7724 8.91434C15.0059 8.97371 15.0284 8.73855 14.7841 8.79322ZM11.4585 2.47754C11.4893 2.62449 11.4642 2.66038 11.3324 2.53249C11.3755 2.5147 11.415 2.49178 11.4585 2.47754Z" fill="black"/>
</svg>
