<svg width="24" height="24" viewBox="0 0 24 24" fill="none" xmlns="http://www.w3.org/2000/svg">
<path d="M3.64114 12.5009C3.71438 12.7921 3.79351 13.1671 3.85118 13.4516C3.86933 13.5408 3.81557 13.5038 3.82616 13.5661C3.84691 13.6881 3.90342 13.7934 3.92449 13.9133C3.93118 13.9532 3.84756 13.9213 3.85587 13.9632C3.90153 14.1933 3.99771 14.3964 4.07517 14.6191C4.14219 14.8128 4.2161 15.0035 4.2968 15.1908C4.67367 16.0664 5.1999 16.865 5.84989 17.5774C5.936 17.6718 6.02421 17.7767 6.11702 17.883C6.30421 18.0976 6.51227 18.3186 6.74425 18.4583C6.78475 18.4825 6.82395 18.3897 6.83607 18.3888C7.02338 18.374 6.86352 18.5013 6.92088 18.576C7.14881 18.8709 7.49043 19.1016 7.81629 19.2341C7.95515 19.2899 7.92559 19.0417 7.99959 19.2109C8.00498 19.2225 7.91841 19.301 7.94878 19.3302C8.01781 19.3969 8.18444 19.4581 8.2453 19.4964C8.36253 19.5714 8.38407 19.58 8.50332 19.6341C8.59069 19.674 8.68159 19.7303 8.7772 19.7805C8.85971 19.8239 8.94563 19.8626 9.03386 19.8818C9.07449 19.8902 9.06454 19.7631 9.13233 19.7661C9.19996 19.7693 9.3581 19.832 9.40469 19.8752C9.45114 19.9186 9.39932 19.9991 9.40261 20.0222C9.43054 20.2189 9.69815 20.038 9.72298 20.0375C10.1994 20.0566 10.5596 20.2685 11.0005 20.3207C11.3306 20.3587 11.6863 20.3312 12 20.3363C12 20.3363 12 20.3363 12 20.3363C12.0026 20.3364 12.0052 20.3364 12.0078 20.3365C12.3837 20.3436 12.7099 20.3873 13.0755 20.3299C13.1139 20.3238 13.0507 20.1895 13.0969 20.1818C13.5874 20.0995 14.0668 20.0074 14.5718 19.945C14.6227 19.9387 14.599 20.0767 14.6527 20.0772C14.8454 20.0777 15.1205 20.0937 15.3069 19.9835C15.4366 19.9072 15.5202 19.7717 15.4947 19.5398C15.6919 19.4726 15.9245 19.3778 16.1415 19.3799C16.2819 19.3806 16.2454 19.5562 16.3482 19.4308C16.3712 19.4025 16.2737 19.3234 16.3121 19.289C16.4728 19.1446 16.6889 19.0511 16.8259 18.8813C16.8535 18.8466 16.7833 18.7675 16.7821 18.7452C16.7737 18.5644 17.0556 18.6702 17.0971 18.6613C17.4032 18.5996 17.5299 18.4227 17.7256 18.2498C17.7711 18.2094 17.6232 18.1543 17.6629 18.1122C17.7354 18.0359 17.81 17.9604 17.8866 17.8866C18.0282 17.7504 18.1767 17.6202 18.333 17.5026C18.3868 17.4624 18.4371 17.5858 18.4676 17.5703C18.6017 17.4988 18.4487 17.3315 18.5697 17.2596C18.595 17.2439 18.6646 17.3196 18.6766 17.3226C18.8651 17.3675 18.713 17.1582 18.7208 17.1392C18.8185 16.8885 19.1266 16.9002 19.238 16.6625C19.2507 16.6344 19.106 16.6227 19.1478 16.5484C19.3831 16.1264 19.6355 15.6929 19.8882 15.2674C19.9326 15.1928 19.977 15.1185 20.0215 15.0446C20.0675 14.9675 20.1338 15.0596 20.1467 15.0587C20.3505 15.0356 20.1409 14.895 20.1417 14.8654C20.1553 14.6313 20.4136 14.482 20.1763 14.2555C20.4612 13.5358 20.4819 12.7614 20.5791 12C20.603 11.811 20.6316 11.6208 20.6693 11.4269C20.6714 11.4144 20.7888 11.4288 20.7925 11.4037C20.8354 11.0998 20.6585 11.1698 20.4205 11.0046C20.361 10.9645 20.6049 10.7837 20.6217 10.7666C20.6856 10.7083 20.8624 10.7338 20.8738 10.7156C20.9606 10.5621 20.4048 10.671 20.3758 10.4984C20.3758 10.4927 20.4822 10.4975 20.4898 10.4809C20.5137 10.429 20.4648 10.391 20.4913 10.3393C20.5527 10.2213 20.8125 10.1243 20.6208 9.99864C20.5959 9.98339 20.2932 10.085 20.2712 9.92835C20.2634 9.86524 20.1859 9.59724 20.182 9.51647C20.1791 9.43542 20.2919 9.45689 20.2946 9.45035C20.3595 9.20466 20.4364 9.26539 20.5902 9.09689C20.741 8.92606 20.3047 9.11001 20.2408 9.08607C20.1773 9.06218 20.2269 8.8759 20.2479 8.82496C20.2696 8.77438 20.3472 8.79723 20.3547 8.75646C20.3997 8.48511 20.1006 8.74759 20.0038 8.70578C19.9953 8.70221 19.9875 8.69843 19.9803 8.69446C19.7953 8.59348 20.0374 8.34279 19.9976 8.18306C19.9866 8.13879 19.9314 8.20562 19.9077 8.17321C19.815 8.04566 19.8674 7.91142 19.6966 7.80121C19.6682 7.78228 19.4216 7.76016 19.506 7.60554C19.5181 7.58319 19.6105 7.57261 19.5931 7.50525C19.5676 7.40451 19.4878 7.24033 19.4051 7.16568C19.3443 7.11074 19.2776 7.26298 19.2595 7.15659C19.2512 7.10915 19.3643 7.13225 19.3424 7.04641C19.321 6.9605 19.195 6.78775 19.1442 6.72449C19.0938 6.66102 19.0362 6.75939 19.0266 6.75829C18.9711 6.75058 18.8391 6.66022 18.8308 6.64983C18.6051 6.3695 18.4117 6.07957 18.1924 5.80756C18.0002 5.56908 17.7881 5.34517 17.5294 5.168C17.4861 5.13825 17.4466 5.24302 17.4393 5.23933C17.2736 5.16287 17.5588 5.02979 17.5162 4.87674C17.399 5.05787 17.3645 4.98072 17.2489 4.92358C17.1932 4.89634 17.1708 4.98296 17.1613 4.98644C17.0157 5.03471 17.0605 4.86729 17.0659 4.83057C17.0871 4.69606 16.9513 4.77691 16.9636 4.68688C16.9746 4.597 17.1211 4.55161 17.0168 4.48347C16.9462 4.52758 16.9108 4.74292 16.8169 4.71857C16.4699 4.62442 15.9902 4.17886 15.7382 4.04838C15.5587 3.95073 15.4619 3.91452 15.3687 3.86713C15.3345 3.84988 15.3007 3.83135 15.2628 3.80846C15.006 3.65625 15.0556 3.82779 14.8657 3.82622C14.6757 3.82694 14.8679 3.52966 14.8668 3.45075C14.8651 3.37213 14.8136 3.43536 14.7949 3.38658C14.7759 3.33784 14.8599 3.31187 14.79 3.27364C14.7193 3.23475 14.4769 3.3003 14.4308 3.36734C14.3321 3.5085 14.3758 3.69677 14.2019 3.58684C14.1917 3.58047 14.2502 3.50359 14.2101 3.48358C13.8899 3.32768 13.5319 3.25176 13.1906 3.14557C13.1435 3.13088 13.1994 3.04077 13.1719 3.0312C12.8832 2.93401 12.9687 3.10893 12.7938 3.27112C12.8518 3.03713 12.7759 2.88074 12.5464 2.86616C12.409 2.85805 12.4273 2.96274 12.3371 3.03165C12.3104 3.05233 12.2168 2.97899 12.1983 3.02701C12.1384 3.18373 12.2233 3.36048 12 3.28741C11.9999 3.28738 11.9998 3.28735 11.9997 3.28732C11.9962 3.28612 11.9979 3.2747 12 3.26017C12.0028 3.24107 12.0064 3.21658 12 3.20294C11.9975 3.19753 11.9934 3.19382 11.987 3.19284C11.7636 3.15958 11.7404 3.32309 11.5059 3.35214C11.3225 3.37456 10.9836 3.30565 10.7685 3.32048C10.7384 3.06802 10.5394 3.15716 10.4888 3.34197C10.3503 3.35799 10.2049 3.39596 10.0682 3.40167C10.0212 3.40377 10.035 3.32726 10.0276 3.32095C9.91148 3.22256 9.8898 3.39879 9.8625 3.41193C9.56213 3.54978 9.26857 3.51017 9.01341 3.72648C9.00426 3.73442 9.04481 3.89561 8.92529 3.81025C8.91714 3.80449 8.98749 3.69802 8.84778 3.74363C8.78738 3.76358 8.69874 3.77849 8.60455 3.80267C8.48125 3.8341 8.34842 3.88204 8.261 3.96911C8.22305 4.00652 8.16829 4.17587 8.03378 4.12911C8.01563 4.12273 8.00805 4.0752 7.9792 4.06108C7.88594 4.01718 7.92993 4.1756 7.80085 4.08902C7.67196 4.00244 7.48193 3.99086 7.34702 4.18029C7.34251 4.18621 7.36405 4.31913 7.30723 4.35148C7.21612 4.40314 7.07658 4.46184 6.98588 4.52395C6.9425 4.55366 7.01314 4.59816 7.00636 4.6044C6.74088 4.83548 6.50183 4.92883 6.19363 5.15064C6.13661 5.19175 6.05331 5.39514 5.90293 5.42854C5.73774 5.46784 5.60392 5.10217 5.41474 5.41202C5.4144 5.41258 5.41406 5.41316 5.41373 5.41373C5.33981 5.54489 5.53511 5.96335 5.20699 5.9955C4.93323 6.38982 4.57724 6.68062 4.38066 7.12903C4.37176 7.14925 4.43066 7.26666 4.40296 7.30814C4.36158 7.36993 4.29578 7.37815 4.26551 7.42249C4.13782 7.60797 4.07822 7.80927 3.97557 7.99848C3.93696 8.07068 3.903 8.02208 3.8579 8.10945C3.81331 8.19731 3.8468 8.28417 3.76379 8.39214C3.72727 8.43975 3.65656 8.473 3.59133 8.51702C3.54453 8.54855 3.50059 8.58552 3.47424 8.63602C3.59534 8.68945 3.55844 8.77381 3.53536 8.93842C3.53103 8.97002 3.58494 8.95392 3.58508 8.96962C3.58656 9.03348 3.53299 9.07329 3.53841 9.13509C3.53965 9.15007 3.58103 9.16468 3.58439 9.17762C3.61417 9.28734 3.47334 9.40649 3.44964 9.4283C3.35816 9.50963 3.3985 9.57226 3.35307 9.64239C3.30811 9.71308 3.30931 9.58925 3.27052 9.67599C3.19032 9.85638 3.14195 10.1036 3.104 10.2981C3.0891 10.3758 3.15209 10.3327 3.15119 10.344C3.13429 10.5057 3.05426 10.6609 3.14556 10.7644C2.86311 10.8399 3.15667 10.8648 3.07764 11.0874C3.07144 11.1049 2.94502 11.1163 2.93346 11.0434C2.92188 10.9704 2.97285 10.8679 2.9566 10.7661C2.95272 10.7424 2.85136 10.591 2.84669 10.571C2.80988 10.417 3.00635 10.4299 3.01808 10.4245C3.1463 10.3605 3.04647 10.1764 3.04577 10.1311C3.04257 9.92774 3.10851 9.76965 3.11964 9.60069C3.12745 9.4902 2.99952 9.44243 3.02605 9.35942C3.11628 9.08243 3.33242 9.05432 3.26053 8.74058C3.24599 8.67321 3.07942 8.67126 3.26657 8.51798C3.2734 8.51246 3.32921 8.47565 3.36957 8.42516C3.39925 8.38789 3.42052 8.34314 3.4067 8.29571C3.40258 8.28165 3.3598 8.26354 3.36187 8.24812C3.37671 8.14496 3.4368 8.0985 3.46466 7.99094C3.49259 7.88333 3.52363 7.75091 3.59323 7.64554C3.63497 7.58169 3.7584 7.53834 3.79449 7.51761C3.8972 7.45951 3.85756 7.31269 3.95593 7.29741C4.05488 7.28338 4.09745 7.44772 4.22278 7.33533C4.1155 7.26409 4.00931 7.184 3.90338 7.10833C4.08998 6.79211 4.32304 6.51499 4.53712 6.21737C4.56364 6.1803 4.47815 6.17296 4.50528 6.1318C4.62065 5.95791 4.77398 5.85013 4.89723 5.67271C4.99248 5.53524 5.05654 5.34334 5.16345 5.2002C5.1773 5.20287 5.19088 5.20417 5.20422 5.20422C5.373 5.20499 5.50585 5.00638 5.64349 4.89767C5.69523 4.85671 5.72164 4.89322 5.76565 4.87286C5.9314 4.79656 5.77369 4.73889 5.7947 4.68859C5.88818 4.47258 6.1164 4.72283 6.2983 4.56745C6.30748 4.55969 6.32134 4.3162 6.33264 4.29316C6.39943 4.14799 6.38876 4.33084 6.46602 4.28986C6.60768 4.21572 6.7209 4.19002 6.84413 4.04042C6.87955 3.997 6.92635 3.8243 7.06355 3.84597C7.08149 3.84883 7.1075 3.90669 7.11879 3.90396C7.32019 3.85178 7.22537 3.67864 7.29324 3.55953C7.36168 3.44003 7.58577 3.47439 7.63567 3.49387C7.7667 3.54176 7.59196 3.56758 7.59224 3.5794C7.59594 3.71526 7.69902 3.63499 7.79076 3.5993C7.89237 3.77 8.00688 3.69978 7.88555 3.56196C7.87197 3.54702 7.81221 3.59831 7.79076 3.5993C7.77927 3.38588 7.90938 3.28914 8.13687 3.38676C8.24321 3.43341 8.21636 3.55483 8.41597 3.42734C8.4262 3.4209 8.43414 3.41377 8.44028 3.40607C8.48897 3.34532 8.42439 3.2485 8.49006 3.18414C8.66069 3.01728 8.97334 3.04141 9.17953 2.95281C9.25499 2.92016 9.15591 2.8696 9.20707 2.84458C9.34361 2.77782 9.48597 2.7974 9.62279 2.72807C9.63526 2.72166 9.5822 2.64958 9.62739 2.63603C9.97067 2.53248 10.286 2.51906 10.653 2.46172C10.83 2.43317 11.1453 2.34574 11.3332 2.34026C11.5425 2.3323 11.7839 2.37674 12 2.40505C12.1197 2.42051 12.2321 2.43053 12.3302 2.42117C12.5099 2.4051 12.4751 2.31444 12.5564 2.25551C12.7159 2.14052 12.9659 2.37462 12.9958 2.41206C12.9966 2.41302 12.8406 2.42195 12.9182 2.47529C12.956 2.57655 12.9938 2.41237 12.9958 2.41206C13.0172 2.43443 13.321 2.4879 13.3841 2.47976C13.4186 2.47455 13.4129 2.38549 13.4307 2.38443C13.8559 2.36133 14.2814 2.42039 14.6825 2.57072C14.6892 2.5744 14.6508 2.66841 14.6668 2.67587C14.8894 2.78311 15.0749 2.71137 15.2949 2.70613C15.5142 2.70138 15.6622 2.78297 15.7062 2.99055C15.7138 2.99234 15.7215 2.99444 15.7292 2.99683C15.8748 3.0413 16.0326 3.18883 16.1203 3.27951C16.2126 3.37482 16.3174 3.20036 16.3295 3.20144C16.7027 3.23715 16.8308 3.43625 17.1315 3.63432C17.2752 3.72854 17.579 3.88727 17.7457 3.97672C17.8783 4.04642 17.9208 4.13819 18.0491 4.19481C18.0665 4.20258 18.1091 4.11718 18.1158 4.11772C18.3083 4.12216 18.1068 4.25813 18.1063 4.30933C18.103 4.49588 18.1044 4.59831 18.2966 4.6667C18.3399 4.68194 18.6596 4.51557 18.7365 4.55692C18.8347 4.61027 18.7229 4.67146 18.8263 4.72565C18.835 4.73043 18.8844 4.67481 18.9339 4.7247C18.9896 4.78072 19.0446 4.83981 19.0993 4.90071C19.27 5.09081 19.4352 5.29814 19.6083 5.48574C19.6394 5.51989 19.6912 5.39752 19.738 5.44609C19.9573 5.67418 20.1713 5.95079 20.3033 6.23299C20.3354 6.30262 20.2378 6.31238 20.2264 6.34C20.1573 6.50672 20.4207 6.49897 20.438 6.51705C20.841 6.92932 20.8745 7.40202 21.2038 7.87388C21.2179 7.89338 21.4173 7.9714 21.434 8.09231C21.4388 8.12676 21.4284 8.16429 21.3942 8.20391C21.3845 8.21661 21.2243 8.39193 21.3957 8.42521C21.4065 8.42749 21.4859 8.32611 21.5178 8.43793C21.5491 8.54895 21.685 8.70122 21.619 8.88988C21.5987 8.95037 21.4278 9.1235 21.6364 9.21596C21.6503 9.21922 22.0951 9.34178 21.8539 9.49122C21.814 9.51554 21.533 9.57135 21.7189 9.70687C21.7548 9.7332 21.8025 9.65847 21.8629 9.73669C21.956 9.85768 21.9196 10.0508 22.0784 10.1954C22.1063 10.2198 22.3243 10.3148 22.1936 10.4399C22.1731 10.4592 22.0725 10.444 22.0704 10.4985C22.0595 10.7566 22.1567 11.0145 22.1107 11.2773C22.0942 11.3698 21.9332 11.3341 21.8974 11.4295C21.8618 11.5251 21.8297 11.7115 21.9045 11.8072C21.9795 11.9037 22.23 11.7916 22.2534 11.9419C22.2564 11.9613 22.259 11.9806 22.2615 12C22.3413 12.6405 22.148 13.2659 22.0165 13.88C21.996 13.9745 22.1014 13.9129 22.0764 14.0543C21.9933 14.5735 21.8089 15.4925 21.4469 15.8402C21.4263 15.8606 21.4075 15.8768 21.3902 15.8896C21.1707 16.0488 21.211 15.6663 21.0594 15.8752C20.9813 15.9813 21.2003 16.2367 21.1951 16.2712C21.1512 16.6011 20.9298 16.7365 20.8291 17.0038C20.808 17.0594 20.9442 17.0705 20.9247 17.1175C20.8583 17.2794 20.7174 17.4066 20.6379 17.5511C20.6023 17.6161 20.6894 17.6567 20.6459 17.7104C20.5426 17.839 20.4272 17.9368 20.2626 18.0126C20.2477 18.0193 20.2077 17.8716 20.1348 17.9651C20.0165 18.1174 19.8036 18.2489 19.7335 18.4765C19.713 18.5441 19.878 18.6895 19.6706 18.6986C19.627 18.7004 19.4554 18.4976 19.5169 18.7716C19.5289 18.816 19.5625 19.2355 19.3226 19.1962C19.291 19.1909 19.2195 19.1663 19.1529 19.1529C19.0878 19.1399 19.0273 19.1377 19.0116 19.1768C19.0077 19.1882 19.121 19.2426 19.0822 19.2969C18.9434 19.4872 18.7552 19.6424 18.597 19.8258C18.5546 19.875 18.7069 19.907 18.6403 19.9779C18.457 20.1737 18.1731 20.3532 17.9393 20.4705C17.8529 20.5137 17.8487 20.3919 17.8366 20.3868C17.6441 20.3013 17.7279 20.5385 17.7045 20.5715C17.5597 20.7709 17.3493 20.7672 17.1833 20.9003C17.1369 20.9368 17.231 21.0167 17.2262 21.0316C17.1709 21.181 17.1455 20.9539 17.0678 20.9719C16.85 21.021 16.6459 21.1392 16.4581 21.2468C16.3891 21.2865 16.5282 21.3697 16.4649 21.4041C16.3124 21.4877 16.1523 21.5633 15.9878 21.6274C15.7483 21.7208 15.4994 21.7896 15.2526 21.8251C15.1741 21.836 15.1882 21.7212 15.1654 21.7035C15.0102 21.579 14.9244 21.8432 14.8932 21.8749C14.7564 22.0182 14.6667 21.9465 14.5252 22.0008C13.8297 22.2725 12.899 22.3318 12.2047 22.3017C12.1353 22.2994 12.0671 22.296 12 22.2917C12 22.2917 12 22.2917 12 22.2917C11.1887 22.2359 10.5484 22.0751 9.7775 21.9206C9.72435 21.9095 9.74741 22.0567 9.70075 22.0485C9.12958 21.9409 8.60124 21.7119 8.06349 21.5036C8.03293 21.4917 8.00233 21.4799 7.97166 21.4681C7.92473 21.4498 7.94119 21.5971 7.86359 21.5709C7.70396 21.5178 7.51607 21.4155 7.38534 21.2995C7.32167 21.2433 7.46612 21.1993 7.4017 21.1451C7.25241 21.0187 7.08183 20.91 6.90685 20.8242C6.83215 20.7876 6.87551 20.9634 6.78278 20.9065C6.1514 20.5206 5.56388 20.0637 5.14918 19.4271C5.1207 19.3831 5.25087 19.1805 5.14738 19.138C5.09691 19.1792 5.04424 19.2346 4.9937 19.282C4.94748 19.2363 4.90212 19.1897 4.85754 19.1425C4.17647 18.418 3.6911 17.5471 3.29948 16.6572C3.28196 16.6169 3.22223 16.7349 3.18813 16.6564C3.06382 16.3686 2.94632 16.0847 2.86668 15.7831C2.82042 15.6083 2.7869 15.4279 2.77134 15.2403C2.76727 15.1896 2.92126 15.1626 2.86261 15.0319C2.85159 15.009 2.7813 14.8059 2.73915 14.7601C2.73293 14.754 2.67395 14.813 2.65783 14.7446C2.56555 14.3471 2.52593 13.9179 2.53388 13.5115C2.53523 13.4459 2.60216 13.5048 2.60343 13.4584C2.60949 13.1308 2.56008 12.7827 2.6185 12.4728C2.6569 12.2665 2.74399 12.339 2.83132 12.2299C2.84335 12.2146 2.84768 12.0909 2.89599 12.0842C3.01656 12.0672 3.15167 12.1239 3.2805 12.0986C3.30166 12.0946 3.28164 12 3.30524 12C3.30525 12 3.30525 12 3.30525 12C3.31219 12 3.32281 12.0082 3.33972 12.0293C3.34444 12.0358 3.37746 12.1487 3.40437 12.1758C3.42287 12.1946 3.46855 12.1591 3.49455 12.1976C3.52096 12.2358 3.48407 12.2798 3.51897 12.3431C3.55491 12.406 3.60942 12.3755 3.64114 12.5009ZM16.5209 3.71836C16.5722 3.85804 16.764 3.55114 16.6119 3.5676C16.6043 3.56878 16.5181 3.71137 16.5209 3.71836ZM4.47319 6.62512C4.64095 6.56853 4.57563 6.39657 4.44986 6.43163C4.32414 6.46895 4.42215 6.64352 4.47319 6.62512ZM3.78244 7.95295C3.92464 7.83771 3.65673 7.66906 3.63405 7.86341C3.63269 7.87472 3.7742 7.95986 3.78244 7.95295ZM2.86579 12.7207C2.86822 12.7189 2.86683 12.63 2.86433 12.6281C2.80193 12.5847 2.80252 12.7639 2.86579 12.7207ZM3.3194 9.34937C3.37117 9.31118 3.3735 9.15534 3.30765 9.20184C3.25448 9.23985 3.25474 9.39765 3.3194 9.34937ZM20.1706 8.09542C20.1661 8.09951 20.1882 8.15856 20.2179 8.14323C20.3139 8.09352 20.248 8.02647 20.1706 8.09542ZM2.94065 11.7981C2.95678 11.4289 3.18523 11.2282 3.1352 11.6165C3.12728 11.6875 3.07876 11.4604 3.05537 11.5499C3.01404 11.7157 3.13605 11.8285 3.06763 11.9969C3.05535 12.0282 2.93914 11.8197 2.94038 11.7975C2.94047 11.7977 2.94056 11.7979 2.94065 11.7981ZM16.3679 4.1284C16.3675 4.13354 16.4407 4.17985 16.4448 4.17684C16.543 4.10019 16.3933 4.00596 16.3679 4.1284ZM20.794 11.6457C20.783 11.6509 20.7772 11.8471 20.7875 11.8533C21.0068 11.9546 21.0184 11.5473 20.794 11.6457ZM10.7642 3.31424C10.6869 3.42536 10.5832 3.4522 10.4893 3.34202C10.5808 3.33336 10.6722 3.3205 10.7642 3.31424Z" fill="black"/>
<path d="M9.63039 10.142C9.69195 10.2223 9.73837 10.3219 9.75818 10.3993C9.76457 10.4236 9.71682 10.4195 9.71897 10.437C9.72292 10.4716 9.76204 10.4958 9.76285 10.53C9.76278 10.5416 9.6876 10.545 9.68878 10.5571C9.69507 10.6243 9.74782 10.6748 9.77211 10.7363C9.8888 11.0429 10.0734 11.3098 10.2944 11.5467C10.3185 11.5727 10.3386 11.6058 10.3597 11.6403C10.4019 11.7097 10.4492 11.7865 10.5315 11.8046C10.5458 11.8076 10.6006 11.7275 10.6078 11.7225C10.7167 11.645 10.5829 11.7931 10.5885 11.8275C10.6108 11.9629 10.7113 12.0326 10.8201 12.0402C10.8665 12.0431 10.9298 11.8475 10.9103 11.9642C10.9092 11.9722 10.8462 12.0638 10.8511 12.0788C10.8623 12.1132 10.9175 12.1161 10.9323 12.1317C10.9609 12.1627 10.9676 12.1642 11.0019 12.1791C11.0479 12.1999 11.0848 12.2729 11.1471 12.2663C11.1603 12.2644 11.1867 12.1509 11.2107 12.1375C11.2346 12.1243 11.2758 12.1462 11.2827 12.1766C11.2895 12.2071 11.2545 12.2931 11.2508 12.314C11.2211 12.4914 11.3514 12.2698 11.3584 12.2647C11.5115 12.193 11.588 12.3496 11.7161 12.3635C11.8105 12.3728 11.9126 12.3309 12 12.3363C12 12.3363 12 12.3363 12 12.3363C12.0007 12.3364 12.0015 12.3364 12.0022 12.3365C12.1069 12.3445 12.2031 12.4036 12.3072 12.3793C12.318 12.3768 12.2871 12.2382 12.2997 12.235C12.4324 12.2007 12.5609 12.1884 12.724 12.2367C12.7406 12.2415 12.7611 12.365 12.7805 12.3767C12.8939 12.449 13.1505 12.6071 12.9716 12.0961C13.0331 12.0913 13.1045 12.0797 13.2052 12.1475C13.2706 12.1908 13.3067 12.3247 13.3179 12.2522C13.3204 12.2361 13.2495 12.1412 13.2571 12.125C13.2881 12.0572 13.3658 12.053 13.3809 11.969C13.3836 11.9517 13.3202 11.8679 13.3119 11.8505C13.2444 11.7112 13.4302 11.8891 13.451 11.8963C13.5989 11.9563 13.6142 11.8735 13.6726 11.8257C13.6862 11.8145 13.5759 11.7249 13.5851 11.7109C13.6021 11.686 13.6215 11.6636 13.644 11.644C13.6855 11.6078 13.7372 11.5816 13.8038 11.5673C13.827 11.5625 13.9055 11.6533 13.9213 11.6547C13.9913 11.6583 13.8243 11.508 13.8859 11.5097C13.8987 11.5097 13.9753 11.5766 13.985 11.5824C14.138 11.672 13.9557 11.502 13.9546 11.4946C13.9401 11.3917 14.1801 11.5006 14.194 11.4133C14.1951 11.4032 14.0764 11.3508 14.0857 11.3272C14.1464 11.1699 14.255 11.0389 14.412 10.9155C14.4362 10.8962 14.5181 10.947 14.5296 10.9497C14.7111 10.986 14.4879 10.8841 14.482 10.8735C14.4427 10.7893 14.6583 10.7824 14.3923 10.6599C14.5336 10.461 14.4818 10.2249 14.5791 10C14.603 9.94312 14.6359 9.88497 14.6823 9.82264C14.685 9.8186 14.8014 9.81791 14.8062 9.80966C14.8646 9.70912 14.6853 9.74 14.462 9.70894C14.4063 9.70268 14.6639 9.62431 14.6821 9.6163C14.7508 9.59097 14.9227 9.58224 14.9357 9.57507C15.0362 9.51293 14.4776 9.60705 14.47 9.55718C14.4707 9.55534 14.5742 9.54399 14.5836 9.5377C14.6133 9.5178 14.5703 9.51146 14.6029 9.49092C14.6785 9.4443 14.9432 9.37277 14.7763 9.35547C14.7547 9.35389 14.4463 9.43474 14.4509 9.38613C14.4532 9.36624 14.4277 9.28755 14.4407 9.25918C14.4539 9.23067 14.5556 9.21607 14.5594 9.21327C14.6687 9.10884 14.7289 9.11596 14.9061 9.01788C15.0808 8.91725 14.638 9.08169 14.584 9.0863C14.5304 9.09107 14.6176 9.00659 14.6485 8.98047C14.6797 8.95476 14.7454 8.9466 14.7614 8.92793C14.8642 8.80277 14.5328 8.98319 14.4554 8.98942C14.2741 9.00881 14.5762 8.83259 14.5827 8.76739C14.5848 8.75041 14.5189 8.79498 14.5069 8.78684C14.461 8.75517 14.5423 8.67818 14.4294 8.67467C14.4104 8.67323 14.2114 8.73689 14.3281 8.63698C14.3448 8.62238 14.4242 8.58979 14.4299 8.5616C14.4387 8.51946 14.4235 8.45926 14.381 8.44561C14.3498 8.43572 14.2491 8.53641 14.2684 8.48657C14.2768 8.46419 14.3588 8.44086 14.3685 8.40207C14.3783 8.36314 14.3354 8.30809 14.3175 8.28866C14.2997 8.26914 14.2243 8.34344 14.2174 8.3459C14.1776 8.35982 14.1096 8.35272 14.1073 8.34953C14.0353 8.26536 14.0011 8.15412 13.9498 8.0502C13.9053 7.95935 13.8478 7.8749 13.7547 7.83188C13.7392 7.82459 13.6812 7.91439 13.6782 7.91413C13.6082 7.91393 13.8177 7.72095 13.8426 7.6206C13.7156 7.79408 13.7207 7.74827 13.6744 7.74258C13.6521 7.74005 13.6115 7.8132 13.605 7.81894C13.5091 7.90374 13.589 7.76102 13.6035 7.7307C13.658 7.61978 13.5588 7.7258 13.5941 7.65137C13.628 7.57702 13.7215 7.49596 13.686 7.47398C13.6346 7.53095 13.5481 7.71226 13.5065 7.72268C13.355 7.76293 13.2634 7.53118 13.1855 7.47828C13.1123 7.42558 13.0805 7.42717 13.0426 7.38255C12.9723 7.30287 12.9536 7.44774 12.8806 7.48832C12.8084 7.52971 12.9434 7.2125 12.9592 7.13944C12.9742 7.06641 12.941 7.13567 12.9431 7.09365C12.9448 7.05162 12.9839 7.01116 12.9628 6.98865C12.9408 6.96586 12.833 7.07113 12.8046 7.14274C12.7429 7.29407 12.7255 7.46619 12.6827 7.39133C12.6802 7.38693 12.7141 7.30365 12.703 7.29119C12.6126 7.19509 12.4972 7.16676 12.391 7.09204C12.3763 7.08166 12.4032 6.98771 12.3945 6.98062C12.3021 6.90749 12.3175 7.07351 12.2504 7.24645C12.2842 7.0099 12.2678 6.86069 12.1881 6.85545C12.1407 6.85241 12.1436 6.95609 12.1118 7.02742C12.1025 7.04885 12.0727 6.97736 12.0657 7.02555C12.044 7.18277 12.0689 7.35958 12 7.28741C12 7.28738 11.9999 7.28735 11.9999 7.28732C11.9988 7.28612 11.9993 7.27471 12 7.26018C12.0009 7.24107 12.002 7.21658 12 7.20293C11.9992 7.19753 11.9979 7.19382 11.9959 7.19284C11.924 7.15838 11.919 7.32164 11.8481 7.34236C11.7931 7.35837 11.6817 7.26765 11.6114 7.26098C11.5782 7.00923 11.5158 7.07792 11.5205 7.2526C11.4755 7.25236 11.4306 7.27019 11.3835 7.25574C11.3672 7.25088 11.3608 7.17894 11.3572 7.17175C11.3007 7.05982 11.3191 7.22608 11.3116 7.23429C11.2267 7.31806 11.1063 7.22525 11.0506 7.37004C11.0485 7.37538 11.1006 7.53262 11.0342 7.42743C11.0294 7.42035 11.0343 7.33857 10.9879 7.34899C10.9423 7.35857 10.8228 7.31256 10.7934 7.40848C10.7859 7.43184 10.8077 7.56475 10.7338 7.48727C10.7237 7.4768 10.7073 7.43374 10.6901 7.41373C10.6346 7.35067 10.6991 7.49852 10.6139 7.3887C10.5289 7.27877 10.4301 7.21844 10.4151 7.3365C10.4144 7.34014 10.4644 7.45621 10.445 7.4656C10.4137 7.48073 10.358 7.48572 10.328 7.50697C10.3136 7.51711 10.3657 7.57413 10.3639 7.57697C10.2931 7.67538 10.1885 7.66795 10.0735 7.7274C10.0519 7.73882 10.0688 7.85478 9.98385 7.82695C9.89005 7.79868 9.68439 7.50404 9.6565 7.65554C9.65645 7.65581 9.65641 7.65609 9.65637 7.65637C9.64664 7.72314 9.92248 8.05915 9.7025 7.96921C9.63886 8.12511 9.46045 8.18062 9.4359 8.36081C9.43475 8.36896 9.5179 8.4481 9.50786 8.46089C9.49272 8.48011 9.44103 8.46475 9.42897 8.47839C9.37743 8.53504 9.38317 8.61591 9.34499 8.67604C9.33067 8.69915 9.28837 8.66778 9.27161 8.69629C9.25505 8.72519 9.30698 8.7726 9.25962 8.79958C9.22371 8.81972 9.08598 8.79933 9.0555 8.83819C9.17772 8.88844 9.1638 8.91636 9.17764 8.97917C9.18037 8.9912 9.22671 8.9961 9.23018 9.00253C9.24524 9.02869 9.20387 9.0335 9.2215 9.05926C9.22571 9.06547 9.26722 9.07967 9.273 9.08543C9.32349 9.13424 9.21399 9.15213 9.19537 9.15645C9.12389 9.17093 9.17302 9.20217 9.14175 9.22069C9.11074 9.23979 9.09115 9.1931 9.06856 9.21957C9.02194 9.27503 9.01069 9.36014 8.99711 9.4255C8.99196 9.45171 9.0483 9.44371 9.0488 9.4477C9.05197 9.50284 8.98847 9.54964 9.08797 9.59364C8.8154 9.59458 9.10894 9.62929 9.0465 9.6979C9.0415 9.70331 8.91673 9.69922 8.90034 9.67297C8.88389 9.64651 8.9266 9.61462 8.90151 9.57723C8.89572 9.56881 8.78155 9.50462 8.77487 9.49647C8.72329 9.43557 8.91685 9.4616 8.92784 9.46112C9.04657 9.45288 8.9259 9.37452 8.9192 9.35699C8.88939 9.28069 8.92907 9.22976 8.91195 9.16565C8.90105 9.1237 8.7711 9.08256 8.78203 9.0531C8.81892 8.95366 9.01426 8.98693 8.88228 8.83723C8.85438 8.80484 8.70187 8.76843 8.83993 8.74007C8.84852 8.7377 8.9718 8.72902 8.91658 8.67084C8.90959 8.66343 8.86691 8.64511 8.86518 8.63843C8.85448 8.59384 8.89708 8.58629 8.89543 8.54179C8.89379 8.49722 8.88795 8.43996 8.92094 8.40515C8.94071 8.38388 9.03501 8.39465 9.06005 8.39403C9.13177 8.39278 9.05764 8.30623 9.13572 8.32555C9.21414 8.34637 9.29705 8.4427 9.36821 8.42149C9.25891 8.35363 9.14806 8.28128 9.03887 8.21101C9.1052 8.09375 9.20867 8.00557 9.27994 7.89235C9.28873 7.87811 9.22141 7.84744 9.22946 7.83072C9.26407 7.75973 9.34427 7.73973 9.37738 7.66372C9.40285 7.60467 9.38804 7.49675 9.41751 7.43139C9.4279 7.43754 9.43767 7.44266 9.44686 7.44686C9.56327 7.50048 9.58927 7.40439 9.64488 7.36856C9.6657 7.35519 9.69414 7.38982 9.71599 7.38891C9.79769 7.38549 9.6793 7.29356 9.67717 7.26312C9.67039 7.13117 9.89019 7.38883 9.95027 7.32802C9.9531 7.32539 9.88711 7.14196 9.8872 7.12688C9.88341 7.03323 9.93171 7.17318 9.96464 7.16424C10.025 7.14815 10.0811 7.16191 10.1061 7.07622C10.1129 7.05145 10.0905 6.9227 10.1709 6.97864C10.1814 6.98602 10.2115 7.04138 10.2168 7.04229C10.309 7.05531 10.2109 6.88321 10.2155 6.79981C10.2206 6.71596 10.3452 6.80247 10.3747 6.8322C10.4525 6.90732 10.3717 6.88502 10.3748 6.89517C10.4121 7.01332 10.4429 6.97137 10.4786 6.96358C10.5722 7.13849 10.6081 7.10673 10.5152 6.95498C10.5049 6.93851 10.4888 6.96827 10.4786 6.96358C10.418 6.77479 10.4617 6.7203 10.5923 6.86133C10.6531 6.92798 10.6697 7.03147 10.7303 6.96303C10.7582 6.93216 10.6917 6.80856 10.7095 6.75857C10.7518 6.64318 10.8952 6.72747 10.9653 6.68092C10.9913 6.66354 10.9404 6.59814 10.9577 6.58349C11.0046 6.54404 11.0673 6.58596 11.1129 6.54008C11.1171 6.53578 11.0842 6.45855 11.1011 6.45223C11.229 6.40277 11.3545 6.42723 11.492 6.40276C11.5582 6.39061 11.6743 6.32427 11.7464 6.32601C11.8265 6.32711 11.9192 6.37688 12 6.40505C12.0449 6.42052 12.0865 6.42909 12.1235 6.41761C12.1912 6.39722 12.181 6.30716 12.2144 6.24575C12.2813 6.12614 12.368 6.34522 12.376 6.37995C12.3761 6.381 12.3161 6.39916 12.3425 6.44759C12.3505 6.54597 12.3751 6.38036 12.376 6.37995C12.3828 6.40156 12.4955 6.43182 12.5209 6.41732C12.5348 6.4091 12.5405 6.32173 12.5477 6.31908C12.7182 6.25806 12.8909 6.26286 13.0408 6.34173C13.0431 6.34416 13.0113 6.44007 13.0169 6.44455C13.0942 6.50988 13.1877 6.40787 13.2901 6.36125C13.3918 6.3148 13.4478 6.35986 13.4236 6.53939C13.4878 6.53889 13.5349 6.64233 13.5571 6.70445C13.5792 6.76642 13.6745 6.58681 13.6804 6.58495C13.8628 6.52557 13.8827 6.66538 13.9943 6.74878C14.0479 6.78875 14.1776 6.8324 14.2523 6.85484C14.3118 6.87204 14.311 6.93129 14.3737 6.93727C14.3822 6.93817 14.4337 6.85971 14.4378 6.85816C14.5573 6.80562 14.3909 6.96889 14.3754 7.0083C14.318 7.15161 14.2858 7.22742 14.388 7.2189C14.4105 7.21643 14.6702 6.99763 14.7103 7.00547C14.7606 7.01519 14.6667 7.09294 14.7205 7.1009C14.7251 7.1017 14.7753 7.04699 14.7944 7.06804C14.8159 7.09152 14.8365 7.11696 14.8567 7.14335C14.9196 7.22574 14.977 7.31659 15.0507 7.38798C15.0638 7.40116 15.1386 7.3057 15.1595 7.32392C15.2578 7.40948 15.347 7.52325 15.3753 7.6557C15.3819 7.68847 15.3003 7.72133 15.2834 7.74095C15.1803 7.85852 15.3972 7.77997 15.4069 7.78628C15.6295 7.91809 15.54 8.16603 15.7288 8.32836C15.7389 8.33552 16.0078 8.33135 15.8312 8.45185C15.8198 8.46053 15.6361 8.57753 15.7879 8.55881C15.7974 8.55785 15.8907 8.49313 15.8984 8.54098C15.9057 8.58802 16.0048 8.63656 15.91 8.73574C15.8806 8.76792 15.6882 8.87409 15.8721 8.88127C15.8841 8.87906 16.2922 8.8696 16.0394 8.97154C15.9977 8.98815 15.7181 9.05218 15.8792 9.08468C15.9105 9.0913 15.9666 9.05235 16.0149 9.07864C16.0897 9.12003 16.0312 9.20715 16.1723 9.2529C16.1971 9.26009 16.4023 9.2816 16.2627 9.3476C16.2408 9.35769 16.1428 9.36003 16.136 9.38332C16.1029 9.49288 16.1827 9.59444 16.1259 9.70511C16.1058 9.74374 15.9466 9.73559 15.9074 9.77479C15.8683 9.81425 15.8317 9.88721 15.9056 9.92396C15.9797 9.96161 16.231 9.91378 16.2535 9.97591C16.2564 9.98392 16.259 9.99195 16.2615 10C16.3414 10.2682 16.1824 10.5246 16.1195 10.7732C16.1097 10.8118 16.2059 10.7964 16.1973 10.8557C16.1704 11.071 16.1445 11.4794 15.8886 11.5807C15.6874 11.6567 15.6428 11.4407 15.5429 11.5155C15.4958 11.5488 15.7506 11.7264 15.7535 11.7435C15.7887 11.9043 15.6274 11.9245 15.6092 12.0454C15.6052 12.0708 15.7246 12.1115 15.7197 12.1329C15.7035 12.2072 15.6177 12.2439 15.5904 12.3073C15.5782 12.336 15.661 12.3832 15.6394 12.4037C15.5885 12.4529 15.5212 12.4815 15.4112 12.4823C15.4013 12.4821 15.3276 12.3805 15.2963 12.4171C15.2452 12.4773 15.1193 12.4971 15.1336 12.6242C15.1381 12.662 15.3037 12.8061 15.1513 12.752C15.1193 12.7407 14.9325 12.5544 15.059 12.7557C15.0817 12.7876 15.2263 13.0868 15.0432 12.9907C15.0191 12.9777 14.9611 12.9394 14.9103 12.9103C14.8606 12.8819 14.8178 12.8621 14.8186 12.885C14.8193 12.892 14.9144 12.9641 14.9034 12.9914C14.8627 13.0864 14.7807 13.1454 14.7299 13.2383C14.7162 13.2634 14.8256 13.3312 14.8019 13.3663C14.7365 13.4634 14.6051 13.5265 14.4947 13.5579C14.4537 13.5693 14.4181 13.4694 14.4093 13.4621C14.27 13.3395 14.3857 13.5556 14.3802 13.5766C14.3469 13.702 14.2233 13.6446 14.1637 13.7154C14.1468 13.7349 14.22 13.8269 14.221 13.8384C14.2267 13.9528 14.1559 13.7517 14.1169 13.7477C14.0075 13.7354 13.9266 13.7891 13.8524 13.8422C13.8251 13.8618 13.9173 13.9675 13.8915 13.984C13.7391 14.084 13.5555 14.1447 13.367 14.1291C13.3315 14.1259 13.3185 14.0199 13.3047 13.9994C13.2111 13.8545 13.2164 14.0913 13.2063 14.1169C13.165 14.2325 13.1127 14.1509 13.0564 14.1834C12.7766 14.3468 12.3743 14.3378 12.0855 14.3029C12.0565 14.2997 12.028 14.296 12 14.2917C12 14.2917 12 14.2917 12 14.2917C11.6608 14.2382 11.4059 14.1208 11.0891 14.0658C11.0672 14.0616 11.0588 14.2017 11.039 14.1997C10.7824 14.1653 10.5625 14.0253 10.3207 13.9471C10.3007 13.9402 10.2783 14.0709 10.2439 14.0632C10.1729 14.0483 10.0959 13.9974 10.0524 13.9248C10.0313 13.8898 10.1187 13.8174 10.0971 13.7846C10.0474 13.7082 9.98206 13.6562 9.90622 13.6277C9.87366 13.6155 9.85348 13.7544 9.81547 13.7294C9.55617 13.5617 9.31131 13.358 9.21726 13.0168C9.21073 12.9931 9.36017 12.8082 9.3026 12.8097C9.25558 12.8542 9.20272 12.9094 9.15369 12.9583C9.13532 12.9393 9.11749 12.9198 9.10018 12.8998C8.83536 12.5918 8.70186 12.1945 8.5893 11.8257C8.58427 11.8088 8.50299 11.8863 8.493 11.8532C8.4351 11.6627 8.37333 11.478 8.43253 11.2526C8.43833 11.2304 8.58766 11.1886 8.5573 11.1424C8.55158 11.1343 8.52187 11.0588 8.48921 11.0464C8.48431 11.0448 8.41842 11.0803 8.41454 11.0534C8.39319 10.8966 8.41156 10.7244 8.45882 10.5654C8.46648 10.5398 8.52672 10.5562 8.53244 10.5382C8.57012 10.4124 8.54293 10.2857 8.61089 10.1708C8.65519 10.0951 8.73997 10.1192 8.82944 10.0795C8.84186 10.074 8.84752 10.0312 8.89573 10.0287C9.01642 10.0225 9.15111 10.04 9.28011 10.0308C9.30139 10.0294 9.28172 10 9.30524 10C9.30525 10 9.30525 10 9.30525 10C9.31219 10 9.32282 10.0026 9.33969 10.009C9.34451 10.0111 9.37675 10.0454 9.40312 10.0531C9.42133 10.0585 9.46754 10.0473 9.49293 10.0583C9.51869 10.069 9.48099 10.0829 9.51406 10.1006C9.54798 10.118 9.60381 10.1074 9.63039 10.142ZM13.646 6.98474C13.6343 7.08976 13.8168 6.77765 13.7328 6.8317C13.7285 6.83469 13.6464 6.97952 13.646 6.98474ZM9.35601 8.11194C9.46905 8.13183 9.36475 8.01106 9.27862 7.99293C9.19226 7.97691 9.32154 8.10697 9.35601 8.11194ZM9.16507 8.60384C9.25825 8.58694 8.98238 8.43368 9.01248 8.52282C9.01416 8.52799 9.15967 8.60498 9.16507 8.60384ZM8.8472 10.2488C8.84977 10.248 8.85267 10.2171 8.8502 10.2166C8.79006 10.204 8.78214 10.2672 8.8472 10.2488ZM9.05783 9.1016C9.09982 9.09629 9.07179 9.03446 9.01902 9.04038C8.97658 9.0458 9.00564 9.10902 9.05783 9.1016ZM14.757 8.68248C14.752 8.68556 14.7562 8.70692 14.7864 8.69234C14.8835 8.64521 14.8425 8.63057 14.757 8.68248ZM8.93916 9.93179C8.94849 9.80546 9.16429 9.75162 9.12959 9.87582C9.12391 9.89887 9.06819 9.8228 9.04779 9.85145C9.01182 9.90572 9.13577 9.94443 9.06763 9.99898C9.05563 10.0097 8.93839 9.93951 8.93888 9.93156C8.93897 9.93164 8.93906 9.93171 8.93916 9.93179ZM13.4567 7.37481C13.455 7.37931 13.4779 7.39737 13.4808 7.39362C13.5517 7.30164 13.5034 7.2644 13.4567 7.37481ZM14.7989 9.8872C14.7874 9.88925 14.7777 9.95163 14.7884 9.95344C15.0057 9.98487 15.0247 9.84827 14.7989 9.8872ZM11.6094 7.25441C11.5944 7.35672 11.5651 7.37158 11.5206 7.25271C11.5505 7.25481 11.5796 7.25181 11.6094 7.25441Z" fill="black"/>
<path d="M5.61599 18.5194C5.59126 18.4137 5.60276 18.2856 5.6337 18.1967C5.64317 18.1688 5.68013 18.2003 5.68896 18.1822C5.70663 18.1471 5.69095 18.1001 5.71352 18.0673C5.72134 18.0567 5.78211 18.1017 5.78915 18.0902C5.82812 18.0278 5.8249 17.9495 5.85555 17.8811C6.01017 17.548 6.193 17.2293 6.434 16.9407C6.51357 16.8443 6.6745 16.7923 6.72555 16.6643C6.73145 16.6491 6.65751 16.5862 6.65371 16.5782C6.59673 16.4541 6.72468 16.6077 6.76187 16.6048C6.90941 16.5928 7.00249 16.5135 7.05759 16.4071C7.08097 16.3617 6.91748 16.2349 7.02487 16.2913C7.03216 16.2952 7.09208 16.3889 7.10885 16.3893C7.14659 16.3904 7.17555 16.3386 7.19798 16.331C7.22671 16.3216 7.23856 16.3162 7.2526 16.3063C7.25977 16.3012 7.26751 16.295 7.27843 16.2866C7.32333 16.2533 7.40739 16.259 7.44068 16.2028C7.44769 16.1904 7.36898 16.1039 7.37464 16.075C7.38033 16.046 7.43083 16.0216 7.46094 16.0343C7.49103 16.047 7.53404 16.1294 7.54805 16.1453C7.66463 16.2817 7.58443 16.0381 7.58882 16.0277C7.65957 15.8558 7.8413 15.9154 7.96187 15.8538C8.05346 15.8064 8.13569 15.7173 8.23045 15.6846C8.23123 15.6843 8.23202 15.684 8.2328 15.6838C8.3471 15.6461 8.46348 15.6731 8.56829 15.627C8.57951 15.6223 8.52198 15.4923 8.53595 15.4861C8.68452 15.421 8.84798 15.3939 9.02268 15.4545C9.04011 15.4608 9.04634 15.586 9.06496 15.5996C9.18154 15.679 9.35086 15.8981 9.3305 15.3582C9.39882 15.3699 9.48181 15.3824 9.54965 15.4849C9.59299 15.5509 9.57041 15.6877 9.60888 15.6268C9.61768 15.6133 9.59426 15.4972 9.6086 15.4858C9.66966 15.4377 9.74254 15.4717 9.80416 15.409C9.81678 15.396 9.809 15.2911 9.81207 15.2721C9.83926 15.118 9.90115 15.3702 9.91193 15.3885C9.94472 15.4385 9.97301 15.463 10.0001 15.4744C10.0413 15.4939 10.0796 15.4735 10.1241 15.476C10.1404 15.477 10.1211 15.3364 10.1368 15.3323C10.2181 15.3132 10.3023 15.3265 10.3819 15.3896C10.3996 15.404 10.3834 15.5227 10.3918 15.5357C10.4291 15.5912 10.4374 15.3667 10.4732 15.4157C10.4807 15.4257 10.4765 15.5274 10.4779 15.5385C10.4994 15.714 10.5181 15.4659 10.5237 15.4605C10.5937 15.3868 10.6385 15.6458 10.7062 15.6098C10.7143 15.6052 10.6961 15.4771 10.7188 15.4722C10.8705 15.4389 11.0309 15.4769 11.1811 15.5799C11.2044 15.5957 11.1877 15.6903 11.1892 15.702C11.2131 15.8847 11.2286 15.6403 11.2362 15.6313C11.2963 15.566 11.3524 15.7706 11.3932 15.4816C11.6475 15.5853 11.9006 15.4316 12.1528 15.6882C12.156 15.6912 12.1503 15.8073 12.1567 15.8127C12.2337 15.8785 12.2189 15.6978 12.2699 15.4791C12.2827 15.4244 12.3218 15.6901 12.3252 15.7094C12.3378 15.781 12.3248 15.9524 12.329 15.9663C12.3639 16.0749 12.3582 15.5083 12.4052 15.5094C12.4067 15.5103 12.4005 15.6142 12.4045 15.6247C12.4168 15.6573 12.4289 15.6162 12.4409 15.6522C12.4684 15.7355 12.4782 16.0089 12.5202 15.8501C12.5255 15.8295 12.5174 15.5105 12.5594 15.5266C12.5762 15.5333 12.6503 15.5296 12.6711 15.5506C12.6919 15.5716 12.6776 15.6731 12.6791 15.6776C12.735 15.8131 12.7138 15.8685 12.7418 16.0675C12.7698 16.2654 12.7621 15.7933 12.7735 15.7408C12.7849 15.6885 12.8259 15.7996 12.836 15.8379C12.8461 15.8764 12.8335 15.9405 12.8425 15.9622C12.9019 16.1039 12.8685 15.7293 12.8881 15.6552C12.9342 15.4802 12.9702 15.8279 13.0124 15.8617C13.0238 15.871 13.0145 15.7922 13.0247 15.785C13.065 15.7576 13.0892 15.865 13.1351 15.7674C13.1426 15.7513 13.1796 15.5465 13.2036 15.6978C13.207 15.7195 13.1974 15.8045 13.2145 15.8238C13.2402 15.8526 13.2864 15.8715 13.314 15.8435C13.3344 15.8228 13.311 15.6832 13.3366 15.7269C13.348 15.7464 13.3269 15.8275 13.3483 15.8571C13.3696 15.8868 13.424 15.8835 13.4447 15.8809C13.4654 15.8782 13.4541 15.7734 13.4558 15.7664C13.4659 15.7261 13.5056 15.6765 13.5091 15.6767C13.6786 15.6688 13.8355 15.8298 14 15.7947C14.0073 15.7932 14.0147 15.7914 14.0222 15.7893C14.0365 15.7853 14.0277 15.6789 14.0299 15.6772C14.0802 15.6343 14.0384 15.9152 14.0697 16.01C14.0685 15.7951 14.0876 15.8344 14.1223 15.8124C14.139 15.8016 14.1327 15.7184 14.1344 15.71C14.1638 15.5857 14.1756 15.7491 14.1783 15.7823C14.1891 15.9049 14.2133 15.7624 14.2202 15.8443C14.2265 15.9253 14.1961 16.0433 14.2271 16.0434C14.2405 15.9682 14.2275 15.7682 14.2545 15.738C14.3591 15.624 14.5253 15.8012 14.5955 15.8286C14.6678 15.8562 14.6939 15.8476 14.7324 15.8818C14.8013 15.944 14.7985 15.7994 14.8608 15.7475C14.9237 15.6965 14.8288 16.0282 14.8205 16.1023C14.8117 16.176 14.8345 16.103 14.834 16.1444C14.8333 16.1857 14.8058 16.2314 14.8208 16.25C14.8354 16.2682 14.9148 16.1517 14.9399 16.0791C14.9923 15.9249 15.0079 15.7527 15.047 15.8255C15.0492 15.8297 15.0177 15.9138 15.027 15.9256C15.1007 16.0166 15.1915 16.0484 15.26 16.1338C15.2693 16.1457 15.2287 16.2341 15.2336 16.2419C15.2842 16.3234 15.3103 16.1606 15.41 16.0061C15.3219 16.2283 15.2949 16.3734 15.3454 16.3924C15.3759 16.4042 15.4071 16.3057 15.4539 16.2459C15.4681 16.228 15.4648 16.3025 15.4866 16.2592C15.5585 16.1183 15.6021 15.945 15.6333 16.0354C15.6345 16.0396 15.5939 16.1156 15.6005 16.1241C15.6421 16.1794 15.7126 16.0321 15.7813 16.044C15.8354 16.0535 15.8762 16.1847 15.9199 16.2261C15.8044 16.452 15.8763 16.4229 15.9772 16.2812C16.0067 16.3059 16.0467 16.318 16.0663 16.3572C16.073 16.3706 16.0305 16.4288 16.028 16.4363C15.988 16.5536 16.0842 16.4178 16.0946 16.4166C16.2016 16.4091 16.195 16.5514 16.3289 16.4992C16.3336 16.4972 16.43 16.3623 16.381 16.4762C16.3775 16.4838 16.3129 16.5304 16.3417 16.5579C16.3707 16.586 16.3787 16.6994 16.4658 16.6717C16.4704 16.6703 16.479 16.6651 16.4893 16.6589C16.5258 16.6368 16.5832 16.6037 16.5513 16.6799C16.5457 16.6931 16.5147 16.7271 16.5031 16.7505C16.4661 16.8248 16.5722 16.7033 16.5028 16.8229C16.4333 16.9426 16.399 17.0427 16.4981 17.0031C16.501 17.002 16.5909 16.9137 16.6024 16.9262C16.6206 16.9461 16.6321 16.9902 16.6533 17.0079C16.6635 17.0164 16.7079 16.9537 16.7106 16.9542C16.8061 16.9841 16.8072 17.0793 16.8543 17.1669C16.8628 17.1825 16.9695 17.1509 16.9362 17.2299C16.8996 17.3153 16.616 17.5298 16.734 17.5276C16.781 17.5249 17.14 17.2705 17.0088 17.4645C17.1285 17.5206 17.1084 17.6732 17.2386 17.7249C17.2444 17.7272 17.3466 17.6768 17.3525 17.6887C17.3611 17.7062 17.3238 17.7442 17.3285 17.7573C17.3471 17.8128 17.4119 17.8328 17.4347 17.8836C17.4434 17.9028 17.3955 17.9235 17.4058 17.9459C17.4162 17.9681 17.4825 17.9482 17.4713 17.9936C17.4626 18.0282 17.3575 18.1161 17.3605 18.1507C17.4768 18.088 17.4857 18.109 17.5353 18.1289C17.5448 18.1327 17.5809 18.1041 17.5874 18.1049C17.615 18.1077 17.5883 18.1377 17.6172 18.1392C17.6241 18.1396 17.6632 18.1197 17.6711 18.119C17.7393 18.1126 17.669 18.1944 17.6569 18.2077C17.6108 18.2599 17.6663 18.2468 17.6523 18.2762C17.6383 18.3051 17.5974 18.2911 17.5938 18.3186C17.5867 18.3754 17.619 18.4283 17.6367 18.474C17.6441 18.4921 17.6887 18.4591 17.6909 18.4612C17.7191 18.4942 17.6823 18.5526 17.788 18.5362C17.546 18.6595 17.8215 18.5499 17.7907 18.6251C17.7882 18.631 17.673 18.6786 17.6492 18.669C17.6255 18.6595 17.6526 18.6214 17.6161 18.6098C17.6077 18.6068 17.4822 18.6218 17.4733 18.621C17.405 18.6129 17.5835 18.5351 17.5928 18.5292C17.6919 18.4657 17.5529 18.4801 17.5396 18.4752C17.4799 18.4498 17.4876 18.4029 17.4408 18.3815C17.4104 18.3675 17.2864 18.4244 17.2801 18.4062C17.2586 18.3471 17.421 18.2352 17.2373 18.2633C17.1979 18.2696 17.068 18.3549 17.1498 18.2584C17.1549 18.2527 17.2347 18.168 17.1606 18.1873C17.1512 18.1898 17.111 18.213 17.1057 18.2123C17.071 18.2075 17.0946 18.1771 17.065 18.1672C17.0354 18.1575 16.995 18.1498 16.9921 18.1203C16.9904 18.1028 17.0534 18.0378 17.0672 18.0193C17.1073 17.9664 17.0044 18.0054 17.0609 17.9512C17.1178 17.8957 17.234 17.8526 17.2538 17.7919C17.1465 17.863 17.0353 17.9347 16.9269 18.0061C16.8801 17.9443 16.8633 17.8612 16.8045 17.8072C16.7971 17.8007 16.7466 17.8528 16.7372 17.8472C16.6977 17.824 16.7117 17.7638 16.6629 17.7461C16.625 17.7326 16.5367 17.7602 16.4948 17.7514C16.5997 17.6279 16.5182 17.6287 16.4995 17.5937C16.4928 17.5812 16.5256 17.5507 16.5286 17.5341C16.5389 17.4718 16.4463 17.5876 16.422 17.5978C16.3181 17.643 16.5537 17.3995 16.507 17.3702C16.5046 17.3681 16.3525 17.4808 16.3412 17.487C16.2676 17.5249 16.3811 17.4371 16.376 17.416C16.3666 17.3776 16.3776 17.3293 16.3099 17.3474C16.2898 17.3526 16.1915 17.4272 16.2327 17.345C16.2381 17.3342 16.2798 17.287 16.2802 17.2828C16.2847 17.2104 16.1574 17.3629 16.0956 17.4034C16.0339 17.4442 16.0896 17.3171 16.1077 17.2808C16.1548 17.1879 16.1476 17.254 16.1547 17.2465C16.24 17.1584 16.2042 17.1591 16.1928 17.1391C16.3111 16.9798 16.2781 16.9708 16.1804 17.1189C16.1697 17.1351 16.1947 17.1295 16.1928 17.1391C16.1089 17.2293 16.0616 17.2654 16.0573 17.239C16.0547 17.2233 16.0675 17.185 16.0969 17.122C16.1335 17.043 16.2064 16.9695 16.1404 16.9708C16.1105 16.9716 16.0379 17.0912 15.9988 17.1124C15.91 17.1619 15.9317 17.0235 15.878 17.018C15.8587 17.0164 15.8316 17.0909 15.8172 17.0923C15.7788 17.0969 15.7856 17.0339 15.7423 17.0468C15.7384 17.0481 15.7019 17.1229 15.693 17.1199C15.6244 17.0992 15.5944 17.0274 15.5261 16.998C15.4931 16.9836 15.413 17.0046 15.3828 16.984C15.3307 16.949 15.3049 16.8042 15.2395 16.8168C15.1974 16.8252 15.173 16.9121 15.137 16.9659C15.0685 17.0713 15.0929 16.857 15.0961 16.8228C15.0962 16.8216 15.1332 16.8093 15.1327 16.7608C15.1554 16.6658 15.0965 16.8225 15.0961 16.8228C15.0989 16.8012 15.0454 16.766 15.028 16.7801C15.0187 16.7877 14.9958 16.872 14.9914 16.8745C14.8896 16.9318 14.8094 16.9422 14.7408 16.8901C14.7398 16.8881 14.7652 16.7904 14.7626 16.787C14.7257 16.7358 14.6683 16.8525 14.6171 16.9216C14.5657 16.9907 14.5434 16.9652 14.5504 16.7886C14.518 16.808 14.489 16.7274 14.4708 16.6779C14.4525 16.6284 14.4222 16.8297 14.4197 16.8336C14.3396 16.9589 14.3182 16.8428 14.2519 16.824C14.2207 16.8148 14.1558 16.8461 14.1214 16.8708C14.0943 16.8905 14.0794 16.8422 14.0542 16.8753C14.0508 16.8797 14.0526 16.9734 14.0515 16.9771C14.0237 17.0917 14.0392 16.8609 14.0339 16.8202C14.0229 16.7354 14.0133 16.6732 14.0002 16.6492C13.9883 16.6312 13.9744 16.6345 13.9553 16.6656C13.9449 16.6821 13.9149 17.0177 13.896 17.0389C13.8716 17.0656 13.8808 16.9448 13.8552 16.9757C13.853 16.9782 13.8535 17.0524 13.8376 17.0503C13.7643 17.0416 13.6842 17.0035 13.608 17.0161C13.5976 17.0176 13.6109 17.1364 13.5959 17.1405C13.5252 17.16 13.4478 17.1617 13.379 17.1096C13.3621 17.0964 13.3727 17.0105 13.369 16.9855C13.3464 16.8338 13.3144 17.0582 13.3092 17.0629C13.1832 17.1791 13.0868 16.9813 12.9583 17.0864C12.9514 17.0923 12.8976 17.3408 12.8736 17.1322C12.8719 17.1184 12.8482 16.9043 12.8272 17.0528C12.8259 17.0621 12.8407 17.1722 12.8148 17.1625C12.789 17.1527 12.7474 17.2299 12.7119 17.1093C12.7007 17.0714 12.6741 16.8558 12.6406 17.0305C12.6384 17.0424 12.5867 17.4381 12.5682 17.1683C12.5652 17.1238 12.5683 16.8366 12.5283 16.9857C12.5207 17.0147 12.5346 17.0781 12.5144 17.1193C12.4836 17.1828 12.4427 17.1077 12.4048 17.2387C12.3981 17.2618 12.37 17.4602 12.3474 17.3123C12.3439 17.2891 12.3506 17.1919 12.3386 17.1818C12.2819 17.1328 12.2225 17.201 12.1649 17.1364C12.1445 17.1137 12.155 16.9553 12.1337 16.9138C12.1124 16.8724 12.0696 16.833 12.0473 16.9064C12.0251 16.9798 12.0494 17.2316 12.016 17.2536C11.8711 17.3497 11.7275 17.2076 11.5827 17.1914C11.5612 17.1891 11.579 17.2804 11.5474 17.2837C11.4308 17.2957 11.2294 17.3925 11.1281 17.1976C11.047 17.041 11.1491 16.9165 11.0871 16.8534C11.0572 16.8231 11.0249 17.1288 11.0177 17.1387C10.9471 17.2387 10.8981 17.105 10.8346 17.1485C10.8215 17.1576 10.8344 17.2814 10.8232 17.2878C10.7851 17.3107 10.7451 17.2565 10.7087 17.2678C10.6923 17.2732 10.6954 17.3683 10.6803 17.3615C10.6444 17.3462 10.6126 17.3072 10.5775 17.2187C10.5743 17.2106 10.5958 17.0913 10.5692 17.0875C10.5262 17.0819 10.4727 16.9946 10.4232 17.0873C10.4085 17.1151 10.4079 17.3344 10.3763 17.1838C10.3697 17.1524 10.3781 16.8887 10.3413 17.1172C10.3351 17.1551 10.2733 17.4643 10.2429 17.2668C10.2349 17.2148 10.2145 16.999 10.1968 17.0334C10.1944 17.0388 10.204 17.1569 10.1894 17.1687C10.1377 17.2085 10.0836 17.1971 10.0306 17.2354C10.0164 17.2458 10.0375 17.3681 10.0164 17.3798C10.011 17.3828 10.0056 17.3853 9.99997 17.3873C9.96379 17.4067 9.92192 17.3801 9.88618 17.3477C9.87167 17.3343 9.87667 17.2317 9.87523 17.2206C9.84949 17.0414 9.85113 17.2858 9.84691 17.3005C9.8184 17.3884 9.78504 17.2766 9.75578 17.3105C9.7479 17.3195 9.76466 17.4349 9.76391 17.4454C9.75658 17.5486 9.74957 17.3387 9.73616 17.3171C9.69815 17.2559 9.66246 17.2702 9.63246 17.29C9.6215 17.2975 9.65282 17.4296 9.64318 17.4347C9.58691 17.4675 9.526 17.4664 9.45207 17.4065C9.43806 17.395 9.4232 17.2911 9.41588 17.2683C9.36351 17.1088 9.3876 17.3374 9.3878 17.3598C9.38592 17.4624 9.35533 17.3748 9.33765 17.3973C9.2548 17.5082 9.11579 17.4901 9.00458 17.4937C8.99365 17.4941 8.98275 17.4941 8.97188 17.494C8.84147 17.4918 8.7088 17.4589 8.60624 17.5324C8.5992 17.5372 8.67478 17.6536 8.66981 17.6591C8.60385 17.7241 8.49325 17.717 8.43091 17.789C8.42576 17.7945 8.50892 17.8935 8.5034 17.9055C8.4965 17.9217 8.48104 17.9301 8.45849 17.9282C8.44588 17.9272 8.43106 17.923 8.4143 17.9153C8.39158 17.9051 8.34151 17.8126 8.31974 17.8045C8.26872 17.7857 8.23408 17.7942 8.21895 17.8237C8.21274 17.8363 8.31 17.9249 8.29595 17.9332C8.202 17.9928 8.11612 18.0489 7.89931 18.0056C7.88447 18.0024 7.70655 17.8452 7.72357 17.887C7.76999 17.932 7.82606 17.9839 7.87644 18.0315C7.7486 18.1442 7.53138 18.1936 7.36302 18.3093C7.35588 18.3139 7.4541 18.3611 7.44051 18.3699C7.36253 18.4221 7.30666 18.4839 7.1483 18.5044C7.13278 18.5066 6.99752 18.4305 6.997 18.4623C6.99703 18.4679 6.98269 18.5086 7.00312 18.5307C7.00629 18.5339 7.07537 18.5594 7.06602 18.5696C7.01067 18.6285 6.92689 18.6802 6.83038 18.7286C6.81478 18.7365 6.76709 18.7023 6.75574 18.708C6.67787 18.7501 6.66623 18.8246 6.57575 18.8641C6.51653 18.8916 6.44226 18.8502 6.34829 18.8464C6.33516 18.8459 6.32038 18.8721 6.27389 18.8595C6.1572 18.8281 6.03308 18.7741 5.90785 18.7422C5.88713 18.7369 5.89811 18.7679 5.87564 18.7612C5.87563 18.7612 5.87563 18.7612 5.87563 18.7612C5.86899 18.7592 5.85945 18.7539 5.84506 18.7433C5.84089 18.7402 5.81987 18.6999 5.79738 18.6844C5.7818 18.6736 5.73442 18.6695 5.71392 18.6508C5.69313 18.632 5.73323 18.6314 5.70847 18.603C5.68307 18.5742 5.62666 18.5649 5.61599 18.5194ZM14.3833 16.4558C14.369 16.356 14.3293 16.7154 14.3629 16.6305C14.3646 16.626 14.384 16.4607 14.3833 16.4558ZM17.0063 17.7548C17.0688 17.6656 16.9307 17.7423 16.8812 17.809C16.8317 17.8745 16.9874 17.7813 17.0063 17.7548ZM17.2758 17.9942C17.3191 17.9199 17.0487 18.0825 17.1268 18.0816C17.1313 18.0816 17.2733 17.9985 17.2758 17.9942ZM6.37659 18.733C6.37395 18.7324 6.36215 18.7507 6.36433 18.752C6.41657 18.7816 6.44198 18.7465 6.37659 18.733ZM17.5203 18.2643C17.5494 18.2356 17.492 18.2233 17.4559 18.2592C17.427 18.2876 17.4844 18.2994 17.5203 18.2643ZM13.0135 16.0557C13.0131 16.0497 12.9974 16.0444 12.9977 16.0779C12.9987 16.1858 13.0207 16.1552 13.0135 16.0557ZM17.7604 18.8251C17.7391 18.7386 17.9186 18.6153 17.9255 18.7222C17.9268 18.7412 17.8523 18.7042 17.8416 18.7325C17.8231 18.7829 17.9509 18.7728 17.8985 18.8349C17.8894 18.8455 17.7615 18.8297 17.7601 18.825C17.7602 18.825 17.7603 18.8251 17.7604 18.8251ZM14.4141 16.0236C14.4141 16.0188 14.3928 16.0121 14.3918 16.0168C14.3692 16.13 14.4108 16.143 14.4141 16.0236ZM12.0945 15.8011C12.0933 15.7894 12.0427 15.778 12.041 15.7888C12.0146 16.0052 12.1169 16.0279 12.0945 15.8011ZM15.9176 16.2326C15.985 16.1555 16.0181 16.1615 15.9771 16.281C15.9585 16.263 15.937 16.25 15.9176 16.2326Z" fill="black"/>
</svg>
