<svg width="24" height="24" viewBox="0 0 24 24" fill="none" xmlns="http://www.w3.org/2000/svg">
<path d="M10.5967 20.6996C10.3581 20.5183 10.1109 20.2146 9.94093 19.9656C9.88755 19.8877 9.97687 19.8642 9.94254 19.8079C9.87532 19.6978 9.76498 19.6434 9.70297 19.5302C9.6827 19.4924 9.8076 19.4388 9.78431 19.4012C9.65604 19.1958 9.47507 19.0617 9.3243 18.8747C8.58179 17.9534 7.79382 17.1065 6.98853 16.2282C6.72292 15.9386 6.46439 15.5217 6.1412 15.272C6.10339 15.2429 6.04564 15.3413 6.03284 15.3414C5.83435 15.3412 6.02476 15.2156 5.98011 15.1297C5.80249 14.789 5.52053 14.4954 5.24029 14.2779C5.12084 14.1856 5.07305 14.4473 5.0526 14.2536C5.05101 14.2403 5.16063 14.1837 5.14025 14.1458C5.09386 14.0603 4.95349 13.9508 4.90872 13.8934C4.82287 13.7823 4.80568 13.7669 4.71308 13.6733C4.58722 13.5446 4.47621 13.3526 4.3203 13.2356C4.28678 13.2109 4.24086 13.3348 4.17975 13.3031C4.1223 13.2732 4.01597 13.1568 3.98534 13.0919C3.98749 13.0919 3.98539 13.0875 3.98369 13.0835C3.95565 13.0161 4.04288 12.9691 4.04978 12.9455C4.11235 12.7515 3.77839 12.7634 3.75279 12.7426C3.31531 12.407 3.17316 11.9302 2.9529 11.4904C2.89131 11.367 2.82714 11.2409 2.76645 11.1124C2.66055 10.8887 2.56572 10.6571 2.51105 10.4329C2.41007 10.0109 2.42154 9.64053 2.39116 9.22808C2.38834 9.18418 2.24896 9.24179 2.24537 9.18711C2.23804 9.07053 2.23555 8.95373 2.23826 8.83715C2.24887 8.37179 2.34411 7.90808 2.5394 7.48765C2.56403 7.43532 2.66408 7.5389 2.69569 7.48964C2.84238 7.25307 3.12125 6.97615 3.069 6.67904C3.05323 6.589 3.00774 6.49472 2.91898 6.39504C3.04548 6.19171 3.21592 5.95274 3.4249 5.84351C3.5592 5.77415 3.5946 5.95752 3.64184 5.79357C3.65311 5.75667 3.5293 5.72462 3.5542 5.67383C3.66055 5.45861 3.85693 5.28818 3.97631 5.07858C4.00058 5.03557 3.91602 4.97024 3.91212 4.94695C3.88577 4.75229 4.20625 4.80478 4.24783 4.79359C4.26551 4.78786 4.28264 4.78197 4.29926 4.77592C4.58972 4.67227 4.72998 4.50606 4.96163 4.35707C5.01859 4.32112 4.87368 4.24494 4.92685 4.20557C5.20499 4.00271 5.53377 3.84721 5.86672 3.78052C5.94073 3.76621 5.92313 3.90429 5.96031 3.90351C6.12095 3.90105 6.07456 3.67383 6.23322 3.67272C6.26627 3.67256 6.2817 3.77699 6.29066 3.78608C6.31699 3.81322 6.33785 3.82586 6.35475 3.82839C6.42628 3.83942 6.42965 3.6637 6.44671 3.65403C6.70942 3.5003 6.9471 3.72118 7.20575 3.64393C7.23768 3.63455 7.14454 3.51479 7.23675 3.49641C7.66781 3.41116 8.13478 3.41358 8.57219 3.5057C8.75911 3.54476 8.94063 3.59958 9.11215 3.66807C9.20106 3.70382 9.11388 3.78614 9.11733 3.79934C9.16711 4.00515 9.28335 3.77155 9.31672 3.77006C9.57287 3.76396 9.7114 4.03697 9.97306 3.81208C10.2265 3.93971 10.4758 4.06736 10.7177 4.20826C11.3695 4.58505 11.9905 5.09198 12.2713 5.80459L11.7304 5.80309C11.7308 5.80278 11.7312 5.80247 11.7316 5.80216C11.7418 5.79395 11.8286 5.88749 11.8482 5.87114C12.087 5.6794 11.8972 5.60689 11.8568 5.28993C11.8488 5.20809 12.1687 5.28989 12.1922 5.29685C12.2825 5.31607 12.3802 5.48347 12.4024 5.48238C12.5776 5.47477 12.1275 5.048 12.2721 4.91406C12.2772 4.91082 12.3352 5.01188 12.3547 5.00947C12.4149 5.00266 12.4216 4.93636 12.4838 4.93445C12.6282 4.93068 12.8426 5.14183 12.8616 4.90622C12.8648 4.87586 12.6241 4.61576 12.7746 4.52662C12.8332 4.49028 13.0844 4.31701 13.1703 4.29473C13.2549 4.27088 13.2621 4.39807 13.27 4.39907C13.3254 4.4022 13.3671 4.40962 13.4005 4.42009C13.5281 4.46136 13.5356 4.54314 13.6909 4.65909C13.8827 4.80749 13.6172 4.35331 13.6314 4.28035C13.646 4.20687 13.8456 4.24928 13.8977 4.27384C13.9504 4.29748 13.9355 4.3825 13.9762 4.39112C14.2417 4.45059 13.9667 4.11184 14.0071 4.00509C14.1115 3.75145 14.3818 4.07159 14.5432 4.06383C14.5882 4.06147 14.5289 3.98617 14.5648 3.96726C14.7095 3.89404 14.8271 3.99003 14.9795 3.84554C15.0025 3.82206 15.1112 3.5638 15.2329 3.72063C15.2495 3.74334 15.2264 3.84463 15.2953 3.85702C15.341 3.86543 15.4016 3.87022 15.4639 3.87012C15.5417 3.86989 15.622 3.8622 15.6798 3.84063C15.7572 3.81219 15.6574 3.65708 15.7611 3.70176C15.8067 3.72208 15.7288 3.81897 15.8127 3.8496C15.8956 3.87944 16.1029 3.87548 16.1824 3.87623C16.2615 3.87607 16.2238 3.75308 16.2304 3.74512C16.2716 3.69936 16.4337 3.65173 16.448 3.65363C16.863 3.68009 17.2417 3.82593 17.5966 3.98407C17.8492 4.09666 18.0924 4.2155 18.3543 4.31548C18.4038 4.33473 18.4304 4.20469 18.4386 4.20645C18.6277 4.24423 18.3423 4.47896 18.3953 4.63679C18.5042 4.40042 18.5468 4.4759 18.6702 4.51595C18.7298 4.53538 18.7533 4.43221 18.7634 4.42621C18.9233 4.34424 18.8739 4.54771 18.8647 4.58987C18.8336 4.74668 18.985 4.63729 18.9625 4.74266C18.9387 4.84629 18.7817 4.9144 18.8771 4.97945C18.9585 4.9234 19.0263 4.67278 19.1253 4.69542C19.2656 4.72811 19.4128 4.83193 19.5434 4.96332C19.7646 5.18325 19.9279 5.47827 20.0304 5.62139C20.1944 5.85071 20.2589 5.91651 20.3243 6.06979C20.4353 6.34849 20.5271 6.1603 20.6959 6.28095C20.8626 6.40674 20.4278 6.54097 20.3575 6.61024C20.2857 6.6775 20.3846 6.65409 20.3527 6.70573C20.3202 6.75662 20.2331 6.73018 20.2478 6.80069C20.2564 6.8422 20.3422 6.89111 20.4317 6.9238C20.4935 6.94614 20.5572 6.96031 20.5988 6.95333C20.814 6.91857 20.9811 6.74231 20.9894 6.96322C20.9895 6.97576 20.8673 6.98518 20.8732 7.03069C20.9219 7.38832 21.0165 7.73565 21.0002 8.0859C20.9977 8.13371 20.8625 8.11608 20.8594 8.14362C20.822 8.42756 21.0214 8.29427 21.2829 8.42555C20.9567 8.42724 20.7732 8.53308 20.7836 8.73263C20.7879 8.82952 20.8773 8.83205 20.9657 8.86953C20.9879 8.879 21.0099 8.89074 21.0303 8.90695C21.0611 8.9316 20.9646 9.02212 21.0307 9.03849C21.2468 9.09509 21.4941 9.00903 21.3895 9.24193C21.3845 9.25186 21.2671 9.21465 21.2583 9.2491C21.1987 9.4691 21.4238 9.51416 21.4185 9.76986C21.4144 9.97174 21.2073 10.2872 21.1232 10.4884C20.7747 10.386 20.8003 10.5897 21.0084 10.752C20.9751 10.8292 20.9467 10.9123 20.9107 10.9905C20.8859 11.0444 20.8575 11.0959 20.8222 11.141C20.7924 11.179 20.7087 11.1079 20.6959 11.1087C20.4976 11.1147 20.6933 11.2702 20.6881 11.3027C20.624 11.6422 20.3301 11.7709 20.2956 12.128C20.2946 12.1403 20.487 12.3063 20.2872 12.2647C20.274 12.2609 20.2448 12.1096 20.1484 12.2213C20.0504 12.3354 19.7737 12.4517 19.7154 12.6755C19.7098 12.6967 19.7149 12.7446 19.7117 12.7933L19.7203 12.7845C19.7206 12.8594 19.7029 12.9353 19.5911 12.9108C19.5665 12.9052 19.5233 12.8454 19.4813 12.8312C19.3469 12.7865 19.5109 12.9851 19.3048 12.8874C19.0988 12.7898 18.8809 12.7845 18.8556 13.0301C18.8545 13.0377 18.9703 13.2101 18.9257 13.253C18.8543 13.3212 18.7278 13.3943 18.6583 13.4702C18.6251 13.5066 18.7384 13.5697 18.7342 13.5775C18.5587 13.8672 18.3156 13.9624 18.0372 14.1878C17.986 14.229 17.983 14.4826 17.798 14.4816C17.5951 14.4809 17.2425 13.9548 17.1321 14.2872C17.0872 14.4209 17.5469 15.0753 17.0934 14.9655C16.8608 15.3601 16.4265 15.5192 16.2244 15.9441C16.2152 15.9632 16.3309 16.1592 16.2963 16.1917C16.2446 16.2397 16.1438 16.1979 16.1045 16.2299C15.938 16.3622 15.8699 16.5624 15.7211 16.701C15.6647 16.7538 15.6062 16.6619 15.539 16.7248C15.4719 16.7878 15.5314 16.9276 15.3972 16.9723C15.2956 17.0058 15.0241 16.8797 14.9145 16.9479C15.1157 17.1433 15.0528 17.2018 15.0025 17.3635C14.993 17.3946 15.0856 17.4386 15.0847 17.4568C15.0828 17.5323 14.9882 17.5149 14.9915 17.5914C14.9921 17.6099 15.0615 17.6759 15.066 17.6947C15.1069 17.8572 14.8478 17.8184 14.803 17.8114C14.632 17.7854 14.6914 17.9041 14.599 17.9205C14.5066 17.9369 14.5324 17.807 14.4476 17.8477C14.2717 17.9322 14.123 18.1131 13.9933 18.2448C13.942 18.2978 14.0696 18.3486 14.0644 18.3582C13.9837 18.4915 13.779 18.5108 13.9068 18.7467C13.3545 18.3731 13.8904 18.8574 13.6451 18.9261C13.6256 18.9313 13.3837 18.7341 13.3955 18.6548C13.4074 18.5755 13.5467 18.5693 13.5574 18.4538C13.56 18.4266 13.4322 18.1365 13.4309 18.1121C13.421 17.9209 13.773 18.2257 13.7964 18.238C14.0519 18.3688 13.9265 18.0432 13.938 17.9993C13.9905 17.7981 14.1443 17.7298 14.1971 17.5698C14.232 17.4656 14.0166 17.2499 14.0771 17.1991C14.278 17.0301 14.6502 17.2548 14.5497 16.8234C14.5284 16.7312 14.2498 16.5413 14.5699 16.583C14.5901 16.5857 14.8607 16.6475 14.8056 16.4847C14.7987 16.4642 14.7277 16.398 14.7309 16.3827C14.754 16.2811 14.8514 16.2903 14.8915 16.1936C14.9315 16.0968 14.9718 15.9732 15.0723 15.9143C15.1328 15.8786 15.3238 15.9394 15.3782 15.9462C15.5335 15.9672 15.4479 15.7528 15.5991 15.8174C15.7512 15.8822 15.8469 16.1247 16.0221 16.0846C15.8421 15.9079 15.6621 15.7215 15.4833 15.5414C15.7135 15.3092 15.9932 15.1305 16.2096 14.8838C16.2363 14.853 16.109 14.7905 16.135 14.7552C16.2452 14.6063 16.4256 14.5554 16.5281 14.39C16.6071 14.2616 16.6133 14.0453 16.6926 13.908C16.9675 14.0368 17.0529 13.8028 17.1861 13.6995C17.2326 13.6633 17.2861 13.7189 17.3329 13.7058C17.5077 13.6555 17.2717 13.5344 17.2717 13.4756C17.2728 13.2243 17.7044 13.6079 17.8424 13.44C17.8499 13.4313 17.7218 13.1183 17.721 13.0911C17.7141 12.9159 17.813 13.1495 17.8823 13.109C18.0087 13.0351 18.1291 13.0142 18.1762 12.8324C18.1896 12.7791 18.1288 12.5638 18.3008 12.5973C18.3233 12.6017 18.3928 12.6762 18.4039 12.6731C18.5987 12.6107 18.369 12.3885 18.3601 12.2399C18.3512 12.0913 18.6201 12.1273 18.6884 12.1474C18.8658 12.1987 18.6955 12.2424 18.7042 12.2568C18.8076 12.4273 18.8623 12.3207 18.9344 12.2677C19.1715 12.4728 19.242 12.3703 19.0082 12.2118C18.9825 12.1947 18.9569 12.2646 18.9344 12.2677C18.8454 12.1291 18.8199 12.0286 18.8596 11.9764C18.8648 11.9715 18.8791 11.9557 18.8845 11.951C18.9156 11.9116 18.9988 11.9165 19.1417 11.9659C19.2811 12.013 19.3591 12.1637 19.444 11.98C19.4811 11.8964 19.2944 11.7831 19.2949 11.6899C19.2927 11.4811 19.578 11.4274 19.6432 11.2604C19.6658 11.2014 19.5337 11.1912 19.545 11.1496C19.5732 11.0404 19.6977 10.9983 19.7073 10.8785C19.7079 10.8679 19.5868 10.8335 19.6003 10.8032C19.6433 10.7024 19.6958 10.6132 19.7487 10.5224C19.8171 10.405 19.8867 10.2843 19.9296 10.1398C19.9678 10.0152 19.9512 9.77751 19.9839 9.65051C20.044 9.43338 20.2418 9.15251 20.1935 8.9463C20.1884 8.92384 20.1804 8.90619 20.1704 8.89215C20.1212 8.82404 20.0245 8.84001 19.9525 8.79908C19.7855 8.70918 20.0566 8.50274 20.0968 8.46701C20.0984 8.46568 20.1408 8.57453 20.1967 8.50692C20.3236 8.455 20.0974 8.46783 20.0968 8.46701C20.1251 8.44688 20.1164 8.21804 20.0825 8.17888C20.065 8.15761 19.953 8.1947 19.9461 8.18352C19.7831 7.91891 19.6697 7.66747 19.6002 7.38017C19.6002 7.37449 19.7228 7.32761 19.7212 7.31465C19.7193 7.29613 19.7154 7.2791 19.71 7.26343C19.6605 7.12377 19.4886 7.09601 19.3534 7.03426C19.202 6.96509 19.1736 6.86636 19.3085 6.66733C19.2244 6.59657 19.2088 6.41522 19.1946 6.30577C19.1803 6.19598 18.9804 6.35625 18.9719 6.35405C18.749 6.29958 18.7127 6.17043 18.6138 6.02417C18.5891 5.98798 18.5608 5.95136 18.5251 5.91632C18.4413 5.83125 18.2288 5.7229 18.1069 5.68068C18.0111 5.64689 17.9891 5.5648 17.8896 5.55358C17.8763 5.55212 17.8328 5.65777 17.8274 5.65981C17.6764 5.73283 17.8481 5.51013 17.8523 5.4562C17.8665 5.26067 17.8586 5.14825 17.6956 5.16827C17.656 5.17181 17.4186 5.50543 17.3636 5.50939C17.2893 5.51264 17.3639 5.38747 17.2829 5.39508C17.2761 5.3957 17.2477 5.47923 17.2074 5.46125C17.184 5.45104 17.1603 5.44047 17.1364 5.42973C16.9686 5.35397 16.784 5.27021 16.595 5.24821C16.5659 5.24453 16.5809 5.38872 16.5396 5.38602C16.3462 5.37354 16.1402 5.35454 15.9491 5.29169C15.9019 5.27583 15.9294 5.17722 15.9185 5.14825C15.8475 4.97299 15.7644 5.23427 15.752 5.24017C15.7033 5.26072 15.6565 5.27506 15.6105 5.28505C15.3366 5.34635 15.0571 5.24323 14.787 5.43282C14.7668 5.44591 14.7287 5.75157 14.581 5.55846C14.5722 5.54505 14.4133 5.34983 14.4248 5.52562C14.426 5.53646 14.5138 5.63273 14.4439 5.65073C14.3726 5.6696 14.311 5.79268 14.1591 5.72171C14.1509 5.71797 14.1388 5.70992 14.1244 5.70023C14.0549 5.65195 13.9222 5.56801 13.9381 5.7463C13.9355 5.76319 14.0611 6.19887 13.8506 5.98254C13.816 5.9471 13.6376 5.68403 13.6392 5.88516C13.6407 5.92353 13.7144 5.95602 13.6961 6.02547C13.6703 6.13083 13.5265 6.13991 13.5438 6.31491C13.546 6.34656 13.6408 6.55141 13.485 6.47659C13.4602 6.4652 13.3989 6.37715 13.3672 6.39209C13.2148 6.46465 13.1593 6.63493 13.0044 6.71715C12.9859 6.72715 12.9603 6.71973 12.9316 6.70623C12.3826 7.35805 11.535 7.41204 11.0651 6.70103C11.1068 6.65397 11.1754 6.6024 11.174 6.55034C11.1725 6.47228 11.1228 6.34172 11.0195 6.34288C10.9174 6.34521 10.7597 6.57709 10.6825 6.52404C10.3632 6.31017 10.1679 5.96729 9.84103 5.74313C9.82912 5.73499 9.81709 5.72705 9.80492 5.71933C9.75424 5.68758 9.75074 5.79613 9.67403 5.75757C9.38649 5.60621 8.86014 5.53089 8.61841 5.28884C8.41534 5.08924 8.7284 5.00946 8.55474 4.9153C8.5115 4.89304 8.45503 4.9575 8.40966 5.02928C8.36381 5.1013 8.32853 5.18047 8.31787 5.18455C8.11317 5.26918 7.9797 5.12788 7.79825 5.17893C7.76167 5.18978 7.80449 5.31593 7.77422 5.3238C7.67232 5.35191 7.55768 5.30615 7.45925 5.331C7.41539 5.34253 7.43865 5.43809 7.39777 5.43707C7.29975 5.43627 7.20886 5.41289 7.09203 5.34695C7.08088 5.34109 7.1124 5.20779 7.03669 5.22185C6.96834 5.23504 6.88374 5.22746 6.80242 5.24338C6.73853 5.25583 6.67697 5.28281 6.63202 5.34352C6.60125 5.38527 6.68238 5.59323 6.54275 5.48311C6.51383 5.46036 6.43001 5.20297 6.42406 5.45897C6.41885 5.50274 6.40502 5.8549 6.24054 5.71514C6.19689 5.6781 6.03841 5.51388 6.0097 5.57053C6.00656 5.57874 6.09035 5.66911 6.06031 5.70019C5.95433 5.80767 5.82038 5.88163 5.72459 6.00152C5.69967 6.03346 5.82078 6.09747 5.78263 6.14111C5.73776 6.19302 5.68174 6.24118 5.62171 6.28649C5.54282 6.34588 5.45696 6.40065 5.38014 6.44788C5.33017 6.47855 5.28305 6.37898 5.27223 6.37402C5.09165 6.29858 5.24376 6.49788 5.24041 6.52304C5.21341 6.68236 5.05891 6.69016 5.00656 6.8131C4.9924 6.84645 5.10227 6.89501 5.10665 6.9068C5.1492 7.02321 5.00783 6.85811 4.96236 6.88235C4.83408 6.95099 4.7634 7.08306 4.71384 7.20597C4.69589 7.25116 4.84121 7.26847 4.82443 7.30727C4.80177 7.36176 4.77844 7.4162 4.75423 7.47039C4.67627 7.64478 4.5896 7.81612 4.48274 7.98068C4.45623 8.02135 4.36325 7.96499 4.33752 7.96794C4.15652 7.99168 4.35384 8.14921 4.37084 8.17413C4.44581 8.29584 4.34796 8.31565 4.35008 8.40934C4.35523 8.56447 4.35155 8.72713 4.34899 8.89275C4.34295 9.20954 4.34621 9.54048 4.38499 9.81654C4.41418 10.027 4.44961 10.2211 4.49951 10.4074C4.57943 10.7032 4.69572 10.9828 4.90458 11.2427C4.92608 11.2694 5.01812 11.1591 5.03766 11.1804C5.16944 11.3275 5.29189 11.4782 5.42888 11.6177C5.43047 11.6195 5.43568 11.6242 5.43725 11.626C5.59886 11.7915 5.76212 11.9556 5.94114 12.1066C5.97256 12.1334 6.02343 11.9976 6.07699 12.0375C6.1875 12.1187 6.3045 12.2446 6.37221 12.3711C6.40541 12.4327 6.26182 12.4502 6.29687 12.5104C6.37831 12.651 6.49106 12.7759 6.62037 12.8741C6.6756 12.9157 6.69733 12.7469 6.7617 12.8084C7.20217 13.2258 7.64187 13.6285 7.9542 14.1843C7.9756 14.2224 7.80837 14.4437 7.90895 14.4691C7.96742 14.4196 8.0303 14.3556 8.08977 14.2998C8.74814 14.89 9.30214 15.5728 9.921 16.2065C9.94711 16.2331 10.0038 16.0843 10.0548 16.1354C10.3506 16.4314 10.6677 16.6886 10.8699 17.0926C10.8901 17.1325 10.6943 17.2993 10.8105 17.3598C10.8311 17.3703 10.9891 17.4786 11.0628 17.4734C11.0734 17.4721 11.1332 17.3629 11.1788 17.4032C11.4423 17.6386 11.6859 17.9183 11.8848 18.2181C11.9167 18.2667 11.7841 18.3146 11.806 18.3499C11.9626 18.6001 12.2527 18.7512 12.3664 19.0265C12.4422 19.2112 12.2389 19.3197 12.1558 19.5424C12.1441 19.5738 12.2215 19.6573 12.137 19.7511C11.9246 19.9869 11.6412 20.1948 11.4194 20.4508C11.3716 20.5059 11.5351 20.5574 11.3472 20.6189C11.3344 20.6229 11.2148 20.5866 11.1535 20.6099C11.111 20.6258 11.0451 20.741 10.9804 20.7513C10.9158 20.7616 10.9613 20.6553 10.8721 20.6543C10.7824 20.6539 10.6998 20.7773 10.5967 20.6996ZM19.1013 5.81121C19.1197 5.65913 18.8045 5.97872 18.9448 5.96431C18.952 5.96325 19.1004 5.81874 19.1013 5.81121ZM16.2386 15.3635C16.4734 15.4026 16.3232 15.1374 16.148 15.1008C15.9728 15.0643 16.1673 15.3518 16.2386 15.3635ZM15.4053 16.4619C15.6248 16.4561 15.1777 16.0028 15.1582 16.2115C15.1569 16.2235 15.3925 16.4623 15.4053 16.4619ZM11.7907 19.2676C11.7875 19.2728 11.8415 19.3345 11.847 19.3317C11.9782 19.2611 11.8701 19.1378 11.7907 19.2676ZM14.5885 17.5615C14.6843 17.5852 14.707 17.4159 14.5879 17.3864C14.4921 17.3626 14.4694 17.532 14.5885 17.5615ZM14.6089 4.27277C14.6056 4.2667 14.5482 4.27762 14.5604 4.31348C14.5998 4.42855 14.665 4.37346 14.6089 4.27277ZM13.0108 19.2523C13.2621 19.0196 13.787 19.2283 13.4891 19.459C13.4352 19.5007 13.4663 19.2384 13.3731 19.2685C13.2028 19.3238 13.372 19.6256 13.1334 19.6213C13.09 19.6203 12.9956 19.2647 13.0107 19.2513C13.0107 19.2516 13.0107 19.2519 13.0108 19.2523ZM19.4345 5.38417C19.4373 5.37839 19.3816 5.31883 19.3761 5.32197C19.2486 5.39788 19.3571 5.51442 19.4345 5.38417ZM12.0344 5.7003C12.042 5.68828 11.9236 5.52996 11.9099 5.5334C11.6717 5.61255 11.8987 5.91797 12.0344 5.7003ZM21.1129 10.489C21.2247 10.6193 21.2034 10.7401 21.0087 10.7516C21.0484 10.6665 21.0783 10.5771 21.1129 10.489Z" fill="black"/>
</svg>
