<svg width="24" height="24" viewBox="0 0 24 24" fill="none" xmlns="http://www.w3.org/2000/svg">
<path d="M4.49462 10.3299C4.54438 10.521 4.53235 10.7747 4.51109 10.9778C4.50452 11.0413 4.42074 11.0251 4.41315 11.0704C4.39878 11.1595 4.45341 11.2284 4.43679 11.3181C4.43101 11.3481 4.30036 11.3433 4.29726 11.3747C4.28183 11.5477 4.3556 11.6899 4.3824 11.8565C4.40589 12.0019 4.43738 12.1459 4.47621 12.288C4.65816 12.9533 4.99733 13.5729 5.44197 14.1335C5.50096 14.2079 5.55871 14.2931 5.6203 14.3797C5.74422 14.5547 5.88653 14.7363 6.06363 14.837C6.09454 14.8544 6.14786 14.7553 6.15873 14.7524C6.3253 14.7072 6.15967 14.8604 6.1954 14.9258C6.33732 15.1843 6.59241 15.3671 6.84166 15.4611C6.94797 15.5006 6.9591 15.2546 6.99524 15.4162C6.99804 15.4273 6.91621 15.5161 6.93707 15.542C6.98463 15.6009 7.1125 15.6441 7.1569 15.6764C7.24251 15.7395 7.25894 15.746 7.3485 15.7889C7.41405 15.8206 7.48057 15.8689 7.55156 15.9111C7.61281 15.9475 7.67728 15.9792 7.7452 15.9916C7.77646 15.9969 7.78042 15.8699 7.8333 15.8677C7.88601 15.8658 8.00375 15.9176 8.03652 15.9579C8.06915 15.9985 8.0224 16.0827 8.02313 16.1057C8.03011 16.3009 8.25289 16.1026 8.27159 16.101C8.6385 16.0931 8.90293 16.2917 9.23928 16.3327C9.49061 16.3626 9.76174 16.3311 10 16.3363C10.002 16.3364 10.004 16.3364 10.0059 16.3365C10.2914 16.3439 10.541 16.3927 10.8193 16.3461C10.8485 16.3412 10.7961 16.2054 10.8311 16.1992C11.2023 16.1326 11.5646 16.0664 11.9553 16.0405C11.9947 16.0379 11.986 16.1714 12.0282 16.1757C12.1797 16.1896 12.4003 16.2258 12.5409 16.1343C12.6387 16.0709 12.6945 15.9474 12.6521 15.7219C12.8038 15.6753 12.9824 15.6079 13.1608 15.6323C13.2763 15.6475 13.2647 15.8102 13.3366 15.7019C13.3526 15.6775 13.2635 15.5925 13.2916 15.5639C13.4085 15.4445 13.5783 15.3807 13.6739 15.2387C13.6931 15.2096 13.6245 15.128 13.6208 15.1072C13.5914 14.9386 13.8425 15.0704 13.8772 15.067C14.131 15.0468 14.2198 14.9005 14.3691 14.769C14.4037 14.7383 14.2671 14.6702 14.2964 14.6372C14.35 14.5778 14.4058 14.5198 14.464 14.464C14.5715 14.3608 14.6872 14.2652 14.8136 14.1824C14.8571 14.1541 14.919 14.2684 14.9447 14.2587C15.0579 14.2129 14.8964 14.048 14.9979 14.0012C15.0191 13.9909 15.093 14.0651 15.1043 14.0692C15.284 14.1315 15.1171 13.9316 15.1217 13.9164C15.1794 13.7136 15.4698 13.7615 15.5472 13.5734C15.5558 13.5511 15.4169 13.5239 15.4474 13.4664C15.6189 13.1398 15.8137 12.8129 16.0231 12.4949C16.0599 12.4391 16.0971 12.3836 16.1348 12.3285C16.1738 12.2709 16.2495 12.3507 16.2623 12.3512C16.4659 12.3507 16.2416 12.2193 16.2396 12.196C16.2316 12.0111 16.4847 11.9122 16.2232 11.7167C16.4607 11.1728 16.4476 10.5793 16.5477 10C16.5725 9.85577 16.6042 9.7102 16.6483 9.56048C16.6508 9.55081 16.7773 9.55956 16.7818 9.54006C16.8347 9.30413 16.6423 9.36193 16.3892 9.24471C16.3258 9.21688 16.5968 9.06793 16.6159 9.05356C16.6877 9.00547 16.8783 9.0172 16.8914 9.00252C16.9926 8.87798 16.3847 8.98987 16.3618 8.85946C16.362 8.85508 16.4772 8.85262 16.4863 8.83938C16.515 8.79783 16.464 8.77133 16.4958 8.72955C16.5692 8.63444 16.857 8.54012 16.658 8.45432C16.6322 8.44417 16.2965 8.54585 16.2841 8.42604C16.28 8.3776 16.218 8.17491 16.2215 8.11154C16.2258 8.04792 16.3458 8.0537 16.3493 8.04832C16.4425 7.84628 16.52 7.88686 16.7027 7.73479C16.8828 7.57987 16.3936 7.77491 16.3272 7.76271C16.2612 7.75063 16.335 7.59463 16.3636 7.55034C16.3926 7.50652 16.4734 7.51619 16.4861 7.48191C16.5661 7.25306 16.2145 7.50494 16.1156 7.48293C16.1069 7.4811 16.099 7.47902 16.0918 7.47669C15.906 7.41908 16.1971 7.1813 16.1765 7.0522C16.1709 7.01664 16.103 7.08033 16.0823 7.05659C16.0016 6.96343 16.0763 6.84187 15.9128 6.77432C15.8857 6.76218 15.6296 6.78399 15.743 6.63767C15.7593 6.61642 15.8579 6.59225 15.8505 6.53683C15.8397 6.45396 15.7837 6.32342 15.7108 6.27178C15.6572 6.23389 15.5618 6.37999 15.5615 6.28948C15.5611 6.24901 15.6742 6.24944 15.6665 6.1771C15.6591 6.10462 15.5603 5.97191 15.5201 5.92379C15.4801 5.87546 15.4032 5.97569 15.3936 5.97646C15.3382 5.97998 15.2209 5.92354 15.2147 5.91568C15.0391 5.70447 14.9049 5.47197 14.7465 5.25354C14.6078 5.06228 14.4504 4.88269 14.2439 4.75631C14.2094 4.73505 14.15 4.85166 14.1439 4.84945C14.0047 4.80728 14.3008 4.60733 14.2929 4.45646C14.1448 4.6706 14.1286 4.59777 14.0333 4.56249C13.9873 4.54582 13.9482 4.64211 13.9386 4.64783C13.7939 4.73109 13.8712 4.54409 13.8838 4.50354C13.9315 4.35534 13.79 4.47098 13.8202 4.37151C13.8489 4.272 13.9928 4.19266 13.9112 4.14007C13.8375 4.2028 13.7601 4.44334 13.6799 4.4373C13.3841 4.41472 13.0555 4.01592 12.8638 3.90832C12.7283 3.82901 12.6532 3.80345 12.583 3.76406C12.5572 3.74971 12.532 3.73365 12.5043 3.71288C12.3154 3.57423 12.3278 3.77275 12.1722 3.80438C12.017 3.83816 12.221 3.43928 12.2325 3.34231C12.2431 3.24529 12.1907 3.33136 12.1826 3.2736C12.1741 3.21577 12.2478 3.17137 12.1953 3.13379C12.1417 3.09542 11.9324 3.21054 11.8862 3.30164C11.7868 3.49352 11.7958 3.72531 11.672 3.61154C11.6647 3.60486 11.7217 3.49913 11.6922 3.47925C11.4556 3.32489 11.1802 3.26485 10.9211 3.15004C10.8853 3.13406 10.9358 3.0098 10.9148 2.99903C10.6936 2.88824 10.7488 3.116 10.6051 3.34601C10.6627 3.02674 10.6115 2.82115 10.4302 2.80791C10.322 2.80055 10.3334 2.94293 10.2617 3.03965C10.2405 3.0688 10.169 2.96964 10.1539 3.03589C10.1057 3.25243 10.1686 3.49547 10 3.39795C9.99993 3.39791 9.99986 3.39787 9.99979 3.39783C9.99716 3.39621 9.9984 3.38038 10 3.36024C10.0021 3.33376 10.0049 3.29983 10 3.28099C9.99807 3.27352 9.99494 3.26842 9.9901 3.26711C9.81868 3.2213 9.80319 3.44887 9.62776 3.48536C9.491 3.51379 9.22941 3.39954 9.06375 3.4013C9.01757 3.04003 8.86656 3.14693 8.84897 3.40525C8.74264 3.41332 8.63354 3.44962 8.52581 3.43835C8.48868 3.43462 8.48799 3.32679 8.48113 3.31667C8.37236 3.15831 8.38216 3.40734 8.36279 3.422C8.14596 3.5722 7.89355 3.45641 7.72854 3.70755C7.72248 3.71672 7.79726 3.95816 7.6749 3.80691C7.66629 3.79659 7.69985 3.66106 7.59178 3.69232C7.54506 3.70602 7.4724 3.70487 7.39633 3.71418C7.29686 3.72616 7.19122 3.7566 7.13874 3.85438C7.11522 3.89632 7.12107 4.12076 6.98227 4.01138C6.9634 3.99652 6.94075 3.92675 6.90927 3.89748C6.80731 3.80513 6.90201 4.04367 6.75059 3.87829C6.59947 3.71286 6.4066 3.63179 6.33848 3.84652C6.33593 3.85311 6.40645 4.04667 6.36182 4.07031C6.2899 4.10804 6.16955 4.13506 6.09926 4.18399C6.06571 4.20741 6.15777 4.297 6.15318 4.30286C5.97097 4.51235 5.75329 4.5353 5.49646 4.68749C5.44825 4.71593 5.44794 4.94372 5.28125 4.9141C5.09659 4.88467 4.75947 4.35006 4.65797 4.65577C4.65779 4.65632 4.65763 4.65689 4.65747 4.65747C4.61784 4.78948 5.09001 5.41379 4.66518 5.28444C4.49519 5.62892 4.11745 5.78519 4.03165 6.1845C4.02763 6.20254 4.18427 6.36365 4.16184 6.39441C4.12782 6.44037 4.02407 6.41483 3.99702 6.44725C3.88153 6.58222 3.88229 6.7641 3.79609 6.90631C3.76361 6.96081 3.67848 6.89426 3.63984 6.96092C3.60141 7.02827 3.70658 7.13165 3.60391 7.1982C3.55848 7.22763 3.44057 7.22662 3.3354 7.23943C3.25998 7.24853 3.1912 7.2646 3.16163 7.30181C3.42098 7.40881 3.38835 7.47378 3.41471 7.61816C3.41999 7.64583 3.52059 7.65455 3.52786 7.66925C3.55974 7.72921 3.4694 7.74265 3.50721 7.80169C3.51627 7.81593 3.60686 7.84696 3.61948 7.86013C3.73037 7.97201 3.49036 8.01902 3.44826 8.02943C3.28881 8.0655 3.39815 8.13681 3.32791 8.18084C3.25761 8.226 3.2142 8.11767 3.16231 8.17963C3.05457 8.30922 3.02512 8.507 2.99191 8.65927C2.97918 8.72031 3.11273 8.70201 3.11382 8.71131C3.12249 8.84012 2.96845 8.9485 3.21111 9.05267C2.54725 9.05108 3.26297 9.1363 3.11333 9.29562C3.10136 9.30815 2.78954 9.2966 2.74996 9.23509C2.71053 9.17313 2.81713 9.09927 2.75724 9.0118C2.74284 8.99204 2.47014 8.84103 2.45542 8.82211C2.33811 8.68019 2.80025 8.74272 2.82621 8.74167C3.10902 8.72347 2.82485 8.54007 2.81135 8.49964C2.74675 8.32261 2.84292 8.20481 2.80918 8.05717C2.78796 7.96055 2.49752 7.8683 2.52684 7.80103C2.62711 7.57495 3.05318 7.64238 2.78296 7.30838C2.72631 7.23638 2.39733 7.16116 2.70596 7.09186C2.71718 7.08941 2.81163 7.07792 2.86836 7.04598C2.91016 7.02231 2.93158 6.98736 2.88504 6.93298C2.8712 6.91684 2.78198 6.87858 2.77949 6.86385C2.7648 6.76556 2.85833 6.74612 2.8634 6.64793C2.8686 6.54961 2.86831 6.42484 2.94614 6.34631C2.99298 6.29846 3.19047 6.31315 3.24326 6.30902C3.3943 6.29839 3.25657 6.11807 3.41623 6.15111C3.57557 6.18646 3.73025 6.38779 3.88121 6.33003C3.66731 6.19637 3.4513 6.05331 3.23856 5.91499C3.40515 5.65665 3.6416 5.45627 3.81823 5.21004C3.84011 5.17922 3.70923 5.12662 3.73037 5.09101C3.82119 4.94043 3.99194 4.8865 4.08156 4.72774C4.15061 4.60455 4.15139 4.39393 4.23134 4.26235C4.25096 4.2725 4.26958 4.28075 4.28729 4.28729C4.51127 4.37057 4.59316 4.17787 4.71866 4.099C4.76559 4.06935 4.81394 4.12957 4.85934 4.12317C5.02919 4.09898 4.81214 3.94988 4.81686 3.89295C4.84236 3.64805 5.21943 4.08479 5.36298 3.95533C5.36972 3.94911 5.2881 3.62549 5.29268 3.59869C5.31275 3.42938 5.37129 3.67372 5.44249 3.65032C5.57302 3.60816 5.68635 3.61918 5.76428 3.46094C5.78603 3.41489 5.77651 3.19376 5.92878 3.27516C5.94861 3.28586 5.99581 3.37616 6.00665 3.37658C6.19729 3.37836 6.04051 3.10098 6.07322 2.95826C6.10694 2.81513 6.34516 2.93931 6.39975 2.98307C6.54403 3.09398 6.37887 3.07274 6.3826 3.0893C6.42862 3.28211 6.50577 3.20385 6.58423 3.18289C6.73507 3.45753 6.82199 3.39407 6.66494 3.16035C6.64743 3.13493 6.60482 3.1885 6.58423 3.18289C6.50797 2.87715 6.61281 2.78219 6.85524 2.98844C6.96821 3.08586 6.97652 3.25223 7.12624 3.12624C7.13394 3.11987 7.13935 3.11187 7.14299 3.10256C7.1719 3.02906 7.08804 2.87323 7.13298 2.79897C7.25148 2.60686 7.54074 2.71762 7.7037 2.63419C7.76393 2.60351 7.6669 2.50985 7.70746 2.48492C7.81628 2.41831 7.94415 2.47445 8.05145 2.4C8.06129 2.39309 8.00383 2.28016 8.04116 2.26903C8.3249 2.18296 8.59249 2.2104 8.89414 2.16945C9.03957 2.1489 9.29637 2.05316 9.45173 2.05718C9.62463 2.05993 9.824 2.13273 10 2.17623C10.0976 2.20016 10.1888 2.21482 10.2688 2.20203C10.4154 2.17972 10.3896 2.05542 10.4582 1.97463C10.5943 1.81797 10.7909 2.12976 10.8124 2.17813C10.8129 2.17949 10.6849 2.19646 10.7456 2.26603C10.7709 2.40135 10.8107 2.17855 10.8124 2.17813C10.8287 2.20828 11.0741 2.26633 11.1266 2.25122C11.1553 2.24236 11.1574 2.12427 11.1722 2.1219C11.5257 2.06841 11.8793 2.11372 12.2012 2.26235C12.2065 2.26631 12.1618 2.38982 12.1744 2.39751C12.3487 2.50844 12.5166 2.39485 12.7081 2.36131C12.8988 2.328 13.0172 2.40928 13.0218 2.65439C13.0281 2.65547 13.0345 2.6569 13.0409 2.65867C13.1611 2.69182 13.2754 2.84443 13.337 2.93728C13.4018 3.03484 13.5264 2.81246 13.5371 2.81196C13.8655 2.79531 13.9466 3.00616 14.185 3.17743C14.299 3.25923 14.5511 3.38154 14.6913 3.44908C14.8029 3.50159 14.8252 3.59298 14.9364 3.63056C14.9514 3.63577 15.009 3.53668 15.0153 3.53606C15.1989 3.50709 14.9791 3.68779 14.9684 3.74246C14.9284 3.94133 14.9084 4.04797 15.0803 4.08323C15.1189 4.09058 15.4625 3.85997 15.5301 3.88984C15.616 3.92793 15.4943 4.01066 15.5853 4.04805C15.593 4.0514 15.6524 3.9857 15.6915 4.02824C15.7356 4.07593 15.7787 4.12656 15.8213 4.17875C15.9542 4.34173 16.0806 4.51928 16.2213 4.67337C16.2464 4.70153 16.3215 4.57339 16.36 4.61321C16.5407 4.80026 16.7117 5.0321 16.801 5.27638C16.8226 5.33669 16.7197 5.36048 16.7032 5.38799C16.6032 5.55339 16.8787 5.50592 16.8938 5.52044C17.2477 5.84348 17.2132 6.26327 17.5035 6.63615C17.516 6.65139 17.7191 6.69772 17.7225 6.80126C17.7234 6.83069 17.7077 6.86432 17.6663 6.9021C17.6544 6.91435 17.4618 7.08125 17.6422 7.09235C17.6536 7.09329 17.7504 6.99829 17.772 7.09129C17.7932 7.18335 17.9231 7.30173 17.8331 7.46733C17.8052 7.52064 17.6037 7.67978 17.8208 7.74051C17.8354 7.74139 18.3052 7.81305 18.0321 7.95504C17.987 7.97815 17.6782 8.04365 17.8689 8.14337C17.9058 8.1629 17.9631 8.09781 18.0225 8.15901C18.1142 8.25407 18.0613 8.41566 18.2244 8.52736C18.2532 8.54593 18.4833 8.61542 18.3349 8.72436C18.3116 8.74115 18.2035 8.73272 18.1983 8.77763C18.1727 8.9899 18.2668 9.1981 18.2088 9.41323C18.1883 9.48882 18.0155 9.46274 17.9743 9.54035C17.9333 9.61822 17.8951 9.76814 17.9743 9.84474C18.0536 9.92233 18.3248 9.8304 18.3478 9.95273C18.3506 9.96848 18.3533 9.98423 18.3556 10C18.4331 10.5226 18.2339 11.0288 18.1177 11.5236C18.0995 11.5999 18.2079 11.5543 18.1868 11.6691C18.1171 12.0897 17.9783 12.8426 17.6397 13.1056C17.6204 13.121 17.6026 13.133 17.5862 13.1423C17.3772 13.2571 17.3877 12.9406 17.2518 13.102C17.1822 13.1835 17.4227 13.4178 17.4202 13.4468C17.4031 13.7221 17.1955 13.8169 17.1215 14.036C17.1058 14.0817 17.2404 14.1046 17.2254 14.1432C17.1749 14.2761 17.0494 14.3722 16.9862 14.4897C16.958 14.5426 17.0461 14.5869 17.0091 14.6293C16.9215 14.7311 16.82 14.8049 16.6707 14.8542C16.6572 14.8584 16.6041 14.7244 16.5443 14.7988C16.4469 14.92 16.2601 15.0127 16.2185 15.2077C16.2065 15.2656 16.3752 15.4137 16.1828 15.3993C16.1423 15.3963 15.9619 15.1955 16.0476 15.448C16.0638 15.4888 16.1369 15.8715 15.9125 15.8104C15.8829 15.8022 15.8149 15.772 15.7526 15.7526C15.6918 15.7337 15.6365 15.725 15.6263 15.7589C15.6239 15.7689 15.7329 15.8307 15.7031 15.876C15.5963 16.0344 15.4422 16.1569 15.3191 16.3098C15.2861 16.351 15.4256 16.3965 15.373 16.4553C15.2279 16.6177 14.9931 16.7571 14.7993 16.8447C14.7277 16.8769 14.7126 16.7617 14.7015 16.7558C14.5253 16.656 14.6209 16.8881 14.6034 16.9171C14.4955 17.0919 14.3129 17.0688 14.1819 17.1808C14.1452 17.2116 14.233 17.2964 14.2301 17.3102C14.1951 17.4483 14.1541 17.2287 14.089 17.239C13.9065 17.2666 13.743 17.3628 13.5927 17.4518C13.5375 17.4846 13.6614 17.5762 13.6105 17.6044C13.4877 17.6733 13.3583 17.7347 13.2248 17.7854C13.0304 17.8592 12.8273 17.9102 12.6253 17.9301C12.561 17.9361 12.5661 17.8241 12.5462 17.8054C12.4113 17.6735 12.3559 17.9288 12.3317 17.9584C12.2267 18.0924 12.1493 18.0171 12.0361 18.0639C11.4788 18.2983 10.7241 18.3338 10.165 18.3021C10.109 18.2995 10.0541 18.296 10 18.2917C9.34602 18.237 8.83431 18.095 8.21154 17.9832C8.16856 17.9751 8.18099 18.1209 8.14307 18.1154C7.67843 18.0416 7.25145 17.856 6.80884 17.7041C6.78367 17.6955 6.75842 17.6869 6.73308 17.6785C6.69429 17.6653 6.69687 17.8103 6.63213 17.7926C6.49884 17.7572 6.34374 17.6774 6.23948 17.5782C6.18876 17.5302 6.31919 17.4685 6.26785 17.4225C6.14904 17.3152 6.00968 17.2294 5.86231 17.1688C5.79927 17.143 5.81994 17.3115 5.7425 17.2682C5.21545 16.9752 4.70861 16.6286 4.38271 16.0898C4.36019 16.0526 4.52203 15.828 4.42458 15.8076C4.36711 15.8582 4.30515 15.9231 4.24655 15.9799C4.20618 15.9448 4.16655 15.909 4.12759 15.8724C3.53089 15.3121 3.11091 14.6036 2.7422 13.885C2.7255 13.8524 2.62692 13.9772 2.59365 13.9137C2.47223 13.6809 2.34783 13.4529 2.27072 13.2016C2.2261 13.0559 2.19766 12.9028 2.19677 12.7398C2.1965 12.6958 2.4449 12.6318 2.37043 12.5316C2.35667 12.5142 2.26968 12.3533 2.20342 12.3237C2.19354 12.3198 2.08848 12.3864 2.06827 12.3303C1.95304 12.0037 1.89903 11.6395 1.91764 11.2905C1.92092 11.2343 2.05581 11.2722 2.05937 11.2324C2.08411 10.9541 1.95811 10.6666 2.06081 10.4001C2.13079 10.224 2.35386 10.2793 2.56778 10.1864C2.59785 10.1734 2.60106 10.0733 2.72725 10.0673C3.04415 10.0524 3.39176 10.0927 3.72947 10.0709C3.802 10.0665 3.72336 9.955 3.89939 10.0206C3.91106 10.0253 3.97023 10.1043 4.03043 10.1221C4.07195 10.1344 4.19964 10.1082 4.25302 10.1335C4.30638 10.1583 4.19973 10.1906 4.26349 10.2321C4.32818 10.2729 4.47267 10.2475 4.49462 10.3299ZM13.6136 3.38043C13.6328 3.5308 13.8645 3.14631 13.7238 3.19131C13.7168 3.19396 13.6124 3.37291 13.6136 3.38043ZM3.92021 5.65843C4.14782 5.68035 3.96262 5.44333 3.78961 5.41972C3.61504 5.39922 3.85023 5.6534 3.92021 5.65843ZM3.42749 6.76312C3.6259 6.7148 3.07077 6.40317 3.11747 6.5969C3.12002 6.60814 3.41587 6.76621 3.42749 6.76312ZM2.64999 10.5799C2.65575 10.5782 2.65628 10.5066 2.65036 10.5053C2.50537 10.4764 2.50454 10.6225 2.64999 10.5799ZM3.14347 7.90635C3.23732 7.89272 3.17876 7.75077 3.0613 7.76636C2.96614 7.7801 3.02591 7.92483 3.14347 7.90635ZM16.3726 6.95467C16.3672 6.95876 16.3827 7.00559 16.4165 6.98868C16.5253 6.93396 16.4643 6.88576 16.3726 6.95467ZM2.84004 9.84045C2.87246 9.54475 3.41089 9.42323 3.33467 9.71169C3.32142 9.76533 3.17287 9.58746 3.12217 9.65393C3.02971 9.78032 3.35742 9.8712 3.18031 9.99763C3.14762 10.0227 2.83661 9.85875 2.83932 9.83992C2.83956 9.8401 2.8398 9.84027 2.84004 9.84045ZM13.3978 3.87673C13.3964 3.88267 13.4523 3.92051 13.4566 3.91626C13.5593 3.81064 13.4443 3.73285 13.3978 3.87673ZM16.78 9.72681C16.7679 9.73103 16.7604 9.88225 16.7717 9.88699C17.0069 9.96471 17.0227 9.64754 16.78 9.72681ZM9.05985 3.39205C9.01053 3.54373 8.93548 3.57292 8.84932 3.40537C8.91972 3.40278 8.98927 3.39319 9.05985 3.39205Z" fill="black"/>
<path d="M16.107 14.0073C16.1683 14.0133 16.1828 14.0869 16.1757 14.1609C16.1737 14.184 16.1121 14.2349 16.1082 14.2534C16.1005 14.2894 16.1413 14.275 16.1292 14.3151C16.125 14.3286 16.0301 14.4119 16.0277 14.4241C16.015 14.4901 16.0629 14.4927 16.071 14.5386C16.1107 14.7651 16.2081 14.9293 16.3022 15.1046C16.3333 15.1623 16.3065 15.2972 16.3877 15.3077C16.3973 15.3088 16.4722 15.2275 16.4797 15.222C16.5943 15.1394 16.4312 15.2919 16.4206 15.3233C16.3793 15.4475 16.4181 15.5008 16.4882 15.5104C16.5182 15.5143 16.6564 15.3421 16.5864 15.4463C16.5817 15.4534 16.4944 15.5321 16.4901 15.5456C16.4808 15.576 16.5156 15.5812 16.5172 15.596C16.5199 15.6248 16.5233 15.6266 16.5373 15.6424C16.5556 15.6648 16.5386 15.7303 16.5792 15.7333C16.5882 15.7337 16.6671 15.6425 16.689 15.6354C16.7109 15.6284 16.7234 15.6553 16.71 15.682C16.6965 15.7087 16.6268 15.7728 16.6127 15.7893C16.493 15.9284 16.695 15.7719 16.7023 15.7704C16.8313 15.7484 16.775 15.8963 16.8255 15.9462C16.864 15.9838 16.9385 15.9909 16.9701 16.0317C17.0074 16.0807 16.9979 16.1634 17.0478 16.1975C17.0529 16.2011 17.1478 16.0959 17.1543 16.1002C17.2234 16.146 17.2695 16.214 17.2592 16.3387C17.2581 16.3513 17.1628 16.4318 17.1564 16.4496C17.1193 16.5569 17.0014 16.7858 17.4047 16.4242C17.4136 16.4629 17.427 16.5072 17.3712 16.6055C17.3353 16.6689 17.2262 16.7512 17.2839 16.7272C17.2968 16.7219 17.3757 16.6332 17.3887 16.6316C17.4433 16.6249 17.4423 16.6783 17.5093 16.6588C17.5232 16.6546 17.5969 16.5782 17.6118 16.566C17.7328 16.468 17.5709 16.6681 17.5619 16.6855C17.4956 16.8153 17.5574 16.7999 17.5846 16.8319C17.5908 16.8393 17.6836 16.7304 17.6933 16.7339C17.742 16.7537 17.7688 16.7979 17.7576 16.8762C17.7548 16.8938 17.6621 16.9729 17.6564 16.9857C17.6322 17.0413 17.798 16.8825 17.778 16.9326C17.774 16.943 17.6987 17.0148 17.6912 17.0234C17.5734 17.1593 17.761 16.9875 17.7673 16.9859C17.851 16.9612 17.6823 17.1677 17.7374 17.1696C17.7442 17.1697 17.8296 17.0689 17.8429 17.0747C17.9326 17.1129 17.9746 17.2061 17.9634 17.3438C17.9618 17.3651 17.8848 17.428 17.8768 17.4372C17.7523 17.582 17.9392 17.4081 17.9492 17.4045C18.0234 17.3809 17.8958 17.5558 18.1279 17.3581C18.1604 17.5398 18.3878 17.5258 18.3015 17.8246C18.3006 17.8282 18.2093 17.9146 18.208 17.9214C18.1905 18.0037 18.3224 17.8594 18.5128 17.7119C18.5606 17.6749 18.3731 17.8953 18.3596 17.9117C18.3099 17.9721 18.1721 18.0988 18.1633 18.1113C18.0942 18.2098 18.529 17.7701 18.549 17.7898C18.5489 17.7912 18.4658 17.869 18.4595 17.8787C18.4395 17.909 18.4766 17.8821 18.454 17.9149C18.4014 17.9906 18.1931 18.2072 18.3345 18.1012C18.3527 18.0874 18.5973 17.836 18.6033 17.8654C18.6055 17.8773 18.641 17.9043 18.6337 17.9292C18.6264 17.954 18.5404 18.0279 18.5376 18.032C18.4555 18.1612 18.4028 18.1961 18.2581 18.3643C18.114 18.532 18.4825 18.157 18.5288 18.1203C18.575 18.0837 18.5051 18.1882 18.479 18.2228C18.453 18.2573 18.3969 18.3028 18.3835 18.3238C18.2964 18.4609 18.579 18.1502 18.6463 18.0994C18.8054 17.9792 18.5448 18.27 18.5356 18.3148C18.5331 18.3269 18.592 18.2602 18.6022 18.2586C18.6416 18.2532 18.5658 18.3494 18.664 18.2898C18.68 18.2802 18.8614 18.13 18.7498 18.2618C18.7337 18.2807 18.6609 18.3454 18.6528 18.368C18.6405 18.4019 18.6449 18.4364 18.6795 18.4251C18.7051 18.4166 18.8085 18.2936 18.7841 18.3396C18.7732 18.3601 18.6981 18.4174 18.6831 18.4504C18.6681 18.4833 18.694 18.5034 18.705 18.5098C18.716 18.5162 18.7971 18.4255 18.8036 18.4205C18.841 18.3916 18.8991 18.3669 18.9005 18.3685C18.9855 18.4325 18.9095 18.6459 19.0299 18.6706C19.0393 18.6726 19.126 18.5783 19.1284 18.5777C19.1858 18.5592 18.9297 18.7846 18.8627 18.8788C19.0445 18.6931 19.0193 18.7344 19.0531 18.728C19.0696 18.7247 19.1372 18.65 19.1451 18.6433C19.263 18.545 19.1302 18.6915 19.1034 18.7218C19.0048 18.8333 19.136 18.7163 19.0702 18.7909C19.005 18.865 18.8915 18.9582 18.906 18.97C18.9754 18.9079 19.1376 18.7262 19.1754 18.7084C19.3185 18.6407 19.2541 18.846 19.2704 18.8903C19.2867 18.9346 19.3086 18.9322 19.3024 18.9736C19.2913 19.0485 19.4072 18.9093 19.4853 18.8707C19.5635 18.8321 19.2401 19.1363 19.1755 19.2066C19.1108 19.2768 19.1833 19.2105 19.1497 19.251C19.1161 19.2916 19.0627 19.3299 19.057 19.352C19.0513 19.3741 19.1936 19.2764 19.267 19.2088C19.4226 19.0655 19.5693 18.8986 19.5358 18.9753C19.5338 18.9798 19.4473 19.0583 19.4437 19.0714C19.418 19.1727 19.4533 19.2159 19.4349 19.3099C19.4322 19.3229 19.3358 19.4101 19.3332 19.4187C19.3059 19.5089 19.4495 19.3428 19.6386 19.1881C19.406 19.4131 19.2755 19.5626 19.298 19.5879C19.3115 19.6031 19.409 19.5007 19.4887 19.4396C19.5127 19.4211 19.4542 19.4999 19.5031 19.4547C19.6628 19.3072 19.8252 19.1256 19.7813 19.2187C19.7792 19.2231 19.6916 19.3037 19.6903 19.3125C19.6811 19.37 19.8447 19.2122 19.8902 19.2188C19.9259 19.224 19.8643 19.3583 19.8716 19.3976C19.6139 19.6543 19.6948 19.6174 19.8811 19.449C19.8889 19.4713 19.9153 19.4776 19.9053 19.5167C19.902 19.5301 19.8242 19.6013 19.8168 19.61C19.7003 19.7459 19.8794 19.5799 19.8894 19.5764C19.9905 19.546 19.8886 19.7056 20.0501 19.6115C20.0559 19.6081 20.2365 19.4313 20.1151 19.5708C20.1067 19.5804 20.0142 19.6506 20.0238 19.6727C20.0334 19.6949 19.9675 19.8206 20.0723 19.7599C20.0976 19.7452 20.2562 19.6137 20.1536 19.7378C20.1397 19.7547 20.0869 19.8043 20.0604 19.8349C19.9763 19.9325 20.1606 19.7556 20.015 19.917C19.8695 20.0783 19.771 20.2097 19.8991 20.126C19.9029 20.1237 20.0513 19.9858 20.056 19.995C20.0635 20.0099 20.0495 20.0556 20.062 20.0663C20.0681 20.0713 20.1534 19.9789 20.156 19.9782C20.2434 19.9659 20.1908 20.0718 20.1966 20.1464C20.1974 20.1602 20.3398 20.0602 20.2582 20.1703C20.169 20.2908 19.7165 20.7112 19.8564 20.6432C19.9125 20.6161 20.4846 20.0808 20.2238 20.3937C20.3454 20.3732 20.2454 20.5668 20.3976 20.516C20.4044 20.5138 20.5661 20.3665 20.5694 20.374C20.5739 20.3853 20.5061 20.4619 20.507 20.4724C20.5091 20.518 20.5927 20.478 20.606 20.5105C20.6112 20.5227 20.5335 20.5944 20.5397 20.6089C20.546 20.6234 20.6513 20.532 20.6179 20.5936C20.5923 20.6404 20.4019 20.8521 20.3926 20.8896C20.5914 20.6919 20.597 20.7057 20.6666 20.6706C20.6801 20.6637 20.7455 20.5912 20.7555 20.5844C20.7974 20.5552 20.7461 20.6183 20.7909 20.5856C20.8017 20.5778 20.8694 20.5101 20.8821 20.4999C20.992 20.4105 20.8566 20.5796 20.833 20.609C20.7434 20.7209 20.8366 20.638 20.8055 20.6862C20.7743 20.7343 20.712 20.7712 20.6979 20.8052C20.6687 20.8755 20.7061 20.8911 20.7239 20.9151C20.7314 20.9242 20.8161 20.8282 20.8193 20.8274C20.8595 20.8217 20.7808 20.9353 20.9704 20.7648C20.5168 21.2423 21.0259 20.7301 20.9574 20.8479C20.9518 20.8574 20.7341 21.08 20.6944 21.1049C20.6546 21.1297 20.7121 21.0496 20.6514 21.0896C20.6371 21.099 20.4168 21.2912 20.4024 21.3018C20.2897 21.3845 20.6166 21.0534 20.6339 21.0345C20.8198 20.8305 20.5805 21.0356 20.5606 21.0464C20.4696 21.0961 20.4983 21.0323 20.4308 21.0653C20.387 21.0864 20.1704 21.3008 20.1681 21.2853C20.1604 21.234 20.4507 20.9231 20.1623 21.1559C20.1007 21.2056 19.8711 21.447 20.035 21.2405C20.0453 21.2274 20.1989 21.0422 20.0825 21.1402C20.0679 21.1525 19.9993 21.2212 19.992 21.2254C19.9445 21.2526 19.9924 21.1911 19.9551 21.2062C19.9179 21.2213 19.8655 21.247 19.8761 21.2111C19.8824 21.1896 20.0005 21.0519 20.0282 21.0169C20.1081 20.9164 19.9492 21.0533 20.052 20.9377C20.1553 20.8215 20.3346 20.6674 20.3886 20.5795C20.2097 20.7572 20.0252 20.9388 19.8449 21.1172C19.8142 21.0739 19.8354 20.9798 19.7904 20.9506C19.7847 20.9471 19.6935 21.0477 19.6848 21.0465C19.6488 21.0409 19.699 20.9544 19.6502 20.96C19.612 20.9647 19.4922 21.0479 19.4491 21.056C19.6425 20.8413 19.5473 20.8846 19.5471 20.8471C19.547 20.8341 19.6019 20.78 19.615 20.7576C19.6631 20.6741 19.491 20.8627 19.4578 20.8862C19.3159 20.9865 19.7222 20.5766 19.6876 20.5622C19.6859 20.5612 19.4525 20.7629 19.4367 20.7743C19.3345 20.8487 19.5101 20.6962 19.5175 20.6715C19.531 20.6262 19.5719 20.5632 19.4895 20.6083C19.4652 20.6217 19.3166 20.7442 19.4109 20.6288C19.4232 20.6137 19.4959 20.5425 19.499 20.5372C19.549 20.4468 19.3225 20.6722 19.2344 20.7371C19.1463 20.8021 19.2844 20.6282 19.3257 20.5796C19.4325 20.4538 19.3827 20.5372 19.3947 20.5263C19.5365 20.3966 19.5001 20.4069 19.5016 20.3855C19.7217 20.1625 19.6945 20.1619 19.5023 20.3642C19.4813 20.3863 19.5097 20.3734 19.5016 20.3855C19.2755 20.5941 19.2324 20.6067 19.4186 20.3866C19.5059 20.2835 19.6244 20.18 19.5597 20.1966C19.5305 20.204 19.3822 20.3607 19.3309 20.3927C19.2141 20.4656 19.3278 20.2947 19.2827 20.2945C19.2663 20.2944 19.1908 20.3859 19.1768 20.3887C19.1392 20.3965 19.1887 20.3206 19.1416 20.3378C19.1372 20.3394 19.0531 20.4301 19.0474 20.4266C19.0019 20.4014 19.0271 20.3146 18.9917 20.2762C18.9746 20.2577 18.8945 20.274 18.8858 20.2458C18.8701 20.1976 18.9578 20.0311 18.8996 20.0346C18.862 20.0366 18.7785 20.1279 18.7112 20.1798C18.581 20.2805 18.7618 20.0476 18.7903 20.0121C18.7912 20.0109 18.8272 20.0056 18.8639 19.9526C18.9526 19.8543 18.7909 20.0118 18.7903 20.0121C18.8087 19.9891 18.7979 19.9386 18.7751 19.9492C18.7626 19.955 18.6816 20.0397 18.6767 20.0412C18.5616 20.0743 18.4995 20.0543 18.4966 19.974C18.4976 19.9716 18.5913 19.8801 18.5924 19.8756C18.6095 19.8103 18.4808 19.9082 18.3936 19.9557C18.3065 20.0031 18.3133 19.9648 18.4606 19.794C18.4256 19.7991 18.4745 19.7073 18.5048 19.6522C18.5351 19.5972 18.353 19.7758 18.3483 19.7783C18.2003 19.8585 18.2839 19.7357 18.2648 19.6844C18.256 19.6597 18.1966 19.6527 18.1588 19.6543C18.1286 19.6559 18.1622 19.605 18.122 19.6188C18.1166 19.6206 18.0381 19.7027 18.0345 19.7053C17.9237 19.7866 18.1271 19.5974 18.1591 19.5593C18.2756 19.4208 18.3367 19.346 18.2578 19.3872C18.2397 19.3966 17.9444 19.6666 17.9199 19.6752C17.8886 19.6858 17.9939 19.5884 17.9585 19.6021C17.9556 19.6032 17.8933 19.6659 17.8894 19.6565C17.8704 19.6136 17.8731 19.5435 17.8347 19.5177C17.8297 19.5139 17.7362 19.6187 17.7273 19.6148C17.6858 19.5968 17.6568 19.5605 17.6742 19.4851C17.6788 19.4663 17.7527 19.4013 17.7718 19.3792C17.887 19.2449 17.6923 19.4127 17.6866 19.4139C17.5465 19.4479 17.6698 19.2433 17.5376 19.2672C17.5301 19.2689 17.3132 19.4405 17.4697 19.2638C17.4801 19.252 17.6405 19.0715 17.5151 19.1792C17.5073 19.186 17.4258 19.2799 17.4238 19.2601C17.4219 19.2403 17.3458 19.2814 17.4272 19.17C17.4529 19.1349 17.6117 18.9537 17.462 19.0751C17.4517 19.0837 17.1234 19.3683 17.327 19.1491C17.3606 19.113 17.5857 18.8906 17.4541 18.9884C17.4286 19.0075 17.3846 19.0632 17.3449 19.0859C17.2839 19.1209 17.3266 19.0438 17.2109 19.1275C17.1905 19.1423 17.0267 19.2823 17.1325 19.1576C17.1491 19.138 17.2266 19.0661 17.2299 19.0527C17.2461 18.9887 17.1711 19.0137 17.1986 18.9377C17.2081 18.911 17.3333 18.7946 17.3567 18.7533C17.3801 18.712 17.3931 18.6628 17.3286 18.7086C17.264 18.7544 17.0818 18.9572 17.0523 18.9585C16.9243 18.9643 16.9767 18.7909 16.9323 18.7134C16.9257 18.7019 16.8643 18.7783 16.8497 18.7662C16.7954 18.7222 16.646 18.7019 16.7497 18.5129C16.8327 18.3615 16.965 18.3153 16.9865 18.2415C16.9967 18.2061 16.7593 18.4163 16.7492 18.4203C16.6479 18.4621 16.7264 18.3424 16.6692 18.346C16.6574 18.3468 16.5721 18.4429 16.5631 18.4426C16.5313 18.4423 16.5549 18.3849 16.5321 18.377C16.5217 18.3736 16.4537 18.4442 16.4527 18.4325C16.4496 18.4053 16.4653 18.3628 16.5154 18.2831C16.52 18.2758 16.6153 18.1988 16.6073 18.1843C16.5941 18.1613 16.6356 18.0747 16.5486 18.1199C16.5225 18.1336 16.3639 18.2917 16.4599 18.1691C16.48 18.1434 16.6736 17.9569 16.4939 18.1056C16.464 18.1303 16.2164 18.3258 16.3464 18.1702C16.3806 18.1293 16.5276 17.9651 16.4957 17.9821C16.4907 17.985 16.4098 18.0741 16.3953 18.0762C16.3458 18.0822 16.3321 18.0503 16.2831 18.0546C16.2698 18.0559 16.1907 18.1528 16.1738 18.152C16.1271 18.1497 16.1189 18.0968 16.1226 18.0453C16.1241 18.0262 16.2031 17.9594 16.2103 17.9508C16.3291 17.8115 16.1488 17.9795 16.1352 17.9863C16.0531 18.0258 16.1187 17.9277 16.0774 17.9298C16.0662 17.9301 15.987 18.017 15.9786 18.0233C15.895 18.0845 16.0525 17.9437 16.0619 17.9201C16.0886 17.8538 16.0598 17.8383 16.0291 17.8289C16.0177 17.8255 15.9297 17.9301 15.9206 17.926C15.8649 17.9034 15.8334 17.8535 15.8483 17.7623C15.8513 17.7449 15.9299 17.6753 15.9454 17.6569C16.0535 17.528 15.8768 17.6745 15.8579 17.6864C15.7718 17.7409 15.8312 17.6692 15.805 17.6674C15.6757 17.66 15.6348 17.5322 15.5971 17.4409C15.5476 17.3223 15.5529 17.1865 15.4544 17.1247C15.4482 17.1207 15.3547 17.2244 15.3481 17.2222C15.2677 17.1893 15.2504 17.095 15.1651 17.0666C15.1583 17.0641 15.0715 17.1644 15.0574 17.1635C15.0278 17.1624 15.0135 17.1378 15.0278 17.0925C15.0346 17.0705 15.125 17.0004 15.1302 16.98C15.1426 16.9322 15.1302 16.9065 15.097 16.9032C15.0827 16.9021 14.9987 17.0094 14.9875 17.0004C14.9094 16.9413 14.8255 16.8903 14.88 16.6971C14.8837 16.6838 15.0739 16.4853 15.0265 16.5124C14.9718 16.5656 14.9084 16.6291 14.8504 16.6864C14.7194 16.6175 14.6879 16.4512 14.598 16.3406C14.5942 16.336 14.4986 16.4462 14.4907 16.4378C14.4448 16.3889 14.3703 16.3714 14.4242 16.2207C14.4294 16.2058 14.6131 16.0271 14.5715 16.0404C14.564 16.0429 14.5185 16.0457 14.4737 16.0795C14.467 16.0847 14.3863 16.1732 14.377 16.1687C14.3242 16.1416 14.3017 16.0805 14.3135 15.9889C14.3155 15.974 14.4124 15.8908 14.4147 15.8794C14.43 15.7991 14.3262 15.8322 14.3769 15.7193C14.4111 15.6435 14.5745 15.4955 14.7167 15.3312C14.7367 15.308 14.7273 15.2917 14.8157 15.2019C15.0382 14.976 15.2899 14.7368 15.5263 14.4953C15.5773 14.4433 15.5046 14.4814 15.6392 14.3673C15.6482 14.3597 15.702 14.3309 15.7473 14.2918C15.7786 14.2648 15.8654 14.1702 15.9071 14.1373C15.9488 14.1043 15.8776 14.1851 15.9287 14.1485C15.9804 14.1113 16.0803 14.005 16.107 14.0073ZM18.6398 19.4059C18.715 19.3078 18.3961 19.6233 18.4843 19.5598C18.489 19.5564 18.6362 19.4107 18.6398 19.4059ZM20.0749 20.7407C20.1999 20.5859 19.9839 20.7814 19.8864 20.9C19.789 21.0185 20.0371 20.7877 20.0749 20.7407ZM20.3322 20.7938C20.4251 20.666 19.9725 21.1131 20.0821 21.0408C20.0884 21.0368 20.3269 20.8012 20.3322 20.7938ZM14.8115 15.3388C14.8156 15.3345 14.8104 15.3211 14.806 15.3251C14.7004 15.4209 14.7107 15.4475 14.8115 15.3388ZM20.5975 20.8365C20.6528 20.7702 20.5669 20.8248 20.498 20.9072C20.4426 20.9735 20.5286 20.919 20.5975 20.8365ZM18.3813 18.4701C18.3858 18.4652 18.3834 18.4543 18.3568 18.4812C18.2712 18.5677 18.3047 18.5527 18.3813 18.4701ZM20.8644 21.0931C20.8426 21.0375 21.1908 20.6424 21.191 20.7265C21.191 20.7417 21.056 20.8285 21.0322 20.8718C20.989 20.9505 21.2341 20.729 21.1272 20.8722C21.1076 20.8983 20.8648 21.0971 20.8638 21.0935C20.864 21.0934 20.8642 21.0932 20.8644 21.0931ZM19.0143 19.0182C19.0182 19.0138 19.013 19.0006 19.0086 19.0046C18.903 19.1003 18.9134 19.1269 19.0143 19.0182ZM18.1902 17.8867C18.1986 17.8773 18.1856 17.8476 18.1767 17.8552C18.0009 18.0087 18.0266 18.0692 18.1902 17.8867ZM19.8651 19.4048C19.9765 19.3135 20.0004 19.3136 19.8811 19.4488C19.8779 19.4321 19.8689 19.421 19.8651 19.4048Z" fill="black"/>
</svg>
