<svg width="24" height="24" viewBox="0 0 24 24" fill="none" xmlns="http://www.w3.org/2000/svg">
<path d="M6.42046 10.4847C6.16374 10.5238 5.82729 10.4821 5.57143 10.4248C5.57132 10.4248 5.57121 10.4247 5.5711 10.4247C5.52521 10.4072 5.54739 10.3275 5.51376 10.3124C5.4467 10.2834 5.38895 10.327 5.32088 10.2984C5.29772 10.2887 5.30899 10.1602 5.2839 10.1531C5.14335 10.1161 5.02509 10.176 4.89318 10.1923C4.69804 10.2168 4.51337 10.2772 4.35846 10.364C4.07011 10.5258 3.903 10.7607 3.87356 11C3.86464 11.1609 3.85585 11.3224 3.84681 11.4846C3.82799 11.824 3.71369 12.2366 3.76368 12.5871C3.76963 12.628 3.88018 12.6036 3.88929 12.6114C4.02878 12.7335 3.8056 12.6929 3.77595 12.7727C3.65887 13.0891 3.64869 13.441 3.69135 13.7456C3.70983 13.8751 3.92941 13.7452 3.80616 13.8757C3.79783 13.8847 3.68044 13.8519 3.66791 13.8874C3.63975 13.968 3.66074 14.1209 3.65143 14.1833C3.63291 14.3037 3.6341 14.3236 3.63276 14.4374C3.62991 14.5931 3.57155 14.7782 3.59815 14.9451C3.60418 14.9808 3.72452 14.9336 3.745 14.9904C3.76545 15.0473 3.75524 15.1978 3.72687 15.2486C3.69849 15.2993 3.6039 15.2777 3.58222 15.2867C3.39923 15.3606 3.65267 15.5347 3.65894 15.5571C3.76574 15.9655 3.62136 16.3157 3.62177 16.6991C3.62239 16.9901 3.67006 17.3013 3.66352 17.5783C3.65527 17.9082 3.59005 18.1878 3.60126 18.5083C3.60231 18.5421 3.74381 18.5025 3.74537 18.5438C3.75108 18.6962 3.75296 18.8482 3.74897 19C3.74205 19.1477 3.75127 19.3012 3.78806 19.4916C3.79415 19.5214 3.66741 19.5508 3.6685 19.5864C3.6638 19.7688 3.75622 20.1497 4.06866 20.0086C4.1162 19.9862 4.16784 19.951 4.22359 19.9005C4.31634 19.9951 4.44676 20.0933 4.5234 20.2452C4.57452 20.3433 4.44431 20.4362 4.56899 20.4239C4.5968 20.4208 4.60958 20.2988 4.64669 20.3018C4.80029 20.3133 4.95051 20.393 5.10825 20.3584C5.14 20.3509 5.14931 20.2447 5.16044 20.2272C5.24808 20.0854 5.32647 20.3509 5.35464 20.3715C5.42882 20.4332 5.50144 20.4603 5.57143 20.47C5.69652 20.4846 5.81453 20.4657 5.95011 20.4678C6.00256 20.4686 5.94056 20.326 5.99103 20.3216C6.25281 20.3012 6.52398 20.3135 6.7803 20.3768C6.83732 20.3912 6.78489 20.5127 6.81213 20.5258C6.93227 20.5821 6.9589 20.3526 7.07412 20.4022C7.09841 20.4124 7.08472 20.5164 7.08916 20.5278C7.1585 20.7072 7.21875 20.4531 7.23659 20.4474C7.46221 20.3708 7.60642 20.6361 7.82439 20.5985C7.85046 20.5937 7.79166 20.4621 7.86496 20.4568C8.35328 20.4204 8.86974 20.4566 9.35309 20.5619C9.42824 20.5781 9.3746 20.677 9.37933 20.6891C9.4564 20.8796 9.50628 20.6244 9.53078 20.6148C9.7241 20.5456 9.90468 20.7596 10.036 20.4557C10.8548 20.5612 11.6697 20.3905 12.4817 20.6628C12.492 20.6659 12.4735 20.7916 12.4941 20.7974C12.7421 20.8679 12.6945 20.6726 12.8586 20.4337C12.8999 20.3737 13.0257 20.6621 13.0368 20.6833C13.0773 20.7612 13.0353 20.9482 13.0488 20.9632C13.1612 21.0817 13.1429 20.4634 13.2944 20.4632C13.2991 20.4642 13.2792 20.578 13.2919 20.5893C13.3314 20.6249 13.3706 20.5796 13.4093 20.6188C13.4978 20.7095 13.5293 21.0099 13.6645 20.8351C13.6816 20.8124 13.6554 20.4616 13.7907 20.4782C13.8447 20.4851 14.0834 20.4791 14.1503 20.5018C14.2171 20.5245 14.1712 20.6376 14.176 20.6424C14.3561 20.7919 14.2878 20.8539 14.378 21.0751C14.4682 21.2956 14.4432 20.7698 14.48 20.7111C14.5168 20.6526 14.6488 20.7759 14.6813 20.8188C14.7137 20.8617 14.6732 20.9335 14.7021 20.9578C14.8932 21.1163 14.786 20.6968 14.849 20.6133C14.9975 20.4157 15.1132 20.8057 15.2491 20.8439C15.2859 20.8542 15.2559 20.7654 15.2886 20.7571C15.4184 20.7254 15.4964 20.847 15.644 20.7355C15.6682 20.7173 15.7875 20.4829 15.8647 20.6549C15.8757 20.6797 15.8446 20.7769 15.8999 20.7986C15.9825 20.8313 16.1313 20.8525 16.2201 20.8201C16.2857 20.796 16.2105 20.6359 16.293 20.6857C16.3297 20.7079 16.2617 20.8015 16.3306 20.8354C16.3992 20.8693 16.5744 20.8652 16.6411 20.862C16.7076 20.8587 16.6712 20.7372 16.6766 20.7291C16.7091 20.6822 16.8368 20.6236 16.8481 20.6238C17.3941 20.6096 17.8992 20.7972 18.4286 20.7529C18.4496 20.751 18.4706 20.7485 18.4916 20.7453C18.5316 20.7392 18.5014 20.6118 18.5075 20.6095C18.6371 20.5508 18.5451 20.8959 18.6541 21.0037C18.6224 20.7452 18.6836 20.7895 18.7778 20.7502C18.8228 20.7308 18.7849 20.6339 18.788 20.6232C18.8333 20.4636 18.9056 20.6513 18.9259 20.6889C18.997 20.8277 19.0145 20.6454 19.0646 20.7362C19.1174 20.8256 19.0721 20.9853 19.1711 20.9613C19.1762 20.8646 19.0543 20.6434 19.1126 20.5892C19.3226 20.3966 19.8111 20.3825 19.9973 20.2646C20.0322 20.2448 20.0614 20.2259 20.0868 20.2084C20.1921 20.1341 20.2322 20.0877 20.3192 20.0377C20.5108 19.9175 20.3219 19.8559 20.3266 19.7132C20.3224 19.5727 20.6646 19.8573 20.7555 19.8931C20.8481 19.9251 20.777 19.8531 20.8358 19.8562C20.8953 19.8576 20.9205 19.9447 20.9717 19.8942C21.027 19.8403 20.9479 19.5981 20.858 19.5471C20.6737 19.4337 20.4468 19.4191 20.5577 19.3247C20.5643 19.3185 20.6696 19.3751 20.6891 19.3491C20.7622 19.2477 20.8041 19.1262 20.8258 19C20.8492 18.8479 20.8706 18.6958 20.9116 18.5467C20.9227 18.5071 21.0525 18.5425 21.0605 18.5194C21.1435 18.279 20.9246 18.3649 20.6814 18.2331C21.0051 18.2627 21.203 18.1899 21.2049 18.0074C21.2062 17.8977 21.0649 17.9165 20.9653 17.8456C20.9352 17.8243 21.0323 17.7467 20.9658 17.7326C20.7485 17.6862 20.5053 17.7594 20.6022 17.5712C20.6068 17.5629 20.7257 17.5892 20.7329 17.5607C20.78 17.3763 20.5528 17.3543 20.5253 17.155C20.5037 16.9987 20.6422 16.7209 20.6648 16.543C21.0286 16.5468 20.9453 16.3787 20.6945 16.3106C20.7047 16.1952 20.6905 16.0705 20.7252 15.9589C20.737 15.9205 20.8424 15.9457 20.8538 15.9409C21.0323 15.8666 20.7882 15.8164 20.7787 15.7915C20.6857 15.5215 20.8706 15.3014 20.6899 15.0437C20.6834 15.0346 20.4306 15.0197 20.6152 14.9508C20.6279 14.9464 20.7429 15.0315 20.7518 14.9103C20.7607 14.789 20.8962 14.5604 20.779 14.3921C20.7509 14.3513 20.5457 14.2483 20.706 14.1656C20.7278 14.1546 20.8002 14.1666 20.8406 14.1507C20.9691 14.0993 20.7136 14.0712 20.9307 14.0108C21.1477 13.9504 21.3102 13.8247 21.1605 13.6549C21.1561 13.6495 20.9536 13.6093 20.9568 13.5559C20.9621 13.4707 21.0043 13.3497 21.003 13.2607C21.0023 13.2181 20.8766 13.2454 20.8743 13.238C20.8038 12.9515 20.9159 12.7476 20.9645 12.4407C20.9737 12.3844 20.8023 12.2227 20.9378 12.1138C21.0862 11.9942 21.7034 12.1171 21.5563 11.8422C21.4975 11.7313 20.7145 11.5909 21.1202 11.3917C21.0855 11.2585 21.0875 11.1287 21.0991 11C21.1227 10.7446 21.1103 10.4512 20.906 10.2496C20.8915 10.2343 20.673 10.2872 20.6576 10.255C20.6342 10.2046 20.7031 10.1232 20.6845 10.0833C20.6069 9.91447 20.4297 9.84954 20.3137 9.72886C20.2682 9.68285 20.3542 9.6168 20.2947 9.56113C20.289 9.55588 20.2826 9.55184 20.2757 9.54873C20.2094 9.5191 20.1066 9.57718 20.0599 9.47435C20.022 9.3892 20.09 9.09851 19.9939 9.01218C19.8621 9.26011 19.7963 9.21815 19.6452 9.235C19.6165 9.23861 19.6039 9.33905 19.5886 9.34551C19.5271 9.37451 19.5158 9.28356 19.4552 9.32C19.4406 9.32877 19.4082 9.41889 19.395 9.43136C19.2846 9.54133 19.2381 9.30388 19.2243 9.26178C19.1812 9.10312 19.113 9.21552 19.0639 9.14805C19.0119 9.08053 19.1211 9.03058 19.052 8.98242C18.9061 8.88215 18.6911 8.87426 18.526 8.86619C18.4596 8.86345 18.5024 8.99232 18.4928 8.99489C18.4713 8.99975 18.4499 9.00036 18.4286 8.99913C18.3191 8.9928 18.2157 8.93213 18.1545 9.14533C18.0631 8.48702 18.075 9.20919 17.8866 9.0774C17.8717 9.06674 17.8529 8.75543 17.9098 8.70973C17.9668 8.66407 18.0532 8.76138 18.1323 8.69013C18.151 8.67341 18.2583 8.3817 18.2729 8.36402C18.3875 8.22592 18.4038 8.69113 18.4098 8.71668C18.4157 8.74005 18.4219 8.75918 18.4286 8.77461C18.5017 8.94069 18.6272 8.68121 18.6665 8.66421C18.8496 8.57674 18.9924 8.66292 19.1516 8.622C19.2561 8.5965 19.3353 8.30234 19.4164 8.33192C19.6925 8.43845 19.6174 8.8628 19.9976 8.62493C20.0802 8.57707 20.1738 8.24902 20.2511 8.58115C20.2588 8.60314 20.2745 8.8838 20.4275 8.80171C20.4472 8.79147 20.4984 8.70898 20.5159 8.71039C20.6331 8.7226 20.6476 8.82611 20.7614 8.86553C20.773 8.86966 20.785 8.87387 20.7972 8.87823C20.9045 8.91634 21.0315 8.97055 21.1001 9.07924C21.1478 9.15278 21.0861 9.3531 21.0763 9.40945C21.0472 9.56879 21.2808 9.53078 21.1941 9.67613C21.101 9.81464 20.8474 9.85971 20.8419 10.0323C21.0567 9.89999 21.2825 9.77268 21.5037 9.64809C21.7208 10.0122 21.7853 10.4505 21.8172 10.8779C21.8213 10.9318 21.9545 10.8698 21.9619 10.9303C21.9645 10.9537 21.9658 10.9769 21.966 11C21.9678 11.1415 21.8912 11.2699 21.9262 11.4198C21.9565 11.5475 22.1001 11.6875 22.1362 11.821C21.8476 11.9026 21.9456 12.1007 21.9192 12.2446C21.9101 12.295 21.8331 12.2917 21.8079 12.3275C21.7149 12.4628 21.9699 12.3994 22.0101 12.4365C22.1813 12.5955 21.6041 12.6092 21.6184 12.7967C21.619 12.8067 21.9266 12.9281 21.9458 12.9449C22.0707 13.0512 21.8387 12.9625 21.816 13.029C21.7744 13.1504 21.7009 13.2349 21.7911 13.3774C21.8178 13.4189 22.0095 13.5186 21.8612 13.5993C21.8418 13.6099 21.7401 13.604 21.7341 13.6126C21.6348 13.7673 21.9544 13.7713 22.0626 13.8597C22.1708 13.9481 21.9502 14.0846 21.8866 14.1124C21.7222 14.1851 21.8164 14.0567 21.8002 14.0528C21.6082 14.0065 21.6412 14.1061 21.625 14.1822C21.3117 14.1932 21.3305 14.2996 21.6094 14.2611C21.6399 14.2567 21.6107 14.1975 21.625 14.1822C21.9324 14.249 21.9718 14.3659 21.6845 14.4951C21.5499 14.5555 21.3929 14.4984 21.4503 14.682C21.4762 14.7654 21.692 14.7332 21.7508 14.8067C21.885 14.9748 21.6837 15.1931 21.7154 15.3664C21.727 15.4292 21.845 15.368 21.857 15.411C21.889 15.525 21.8004 15.6256 21.8458 15.7401C21.8501 15.7505 21.9737 15.7251 21.9753 15.7607C21.9896 16.0307 21.9104 16.2658 21.9083 16.5477C21.9072 16.684 21.9754 16.9275 21.9617 17.0686C21.9387 17.3131 21.7589 17.6139 21.8026 17.8229C21.8306 17.9591 21.9542 17.9292 22.0384 17.9876C22.2017 18.1003 21.9092 18.2997 21.8639 18.3265C21.8624 18.3274 21.8333 18.2101 21.7698 18.2727C21.6376 18.309 21.8634 18.3252 21.8639 18.3265C21.8347 18.3442 21.8066 18.5784 21.8302 18.6249C21.8432 18.6502 21.9603 18.636 21.9648 18.6492C22.0039 18.766 22.0326 18.8829 22.0503 19C22.081 19.33 22.0128 19.6715 21.8629 19.9592C21.8575 19.9667 21.7402 19.9067 21.7292 19.9241C21.5703 20.159 21.6227 20.3815 21.5597 20.6348C21.496 20.884 21.3305 21.0098 21.0827 20.9361C21.022 21.0192 20.9044 21.0803 20.7924 21.1156C20.7228 21.1378 20.6552 21.1509 20.6026 21.1593C20.4671 21.179 20.5884 21.4018 20.5809 21.4129C20.3523 21.7411 20.0851 21.7032 19.7439 21.7956C19.5796 21.8412 19.2636 21.9553 19.0849 22.0077C18.9438 22.0514 18.8511 22.001 18.7217 22.0485C18.704 22.0548 18.7298 22.1669 18.7245 22.1717C18.5784 22.3163 18.6385 22.0344 18.6058 21.9864C18.539 21.8857 18.491 21.8111 18.4286 21.7813C18.3909 21.7591 18.3462 21.7623 18.2847 21.7986C18.2514 21.818 18.1546 22.2178 18.094 22.2411C18.0153 22.2708 18.045 22.1275 17.9625 22.1622C17.9555 22.1651 17.9569 22.2535 17.906 22.2496C17.6697 22.2326 17.4121 22.1812 17.1666 22.1901C17.1331 22.1909 17.1761 22.3311 17.1276 22.3347C16.9002 22.3513 16.651 22.3461 16.4294 22.2805C16.3749 22.2639 16.4091 22.1657 16.3973 22.1366C16.3246 21.9602 16.2215 22.2165 16.2045 22.2214C15.7989 22.3445 15.4885 22.1126 15.0751 22.223C15.0526 22.2295 14.8794 22.5042 14.8021 22.2686C14.7968 22.2529 14.7204 22.0119 14.6528 22.1767C14.6485 22.187 14.6962 22.3111 14.613 22.2984C14.5299 22.2858 14.3961 22.3687 14.2818 22.2323C14.2456 22.1894 14.1601 21.9489 14.0522 22.1406C14.0451 22.154 13.8785 22.5874 13.8191 22.2884C13.8094 22.2392 13.8195 21.9227 13.6907 22.0849C13.6661 22.1164 13.7108 22.187 13.6459 22.2311C13.5466 22.299 13.4149 22.2142 13.2928 22.3552C13.2715 22.3802 13.1809 22.595 13.1081 22.4319C13.0967 22.4064 13.1184 22.3008 13.08 22.2889C12.8973 22.2322 12.7061 22.3029 12.5207 22.2298C12.455 22.2041 12.4886 22.0333 12.4201 21.9875C12.3516 21.9418 12.2137 21.8978 12.142 21.9758C12.0704 22.0539 12.1487 22.3261 12.0413 22.3479C11.5746 22.4425 11.1123 22.2828 10.6462 22.2594C10.5771 22.256 10.6344 22.3534 10.5325 22.3552C10.157 22.3625 9.50862 22.4538 9.18275 22.2468C8.92165 22.081 9.25023 21.9548 9.05071 21.8874C8.95443 21.8552 8.85027 22.1717 8.82703 22.1816C8.59998 22.2828 8.44218 22.1426 8.23783 22.1857C8.19563 22.1946 8.23702 22.3228 8.2011 22.329C8.07842 22.3513 7.94949 22.294 7.83226 22.3045C7.77967 22.3095 7.78936 22.4075 7.74097 22.3999C7.62518 22.3829 7.52278 22.3417 7.4099 22.2499C7.39961 22.2416 7.46899 22.1197 7.38332 22.1152C7.24467 22.1082 7.07256 22.0176 6.91304 22.1111C6.86571 22.1393 6.86386 22.3632 6.76211 22.2085C6.74077 22.1762 6.768 21.9074 6.64949 22.1397C6.62955 22.1783 6.43047 22.4916 6.33276 22.2897C6.30699 22.2365 6.2412 22.0165 6.18428 22.0511C6.17656 22.0566 6.20748 22.1769 6.16032 22.1886C5.9941 22.2278 5.81989 22.215 5.64912 22.2527C5.60352 22.263 5.67144 22.3874 5.60348 22.3988C5.59294 22.4006 5.58225 22.4021 5.57143 22.4035C5.31308 22.428 5.00203 22.3696 4.76737 22.2896C4.67556 22.2581 4.7598 22.1686 4.7547 22.1563C4.68339 21.9575 4.57209 22.1841 4.53094 22.1893C4.28386 22.2188 4.14508 22.0539 3.93439 22.0048C3.87549 21.9902 3.87151 22.1149 3.85643 22.1202C3.69866 22.1662 3.86715 22.0076 3.8034 21.9554C3.62677 21.8079 3.40733 21.7021 3.20603 21.5867C3.13201 21.544 3.13652 21.7112 3.06932 21.6699C3.0045 21.6301 2.9402 21.5868 2.8774 21.5402C2.55218 21.3004 2.25989 20.9589 2.09305 20.5624C2.05623 20.4732 2.17755 20.4715 2.18814 20.4425C2.26772 20.2507 1.98369 20.1827 1.94392 20.1427C1.76951 19.9816 1.82972 19.8653 1.76551 19.6844C1.69441 19.4772 1.65104 19.2425 1.64495 19C1.62388 18.5656 1.66702 18.096 1.69624 17.7164C1.74507 17.0742 1.84482 16.5758 1.81892 15.9633C1.81741 15.9244 1.67791 15.9637 1.67482 15.9301C1.64119 15.4969 1.6957 15.0704 1.65541 14.6363C1.65235 14.6007 1.52011 14.652 1.51076 14.5948C1.49064 14.4776 1.49783 14.329 1.54005 14.2104C1.5604 14.1526 1.67387 14.2302 1.69203 14.172C1.73457 14.0364 1.74399 13.8911 1.72279 13.7519C1.71348 13.6926 1.57823 13.782 1.57667 13.705C1.56326 13.1804 1.53996 12.6652 1.7151 12.135C1.72713 12.0987 2.002 12.0668 1.94929 11.9895C1.87301 11.9837 1.78327 11.984 1.70173 11.9815C1.68286 11.6533 1.68969 11.3267 1.70479 11C1.72132 10.194 2.11311 9.47488 2.58964 8.98441C2.62559 8.94716 2.45698 8.91312 2.52819 8.83911C2.65018 8.71407 2.77507 8.59927 2.90582 8.49636C3.21906 8.24983 3.5704 8.06988 3.95806 8.02843C4.01241 8.02306 4.0785 8.27012 4.20216 8.18579C4.22362 8.16947 4.42287 8.07243 4.46532 8.00556C4.47105 7.99546 4.40019 7.8901 4.47091 7.86841C4.82415 7.76295 5.20981 7.73487 5.57143 7.78694C5.61515 7.79546 5.65865 7.8049 5.70184 7.81526C5.75101 7.82728 5.69865 7.95464 5.73367 7.96431C5.9821 8.03191 6.25232 7.9351 6.48971 8.05073C6.64861 8.12859 6.58978 8.34874 6.67422 8.56544C6.68616 8.59601 6.78456 8.60086 6.78965 8.72694C6.80271 9.04398 6.75505 9.39114 6.77461 9.72907C6.77874 9.80186 6.91052 9.72346 6.8325 9.89936C6.82704 9.91113 6.73151 9.96951 6.70797 10.0292C6.69159 10.0704 6.72111 10.1987 6.68769 10.2515C6.65426 10.3042 6.61753 10.1967 6.56212 10.2588C6.50673 10.3216 6.53108 10.4675 6.42046 10.4847ZM20.0054 21.1942C19.8615 21.1261 20.027 21.5436 20.0929 21.3949C20.0958 21.3871 20.0129 21.1973 20.0054 21.1942ZM21.4157 10.5297C21.2543 10.7075 21.5512 10.7657 21.6868 10.6322C21.817 10.4836 21.4621 10.4682 21.4157 10.5297ZM20.5432 9.40648C20.5488 9.6194 21.0115 9.18117 20.7831 9.14907C20.7696 9.14706 20.5422 9.39372 20.5432 9.40648ZM6.28265 8.62715C6.28385 8.6331 6.35458 8.63891 6.35627 8.63301C6.39394 8.49052 6.2525 8.47901 6.28265 8.62715ZM19.3401 8.95401C19.3584 9.04768 19.5073 8.99099 19.4878 8.87248C19.4691 8.77548 19.3138 8.83563 19.3401 8.95401ZM15.2528 21.0629C15.2514 21.0562 15.2007 21.0502 15.2017 21.0879C15.2052 21.2097 15.2757 21.1753 15.2528 21.0629ZM17.3054 8.83827C17.6009 8.86221 17.78 9.38774 17.4583 9.32844C17.4 9.31771 17.5839 9.16085 17.5097 9.11347C17.374 9.02716 17.2839 9.35712 17.1454 9.18031C17.1203 9.14794 17.2886 8.83573 17.3059 8.83753C17.3058 8.83778 17.3056 8.83802 17.3054 8.83827ZM19.7278 20.729C19.7238 20.7246 19.6574 20.7476 19.6581 20.7534C19.6772 20.9005 19.8178 20.8515 19.7278 20.729ZM12.2938 20.7855C12.29 20.7728 12.1271 20.761 12.1218 20.7726C12.0368 21.0055 12.3661 21.0301 12.2938 20.7855ZM20.6745 16.5402C20.5312 16.4636 20.5143 16.372 20.6943 16.3109C20.6847 16.3871 20.6833 16.4637 20.6745 16.5402Z" fill="black"/>
<path d="M10.5153 13.8952C10.4762 13.8336 10.518 13.7528 10.5753 13.6914C10.5931 13.6721 10.6726 13.6819 10.6885 13.6686C10.7194 13.6426 10.6804 13.6184 10.7172 13.5927C10.7298 13.5842 10.8558 13.5948 10.8661 13.5859C10.9217 13.537 10.8897 13.4907 10.9164 13.4412C11.0485 13.1972 11.0958 12.9574 11.1532 12.7104C11.172 12.629 11.2863 12.53 11.2363 12.4459C11.2304 12.4361 11.1198 12.4419 11.1107 12.4401C10.9712 12.4108 11.1944 12.4205 11.2241 12.4014C11.3411 12.3255 11.3513 12.241 11.3086 12.168C11.2902 12.1369 11.0706 12.168 11.1938 12.1367C11.2022 12.1346 11.3196 12.1424 11.3321 12.1339C11.3602 12.1146 11.3393 12.0779 11.3486 12.0629C11.3671 12.034 11.3659 12.0293 11.3672 12.002C11.3701 11.9646 11.4284 11.9202 11.4018 11.8801C11.3958 11.8716 11.2755 11.8829 11.255 11.8693C11.2346 11.8556 11.2448 11.8195 11.2731 11.8073C11.3015 11.7952 11.3961 11.8003 11.4178 11.7982C11.6008 11.7805 11.3473 11.7387 11.3411 11.7333C11.2343 11.6353 11.3786 11.5513 11.3782 11.4593C11.3776 11.3895 11.3299 11.3148 11.3365 11.2484C11.3447 11.1692 11.4099 11.1021 11.3987 11.0252C11.3977 11.0171 11.2562 11.0266 11.2546 11.0167C11.2382 10.9114 11.2536 10.8068 11.3491 10.7019C11.3588 10.6914 11.4831 10.705 11.5002 10.6945C11.6023 10.6301 11.8475 10.5284 11.3066 10.4902C11.3278 10.4466 11.3496 10.3937 11.4586 10.3547C11.5288 10.3296 11.6641 10.354 11.6064 10.3231C11.5935 10.3161 11.475 10.3252 11.4647 10.3148C11.4213 10.2708 11.4598 10.2228 11.3986 10.1793C11.3858 10.1704 11.2796 10.1728 11.2605 10.1703C11.1056 10.1493 11.3616 10.1142 11.3802 10.1065C11.519 10.0483 11.4644 10.0058 11.4678 9.95157C11.4686 9.93899 11.326 9.95387 11.3216 9.94176C11.3012 9.87895 11.3135 9.81388 11.3768 9.75238C11.3912 9.7387 11.5127 9.75128 11.5258 9.74475C11.5821 9.71592 11.3526 9.70953 11.4022 9.68189C11.4124 9.67606 11.5164 9.67934 11.5278 9.67828C11.7072 9.66164 11.4531 9.64718 11.4474 9.6429C11.3708 9.58877 11.6361 9.55417 11.5985 9.50187C11.5937 9.49561 11.4621 9.50972 11.4568 9.49214C11.4204 9.37497 11.4566 9.25106 11.5619 9.13508C11.5781 9.11705 11.677 9.12992 11.6891 9.12879C11.8796 9.1103 11.6244 9.09833 11.6148 9.09245C11.5456 9.04607 11.7596 9.00274 11.4557 8.97122C11.5612 8.77478 11.3905 8.57925 11.6628 8.38443C11.6659 8.38195 11.7916 8.38639 11.7974 8.38145C11.8679 8.32195 11.6726 8.33337 11.4337 8.294C11.3737 8.28408 11.6621 8.25391 11.6833 8.25124C11.7612 8.24152 11.9482 8.2516 11.9632 8.24835C12.0817 8.2214 11.4634 8.22579 11.4632 8.18943C11.4642 8.1883 11.578 8.19307 11.5893 8.19002C11.6249 8.18054 11.5797 8.17114 11.6188 8.16186C11.7095 8.14063 12.0099 8.13307 11.8351 8.10064C11.8124 8.09654 11.4616 8.10281 11.4782 8.07034C11.4851 8.05741 11.4791 8.00013 11.5018 7.98407C11.5245 7.96804 11.6376 7.97905 11.6424 7.9779C11.7919 7.9347 11.8539 7.95108 12.0751 7.92944C12.2956 7.9078 11.7698 7.9138 11.7111 7.90497C11.6526 7.89614 11.7759 7.86446 11.8188 7.85668C11.8617 7.8489 11.9335 7.8586 11.9578 7.85168C12.1163 7.80581 11.6968 7.83155 11.6133 7.81643C11.4157 7.7808 11.8057 7.75305 11.8439 7.72043C11.8542 7.7116 11.7654 7.7188 11.7571 7.71094C11.7254 7.67981 11.847 7.66109 11.7355 7.62568C11.7173 7.61988 11.4829 7.59125 11.6549 7.57272C11.6797 7.5701 11.7769 7.57755 11.7986 7.56429C11.8313 7.54447 11.8525 7.50876 11.8201 7.48745C11.796 7.47173 11.6359 7.48975 11.6857 7.46996C11.7079 7.46116 11.8015 7.47746 11.8354 7.46093C11.8693 7.44449 11.8652 7.40245 11.862 7.38645C11.8587 7.37048 11.7372 7.37922 11.7291 7.37793C11.6822 7.37012 11.6236 7.33948 11.6238 7.33677C11.6089 7.20017 11.8137 7.0742 11.7459 6.9412C11.7408 6.93076 11.6127 6.93771 11.6106 6.93612C11.5569 6.90039 11.8974 6.92856 12.0114 6.9036C11.7515 6.90721 11.7986 6.89247 11.7701 6.8673C11.7561 6.85517 11.6555 6.86178 11.6452 6.86067C11.4923 6.84268 11.6898 6.83016 11.7302 6.82693C11.8787 6.81502 11.7032 6.80206 11.8025 6.79395C11.901 6.78585 12.0472 6.8045 12.0453 6.78036C11.9522 6.77359 11.7091 6.79151 11.6697 6.77318C11.5207 6.70403 11.7114 6.57495 11.7313 6.51935C11.7511 6.46387 11.7339 6.44594 11.7675 6.41361C11.8283 6.35521 11.6479 6.37661 11.5654 6.34035C11.4828 6.30397 11.9266 6.32166 12.022 6.31643C12.1174 6.3113 12.0192 6.30569 12.0716 6.29931C12.1241 6.29294 12.1889 6.30672 12.2086 6.29175C12.2283 6.27678 12.0586 6.23584 11.9589 6.23053C11.7475 6.21931 11.5257 6.23776 11.6036 6.19814C11.6083 6.19586 11.725 6.20325 11.7367 6.19453C11.8266 6.12523 11.8322 6.05322 11.9116 5.98401C11.9227 5.97449 12.0525 5.983 12.0605 5.97746C12.1435 5.91977 11.9246 5.94039 11.6814 5.90877C12.0051 5.91587 12.203 5.89838 12.2049 5.8546C12.2062 5.82827 12.0649 5.83281 11.9653 5.81578C11.9352 5.81067 12.0323 5.79205 11.9658 5.78867C11.7485 5.77754 11.5053 5.79509 11.6022 5.74994C11.6068 5.74796 11.7257 5.75427 11.7329 5.74743C11.78 5.70319 11.5528 5.69789 11.5253 5.65007C11.5037 5.61259 11.6422 5.54593 11.6648 5.50325C12.0286 5.50415 11.9453 5.46384 11.6945 5.44748C11.7047 5.41979 11.6905 5.38987 11.7252 5.3631C11.737 5.35388 11.8424 5.35994 11.8538 5.35878C12.0323 5.34096 11.7882 5.32892 11.7787 5.32294C11.6857 5.25814 11.8706 5.20535 11.6899 5.14351C11.6834 5.14132 11.4306 5.13776 11.6152 5.12123C11.6279 5.12016 11.7429 5.14058 11.7518 5.1115C11.7607 5.0824 11.8962 5.02755 11.779 4.98716C11.7509 4.97739 11.5457 4.95267 11.706 4.93282C11.7278 4.93018 11.8002 4.93307 11.8406 4.92926C11.9691 4.91692 11.7136 4.91019 11.9307 4.89569C12.1477 4.88119 12.3102 4.85103 12.1605 4.81029C12.1561 4.809 11.9536 4.79935 11.9568 4.78654C11.9621 4.76609 12.0043 4.73707 12.003 4.71571C12.0023 4.70549 11.8766 4.71203 11.8743 4.71026C11.8038 4.64152 11.9159 4.59259 11.9645 4.51895C11.9737 4.50545 11.8023 4.46666 11.9378 4.44053C12.0862 4.41183 12.7034 4.44132 12.5563 4.37536C12.4975 4.34876 11.7145 4.31508 12.1202 4.26727C12.0196 4.17455 12.2273 4.0888 12.0837 3.99582C12.0774 3.99164 11.8588 3.97841 11.8618 3.96858C11.8666 3.95399 11.9688 3.94598 11.9755 3.93556C12.0063 3.8919 11.9189 3.85194 11.9325 3.80984C11.9374 3.79386 12.043 3.79945 12.0489 3.78038C12.0547 3.76134 11.9157 3.74863 11.9828 3.72281C12.034 3.70332 12.3183 3.68382 12.3514 3.65794C12.071 3.65695 12.0768 3.63918 12.0028 3.60759C11.9884 3.60151 11.8908 3.60803 11.879 3.60515C11.8287 3.59346 11.9096 3.58264 11.8549 3.57154C11.8417 3.56884 11.7459 3.56871 11.7298 3.56651C11.5888 3.54773 11.8042 3.51681 11.8417 3.51149C11.9841 3.49114 11.8596 3.48162 11.9156 3.46601C11.9717 3.45042 12.0418 3.47373 12.0759 3.45552C12.1462 3.41777 12.1308 3.36927 12.1352 3.33093C12.1363 3.31564 12.0085 3.32607 12.0057 3.32388C11.9733 3.29225 12.1093 3.26027 11.8547 3.24273C12.513 3.2208 11.7908 3.22366 11.9226 3.17844C11.9333 3.17488 12.2446 3.17035 12.2903 3.18402C12.3359 3.1977 12.2386 3.21843 12.3099 3.2374C12.3266 3.24189 12.6183 3.26763 12.636 3.27114C12.7741 3.29864 12.3089 3.30254 12.2833 3.30399C12.0076 3.32049 12.3218 3.35194 12.3436 3.36022C12.4431 3.39811 12.3776 3.43029 12.4487 3.46198C12.4946 3.4827 12.7993 3.48473 12.79 3.501C12.7591 3.5551 12.334 3.57398 12.7026 3.62496C12.7812 3.63589 13.1143 3.62503 12.8524 3.66419C12.8359 3.66665 12.5963 3.69573 12.7479 3.71253C12.767 3.71464 12.864 3.71458 12.8722 3.71736C12.9249 3.73601 12.8476 3.74845 12.8846 3.76876C12.9217 3.78908 12.9769 3.8135 12.944 3.8367C12.9243 3.85068 12.7434 3.86861 12.6991 3.8753C12.5716 3.8942 12.7807 3.91446 12.6263 3.92616C12.471 3.93796 12.2353 3.91489 12.135 3.94584C12.3872 3.94699 12.646 3.94962 12.8996 3.95146C12.8908 4.0193 12.8092 4.08604 12.8204 4.1541C12.822 4.16253 12.9576 4.15391 12.9628 4.16295C12.9844 4.20111 12.8877 4.23445 12.9262 4.27402C12.9565 4.30466 13.1001 4.33825 13.1362 4.37028C12.8476 4.38985 12.9456 4.43738 12.9192 4.47191C12.9101 4.48401 12.8331 4.4832 12.8079 4.4918C12.7149 4.52426 12.9699 4.50905 13.0101 4.51795C13.1813 4.55612 12.6041 4.55938 12.6184 4.60439C12.619 4.60677 12.9266 4.63591 12.9458 4.63993C13.0707 4.66544 12.8387 4.64415 12.816 4.66011C12.7744 4.68926 12.7009 4.70951 12.7911 4.7437C12.8178 4.75367 13.0095 4.77759 12.8612 4.79695C12.8418 4.7995 12.7401 4.79809 12.7341 4.80014C12.6348 4.83725 12.9544 4.83823 13.0626 4.85943C13.1708 4.88064 12.9502 4.9134 12.8866 4.92007C12.7222 4.93751 12.8164 4.9067 12.8002 4.90576C12.6082 4.89466 12.6412 4.91855 12.625 4.93681C12.3117 4.93945 12.3305 4.96498 12.6094 4.95573C12.6399 4.95468 12.6107 4.94047 12.625 4.93681C12.9324 4.95283 12.9718 4.98089 12.6845 5.01188C12.5499 5.02638 12.3929 5.01267 12.4503 5.05674C12.4762 5.07673 12.692 5.06901 12.7508 5.08665C12.885 5.12697 12.6837 5.17936 12.7154 5.22093C12.727 5.23602 12.845 5.22132 12.857 5.23163C12.889 5.25899 12.8004 5.28312 12.8458 5.3106C12.8501 5.3131 12.9737 5.30701 12.9753 5.31556C12.9896 5.38034 12.9104 5.43675 12.9083 5.50438C12.9072 5.53706 12.9754 5.59549 12.9617 5.62935C12.9387 5.68802 12.7589 5.7602 12.8026 5.81033C12.8306 5.84302 12.9542 5.83585 13.0384 5.84985C13.2017 5.87689 12.9092 5.92473 12.8639 5.93118C12.8624 5.93137 12.8333 5.90324 12.7698 5.91825C12.6376 5.92698 12.8634 5.93086 12.8639 5.93118C12.8347 5.9354 12.8066 5.99161 12.8302 6.00276C12.8432 6.00883 12.9603 6.00544 12.9648 6.0086C13.0697 6.08374 13.0994 6.15902 13.0447 6.23523C13.0423 6.23657 12.9113 6.23455 12.9073 6.23771C12.8491 6.28183 13.0094 6.31008 13.1045 6.34647C13.1997 6.38286 13.1678 6.41171 12.9429 6.43325C12.9712 6.4607 12.8717 6.50009 12.8114 6.52275C12.751 6.54542 13.0061 6.54858 13.0112 6.55057C13.1726 6.61277 13.0266 6.64873 13.0038 6.71326C12.9926 6.74394 13.0296 6.80479 13.0575 6.83801C13.08 6.86427 13.0202 6.88008 13.0584 6.90427C13.0635 6.90754 13.1771 6.90424 13.1814 6.90523C13.3173 6.93223 13.0397 6.91926 12.9901 6.92483C12.8098 6.94504 12.7137 6.95752 12.7986 6.9921C12.818 7.00007 13.2178 7.0233 13.2411 7.03783C13.2708 7.05673 13.1275 7.0496 13.1622 7.06939C13.1651 7.07108 13.2535 7.07073 13.2496 7.08294C13.2326 7.13963 13.1812 7.20144 13.1901 7.26036C13.1909 7.2684 13.3311 7.25809 13.3347 7.26971C13.3513 7.32427 13.3461 7.38407 13.2805 7.43723C13.2639 7.45031 13.1657 7.44211 13.1366 7.44495C12.9602 7.46238 13.2165 7.48711 13.2214 7.49119C13.3445 7.58851 13.1126 7.66299 13.223 7.76218C13.2295 7.76758 13.5042 7.80914 13.2686 7.82768C13.2529 7.82895 13.0119 7.84729 13.1767 7.86352C13.187 7.86452 13.3111 7.85309 13.2984 7.87304C13.2858 7.89299 13.3687 7.9251 13.2323 7.95252C13.1894 7.9612 12.9489 7.98172 13.1406 8.00761C13.154 8.0093 13.5874 8.04928 13.2884 8.06355C13.2392 8.06586 12.9227 8.06344 13.0849 8.09435C13.1164 8.10025 13.187 8.08953 13.2311 8.10509C13.299 8.12893 13.2142 8.16051 13.3552 8.18981C13.3802 8.19492 13.595 8.21667 13.4319 8.23412C13.4064 8.23685 13.3008 8.23166 13.2889 8.24088C13.2322 8.2847 13.3029 8.33058 13.2298 8.37507C13.2041 8.39083 13.0333 8.38277 12.9875 8.3992C12.9418 8.41563 12.8978 8.44873 12.9758 8.46592C13.0539 8.48311 13.3261 8.46433 13.3479 8.49009C13.4425 8.60207 13.2828 8.713 13.2594 8.82482C13.256 8.8414 13.3534 8.82765 13.3552 8.85209C13.3625 8.9422 13.4538 9.09777 13.2468 9.17595C13.081 9.2386 12.9548 9.15976 12.8874 9.20763C12.8552 9.23074 13.1717 9.25573 13.1816 9.2613C13.2828 9.31578 13.1426 9.35364 13.1857 9.40267C13.1946 9.4128 13.3228 9.40287 13.329 9.41149C13.3513 9.44092 13.294 9.47186 13.3045 9.49998C13.3095 9.5126 13.4075 9.51028 13.3999 9.52189C13.3829 9.54967 13.3417 9.57424 13.2499 9.60132C13.2416 9.60379 13.1197 9.58714 13.1152 9.6077C13.1082 9.64097 13.0176 9.68226 13.1111 9.72053C13.1393 9.73189 13.3632 9.73233 13.2085 9.75675C13.1762 9.76187 12.9074 9.75533 13.1397 9.78377C13.1783 9.78855 13.4916 9.83632 13.2897 9.85976C13.2365 9.86595 13.0165 9.88173 13.0511 9.89539C13.0566 9.89724 13.1769 9.88982 13.1886 9.90114C13.2278 9.94102 13.215 9.98282 13.2527 10.0238C13.263 10.0347 13.3874 10.0184 13.3988 10.0347C13.4302 10.0796 13.3986 10.1356 13.3596 10.1794C13.345 10.1956 13.2419 10.1844 13.2307 10.1856C13.0482 10.2045 13.2945 10.2157 13.3089 10.222C13.3949 10.261 13.2792 10.2908 13.3098 10.3268C13.3179 10.3367 13.4354 10.3296 13.4458 10.3316C13.5482 10.3521 13.3373 10.3369 13.314 10.3498C13.2482 10.3862 13.2576 10.4267 13.2726 10.4635C13.2783 10.477 13.4145 10.4618 13.418 10.474C13.4415 10.5457 13.4285 10.6203 13.3534 10.6903C13.339 10.7035 13.2341 10.6952 13.2102 10.6979C13.0426 10.7169 13.2712 10.7446 13.293 10.751C13.3924 10.7801 13.2996 10.7913 13.3169 10.817C13.4031 10.9423 13.3417 11.097 13.3038 11.2152C13.2549 11.3693 13.1552 11.4889 13.1811 11.6358C13.1826 11.6452 13.3221 11.6358 13.3252 11.6438C13.3588 11.7478 13.3043 11.8501 13.3446 11.9542C13.3477 11.9628 13.4799 11.9505 13.4892 11.9642C13.5094 11.9923 13.5022 12.028 13.4599 12.0564C13.4396 12.0703 13.3261 12.0517 13.308 12.0656C13.2654 12.0982 13.256 12.133 13.2772 12.1664C13.2865 12.1807 13.4218 12.1592 13.4233 12.1777C13.4367 12.3036 13.46 12.4272 13.2849 12.5544C13.2729 12.5631 12.998 12.5707 13.0507 12.5893C13.127 12.5907 13.2167 12.5906 13.2983 12.5912C13.3422 12.7745 13.2469 12.9558 13.2322 13.1396C13.2316 13.1473 13.3772 13.1339 13.3768 13.1489C13.3747 13.2357 13.415 13.32 13.2703 13.4088C13.2561 13.4177 12.9999 13.4131 13.0386 13.4391C13.0457 13.4437 13.0799 13.4828 13.1355 13.4929C13.1439 13.4943 13.2635 13.4871 13.267 13.4997C13.2851 13.573 13.2578 13.6497 13.1847 13.7228C13.1727 13.7346 13.0454 13.722 13.0357 13.7304C12.9681 13.79 13.0649 13.8549 12.9493 13.9118C12.8714 13.95 12.6513 13.9359 12.4346 13.9561C12.404 13.959 12.3991 13.9826 12.2731 13.9838C11.956 13.9869 11.6089 13.9755 11.2709 13.9802C11.1981 13.9812 11.2765 14.0128 11.1006 13.9941C11.0889 13.9928 11.0305 13.9699 10.9708 13.9642C10.9296 13.9603 10.8013 13.9674 10.7485 13.9593C10.6958 13.9513 10.8033 13.9425 10.7412 13.9292C10.6784 13.9159 10.5325 13.9218 10.5153 13.8952ZM12.5417 6.6248C12.4192 6.64579 12.8678 6.64889 12.7605 6.62619C12.7548 6.62509 12.5477 6.62372 12.5417 6.6248ZM12.4708 4.08566C12.2729 4.11309 12.5639 4.13187 12.7167 4.11251C12.8694 4.09316 12.5308 4.0773 12.4708 4.08566ZM12.3263 3.80116C12.1703 3.83322 12.8065 3.83827 12.6779 3.80393C12.6706 3.80193 12.3354 3.79928 12.3263 3.80116ZM12.3729 13.8622C12.3669 13.8624 12.3611 13.8794 12.367 13.8798C12.5095 13.8889 12.521 13.8549 12.3729 13.8622ZM12.1691 3.51884C12.083 3.52885 12.1823 3.55767 12.2894 3.54523C12.3754 3.53522 12.2761 3.50637 12.1691 3.51884ZM12.0629 7.71954C12.0562 7.71988 12.0502 7.73204 12.0879 7.7318C12.2097 7.73097 12.1753 7.71404 12.0629 7.71954ZM12.1617 3.039C12.1378 3.1099 11.6123 3.15288 11.6716 3.07568C11.6823 3.0617 11.8391 3.10581 11.8865 3.08802C11.9728 3.05546 11.6429 3.03384 11.8197 3.00061C11.8521 2.99459 12.1643 3.03496 12.1625 3.03913C12.1622 3.03909 12.162 3.03905 12.1617 3.039ZM12.0028 6.63689C11.9969 6.63731 11.9912 6.65415 11.9971 6.65456C12.1396 6.66368 12.151 6.62975 12.0028 6.63689ZM11.7855 8.4295C11.7728 8.43043 11.761 8.46951 11.7726 8.47079C12.0055 8.49118 12.0301 8.41215 11.7855 8.4295ZM11.6745 5.50258C11.5312 5.4842 11.5143 5.46222 11.6943 5.44757C11.6847 5.46583 11.6833 5.48422 11.6745 5.50258Z" fill="black"/>
<path d="M8.00728 4.89298C8.01327 4.83172 8.08689 4.81719 8.16094 4.82425C8.18401 4.82633 8.23492 4.88787 8.25338 4.89184C8.28941 4.89953 8.27504 4.85875 8.31509 4.87079C8.32864 4.87505 8.41192 4.96989 8.42408 4.97232C8.49011 4.98501 8.49266 4.93709 8.53861 4.929C8.76509 4.88933 8.92933 4.79195 9.10462 4.69782C9.16234 4.6667 9.29715 4.69353 9.30768 4.61231C9.30883 4.60275 9.22747 4.52777 9.22205 4.52031C9.1394 4.4057 9.29189 4.56882 9.32329 4.57935C9.4475 4.62072 9.50075 4.58187 9.51044 4.51184C9.51433 4.48182 9.34206 4.34356 9.44629 4.41363C9.45336 4.41833 9.53207 4.50565 9.54557 4.50985C9.57603 4.51922 9.5812 4.48437 9.59595 4.48278C9.6248 4.48012 9.62657 4.47668 9.64242 4.46273C9.6648 4.44438 9.73029 4.46142 9.73333 4.42075C9.73373 4.41183 9.64246 4.33291 9.63542 4.31099C9.62841 4.28908 9.65532 4.2766 9.68202 4.29002C9.70873 4.30345 9.77279 4.37316 9.7893 4.38732C9.92836 4.50704 9.77193 4.30504 9.77043 4.29768C9.74837 4.16871 9.89629 4.22497 9.94618 4.17451C9.98383 4.13598 9.99085 4.06155 10.0317 4.02993C10.0807 3.99258 10.1634 4.0021 10.1975 3.95223C10.2011 3.94706 10.0959 3.8522 10.1002 3.84569C10.146 3.7766 10.214 3.73046 10.3387 3.74081C10.3513 3.74194 10.4318 3.83717 10.4496 3.84355C10.5569 3.88066 10.7858 3.99857 10.4242 3.59525C10.4629 3.58642 10.5072 3.573 10.6055 3.62884C10.6689 3.66475 10.7512 3.77376 10.7272 3.71609C10.7219 3.70319 10.6332 3.62432 10.6316 3.61132C10.6249 3.55666 10.6783 3.5577 10.6588 3.49067C10.6546 3.47684 10.5782 3.40306 10.566 3.38817C10.468 3.26717 10.6681 3.42908 10.6855 3.43806C10.8153 3.5044 10.7999 3.44261 10.8319 3.41542C10.8393 3.40915 10.7304 3.3164 10.7339 3.30675C10.7537 3.25803 10.7979 3.23121 10.8762 3.24242C10.8938 3.24516 10.9729 3.33795 10.9857 3.34365C11.0413 3.36775 10.8825 3.20198 10.9326 3.22197C10.943 3.22597 11.0148 3.30132 11.0234 3.30882C11.1593 3.42656 10.9875 3.23899 10.9859 3.23268C10.9612 3.14895 11.1677 3.31766 11.1696 3.26257C11.1697 3.25579 11.0689 3.17042 11.0747 3.15705C11.1129 3.06745 11.2061 3.02543 11.3438 3.03661C11.3651 3.03823 11.428 3.11516 11.4372 3.12316C11.582 3.24775 11.4081 3.06078 11.4045 3.05078C11.3809 2.97656 11.5558 3.10425 11.3581 2.87214C11.5039 2.84601 11.5237 2.69447 11.6802 2.68017C11.7904 2.44929 12.0889 2.56991 12.3198 2.68017C12.3233 2.71871 12.3185 2.76554 12.3015 2.82458C12.3006 2.82816 12.2093 2.91461 12.208 2.92137C12.1905 3.00373 12.3224 2.85938 12.5128 2.71193C12.5606 2.67493 12.3731 2.89533 12.3596 2.91173C12.3099 2.97212 12.1721 3.09883 12.1633 3.11128C12.0942 3.20975 12.529 2.77013 12.549 2.78982C12.5489 2.79117 12.4658 2.86904 12.4595 2.87871C12.4395 2.909 12.4766 2.88215 12.454 2.91491C12.4014 2.99059 12.1931 3.20717 12.3345 3.10121C12.3527 3.0874 12.5973 2.83597 12.6033 2.86539C12.6055 2.87733 12.641 2.90432 12.6337 2.92915C12.6264 2.95395 12.5404 3.02787 12.5376 3.03195C12.4555 3.1612 12.4028 3.19607 12.2581 3.36434C12.114 3.53202 12.4825 3.15697 12.5288 3.12029C12.575 3.08373 12.5051 3.1882 12.479 3.22276C12.453 3.25733 12.3969 3.30282 12.3835 3.32376C12.2964 3.4609 12.579 3.1502 12.6463 3.09944C12.8054 2.97916 12.5448 3.27001 12.5356 3.31482C12.5331 3.32693 12.592 3.2602 12.6022 3.25862C12.6416 3.25317 12.5658 3.34941 12.664 3.28985C12.68 3.28016 12.8614 3.13001 12.7498 3.26177C12.7337 3.28074 12.6609 3.34538 12.6528 3.368C12.6405 3.40191 12.6449 3.43641 12.6795 3.42506C12.7051 3.41665 12.8085 3.2936 12.7841 3.33957C12.7732 3.36007 12.6981 3.41741 12.6831 3.4504C12.6681 3.48334 12.694 3.50336 12.705 3.5098C12.716 3.51618 12.7971 3.42553 12.8036 3.42045C12.841 3.39157 12.8991 3.36688 12.9005 3.36846C12.9855 3.43248 12.9095 3.64595 13.0299 3.67058C13.0393 3.67264 13.126 3.57829 13.1284 3.57767C13.1858 3.55922 12.9297 3.78462 12.8627 3.87883C13.0445 3.69309 13.0193 3.7344 13.0531 3.72798C13.0696 3.72473 13.1372 3.64997 13.1451 3.64329C13.263 3.54503 13.1302 3.69146 13.1034 3.72177C13.0048 3.83332 13.136 3.71627 13.0702 3.79091C13.005 3.86502 12.8915 3.95816 12.906 3.97C12.9754 3.90791 13.1376 3.72623 13.1754 3.70837C13.3185 3.6407 13.2541 3.84598 13.2704 3.89032C13.2867 3.93459 13.3086 3.93222 13.3024 3.97363C13.2913 4.04848 13.4072 3.90926 13.4853 3.87066C13.5635 3.83212 13.2401 4.1363 13.1755 4.20661C13.1108 4.27685 13.1833 4.21049 13.1497 4.25104C13.1161 4.29157 13.0627 4.32993 13.057 4.35201C13.0513 4.37408 13.1936 4.27644 13.267 4.2088C13.4226 4.06547 13.5693 3.89856 13.5358 3.97529C13.5338 3.9798 13.4473 4.05828 13.4437 4.07138C13.418 4.17271 13.4533 4.21592 13.4349 4.30986C13.4322 4.32291 13.3358 4.41006 13.3332 4.41869C13.3059 4.50888 13.4495 4.34285 13.6386 4.18815C13.406 4.4131 13.2755 4.56263 13.298 4.58787C13.3115 4.60312 13.409 4.50071 13.4887 4.43956C13.5127 4.42111 13.4542 4.49989 13.5031 4.45473C13.6628 4.30717 13.8252 4.12561 13.7813 4.21872C13.7792 4.22305 13.6916 4.30371 13.6903 4.31254C13.6811 4.37 13.8447 4.21219 13.8902 4.21881C13.9259 4.22399 13.8643 4.35834 13.8716 4.39756C13.6139 4.65433 13.6948 4.61741 13.8811 4.44895C13.8889 4.47132 13.9153 4.47761 13.9053 4.51673C13.902 4.53012 13.8242 4.6013 13.8168 4.60998C13.7003 4.74595 13.8794 4.57995 13.8894 4.57644C13.9905 4.54602 13.8886 4.70561 14.0501 4.61152C14.0559 4.60811 14.2365 4.43135 14.1151 4.57085C14.1067 4.58042 14.0142 4.65059 14.0238 4.67274C14.0334 4.69492 13.9675 4.82063 14.0723 4.75985C14.0976 4.74525 14.2562 4.61367 14.1536 4.73783C14.1397 4.75467 14.0869 4.80434 14.0604 4.83494C13.9763 4.93255 14.1606 4.7556 14.015 4.91696C13.8695 5.07831 13.771 5.20967 13.8991 5.12602C13.9029 5.12365 14.0513 4.98575 14.056 4.995C14.0635 5.00989 14.0495 5.05555 14.062 5.06627C14.0681 5.07134 14.1535 4.97888 14.156 4.97822C14.2434 4.9659 14.1908 5.07184 14.1966 5.1464C14.1974 5.16024 14.3398 5.06018 14.2582 5.17027C14.169 5.29084 13.7165 5.71118 13.8564 5.64318C13.9125 5.61611 14.4846 5.08079 14.2238 5.39374C14.3454 5.37323 14.2454 5.56682 14.3976 5.51603C14.4044 5.51382 14.5661 5.3665 14.5694 5.37397C14.5739 5.38535 14.5061 5.46194 14.507 5.47238C14.5091 5.51795 14.5927 5.47795 14.606 5.51053C14.6112 5.52274 14.5335 5.59437 14.5397 5.60894C14.546 5.62344 14.6513 5.53203 14.6179 5.5936C14.5923 5.64044 14.4019 5.85208 14.3926 5.88962C14.5914 5.69189 14.597 5.70567 14.6666 5.67057C14.6801 5.66373 14.7455 5.59117 14.7555 5.58437C14.7974 5.55518 14.7461 5.61827 14.7909 5.58561C14.8017 5.57779 14.8694 5.51015 14.8821 5.49993C14.992 5.41045 14.8566 5.57963 14.833 5.60904C14.7434 5.72086 14.8366 5.63799 14.8055 5.68616C14.7743 5.73432 14.712 5.77118 14.6979 5.80518C14.6687 5.87554 14.7061 5.89106 14.7239 5.91508C14.7314 5.92425 14.8161 5.82817 14.8193 5.82739C14.8595 5.82172 14.7808 5.9353 14.9704 5.76484C14.5168 6.2423 15.0259 5.73009 14.9574 5.84794C14.9518 5.85742 14.7341 6.08002 14.6944 6.10488C14.6546 6.12971 14.7121 6.04959 14.6514 6.08962C14.6371 6.09899 14.4168 6.29123 14.4024 6.30181C14.2897 6.38446 14.6166 6.05338 14.6339 6.03452C14.8198 5.83054 14.5805 6.03561 14.5606 6.04645C14.4696 6.09614 14.4983 6.03232 14.4308 6.06526C14.387 6.08642 14.1704 6.30079 14.1681 6.28532C14.1604 6.23401 14.4507 5.92312 14.1623 6.15594C14.1007 6.20557 13.8711 6.44701 14.035 6.24045C14.0453 6.22744 14.1989 6.04216 14.0825 6.14016C14.0679 6.15252 13.9993 6.22119 13.992 6.22544C13.9445 6.25256 13.9924 6.1911 13.9551 6.2062C13.9179 6.22131 13.8655 6.24703 13.8761 6.2111C13.8824 6.18955 14.0005 6.05189 14.0282 6.01693C14.1081 5.91644 13.9492 6.05326 14.052 5.93766C14.1553 5.82146 14.3346 5.66735 14.3886 5.57955C14.2097 5.75724 14.0252 5.93884 13.8449 6.11717C13.8142 6.07389 13.8354 5.97982 13.7904 5.95058C13.7847 5.94713 13.6935 6.0477 13.6848 6.04648C13.6488 6.04089 13.699 5.95437 13.6502 5.96C13.612 5.96472 13.4922 6.0479 13.4491 6.056C13.6425 5.84128 13.5473 5.88462 13.5471 5.84714C13.547 5.8341 13.6019 5.78004 13.615 5.75757C13.6631 5.67411 13.491 5.86272 13.4578 5.88625C13.3159 5.98654 13.7222 5.57661 13.6876 5.56215C13.6859 5.56125 13.4525 5.76291 13.4367 5.77427C13.3345 5.8487 13.5101 5.69624 13.5175 5.67146C13.531 5.62619 13.5719 5.56319 13.4895 5.60826C13.4652 5.62169 13.3166 5.74425 13.4109 5.6288C13.4232 5.61368 13.4959 5.54254 13.499 5.53721C13.549 5.44677 13.3225 5.67219 13.2344 5.73714C13.1463 5.80208 13.2844 5.62824 13.3257 5.57964C13.4325 5.45384 13.3827 5.53723 13.3947 5.52634C13.5365 5.39658 13.5001 5.40693 13.5016 5.38549C13.7217 5.1625 13.6945 5.16188 13.5023 5.36416C13.4813 5.38628 13.5097 5.37337 13.5016 5.38549C13.2755 5.59412 13.2324 5.60666 13.4186 5.38663C13.5059 5.28351 13.6244 5.17999 13.5597 5.19656C13.5305 5.20398 13.3822 5.36074 13.3309 5.39271C13.2141 5.46561 13.3278 5.29473 13.2827 5.29448C13.2663 5.29439 13.1908 5.38591 13.1768 5.38872C13.1392 5.39646 13.1887 5.32064 13.1416 5.33775C13.1372 5.33941 13.0531 5.43014 13.0474 5.42659C13.0019 5.40141 13.0271 5.31465 12.9917 5.2762C12.9746 5.25767 12.8945 5.27401 12.8858 5.24585C12.8701 5.19756 12.9578 5.03108 12.8996 5.03462C12.862 5.03655 12.7785 5.12789 12.7112 5.17982C12.581 5.28055 12.7618 5.04762 12.7903 5.01207C12.7912 5.01091 12.8272 5.00564 12.8639 4.95257C12.9526 4.8543 12.7909 5.01184 12.7903 5.01207C12.8087 4.98908 12.7979 4.93858 12.7751 4.9492C12.7626 4.95503 12.6816 5.03971 12.6767 5.04119C12.5616 5.07433 12.4995 5.05432 12.4966 4.97402C12.4976 4.97161 12.5913 4.88006 12.5924 4.87556C12.6095 4.8103 12.4808 4.90823 12.3936 4.95568C12.3065 5.0031 12.3133 4.96483 12.4606 4.79402C12.4256 4.79907 12.4745 4.70727 12.5048 4.65224C12.5351 4.59721 12.353 4.77584 12.3483 4.77832C12.2003 4.85851 12.2839 4.73567 12.2648 4.6844C12.256 4.65972 12.1966 4.65269 12.1588 4.65429C12.1286 4.65586 12.1622 4.60497 12.122 4.6188C12.1166 4.62062 12.0381 4.70273 12.0345 4.70528C11.9237 4.78663 12.1271 4.59739 12.1591 4.55929C12.2756 4.42076 12.3367 4.34604 12.2578 4.38717C12.2397 4.39656 11.9444 4.66656 11.9199 4.67516C11.8886 4.68583 11.9939 4.5884 11.9585 4.60215C11.9556 4.60323 11.8933 4.66593 11.8894 4.65651C11.8704 4.61362 11.8731 4.54353 11.8347 4.51766C11.8297 4.51389 11.7362 4.61866 11.7273 4.61484C11.6858 4.59684 11.6568 4.56055 11.6742 4.48515C11.6788 4.46628 11.7527 4.40133 11.7718 4.37917C11.887 4.24494 11.6923 4.41267 11.6866 4.41389C11.5465 4.44789 11.6698 4.24327 11.5376 4.26725C11.5301 4.26889 11.3132 4.44048 11.4697 4.26376C11.4801 4.25198 11.6405 4.07152 11.5151 4.17921C11.5073 4.18596 11.4258 4.27995 11.4238 4.26012C11.4219 4.24031 11.3458 4.2814 11.4272 4.17003C11.4529 4.13492 11.6117 3.95369 11.462 4.07511C11.4517 4.08365 11.1234 4.36832 11.327 4.14909C11.3606 4.11302 11.5857 3.89057 11.4541 3.98844C11.4286 4.00746 11.3846 4.06322 11.3449 4.0859C11.2839 4.12093 11.3266 4.04378 11.2109 4.12747C11.1905 4.14233 11.0267 4.28235 11.1325 4.15755C11.1491 4.13801 11.2266 4.06614 11.2299 4.05275C11.2461 3.98874 11.1711 4.01369 11.1986 3.93773C11.2081 3.91097 11.3333 3.7946 11.3567 3.75328C11.3801 3.71196 11.3931 3.66279 11.3286 3.7086C11.264 3.75443 11.0818 3.95715 11.0523 3.95851C11.0485 3.95868 11.0449 3.95869 11.0414 3.95856H12.9586C12.9542 4.07266 12.7886 4.02458 12.7134 4.06774C12.7019 4.07432 12.7783 4.13569 12.7662 4.15033C12.7222 4.2046 12.7019 4.35403 12.5129 4.25033C12.3615 4.16728 12.3153 4.03504 12.2415 4.01345C12.2061 4.0033 12.4163 4.24071 12.4203 4.25079C12.4621 4.35207 12.3424 4.27359 12.346 4.33075C12.3468 4.34259 12.4429 4.42787 12.4426 4.43694C12.4423 4.46872 12.3849 4.44511 12.377 4.46786C12.3736 4.47827 12.4442 4.54628 12.4325 4.54726C12.4053 4.55042 12.3628 4.5347 12.2831 4.48455C12.2758 4.47998 12.1988 4.38473 12.1843 4.39274C12.1613 4.40594 12.0747 4.36441 12.1199 4.45143C12.1336 4.47753 12.2917 4.63609 12.1691 4.54007C12.1434 4.52002 11.9569 4.32635 12.1056 4.50613C12.1303 4.53603 12.3258 4.78364 12.1702 4.65362C12.1293 4.6194 11.9651 4.47245 11.9821 4.50434C11.985 4.50925 12.0741 4.59025 12.0762 4.60471C12.0822 4.65422 12.0503 4.66795 12.0546 4.71693C12.0559 4.73018 12.1528 4.80929 12.152 4.82623C12.1497 4.87293 12.0968 4.88106 12.0453 4.87744C12.0262 4.87593 11.9594 4.79694 11.9508 4.78965C11.8115 4.67094 11.9795 4.8512 11.9863 4.86478C12.0258 4.94689 11.9277 4.8813 11.9298 4.92258C11.9301 4.93375 12.017 5.01295 12.0233 5.02144C12.0845 5.10497 11.9437 4.94751 11.9201 4.93815C11.8538 4.91144 11.8383 4.94022 11.8289 4.97089C11.8255 4.98228 11.9301 5.07029 11.926 5.07939C11.9034 5.13512 11.8535 5.16659 11.7623 5.1517C11.7449 5.14872 11.6753 5.07005 11.6569 5.05462C11.528 4.94647 11.6745 5.12321 11.6864 5.14209C11.7409 5.22822 11.6692 5.16881 11.6674 5.19503C11.66 5.3243 11.5322 5.36525 11.4409 5.40292C11.3223 5.45245 11.1865 5.44713 11.1247 5.5456C11.1207 5.55177 11.2244 5.64527 11.2222 5.65185C11.1893 5.73233 11.095 5.7496 11.0666 5.8349C11.0641 5.84173 11.1644 5.92851 11.1635 5.94261C11.1624 5.97218 11.1378 5.98654 11.0925 5.9722C11.0705 5.96539 11.0004 5.875 10.98 5.86977C10.9322 5.85743 10.9065 5.86979 10.9032 5.903C10.9021 5.91734 11.0094 6.00127 11.0004 6.01246C10.9413 6.0906 10.8903 6.1745 10.6971 6.12004C10.6838 6.11629 10.4853 5.9261 10.5124 5.97348C10.5656 6.02819 10.6291 6.0916 10.6864 6.14959C10.6175 6.28059 10.4512 6.31214 10.3406 6.40195C10.336 6.40576 10.4462 6.50144 10.4378 6.50934C10.3889 6.55517 10.3714 6.62968 10.2207 6.57576C10.2058 6.57055 10.0271 6.38691 10.0404 6.42847C10.0429 6.43597 10.0457 6.48146 10.0795 6.52631C10.0847 6.53299 10.1732 6.61366 10.1687 6.623C10.1416 6.67578 10.0805 6.69834 9.98894 6.68654C9.974 6.68447 9.8908 6.58757 9.87938 6.58531C9.79906 6.57002 9.83215 6.67384 9.71932 6.62315C9.64347 6.58889 9.4955 6.42552 9.33122 6.28334C9.30804 6.26329 9.29174 6.27274 9.20192 6.18425C8.97603 5.96178 8.73679 5.71006 8.49527 5.47367C8.44326 5.42274 8.48145 5.49542 8.36728 5.36083C8.35967 5.35179 8.3309 5.29801 8.29178 5.25274C8.26475 5.22142 8.17022 5.13462 8.13725 5.0929C8.10432 5.05122 8.18513 5.12241 8.14851 5.07129C8.11134 5.01962 8.00501 4.91966 8.00728 4.89298ZM12.6398 4.40586C12.715 4.30779 12.3961 4.62334 12.4843 4.55982C12.489 4.55638 12.6362 4.4107 12.6398 4.40586ZM14.0749 5.74074C14.1999 5.58585 13.9839 5.78135 13.8864 5.89998C13.789 6.01848 14.0371 5.78772 14.0749 5.74074ZM14.3322 5.79377C14.4251 5.66595 13.9725 6.11305 14.0821 6.04085C14.0884 6.0368 14.3269 5.8012 14.3322 5.79377ZM9.33883 6.18846C9.33446 6.18441 9.3211 6.18956 9.32505 6.19395C9.42088 6.29964 9.44753 6.28927 9.33883 6.18846ZM14.5975 5.83654C14.6528 5.77023 14.5669 5.82475 14.498 5.90721C14.4426 5.97354 14.5286 5.91904 14.5975 5.83654ZM12.3813 3.47015C12.3858 3.46524 12.3834 3.45435 12.3568 3.4812C12.2712 3.56772 12.3047 3.55267 12.3813 3.47015ZM14.8644 6.09309C14.8426 6.03749 15.1908 5.64244 15.191 5.72648C15.191 5.74169 15.056 5.82855 15.0322 5.87175C14.989 5.95055 15.2341 5.72902 15.1272 5.87217C15.1076 5.89834 14.8648 6.09708 14.8638 6.09354C14.864 6.09339 14.8642 6.09324 14.8644 6.09309ZM13.0143 4.01822C13.0182 4.0138 13.013 4.00063 13.0086 4.00457C12.903 4.10031 12.9134 4.12689 13.0143 4.01822ZM12.1902 2.88675C12.1986 2.8773 12.1856 2.84762 12.1767 2.85516C12.0009 3.00874 12.0266 3.06923 12.1902 2.88675ZM13.8651 4.40479C13.9765 4.31349 14.0004 4.31355 13.8811 4.44878C13.8779 4.43206 13.8689 4.42104 13.8651 4.40479Z" fill="black"/>
</svg>
